<svg width="18" height="18" viewBox="0 0 18 18" fill="none" xmlns="http://www.w3.org/2000/svg">
<path fill-rule="evenodd" clip-rule="evenodd" d="M4.47222 0.887691C4.71665 0.861631 4.89367 0.642358 4.86761 0.397932C4.84155 0.153506 4.62228 -0.0235149 4.37785 0.00254512L3.46887 0.0994575C3.00317 0.149106 2.62965 0.188927 2.3263 0.243926C2.01379 0.300584 1.74596 0.378033 1.49722 0.517438C1.09335 0.743773 0.758537 1.07544 0.52856 1.47709C0.386886 1.72452 0.307117 1.99153 0.247818 2.30329C0.190263 2.60587 0.147336 2.97866 0.0938249 3.44334L0.0915198 3.46336L0.00226675 4.35098C-0.0223263 4.59556 0.156007 4.81376 0.400585 4.83836C0.645163 4.86295 0.86337 4.68462 0.887963 4.44004L0.976573 3.55881C1.03227 3.07514 1.07168 2.73575 1.1223 2.46962C1.17198 2.20844 1.22744 2.04797 1.30105 1.9194C1.45088 1.65774 1.66908 1.44155 1.93241 1.29397C2.06186 1.22142 2.2231 1.16731 2.4851 1.11981C2.75261 1.07131 3.09368 1.03467 3.58005 0.982811L4.47222 0.887691ZM13.1324 0.397932C13.1063 0.642358 13.2834 0.861631 13.5278 0.887691L14.4199 0.982811C14.9063 1.03467 15.2474 1.07131 15.5149 1.11981C15.7769 1.16731 15.9381 1.22142 16.0676 1.29397C16.3309 1.44155 16.5491 1.65774 16.6989 1.9194C16.7726 2.04797 16.828 2.20844 16.8777 2.46962C16.9283 2.73575 16.9677 3.07514 17.0234 3.55881L17.112 4.44004C17.1366 4.68462 17.3548 4.86295 17.5994 4.83836C17.844 4.81376 18.0223 4.59556 17.9977 4.35098L17.9085 3.46336L17.9062 3.44334C17.8527 2.97866 17.8097 2.60587 17.7522 2.30329C17.6929 1.99153 17.6131 1.72452 17.4714 1.47709C17.2415 1.07544 16.9066 0.743773 16.5028 0.517438C16.254 0.378033 15.9862 0.300584 15.6737 0.243926C15.3703 0.188927 14.9968 0.149106 14.5311 0.0994575L13.6221 0.00254512C13.3777 -0.0235149 13.1585 0.153506 13.1324 0.397932ZM13.1324 17.6021C13.1063 17.3576 13.2834 17.1384 13.5278 17.1123L14.4199 17.0172C14.9063 16.9653 15.2474 16.9287 15.5149 16.8802C15.7769 16.8327 15.9381 16.7786 16.0676 16.706C16.3309 16.5585 16.5491 16.3423 16.6989 16.0806C16.7726 15.952 16.828 15.7916 16.8777 15.5304C16.9283 15.2642 16.9677 14.9249 17.0234 14.4412L17.112 13.56C17.1366 13.3154 17.3548 13.137 17.5994 13.1616C17.844 13.1862 18.0223 13.4044 17.9977 13.649L17.9085 14.5366L17.9062 14.5567C17.8527 15.0213 17.8097 15.3941 17.7522 15.6967C17.6929 16.0085 17.6131 16.2755 17.4714 16.5229C17.2415 16.9246 16.9066 17.2562 16.5028 17.4826C16.254 17.622 15.9862 17.6994 15.6737 17.7561C15.3704 17.8111 14.997 17.8509 14.5314 17.9005L14.5312 17.9005L14.5311 17.9005L13.6221 17.9975C13.3777 18.0235 13.1585 17.8465 13.1324 17.6021ZM4.86761 17.6021C4.89367 17.3576 4.71665 17.1384 4.47222 17.1123L3.58005 17.0172C3.09368 16.9653 2.75261 16.9287 2.4851 16.8802C2.2231 16.8327 2.06186 16.7786 1.93241 16.706C1.66908 16.5585 1.45088 16.3423 1.30105 16.0806C1.22744 15.952 1.17198 15.7916 1.1223 15.5304C1.07168 15.2642 1.03227 14.9249 0.976573 14.4412L0.887963 13.56C0.86337 13.3154 0.645163 13.137 0.400585 13.1616C0.156007 13.1862 -0.0223263 13.4044 0.00226675 13.649L0.0915198 14.5366L0.0938249 14.5567C0.147336 15.0213 0.190263 15.3941 0.247818 15.6967C0.307117 16.0085 0.386886 16.2755 0.52856 16.5229C0.758537 16.9246 1.09335 17.2562 1.49722 17.4826C1.74596 17.622 2.01379 17.6994 2.3263 17.7561C2.62958 17.8111 3.00299 17.8509 3.46854 17.9005L3.46875 17.9005L3.46887 17.9005L4.37785 17.9975C4.62228 18.0235 4.84155 17.8465 4.86761 17.6021ZM4.53793 5.56738C4.37406 5.56738 4.24121 5.70023 4.24121 5.8641V12.2653C4.24121 12.4292 4.37406 12.562 4.53793 12.562H5.92297C6.08685 12.562 6.21969 12.4292 6.21969 12.2653V5.8641C6.21969 5.70023 6.08685 5.56738 5.92297 5.56738H4.53793ZM7.81626 5.56738C7.65239 5.56738 7.51954 5.70023 7.51954 5.8641V12.2653C7.51954 12.4292 7.65239 12.562 7.81626 12.562H10.827C11.5931 12.562 12.2726 12.4188 12.8654 12.1323C13.4583 11.8459 13.918 11.4395 14.2444 10.9133C14.5708 10.387 14.734 9.77083 14.734 9.0647C14.734 8.35858 14.5708 7.74238 14.2444 7.21612C13.918 6.68986 13.4583 6.2835 12.8654 5.99705C12.2726 5.71061 11.5931 5.56738 10.827 5.56738H7.81626ZM12.186 10.4736C11.8262 10.8134 11.3466 10.9832 10.7471 10.9832H9.58704C9.53788 10.9832 9.49802 10.9434 9.49802 10.8942V7.23519C9.49802 7.18603 9.53788 7.14617 9.58704 7.14617H10.7471C11.3466 7.14617 11.8262 7.31604 12.186 7.65578C12.5523 7.99552 12.7355 8.46516 12.7355 9.0647C12.7355 9.66424 12.5523 10.1339 12.186 10.4736Z" fill="url(#paint0_linear_11881_13197)"/>
<defs>
<linearGradient id="paint0_linear_11881_13197" x1="4.32694" y1="5.99025" x2="10.5057" y2="14.971" gradientUnits="userSpaceOnUse">
<stop stop-color="#CC5CDC"/>
<stop offset="0.244792" stop-color="#7B66FF"/>
<stop offset="0.520833" stop-color="#1F8AF0"/>
<stop offset="0.760417" stop-color="#00D1FF"/>
<stop offset="1" stop-color="#3DEDD7"/>
</linearGradient>
</defs>
</svg>
