<svg width="665" height="570" fill="none" xmlns="http://www.w3.org/2000/svg">
  <ellipse cx="377.682" cy="444.983" rx="230.013" ry="122.134" fill="url(#a)" />
  <ellipse opacity=".5" cx="464.67" cy="391.88" rx="153.758" ry="81.644" fill="url(#b)" />
  <path opacity=".9" fill-rule="evenodd" clip-rule="evenodd" d="M261.794 403.778c1.214.705 3.192.703 4.403-.005l7.774-4.545c1.195-.698 1.192-1.822-.007-2.518l-5.619-3.264c-1.215-.705-3.193-.703-4.403.005l-7.775 4.545c-1.194.698-1.191 1.822.008 2.518l5.619 3.264Zm25.123.453c1.205.7 1.2 1.831-.009 2.528l-7.831 4.51c-1.213.699-3.179.697-4.387-.005l-5.627-3.27c-1.204-.7-1.2-1.831.01-2.527l7.83-4.511c1.214-.699 3.18-.696 4.388.006l5.626 3.269Zm.62 14.702c1.214.705 3.19.703 4.401-.004l7.958-4.644c1.196-.698 1.194-1.823-.006-2.519l-5.619-3.264c-1.213-.705-3.19-.704-4.401.003l-7.958 4.645c-1.196.698-1.194 1.822.006 2.519l5.619 3.264Zm18.254 10.384-2.987-1.724-6.488-3.763-1.327-.773c-1.202-.7-1.197-1.829.011-2.525l7.828-4.512c1.214-.7 3.182-.697 4.39.006l1.32.768 6.488 3.764 2.972 1.733 9.988 5.801 2.972 1.734 9.989 5.801 2.987 1.725 9.997 5.806 2.963 1.729 9.997 5.806 2.972 1.733 9.989 5.802 10.782 6.269c1.204.7 1.2 1.83-.009 2.527l-7.815 4.504c-1.212.699-3.177.698-4.386-.003l-10.786-6.256-9.982-5.816-2.987-1.724-9.988-5.802-2.972-1.733-9.989-5.802-2.987-1.724-9.997-5.807-2.963-1.728-9.982-5.816Zm85.6 49.742c1.208.702 3.174.705 4.387.006l7.831-4.511c1.209-.696 1.214-1.827.009-2.527l-5.617-3.265c-1.208-.702-3.174-.704-4.388-.005l-7.83 4.51c-1.21.697-1.214 1.828-.01 2.528l5.618 3.264Zm25.19.502c1.205.7 1.201 1.831-.009 2.528l-7.829 4.511c-1.213.699-3.179.696-4.387-.005l-5.619-3.264c-1.205-.7-1.201-1.831.008-2.528l7.83-4.511c1.213-.699 3.179-.696 4.387.006l5.619 3.263Zm.743 14.558c1.208.702 3.174.704 4.387.005l7.831-4.51c1.209-.697 1.214-1.828.009-2.528l-5.617-3.264c-1.208-.702-3.174-.705-4.388-.006l-7.83 4.511c-1.21.696-1.214 1.827-.01 2.527l5.618 3.265Zm-208.185-60.082c1.205.699 1.201 1.83-.008 2.527l-7.83 4.511c-1.213.699-3.179.697-4.387-.005l-5.619-3.264c-1.205-.699-1.201-1.83.009-2.527l7.829-4.511c1.213-.699 3.179-.697 4.387.005l5.619 3.264Zm.724 14.559c1.208.702 3.174.705 4.388.006l7.83-4.511c1.21-.696 1.214-1.827.01-2.527l-5.618-3.265c-1.208-.702-3.174-.704-4.387-.005l-7.831 4.51c-1.209.697-1.214 1.828-.009 2.528l5.617 3.264Zm25.195.507c1.205.7 1.2 1.831-.009 2.527l-7.831 4.511c-1.213.699-3.179.696-4.387-.006l-5.618-3.264c-1.204-.7-1.2-1.831.01-2.528l7.83-4.51c1.214-.699 3.18-.697 4.388.006l5.617 3.264Zm.741 14.556c1.208.702 3.174.705 4.387.006l7.829-4.511c1.21-.697 1.214-1.828.009-2.528l-5.619-3.264c-1.208-.701-3.174-.704-4.387-.005l-7.83 4.511c-1.209.697-1.213 1.828-.008 2.528l5.619 3.263Zm25.199.51c1.205.7 1.201 1.831-.008 2.528l-7.83 4.51c-1.213.699-3.179.697-4.387-.005l-5.628-3.268c-1.205-.7-1.201-1.831.009-2.528l7.829-4.511c1.213-.699 3.179-.697 4.387.005l5.628 3.269Zm.733 14.565c1.208.702 3.174.704 4.388.005l7.83-4.51c1.21-.697 1.214-1.827.01-2.527l-5.626-3.27c-1.209-.702-3.175-.705-4.388-.006l-7.83 4.511c-1.21.697-1.214 1.827-.01 2.527l5.626 3.27Zm25.189.506c1.205.699 1.201 1.83-.009 2.527l-7.829 4.511c-1.213.699-3.179.697-4.387-.005l-5.62-3.264c-1.204-.699-1.2-1.83.009-2.527l7.83-4.511c1.213-.699 3.179-.697 4.387.005l5.619 3.264Zm.731 14.566c1.208.701 3.174.704 4.387.005l7.83-4.511c1.21-.697 1.214-1.828.009-2.528l-5.619-3.263c-1.209-.702-3.174-.704-4.388-.005l-7.829 4.51c-1.21.697-1.214 1.828-.009 2.528l5.619 3.264Zm25.208.494c1.204.7 1.2 1.831-.01 2.528l-7.83 4.51c-1.213.699-3.179.696-4.388-.006l-5.617-3.264c-1.204-.7-1.2-1.831.01-2.528l7.83-4.51c1.214-.699 3.18-.697 4.388.006l5.617 3.264Zm.738 14.573c1.208.701 3.174.704 4.387.005l7.83-4.511c1.209-.697 1.213-1.828.009-2.528l-5.62-3.263c-1.208-.702-3.174-.704-4.387-.005l-7.829 4.51c-1.21.697-1.214 1.828-.009 2.528l5.619 3.264Zm25.18.495c1.204.7 1.2 1.831-.01 2.528l-7.83 4.51c-1.214.699-3.18.697-4.388-.005l-5.617-3.265c-1.205-.7-1.2-1.831.009-2.527l7.831-4.511c1.213-.699 3.179-.696 4.387.006l5.618 3.264Zm.74 14.572c1.208.702 3.174.704 4.387.005l7.831-4.51c1.209-.697 1.214-1.828.009-2.527l-5.617-3.265c-1.208-.702-3.174-.705-4.388-.006l-7.83 4.511c-1.21.697-1.214 1.827-.01 2.527l5.618 3.265Zm25.208.499c1.205.7 1.201 1.831-.009 2.528l-7.829 4.51c-1.214.699-3.179.697-4.388-.005l-5.619-3.263c-1.205-.7-1.201-1.831.009-2.528l7.83-4.511c1.213-.699 3.179-.696 4.387.005l5.619 3.264Zm-177.588-77.731c1.209.701 3.174.704 4.388.005l1.4-.807c1.21-.697 1.214-1.828.009-2.528l-5.619-3.263c-1.209-.702-3.174-.705-4.388-.006l-1.4.807c-1.21.697-1.214 1.828-.009 2.528l5.619 3.264Zm18.736 4.193c1.205.7 1.201 1.83-.009 2.527l-1.401.807c-1.213.699-3.178.697-4.387-.005l-5.628-3.269c-1.205-.699-1.201-1.83.009-2.527l1.401-.807c1.213-.699 3.178-.697 4.387.005l5.628 3.269Zm7.179 10.873c1.208.702 3.174.705 4.388.006l1.4-.807c1.21-.697 1.215-1.827.01-2.527l-5.617-3.265c-1.208-.702-3.174-.704-4.388-.005l-1.4.806c-1.21.697-1.215 1.828-.01 2.528l5.617 3.264Zm18.775 4.199c1.205.699 1.201 1.83-.008 2.527l-1.401.807c-1.213.699-3.179.697-4.387-.005l-5.619-3.264c-1.205-.699-1.201-1.83.009-2.527l1.4-.807c1.213-.699 3.179-.697 4.387.005l5.619 3.264Zm7.169 10.867c1.209.702 3.174.704 4.387.005l1.401-.807c1.21-.697 1.214-1.828.009-2.527l-5.628-3.269c-1.209-.702-3.174-.704-4.387-.005l-1.401.807c-1.21.697-1.214 1.827-.009 2.527l5.628 3.269Zm18.768 4.194c1.205.7 1.201 1.831-.008 2.528l-1.401.807c-1.213.699-3.179.697-4.387-.005l-5.619-3.264c-1.205-.7-1.201-1.83.009-2.527l1.4-.807c1.213-.699 3.179-.697 4.387.005l5.619 3.263Zm7.154 10.859c1.208.702 3.174.705 4.387.006l1.401-.807c1.21-.697 1.214-1.828.01-2.528l-5.626-3.269c-1.209-.702-3.175-.705-4.388-.006l-1.401.807c-1.209.697-1.214 1.827-.009 2.527l5.626 3.27Zm18.768 4.212c1.205.7 1.201 1.831-.009 2.528l-1.4.807c-1.213.699-3.179.696-4.387-.006l-5.619-3.263c-1.205-.7-1.201-1.831.008-2.528l1.401-.807c1.213-.699 3.179-.696 4.387.005l5.619 3.264Zm7.173 10.852c1.209.703 3.174.705 4.388.006l1.401-.807c1.209-.697 1.214-1.827.009-2.527l-5.617-3.265c-1.208-.702-3.174-.704-4.388-.005l-1.4.807c-1.21.696-1.214 1.827-.01 2.527l5.617 3.264Zm18.766 4.211c1.204.7 1.2 1.831-.01 2.527l-1.4.807c-1.214.699-3.18.697-4.388-.005l-5.617-3.265c-1.205-.7-1.2-1.83.009-2.527l1.401-.807c1.213-.699 3.179-.697 4.387.006l5.618 3.264Zm7.161 10.863c1.208.702 3.174.704 4.387.005l1.401-.806c1.21-.697 1.214-1.828.01-2.528l-5.618-3.264c-1.208-.703-3.174-.705-4.387-.006l-1.401.807c-1.21.697-1.214 1.827-.01 2.527l5.618 3.265Zm18.768 4.212c1.205.699 1.201 1.83-.009 2.527l-1.4.807c-1.213.699-3.179.697-4.387-.005l-5.62-3.264c-1.204-.699-1.2-1.83.009-2.527l1.401-.807c1.213-.699 3.179-.697 4.387.005l5.619 3.264Zm12.972 7.524c1.205.699 1.201 1.83-.009 2.527l-1.4.807c-1.214.699-3.179.697-4.388-.005l-5.619-3.264c-1.205-.699-1.201-1.83.009-2.527l1.401-.807c1.213-.699 3.178-.697 4.387.005l5.619 3.264Zm12.955-29.963c1.205.7 1.2 1.831-.009 2.528l-7.831 4.51c-1.213.699-3.179.697-4.387-.006l-5.618-3.264c-1.204-.7-1.2-1.831.01-2.528l7.83-4.51c1.214-.699 3.18-.697 4.388.006l5.617 3.264Zm-25.195-.507c1.208.702 3.174.705 4.388.006l7.83-4.511c1.21-.696 1.214-1.827.01-2.527L342.896 493c-1.208-.702-3.174-.704-4.387-.005l-7.831 4.51c-1.209.697-1.214 1.828-.009 2.528l5.617 3.264Zm-.746-14.569c1.205.7 1.201 1.831-.009 2.528l-7.829 4.511c-1.213.698-3.179.696-4.387-.006l-5.619-3.263c-1.205-.7-1.201-1.831.008-2.528l7.83-4.511c1.213-.699 3.179-.696 4.387.005l5.619 3.264Zm-25.18-.504c1.208.702 3.174.705 4.387.006l7.831-4.511c1.209-.697 1.214-1.827.009-2.527l-5.617-3.265c-1.208-.702-3.174-.704-4.388-.005l-7.83 4.51c-1.21.697-1.214 1.827-.01 2.527l5.618 3.265Zm-.747-14.558c1.205.7 1.2 1.831-.009 2.528l-7.831 4.51c-1.213.699-3.179.697-4.387-.005l-5.627-3.27c-1.204-.7-1.2-1.831.01-2.527l7.83-4.511c1.214-.699 3.18-.696 4.388.006l5.626 3.269Zm-25.192-.499c1.208.702 3.174.704 4.387.005l7.83-4.511c1.21-.697 1.214-1.828.009-2.528l-5.619-3.263c-1.209-.702-3.174-.704-4.388-.005l-7.829 4.511c-1.21.697-1.214 1.827-.009 2.527l5.619 3.264Zm-.749-14.565c1.204.7 1.2 1.831-.01 2.527l-7.83 4.511c-1.214.699-3.18.696-4.388-.006l-5.617-3.264c-1.205-.7-1.2-1.831.009-2.528l7.831-4.51c1.213-.699 3.179-.697 4.387.005l5.618 3.265Zm-25.171-.511c1.208.702 3.174.705 4.387.006l7.831-4.51c1.209-.697 1.214-1.828.009-2.528l-5.617-3.264c-1.208-.702-3.174-.705-4.388-.006l-7.83 4.51c-1.21.697-1.214 1.828-.01 2.528l5.618 3.264Zm-.757-14.557c1.205.7 1.201 1.83-.009 2.527l-7.829 4.511c-1.213.699-3.179.697-4.387-.005l-5.619-3.263c-1.205-.7-1.201-1.831.008-2.528l7.83-4.511c1.213-.699 3.179-.697 4.387.005l5.619 3.264Zm-25.182-.5c1.209.702 3.174.705 4.387.006l7.83-4.511c1.21-.697 1.214-1.828.009-2.528l-5.619-3.264c-1.209-.701-3.174-.704-4.387-.005l-7.83 4.511c-1.21.697-1.214 1.828-.009 2.528l5.619 3.263Zm-.302-14.311c1.204.7 1.2 1.831-.01 2.528l-7.83 4.51c-1.214.699-3.18.697-4.388-.005l-12.555-7.297c-1.205-.7-1.2-1.831.009-2.527l7.831-4.511c1.213-.699 3.179-.696 4.387.006l12.556 7.296Zm136.115 79.08c-1.208-.704-3.175-.707-4.389-.008l-7.833 4.509c-1.21.696-1.216 1.826-.013 2.527l4.755 2.769 7.808 4.535c1.208.702 3.174.704 4.388.005l7.827-4.513c1.209-.697 1.213-1.827.008-2.527l-7.809-4.535-4.742-2.762Zm2.823-17.105c1.204.699 1.201 1.83-.009 2.527l-7.83 4.511c-1.213.699-3.179.697-4.387-.005l-5.619-3.264c-1.205-.699-1.201-1.83.009-2.527l7.829-4.511c1.213-.699 3.179-.697 4.387.005l5.62 3.264Zm-25.199-.5c1.208.702 3.174.704 4.388.005l7.83-4.51c1.21-.697 1.214-1.828.01-2.528l-5.618-3.264c-1.208-.702-3.174-.705-4.387-.006l-7.831 4.511c-1.209.696-1.214 1.827-.009 2.527l5.617 3.265Zm-.731-14.567c1.204.7 1.2 1.831-.01 2.528l-7.83 4.51c-1.214.699-3.18.697-4.388-.005l-5.617-3.265c-1.205-.7-1.2-1.831.01-2.527l7.83-4.511c1.213-.699 3.179-.696 4.388.006l5.617 3.264Zm-25.198-.5c1.208.702 3.173.704 4.387.005l7.829-4.51c1.21-.697 1.214-1.828.009-2.528l-5.619-3.264c-1.208-.701-3.174-.704-4.387-.005l-7.83 4.511c-1.21.697-1.214 1.828-.009 2.528l5.62 3.263Zm-.744-14.564c1.205.7 1.2 1.83-.009 2.527l-7.831 4.511c-1.213.699-3.179.696-4.387-.006l-5.618-3.264c-1.204-.7-1.2-1.831.01-2.528l7.83-4.51c1.214-.699 3.18-.697 4.388.005l5.617 3.265Zm-25.195-.507c1.208.702 3.174.705 4.388.006l7.83-4.511c1.21-.697 1.214-1.827.01-2.527l-5.618-3.265c-1.208-.702-3.174-.704-4.387-.005l-7.831 4.51c-1.209.697-1.214 1.827-.009 2.527l5.617 3.265Zm-.73-14.557c1.205.7 1.201 1.831-.008 2.528l-7.83 4.511c-1.213.699-3.179.697-4.387-.005l-5.619-3.264c-1.205-.7-1.201-1.83.009-2.527l7.829-4.511c1.213-.699 3.179-.697 4.387.005l5.619 3.263Zm-25.211-.507c1.208.702 3.174.704 4.387.005l7.83-4.51c1.21-.697 1.215-1.828.01-2.528l-5.617-3.264c-1.208-.702-3.174-.705-4.388-.006l-7.83 4.511c-1.21.696-1.214 1.827-.01 2.527l5.618 3.265Zm-.732-14.567c1.205.7 1.2 1.831-.009 2.528l-7.831 4.51c-1.213.699-3.179.697-4.387-.006l-5.626-3.269c-1.205-.7-1.2-1.831.009-2.528l7.831-4.51c1.213-.699 3.179-.697 4.387.006l5.626 3.269Zm-25.186-.502c1.208.702 3.174.705 4.388.006l7.83-4.51c1.21-.697 1.214-1.828.01-2.528l-5.618-3.264c-1.208-.702-3.174-.705-4.387-.006l-7.831 4.51c-1.209.697-1.214 1.828-.009 2.528l5.617 3.264Zm151.609 55.203c1.205.7 1.2 1.831-.009 2.528l-7.831 4.51c-1.213.699-3.179.697-4.387-.005l-5.618-3.265c-1.204-.7-1.2-1.831.01-2.527l7.83-4.511c1.214-.699 3.18-.696 4.388.006l5.617 3.264Zm-25.183-.505c1.209.702 3.174.704 4.388.005l7.829-4.511c1.21-.697 1.214-1.828.009-2.528l-5.619-3.263c-1.208-.702-3.174-.704-4.387-.005l-7.83 4.511c-1.21.697-1.214 1.828-.009 2.527l5.619 3.264Zm-.734-14.563c1.204.7 1.2 1.831-.01 2.528l-7.83 4.51c-1.214.699-3.18.696-4.388-.006l-5.617-3.264c-1.205-.7-1.2-1.831.009-2.528l7.831-4.51c1.213-.699 3.179-.697 4.387.006l5.618 3.264Zm-25.177-.363c1.21.698 3.173.698 4.383 0l7.822-4.516c1.21-.699 1.21-1.831 0-2.53l-5.636-3.254c-1.211-.698-3.173-.698-4.383 0l-7.822 4.516c-1.21.698-1.21 1.831 0 2.53l5.636 3.254Zm-.765-14.707c1.205.7 1.201 1.83-.009 2.527l-7.83 4.511c-1.213.699-3.179.697-4.387-.005l-5.619-3.263c-1.205-.7-1.201-1.831.009-2.528l7.829-4.511c1.214-.699 3.179-.697 4.388.005l5.619 3.264Zm-25.191-.505c1.208.702 3.174.705 4.387.006l7.829-4.511c1.21-.697 1.214-1.828.009-2.528l-5.628-3.269c-1.208-.701-3.174-.704-4.387-.005l-7.829 4.511c-1.21.697-1.214 1.828-.009 2.528l5.628 3.268Zm-.742-14.549c1.205.7 1.2 1.831-.009 2.528l-7.831 4.51c-1.213.699-3.179.697-4.387-.005l-5.618-3.265c-1.204-.7-1.2-1.831.01-2.527l7.83-4.511c1.214-.699 3.18-.696 4.388.006l5.617 3.264Zm-25.188-.521c1.208.703 3.174.705 4.387.006l7.831-4.51c1.209-.697 1.214-1.828.009-2.528l-5.626-3.269c-1.208-.702-3.174-.705-4.388-.006l-7.83 4.51c-1.21.697-1.214 1.828-.01 2.528l5.627 3.269Zm-.754-14.549c1.205.7 1.201 1.831-.008 2.528l-7.83 4.511c-1.213.699-3.179.696-4.387-.005l-5.619-3.264c-1.205-.7-1.201-1.831.009-2.528l7.829-4.51c1.213-.699 3.179-.697 4.387.005l5.619 3.263Zm-25.192-.512c1.208.703 3.174.705 4.388.006l7.831-4.51c1.21-.696 1.215-1.827.011-2.527l-5.616-3.265c-1.208-.703-3.174-.706-4.388-.006l-7.831 4.509c-1.21.697-1.215 1.828-.011 2.528l5.616 3.265Zm128.348 74.576-4.756-2.77c-1.202-.7-1.196-1.83.013-2.526l7.833-4.509c1.215-.699 3.182-.696 4.389.007l4.743 2.762 7.809 4.536c1.204.7 1.201 1.83-.009 2.527l-7.827 4.512c-1.213.7-3.179.697-4.388-.004l-7.807-4.535Zm-147.12-82.942c1.214-.699 3.18-.697 4.388.005l2.325 1.352c.969.559 2.539.559 3.509 0l8.712-5.022c.964-.556.965-1.458.001-2.014l-13.001-7.551c-1.208-.701-3.173-.704-4.386-.006l-3.913 2.253-6.112 3.518-14.013 8.072c-1.21.697-1.214 1.828-.009 2.528l6.305 3.661c1.209.702 3.174.704 4.387.005l11.807-6.801Zm120.135 86.007c-1.205-.7-1.201-1.83.008-2.527l7.828-4.512c1.213-.7 3.179-.697 4.388.005l7.226 4.198 11.363 6.605c1.204.7 1.2 1.83-.009 2.527l-7.827 4.512c-1.213.699-3.18.697-4.388-.005l-11.361-6.603-7.228-4.2Z" fill="#fff" />
  <path fill-rule="evenodd" clip-rule="evenodd" d="m123.245 334.577-.228-.034 40.757 110.139.185.056c.453 1.354 1.588 2.648 3.405 3.697l162.453 93.784c4.841 2.795 12.69 2.795 17.531 0l86.623-50.007c2.424-1.399 3.634-3.234 3.631-5.068l42.613-99.097c-82.426 34.804-214.924 34.617-296.813-.56-34.563-14.848-54.616-33.568-60.157-52.91Z" fill="url(#c)" />
  <path d="M469.691 264.215c12.25 18.232 11.188 46.771 9.763 57.81-.363 3.684-.85 3.181-.85 6.011s-10.188 9.273-23.363 18.208c-13.175 8.934-43.852 24.372-49.486 26.25-5.871 2.512-9.41 2.395-13.558 1.021-2.528-.837-7.944-5.763-8.077-7.538-1.76-10.204 4.757-12.654 12.522-14.379 9.478-2.106 35.536-13.69 41.148-22.451-1.543.593-7.542 2.041-14.891 1.307-8.188-.819-20.161-6.264-27.51-27.282-8.119-23.219-2.985-51.496 24.304-59.941 18.72-5.793 34.685-1.807 49.998 20.984Z" fill="#D75070" />
  <path fill-rule="evenodd" clip-rule="evenodd" d="M314.532 225.013c-2.332 10.259-9.46 27.736-14.203 36.943-1.102 2.14-2.518 4.579-3.861 6.891-2.232 3.844-4.259 7.336-4.299 8.514-1.498.012-4.099-.234-7.359-.542-4.016-.38-9.035-.854-14.231-1.059a.952.952 0 0 1 .084-.049c-35.197-1.1-43.922 2.174-47.707 6.155-8.059 8.474-11.989 13.11-13.265 24.504.634 6.277.617 9.462 10.186 12.194 8.58-.001 13.481-1.305 17.872-8.001 5.119-9.569 11.03-11.92 15.711-11.29.297.04.595.039.893 0 10.259 1.588 25.235 2.771 35.086 3.402 11.456.733 18.897.103 25.093-1.033 4.854-3.098 25.409-25.453 31.954-34.858.539-.774 1.14-1.626 1.79-2.548 9.22-13.071 28.259-40.063 18.172-55.347-10.799-16.362-45.373-14.505-51.916 16.124Z" fill="url(#d)" />
  <path d="M327.787 64.71c-9.593-16.36-14.696-15.656-15.435-13.463-3.681 10.396.88 33.632 3.009 44.155.863 2.177 3.975 8.604 9.521 16.89 5.545 8.286 17.322 18.354 22.168 21.806-.105-2.616-.334-8.331-1.254-14.9-1.413-10.099-6.017-34.035-18.009-54.487Z" fill="url(#e)" />
  <path d="M323.768 69.963c-7.219-13.374-11.034-12.816-11.581-11.029-2.725 8.467.75 27.432 2.37 36.02.652 1.78 2.997 7.03 7.167 13.806 4.171 6.775 13.644 17.196 17.278 20.027-.086-2.134-.91-8.969-1.615-14.329-1.085-8.241-4.594-27.777-13.619-44.495Z" fill="url(#f)" />
  <path d="M549.317 338.104c-27.496-8.348-34.045-32.003-34.786-41.053-1.258-11.206.301-9.416 2.088-12.782 2.729 8.973 15.289 26.441 43.698 24.524 28.409-1.917 37.438-21.894 38.4-31.642 1.702 1.006 5.86 4.849 8.879 12.169 3.019 7.319 2.951 13.542 2.54 15.739.226-.184.862-.798 1.592-1.789.73-.991 1.471-2.911 1.75-3.746.756 2.533 1.196 9.371-3.093 16.455-4.289 7.084-10.057 10.892-12.405 11.911.572.35 2.101.912 3.58 1.12 2.123.297 3.638 0 4.806-.189-7.027 7.271-29.125 17.761-57.049 9.283Z" fill="url(#g)" />
  <path d="M532.13 321.351c-23.211-16.941-18.18-24.745-18.921-33.795-1.258-11.206 1.622.079 3.41-3.288 2.728 8.974 15.288 26.442 43.698 24.525 21.587-1.456 31.983-13.341 36.154-23.242.52-.175 1.815 4.879 1.036 9.482-.678 4.002-1.406 6.273-3.445 8.889.794.064 1.885.006 2.753-.223 1.015-.268 2.75-1.173 3.284-1.515-.354 4.636-3.142 15.339-15.035 19.167.571.35 1.435.569 3.503.647 2.068.078 4.024.086 5.004 0-7.027 7.27-36.206 17.772-61.441-.647Z" fill="url(#h)" />
  <path d="M406.59 186.039c3.732 10.203 21.826 21.977 27.944 24.362l48.619 64.881c-3.122 20.752 1.398 58.69-13.036 55.952-18.044-3.422-40.507-10.495-56.993-18.272-16.487-7.777-55.685-4.355-79.328-25.509-23.642-21.154-14.892-50.903-10.013-69.198 4.878-18.294 1.539-26.787-3.157-46.797-3.757-16.008-14.013-43.541-18.671-55.306 1.667-5.768 6.383-18.688 11.92-24.225 6.922-6.922 25.572-10.383 44.029-5.768 18.457 4.614 27.109 23.071 30.57 33.069 3.461 9.998 8.008 28.292 9.664 32.829 2.518 6.9 7.275 11.04 9.144 12.521-.295.144-.818 1.378-3.683 1.378-1.301 0-2.696-.73-3.231-1.071.519 2.799 2.489 10.95 6.222 21.154Z" fill="url(#i)" />
  <path fill-rule="evenodd" clip-rule="evenodd" d="M322.785 189.119c-.325-6.222-3.078-14.514-4.415-17.882 19.28-4.554 37.077 4.305 38.88 6.589-.278-.021-.708-.082-1.258-.159-1.928-.272-5.325-.75-8.757-.443-4.412.395-6.825.672-7.984 1.292l.062-.001c.49-.006 2.201-.028 4.176 1.028 2.07 1.107 2.447 1.535 2.8 2.225-2.745-.514-6.29.086-9.511.97-3.22.883-5.096 1.866-6.281 2.691.86 3.224 2.031 10.132-.464 18.163.22-.201.915-.716 1.935-1.172 1.019-.456 2.34-.872 2.873-1.024-1.917 4.558-6.421 15.829-9.103 24.452-3.343 10.749-3.413 29.533.053 38.67.198-.895.487-1.69.697-2.154.043.434.182 1.529.393 2.435.21.906.657 2.014.855 2.455.334-.195 1.393-1.212 2.959-3.723 1.566-2.512 2.301-5.411 2.472-6.546.198.318.765 1.298 1.45 2.673.685 1.375 1.056 2.348 1.157 2.662.406-.351 1.491-1.638 2.24-3.973.871-2.717 1.456-4.79 1.405-6.608 2.484 5.296-.312 12.237-4.134 16.813l.004-.124c.016-.415.059-1.553-.374-2.739-.264-.726-.361-.94-.489-1.224a19.535 19.535 0 0 1-.214-.484l-.075.231c-.21.65-.63 1.951-1.594 3.568-.78 1.309-1.979 3.094-3.058 4.303 5.469 9.021 12.856 14.228 17.69 17.33-.15-.392-.515-1.518-.774-2.91-.258-1.392-.211-4.3 0-4.944l.46.446c3.017 2.935 10.141 9.864 17.078 13.68 6.868 3.779 16.614 6.006 31.207 9.339 4.842 1.106 10.217 2.334 16.198 3.781 10.483 2.536 24.339 7.458 35.831 12.537a45.585 45.585 0 0 1-.201-1.203c-.585-3.773.597-6.931 1.261-8.038 0 3.174 2.932 8.91 4.691 11.893 6.908 3.335 12.361 6.57 14.721 9.071l-7.965 1.629c-2.232-2.103-4.862-3.329-10.572-5.991a488.397 488.397 0 0 1-13.145-6.32c-9.465-4.732-23.864-7.88-39.345-11.264-15.907-3.476-32.956-7.203-46.975-13.156-15.618-6.632-23.126-14.737-28.393-22.26-3.97-5.67-6.242-14.527-7.004-17.495l-.123-.478c-.406.942-1.263 3.167-1.439 4.535-.175 1.367-.245 3.549-.258 4.47-.998-.928-4.083-5.209-4.116-20.886-.032-15.339 9.832-32.689 15.49-38.955-.497.396-1.971 1.265-3.894 1.574-1.923.309-3.589-.119-4.182-.372.68-.553 2.465-2.223 4.172-4.482 2.133-2.825 3.292-6.717 2.887-14.495Z" fill="url(#j)" />
  <path d="M275.551 139.669c.846-.703 2.314-1.99 2.745-2.765.428.016.983.166 1.56 1.298.379.743.328 1.751.197 2.19-1 1.14-4.259 3.311-6.116 3.815-4.223 1.146-8.582.95-12.71-2.135-3.302-2.468-4.144-6.52-3.864-7.297.222.153.46 1.652 2.186 3.427 1.501 1.542 4.595 3.741 8.382 3.741 2.899 0 5.812-.773 7.62-2.274Z" fill="#020202" />
  <path d="M508.433 249.987c-26.86-32.051-60.706-28.526-89.645-50.532-1.796-1.366-4.316-2.925-5.462-3.979-.285 5.561-.44 16.186-7.588 27.423-7.149 11.237-16.389 15.508-23.853 18.222 5.636 3.421 7.436 4.11 13.162 4.428 6.35.353 9.398-1.095 10.691-2.258-.353 2.822-1.237 6.914-4.13 10.16-3.762 4.22-6.94 6.37-10.133 7.009 1.549 2.996 8.319 5.946 10.253 15.835 1.794 9.167 2.365 14.619 3.118 18.919l5.01-10.35c3.83 4.15 12.859 12.806 39.101 20.659 26.241 7.854 66.936 5.609 82.499-3.17-1.038-7.822-4.273-29.991-23.023-52.366Z" fill="url(#k)" />
  <path d="M357.485 305.454c-5.385-26.927-7.079-36.844 0-49.454 9.096-16.201 20.2-10.872 31.549-5.116 11.993 6.081 17.6 49.521 16.821 70.859-.595 10.562-4.879 35.769-9.245 55.883-4.367 20.113-3.456 29.284-3.456 30.883-1.603 1.103-1.769 3.937-5.878 6.947-1.717 1.258-6.094 4.147-9.861 5.64-4.709 1.865-13.303 5.446-21.569 4.714-5.159-.457-10.711-2.612-13.953-7.576-1.194-2.755-.872-5.902 0-8.751 1.091-3.563 6.729-7.614 11.156-7.461 3.541.122 14.925-1.286 17.496-4.753.962-1.603 1.744-4.117 1.744-15.958 0-40.445-8.071-42.199-14.804-75.857Z" fill="url(#l)" />
  <path d="M522.267 276.311c12.25 18.233 11.187 46.771 9.763 57.811-.363 3.683-.851 3.181-.851 6.011s-10.188 9.273-23.363 18.207c-13.175 8.935-43.851 24.372-49.486 26.251-5.87 2.512-9.409 2.395-13.557 1.021-2.529-.837-7.944-5.763-8.077-7.538-1.76-10.204 4.756-12.654 12.521-14.38 9.479-2.105 35.537-13.689 41.149-22.45-1.543.593-7.543 2.041-14.891 1.306-8.188-.819-20.161-6.263-27.511-27.281-8.118-23.219-2.984-51.496 24.305-59.941 18.719-5.794 34.685-1.807 49.998 20.983Z" fill="url(#m)" />
  <path d="M363.861 56.48c-9.624-16.04-15.149-15.594-16.04-13.533-4.411 9.758-.501 32.136 1.337 42.273.835 2.116 3.909 8.388 9.523 16.541 5.615 8.154 17.862 18.286 22.93 21.795 0-2.501 0-7.965-.707-14.276-1.087-9.7-5.013-32.749-17.043-52.8Z" fill="url(#n)" />
  <path d="M359.306 61.328c-7.197-13.085-11.329-12.72-11.995-11.04-3.299 7.96-.375 26.214 1 34.482.624 1.726 2.923 6.842 7.122 13.493 4.198 6.651 13.95 17.017 17.74 19.88 0-2.04-.592-8.6-1.121-13.747-.813-7.913-3.749-26.713-12.746-43.068Z" fill="url(#o)" />
  <path d="M300.017 161.954c8.148-2.355 14.302-7.312 16.36-9.497l19.808-13.308c-.396 4.436-1.925 14.663-4.872 20.082-3.684 6.774-11.17 11.17-17.943 13.784-6.773 2.614-10.835 4.624-14.287 11.333-3.064 5.954-6.224 11.047-14.647 9.08-6.316-1.476-4.337-12.095-2.317-16.492 2.02-4.396 7.713-12.038 17.898-14.982Z" fill="#DF5A6F" />
  <path d="M266.337 131.098c1.535-1.607 7.861-3.504 10.833-4.252 10.005 4.279 11.793 15.347 11.436 20.346-2.603 1.458-9.16 2.99-15.855.468-6.018-2.266-7.788-10.306-8.057-11.913-.365-2.181-.274-2.64 1.643-4.649Z" fill="#88B6D0" />
  <path d="M306.57 159.289c4.604-1.826 7.877-7.236 9.068-9.815 3.989-3.563 13.979-6.58 18.475-7.643.974 1.353 2.711 5.082 1.867 9.174-1.055 5.114-2.76 8.489-8.199 15.825-4.352 5.869-12.918 7.295-16.657 7.275-.263-2.541 2.226-5.477 5.394-7.275 6.812-3.866 7.77-6.062 7.77-7.336-.462.386-3.814 2.874-6.558 3.949-3.913 1.532-6.284 2.301-13.211 3.907-10.563 2.45-15.256 12.551-16.751 16.807-.081-.849.095-6.442 2.227-10.052 3.528-5.976 8.359-8.634 11.493-10.13 0 0-1.211-.192-3.851 0-2.641.192-3.747.555-3.747.555.174-.135 1.335-.838 3.552-1.854 2.771-1.27 3.374-1.106 9.128-3.387Z" fill="#B3313C" />
  <path d="M296.467 166.361c-2.626-2.834-3.614-7.509-3.78-9.493 3.051-.404 6.203-.045 7.398.184-.348 2.99-1.021 9.14-.93 9.826.114.859.595 3.026-2.688-.517Z" fill="url(#p)" />
  <path d="M279.544 158.16c-2.626-2.834-3.614-7.51-3.78-9.493 3.051-.404 6.204-.045 7.399.184-.348 2.99-1.021 9.14-.93 9.826.113.858.594 3.026-2.689-.517Z" fill="url(#q)" />
  <path d="M306.521 93.531c7.142-8.593 23.8-9.638 31.236-9.086 0 18.483 12.511 30.358 22.777 54.312 8.213 19.163 4.89 35.084 2.202 40.65-3.281-1.413-10.716-4.496-14.208-5.528-4.365-1.29-22.52-2.282-31.824 2.515-7.442 3.838-12.833 4.205-15.265 3.861.282-.534 1.528-2.315 3.313-3.989 4.767-4.468 15.892-7.656 22.309-12.678 6.417-5.022 7.023-15.823 2.192-17.489-2.085-.718-6.174 4.947-11.754 8.435-5.58 3.487-14.466 4.981-22.975 4.562-6.808-.334-12.032-4.107-13.241-6.339-1.814.976-4.95 1.568-7.405-.775-3.069-2.93-5.58-10.044-6.696-15.206-.892-4.129.372-5.812 1.116-6.138 1.348-1.116 5.301-3.962 10.323-6.417 5.022-2.455 13.439-5.487 17.019-6.696.651-4.417 3.739-15.401 10.881-23.994Z" fill="#D2702E" />
  <path d="M286.231 135.28c-.446-2.105-7.455-5.005-9.468-5.386-10.265-1.022-8.056 6.728-5.463 10.266 3.419 4.666 8.907 5.264 11.567 3.375 2.661-1.888 3.922-5.623 3.364-8.255Z" fill="#220503" />
  <path d="M324.045 89.676c-12.011 0-20.652 1.905-22.744 3.1-8.49 8.105-8.072 16.531-8.073 27.793l.031-.018c.958-.555 3.098-1.794 7.294-.996 21.045 4.002 31.77 23.447 31.77 23.447 25.201-8.874 30.137-40.692 28.39-48.269-7.245-1.867-24.657-5.057-36.668-5.057Z" fill="#519BC4" />
  <path d="M294.616 148.513c-9.623-6.558-6.37-16.992-22.265-16.992-4.125 0-5.796.82-6.664 2.133-.574 1.235.023 4.903 1.594 8.018 1.57 3.114 1.974 3.097 2.718 4.03.117.255.534 1.155.597 1.314-1.231-.767-3.646-3.661-4.785-7.025-1.138-3.363-1.708-5.806-.778-7.296 3.199-6.465 21.71-12.76 27.319-14.388 3.986-1.785 10.507-.571 16.452 1.791 13.928 6.679 23.847 21.366 15.614 26.74-8.232 5.375-18.999 9.037-29.802 1.675Z" fill="#519BC3" />
  <path d="M323 88.751c-11.639 0-20.012 1.846-22.038 3.004-8.227 7.853-7.822 16.018-7.823 26.931.913-.529 2.706-1.145 6.8-.28 18.486 3.906 31.287 22.918 31.287 22.918 24.419-8.599 29.077-39.803 27.384-47.145-7.021-1.81-23.971-5.428-35.61-5.428Z" fill="url(#r)" />
  <path d="M343 103.08c6.652 2.479 9.07 7.684 9.448 9.977-13.242 9.251-27.379 4.941-33.073.759-.101-.983-2.107-2.124-1.971-6.528.179-5.785 3.93-6.877 5.441-7.28 3.679-.781 13.504.593 20.155 3.072Z" fill="url(#s)" />
  <path d="M294.154 103.207c-.057.044-.851 3.698-.851 6.425 6.305 6.646 11.515 3.398 14.818 1.1 2.66-1.33 3.954-4.032 4.201-6.822.326-3.666-3.975-3.177-4.742-3.523-1.882-.716-10.372.453-13.426 2.82Z" fill="url(#t)" />
  <path d="M336.872 99.474c8.908 2.043 13.572 8.883 14.766 11.158-10.916-10.967-22.47-8.13-26.799-5.639-4.328 2.491-6.595.473-6.29-1.854.284-2.161 6.951-6.272 18.323-3.665ZM304.786 99.068c3.037.193 5.044.877 6.623 2.067 1.361 1.026 1.518 3.354.025 3.937-3.146 1.228-3.948-1.767-8.589-2.692-5.684-1.132-8.696 1.05-8.696 1.05-.269-.16-.588-.561-.3-1.391.206-.595.536-.916.894-1.085 0 0 3.236-2.32 10.043-1.886Z" fill="#020202" />
  <ellipse cx="329.468" cy="114.853" rx="11.014" ry="3.101" transform="rotate(14.062 329.468 114.853)" fill="#020202" />
  <ellipse cx="301.013" cy="109.822" rx="7.596" ry="2.773" transform="rotate(.584 301.013 109.822)" fill="#020202" />
  <path d="M272.661 130.08c-6.431 0-8.401 2.917-8.074 4.939-1.845-7.001 22.068-17.045 28.451-18.898 3.979-1.781 10.487-.569 16.421 1.789 13.901 6.666 21.958 22.527 15.584 26.689-6.374 4.161-15.576 10.553-28.561 3.501-10.233-5.557-7.957-18.02-23.821-18.02Z" fill="url(#u)" />
  <ellipse cx="297.98" cy="139.158" rx="1.504" ry="2.271" transform="rotate(12.252 297.98 139.158)" fill="#D2702E" />
  <path d="M301.024 139.668c-.847-.703-2.315-1.99-2.746-2.765-.428.016-.983.166-1.56 1.298-.379.743-.328 1.751-.197 2.19 1 1.14 4.259 3.311 6.116 3.815 4.223 1.146 8.583.95 12.71-2.135 3.302-2.468 4.144-6.52 3.864-7.297-.222.153-.46 1.652-2.186 3.427-1.501 1.542-4.595 3.741-8.382 3.741-2.899 0-5.812-.773-7.619-2.274Z" fill="#020202" />
  <path d="M325.111 124.63c-3.23-2.856-5.79-6.794-6.667-8.407-.332-.611-1.29-.768-1.946-.011-.43.496-.347 1.502-.108 2.05.438 1.007 2.439 3.86 6.932 7.213 4.493 3.352 11.026 4.253 13.731 4.285-2.634-.52-8.711-2.274-11.942-5.13Z" fill="url(#v)" />
  <path opacity=".6" fill-rule="evenodd" clip-rule="evenodd" d="M223.734 58.44c-14.419 3.729-28.024 8.265-40.462 13.607-45.182 19.41-65.567 45.437-61.155 70.819h-.583v179.773c.444-22.923 21.023-45.787 61.738-63.277 13.29-5.709 27.914-10.497 43.44-14.363V60.516l-2.978-2.076Z" fill="url(#w)" />
  <path fill-rule="evenodd" clip-rule="evenodd" d="m226.712 247.783-2.932-2.052c-14.437 3.731-28.057 8.271-40.508 13.619-82.326 35.365-82.326 92.704 0 128.069 81.942 35.2 214.558 35.365 296.973.493l-3.351-1.511c-81.069 33.225-210.614 32.839-290.896-1.115-81.067-34.285-81.206-89.814-.311-124.026 12.582-5.321 26.383-9.813 41.025-13.477Z" fill="url(#x)" />
  <path fill-rule="evenodd" clip-rule="evenodd" d="M480.25 200.616c-82.415 34.873-215.034 34.71-296.976-.491-41.284-17.735-61.865-40.995-61.744-64.238h-.003v187.508h.002c.003 23.174 20.585 46.347 61.744 64.028 81.943 35.201 214.562 35.365 296.977.492V200.616Z" fill="url(#y)" />
  <path fill-rule="evenodd" clip-rule="evenodd" d="m226.67 60.503-2.913-2.057c-14.428 3.73-28.041 8.267-40.485 13.613-82.326 35.365-82.326 92.704 0 128.069 81.948 35.203 214.579 35.365 296.992.485v-.104l-3.279-1.436c-81.063 33.262-210.675 32.888-290.987-1.078-81.067-34.285-81.206-89.814-.311-124.026 12.57-5.316 26.357-9.805 40.983-13.466Z" fill="url(#z)" />
  <path opacity=".5" d="m476.987 199.048 3.278 1.449v187.402l-3.278-1.449V199.048Z" fill="#B5E4FF" />
  <path d="M183.271 225.427c-68.723-29.522-80.078-74.355-34.066-108.937" stroke="url(#A)" stroke-width="2.53" stroke-linecap="round" />
  <path d="M183.273 242.293c-16.33-7.014-29.42-14.894-39.272-23.294m5.206-85.643c-30.088 22.614-35.646 49.612-16.672 73.845" stroke="url(#B)" stroke-width="2.53" stroke-linecap="round" />
  <path d="M183.27 259.165c-25.66-11.024-43.323-24.182-52.987-38.144" stroke="url(#C)" stroke-width="2.53" stroke-linecap="round" />
  <path opacity=".8" d="M146.193 348.319v-80.046c20.71-17.43 25.584 11.631 50.788 15.578 16.619 2.603 22.776-21.629 35.923-34.055 15.557-14.703 33.822-14.29 43.184-12.618v159.256c-22.854-2.062-40.338-5.729-72.114-16.255-37.899-12.554-48.444-24.901-57.781-31.86Z" fill="url(#D)" />
  <path d="M276.022 237.525V395.87M146.28 268.347v80.27m29.239-74.44v91.695m42.723-95.335v111.335" stroke="#fff" stroke-width="1.687" stroke-linecap="round" stroke-dasharray="6.75 6.75" />
  <path d="M146.193 268.273c20.71-17.43 25.584 11.631 50.788 15.578 16.619 2.603 22.776-21.629 35.923-34.055 15.557-14.703 33.822-14.29 43.184-12.618" stroke="#fff" stroke-width="2.53" stroke-linecap="round" />
  <path opacity=".3" d="M146.194 311.905c17.597-5.334 13.625 24.207 39.546 21.408 16-1.727 17.966-20.422 32.915-17.309 22.646 4.717 19.86 44.437 57.432 55.856" stroke="#fff" stroke-width="2.53" stroke-linecap="round" />
  <ellipse opacity=".7" cx="195.219" cy="263.309" rx="6.03" ry="7.814" fill="#fff" />
  <ellipse cx="195.22" cy="263.318" rx="3.323" ry="4.306" fill="#fff" />
  <ellipse opacity=".7" cx="195.219" cy="245.605" rx="6.03" ry="7.814" fill="#fff" />
  <ellipse cx="195.22" cy="245.599" rx="3.323" ry="4.306" fill="#fff" />
  <ellipse opacity=".7" cx="195.219" cy="227.885" rx="6.03" ry="7.814" fill="#fff" />
  <ellipse cx="195.22" cy="227.883" rx="3.323" ry="4.306" fill="#fff" />
  <path d="M296.363 392.548v-11.122c0-1.792.713-3.511 1.982-4.777l6.771-6.755a6.745 6.745 0 0 1 4.765-1.97h17.569a6.746 6.746 0 0 1 6.746 6.747v18.364a6.747 6.747 0 0 1-6.746 6.748h-8.313c-5.292 0-11.625-.286-16.549-.576-3.516-.208-6.225-3.137-6.225-6.659ZM346.97 392.538v-11.429c0-1.609.575-3.165 1.621-4.387l5.474-6.396c1.282-1.498 3.152-2.408 5.119-2.535 1.68-.109 4.109-.269 7.519-.48 4.354-.268 8.225-.655 11.376-.966 3.708-.365 6.724 2.512 6.724 6.239v17.04c0 3.727-2.983 7.202-6.671 7.737-2.086.303-4.822.65-8.474 1.006-5.259.512-11.551.672-16.454.627-3.522-.031-6.234-2.934-6.234-6.456ZM334.087 373.964l-25.429 25.429M317.695 367.98l-21.279 21.279M328.623 368.24l-29.66 29.66M334.231 383.846l-15.533 15.93M384.158 369.816l-23.67 29.187M364.885 367.866l-17.946 22.129M376.416 366.501l-25.457 31.391M384.803 380.511l-13.747 17.384" stroke="#fff" stroke-width="1.687" stroke-linecap="round" />
  <defs>
    <linearGradient id="c" x1="314.404" y1="388.14" x2="314.404" y2="456.681" gradientUnits="userSpaceOnUse">
      <stop stop-color="#C67DFF" stop-opacity=".38" />
      <stop offset="1" stop-color="#C67DFF" stop-opacity="0" />
    </linearGradient>
    <linearGradient id="d" x1="320.628" y1="242.505" x2="282.74" y2="350.288" gradientUnits="userSpaceOnUse">
      <stop stop-color="#F7A02C" />
      <stop offset="1" stop-color="#E15D84" />
    </linearGradient>
    <linearGradient id="e" x1="327.033" y1="49.491" x2="337.006" y2="104.675" gradientUnits="userSpaceOnUse">
      <stop stop-color="#EE4346" />
      <stop offset="1" stop-color="#8C4414" />
    </linearGradient>
    <linearGradient id="f" x1="314.691" y1="56.945" x2="323.257" y2="90.96" gradientUnits="userSpaceOnUse">
      <stop stop-color="#EC912D" />
      <stop offset="1" stop-color="#D2702E" />
    </linearGradient>
    <linearGradient id="g" x1="605.133" y1="299.464" x2="523.744" y2="319.962" gradientUnits="userSpaceOnUse">
      <stop stop-color="#D2702E" />
      <stop offset="1" stop-color="#F0972C" />
    </linearGradient>
    <linearGradient id="h" x1="592.836" y1="279.679" x2="522.898" y2="313.83" gradientUnits="userSpaceOnUse">
      <stop stop-color="#EC4344" />
      <stop offset="1" stop-color="#582106" />
    </linearGradient>
    <linearGradient id="i" x1="337.865" y1="177.62" x2="435.185" y2="340.887" gradientUnits="userSpaceOnUse">
      <stop offset=".058" stop-color="#D2702E" />
      <stop offset=".457" stop-color="#FFAA2C" />
      <stop offset="1" stop-color="#DF5E7D" />
    </linearGradient>
    <linearGradient id="j" x1="343.457" y1="165.933" x2="451.995" y2="350.304" gradientUnits="userSpaceOnUse">
      <stop offset=".064" stop-color="#BB3341" />
      <stop offset=".241" stop-color="#E92F2F" />
      <stop offset=".937" stop-color="#5C2209" />
    </linearGradient>
    <linearGradient id="k" x1="368.568" y1="195.476" x2="491.808" y2="273.048" gradientUnits="userSpaceOnUse">
      <stop offset=".25" stop-color="#E62F2F" />
      <stop offset="1" stop-color="#4E1F00" />
    </linearGradient>
    <linearGradient id="l" x1="378.629" y1="271.946" x2="386.065" y2="362.495" gradientUnits="userSpaceOnUse">
      <stop stop-color="#F7A02C" />
      <stop offset="1" stop-color="#E15D84" />
    </linearGradient>
    <linearGradient id="m" x1="476.526" y1="240.995" x2="510.225" y2="362.663" gradientUnits="userSpaceOnUse">
      <stop stop-color="#D2702E" />
      <stop offset="1" stop-color="#E15C88" />
    </linearGradient>
    <linearGradient id="n" x1="377.486" y1="127.723" x2="335.376" y2="37.34" gradientUnits="userSpaceOnUse">
      <stop stop-color="#7B3709" />
      <stop offset="1" stop-color="#FF454E" />
    </linearGradient>
    <linearGradient id="o" x1="357.812" y1="73.075" x2="361.145" y2="92.032" gradientUnits="userSpaceOnUse">
      <stop stop-color="#EC912D" />
      <stop offset="1" stop-color="#D2702E" />
    </linearGradient>
    <linearGradient id="p" x1="296.303" y1="156.389" x2="298.039" y2="166.219" gradientUnits="userSpaceOnUse">
      <stop stop-color="#CEEDFF" />
      <stop offset="1" stop-color="#F9FDFF" />
    </linearGradient>
    <linearGradient id="q" x1="279.381" y1="148.188" x2="281.116" y2="158.018" gradientUnits="userSpaceOnUse">
      <stop stop-color="#CEEDFF" />
      <stop offset="1" stop-color="#F9FDFF" />
    </linearGradient>
    <linearGradient id="r" x1="294.133" y1="106.362" x2="344.763" y2="122.064" gradientUnits="userSpaceOnUse">
      <stop stop-color="#E7F4FB" />
      <stop offset="1" stop-color="#fff" />
    </linearGradient>
    <linearGradient id="s" x1="333.722" y1="102.495" x2="332.76" y2="114.128" gradientUnits="userSpaceOnUse">
      <stop stop-color="#CDE2EF" />
      <stop offset="1" stop-color="#E9F2F8" stop-opacity="0" />
    </linearGradient>
    <linearGradient id="t" x1="305.009" y1="103.715" x2="304.188" y2="107.172" gradientUnits="userSpaceOnUse">
      <stop stop-color="#CDE2EF" />
      <stop offset="1" stop-color="#E9F2F8" stop-opacity="0" />
    </linearGradient>
    <linearGradient id="u" x1="312.201" y1="136.925" x2="301.793" y2="117.626" gradientUnits="userSpaceOnUse">
      <stop stop-color="#F7FCFF" />
      <stop offset=".596" stop-color="#fff" />
      <stop offset="1" stop-color="#E8F4FB" />
    </linearGradient>
    <linearGradient id="v" x1="317.054" y1="117.475" x2="339.337" y2="129.894" gradientUnits="userSpaceOnUse">
      <stop stop-color="#E9F2F8" stop-opacity=".964" />
      <stop offset="1" stop-color="#F7FCFF" />
    </linearGradient>
    <linearGradient id="x" x1="235.582" y1="204.732" x2="311.38" y2="397.161" gradientUnits="userSpaceOnUse">
      <stop stop-color="#fff" stop-opacity="0" />
      <stop offset=".5" stop-color="#E09FFF" />
      <stop offset="1" stop-color="#fff" />
    </linearGradient>
    <linearGradient id="y" x1="121.527" y1="256.217" x2="480.25" y2="258.278" gradientUnits="userSpaceOnUse">
      <stop offset="0" stop-color="#5B40FF" stop-opacity=".62" />
      <stop offset=".141" stop-color="#9E7BFF" stop-opacity=".69" />
      <stop offset=".646" stop-color="#644AFF" stop-opacity=".25" />
      <stop offset=".996" stop-color="#9D61FF" stop-opacity=".76" />
    </linearGradient>
    <linearGradient id="z" x1="336.584" y1="100.804" x2="350.614" y2="230.339" gradientUnits="userSpaceOnUse">
      <stop stop-color="#9745FF" stop-opacity="0" />
      <stop offset="1" stop-color="#AA83FF" stop-opacity=".9" />
    </linearGradient>
    <linearGradient id="A" x1="221.119" y1="147.383" x2="186.92" y2="226.995" gradientUnits="userSpaceOnUse">
      <stop stop-color="#fff" stop-opacity="0" />
      <stop offset="1" stop-color="#fff" />
    </linearGradient>
    <linearGradient id="B" x1="221.121" y1="164.249" x2="186.922" y2="243.861" gradientUnits="userSpaceOnUse">
      <stop stop-color="#fff" stop-opacity="0" />
      <stop offset="1" stop-color="#fff" />
    </linearGradient>
    <linearGradient id="C" x1="221.119" y1="181.121" x2="186.92" y2="260.732" gradientUnits="userSpaceOnUse">
      <stop stop-color="#fff" stop-opacity="0" />
      <stop offset="1" stop-color="#fff" />
    </linearGradient>
    <linearGradient id="D" x1="211.14" y1="255.671" x2="211.14" y2="370.218" gradientUnits="userSpaceOnUse">
      <stop stop-color="#fff" />
      <stop offset="1" stop-color="#fff" stop-opacity="0" />
    </linearGradient>
    <radialGradient id="a" cx="0" cy="0" r="1" gradientUnits="userSpaceOnUse" gradientTransform="matrix(23.50235 112.50233 -211.87314 44.26145 377.682 435.351)">
      <stop stop-color="#D591FF" />
      <stop offset="1" stop-color="#E4CEFF" stop-opacity="0" />
    </radialGradient>
    <radialGradient id="b" cx="0" cy="0" r="1" gradientUnits="userSpaceOnUse" gradientTransform="matrix(15.88512 59.65164 -112.34091 29.91617 464.67 391.88)">
      <stop stop-color="#7727B6" stop-opacity=".6" />
      <stop offset=".975" stop-color="#B075EC" stop-opacity="0" />
    </radialGradient>
    <radialGradient id="w" cx="0" cy="0" r="1" gradientUnits="userSpaceOnUse" gradientTransform="rotate(-71.832 221.874 54.262) scale(156.599 178.575)">
      <stop stop-color="#9D95FF" />
      <stop offset="1" stop-color="#FF62EF" stop-opacity="0" />
    </radialGradient>
  </defs>
</svg>
