<svg width="100" height="100" viewBox="0 0 100 100" fill="none" xmlns="http://www.w3.org/2000/svg">
<rect width="100" height="100" rx="6" fill="url(#paint0_linear_53_1193)"/>
<mask id="mask0_53_1193" style="mask-type:alpha" maskUnits="userSpaceOnUse" x="0" y="0" width="100" height="100">
<rect width="100" height="100" fill="url(#paint1_linear_53_1193)"/>
</mask>
<g mask="url(#mask0_53_1193)">
<g opacity="0.5">
<path fill-rule="evenodd" clip-rule="evenodd" d="M16.9997 41.0664C12.0566 41.0664 8.06641 45.0566 8.06641 49.9997C8.06641 51.3743 8.37379 52.6697 8.92757 53.8293L20.8293 41.9276C19.6697 41.3738 18.3743 41.0664 16.9997 41.0664ZM2.06641 49.9997C2.06641 41.7429 8.74288 35.0664 16.9997 35.0664C21.131 35.0664 24.8508 36.7415 27.5544 39.4451C28.726 40.6167 28.726 42.5162 27.5544 43.6877L10.6877 60.5544C9.51615 61.726 7.61666 61.726 6.44509 60.5544C3.74149 57.8508 2.06641 54.131 2.06641 49.9997Z" fill="white"/>
<path fill-rule="evenodd" clip-rule="evenodd" d="M-15.8965 39.7558C-7.85947 27.1223 3.96163 19.4346 17.0002 19.4346C24.6187 19.4346 31.9087 22.089 38.2068 26.8395C39.5295 27.8372 39.793 29.7184 38.7953 31.0411C37.7975 32.3639 35.9164 32.6274 34.5936 31.6296C29.225 27.5801 23.1817 25.4346 17.0002 25.4346C6.50613 25.4346 -3.60555 31.6127 -10.8352 42.9781L-10.8377 42.982C-11.956 44.7341 -12.6165 47.2849 -12.6165 50.0179C-12.6165 52.7509 -11.956 55.3017 -10.8377 57.0538L-10.8363 57.056C-8.34789 60.9618 -5.47002 64.3 -2.37701 66.96C-1.1208 68.0403 -0.978235 69.9345 -2.05857 71.1907C-3.1389 72.4469 -5.03304 72.5895 -6.28924 71.5091C-9.86289 68.4358 -13.1184 64.6406 -15.8966 60.2799C-17.7773 57.3322 -18.6165 53.584 -18.6165 50.0179C-18.6165 46.4517 -17.7773 42.7034 -15.8965 39.7558Z" fill="white"/>
<path fill-rule="evenodd" clip-rule="evenodd" d="M41.9528 34.0951C43.2438 33.0566 45.1322 33.2614 46.1707 34.5524C47.4589 36.154 48.7268 37.8779 49.8976 39.7225C51.7775 42.6698 52.6164 46.4173 52.6164 49.9827C52.6164 53.5489 51.7772 57.2972 49.8964 60.2449C41.8594 72.8783 30.0383 80.5661 16.9997 80.5661C12.4736 80.5661 8.0457 79.6089 3.90222 77.8643C2.3752 77.2213 1.65853 75.4622 2.30148 73.9352C2.94444 72.4082 4.70355 71.6915 6.23056 72.3345C9.68709 73.7899 13.3259 74.5661 16.9997 74.5661C27.4938 74.5661 37.6055 68.3879 44.8351 57.0225L44.8376 57.0186C45.956 55.2665 46.6164 52.7157 46.6164 49.9827C46.6164 47.2497 45.956 44.6989 44.8376 42.9468L44.8334 42.9402C43.8047 41.3192 42.6732 39.7773 41.4954 38.313C40.457 37.022 40.6617 35.1335 41.9528 34.0951Z" fill="white"/>
<path fill-rule="evenodd" clip-rule="evenodd" d="M29.2438 49.3833C30.8732 49.6837 31.9505 51.2482 31.65 52.8776C30.5578 58.801 25.7672 63.5915 19.8438 64.6838C18.2144 64.9843 16.65 63.9069 16.3495 62.2776C16.0491 60.6482 17.1264 59.0837 18.7558 58.7833C22.2324 58.1422 25.1084 55.2661 25.7495 51.7895C26.05 50.1601 27.6144 49.0828 29.2438 49.3833Z" fill="white"/>
<path fill-rule="evenodd" clip-rule="evenodd" d="M10.6881 56.3132C11.8596 57.4848 11.8596 59.3843 10.6881 60.5559L-14.2119 85.4559C-15.3835 86.6275 -17.283 86.6275 -18.4546 85.4559C-19.6261 84.2843 -19.6261 82.3848 -18.4546 81.2133L6.44543 56.3133C7.617 55.1417 9.51649 55.1417 10.6881 56.3132Z" fill="white"/>
<path fill-rule="evenodd" clip-rule="evenodd" d="M52.4547 14.5457C53.6262 15.7172 53.6262 17.6167 52.4547 18.7883L27.5547 43.6883C26.3831 44.8599 24.4836 44.8599 23.312 43.6883C22.1405 42.5167 22.1405 40.6172 23.312 39.4457L48.212 14.5457C49.3836 13.3741 51.2831 13.3741 52.4547 14.5457Z" fill="white"/>
</g>
</g>
<defs>
<linearGradient id="paint0_linear_53_1193" x1="-5.64809" y1="-5.85334e-05" x2="99.9609" y2="100.041" gradientUnits="userSpaceOnUse">
<stop stop-color="#0094FF"/>
<stop offset="1" stop-color="#A400CD"/>
</linearGradient>
<linearGradient id="paint1_linear_53_1193" x1="-5.64809" y1="-5.85334e-05" x2="99.9609" y2="100.041" gradientUnits="userSpaceOnUse">
<stop stop-color="#0094FF"/>
<stop offset="1" stop-color="#A400CD"/>
</linearGradient>
</defs>
</svg>
