<?xml version="1.0" encoding="utf-8"?>
<!-- Generator: Adobe Illustrator 24.1.2, SVG Export Plug-In . SVG Version: 6.00 Build 0)  -->
<svg version="1.1" id="Layer_1" xmlns="http://www.w3.org/2000/svg" xmlns:xlink="http://www.w3.org/1999/xlink" x="0px" y="0px"
	 viewBox="0 0 84 24" style="enable-background:new 0 0 84 24;" xml:space="preserve">
<g>
	<g>
		<path d="M13.91345,18.95038H5.53943v-3.45428h5.99512c0.58643,0,1.05316-0.1756,1.40118-0.52649
			c0.34705-0.35089,0.52106-0.94263,0.52106-1.77679c0-0.43872-0.06042-0.84949-0.17902-1.23401
			c-0.11975-0.38287-0.25562-0.6955-0.40692-0.93719H5.53943V7.96198h6.87476c0.58643,0,1.05914-0.1756,1.4173-0.52649
			c0.35858-0.3504,0.5376-0.94257,0.5376-1.77679c0-0.43829-0.05975-0.85522-0.17902-1.24988
			c-0.11969-0.39514-0.25543-0.71283-0.40735-0.95453H3.03021c-0.93402,0-1.67279,0.27448-2.21594,0.82281
			C0.27106,4.82568,0,5.57172,0,6.51428v13.91669c0,0.94299,0.27106,1.68933,0.81427,2.23682
			c0.54315,0.54871,1.28192,0.82281,2.21594,0.82281h9.51422c0.58691,0,1.05914-0.18097,1.41779-0.54254
			c0.35809-0.3623,0.53772-0.95978,0.53772-1.79358c0-0.43829-0.06036-0.85492-0.17963-1.25
			C14.20068,19.5094,14.06433,19.19208,13.91345,18.95038z M32.15985,8.53705c-1.32477-1.08508-3.21484-1.62799-5.66919-1.62799
			c-1.36859,0-2.61237,0.16455-3.7309,0.49323c-1.11902,0.3291-2.04755,0.75671-2.78583,1.2832
			c-0.43451,0.30774-0.77704,0.64795-1.02649,1.02008c-0.25,0.37305-0.37469,0.85522-0.37469,1.44739v9.87012
			c0,0.54865,0.07043,0.99268,0.21179,1.33246c0.14081,0.34052,0.34241,0.60852,0.60297,0.80597
			c0.26056,0.19769,0.58087,0.3291,0.96112,0.39508c0.37927,0.06531,0.80927,0.09821,1.2865,0.09821
			c0.49945,0,0.98279-0.0329,1.45056-0.09821c0.46667-0.06598,0.80872-0.13171,1.026-0.19739V11.9425
			c0.3042-0.21881,0.66791-0.383,1.09192-0.49335c0.42346-0.10956,0.85193-0.16449,1.28705-0.16449
			c0.65173,0,1.1673,0.15961,1.54749,0.47687c0.37982,0.31842,0.57043,0.81775,0.57043,1.49725v7.76428
			c0,0.54865,0.07031,0.99268,0.21167,1.33246c0.14081,0.34052,0.34204,0.60852,0.60309,0.80597
			c0.26044,0.19769,0.58038,0.3291,0.96057,0.39508c0.38025,0.06531,0.8092,0.09821,1.2876,0.09821
			c0.49939,0,0.98224-0.0329,1.44995-0.09821c0.46674-0.06598,0.80878-0.13171,1.02606-0.19739V13.06146
			C34.14752,11.13159,33.48456,9.62311,32.15985,8.53705z M52.76898,9.22876c-0.74927-0.73492-1.64563-1.30493-2.68817-1.71069
			c-1.0426-0.40594-2.2049-0.60901-3.48645-0.60901c-1.28149,0-2.44385,0.19745-3.48639,0.5921
			c-1.04315,0.39514-1.9389,0.95947-2.68829,1.6944c-0.74884,0.73529-1.33075,1.6286-1.74323,2.68121
			c-0.4129,1.05334-0.61908,2.2265-0.61908,3.52081c0,1.31604,0.20618,2.50031,0.61908,3.5528
			c0.41248,1.05261,0.99438,1.94678,1.74323,2.68164c0.74939,0.73492,1.64514,1.29956,2.68829,1.69397
			c1.04254,0.39478,2.2049,0.59216,3.48639,0.59216c1.28156,0,2.44385-0.18597,3.48645-0.55896
			c1.04254-0.37262,1.9389-0.9212,2.68817-1.64545c0.7489-0.72345,1.33032-1.61719,1.74274-2.68121
			c0.41296-1.06372,0.61969-2.27502,0.61969-3.63495c0-1.27209-0.20673-2.435-0.61969-3.48761
			C54.0993,10.85706,53.51788,9.96332,52.76898,9.22876z M48.72888,18.45679c-0.48883,0.72388-1.19,1.08582-2.10229,1.08582
			c-0.91187,0-1.6236-0.35626-2.13354-1.06909c-0.51105-0.71307-0.76599-1.73822-0.76599-3.07593
			c0-1.31641,0.24945-2.33075,0.74945-3.04352c0.4989-0.7124,1.20557-1.0694,2.11786-1.0694
			c0.91235,0,1.61798,0.35699,2.11792,1.0694c0.49945,0.71277,0.7489,1.72711,0.7489,3.04352
			C49.46118,16.71362,49.21722,17.73328,48.72888,18.45679z M71.06415,13.58759c0.47784-0.4162,0.89575-0.78424,1.25488-1.10187
			c0.35809-0.31799,0.65137-0.61963,0.87915-0.90527c0.22839-0.28436,0.39636-0.56378,0.50543-0.83868
			c0.10815-0.27374,0.16302-0.57581,0.16302-0.90448c0-0.7677-0.34204-1.40417-1.02661-1.90808
			c-0.6839-0.50439-1.5918-0.75671-2.72089-0.75671l-5.60431,5.7901V4.2771c0-0.54834-0.07043-0.99225-0.21179-1.33246
			c-0.1413-0.34021-0.34192-0.60895-0.60248-0.80634C63.44,1.94098,63.11914,1.80957,62.73895,1.74359
			c-0.37982-0.06573-0.80927-0.09851-1.28705-0.09851c-0.47784,0-0.95007,0.03857-1.41687,0.11523
			c-0.46765,0.07715-0.82025,0.14819-1.05914,0.21387v19.04889c0,0.54865,0.07037,0.99268,0.21222,1.33246
			c0.14032,0.34052,0.34149,0.60852,0.6026,0.80597c0.25995,0.19769,0.58087,0.3291,0.96057,0.39508
			c0.38019,0.06531,0.80981,0.09821,1.28705,0.09821c0.47784,0,0.95062-0.0387,1.41779-0.11493
			c0.46722-0.07684,0.81934-0.13708,1.05872-0.18066V17.3714l3.22583,4.07971c0.62976,0.81128,1.21667,1.38733,1.7594,1.72681
			c0.54315,0.34009,1.16229,0.51007,1.85736,0.51007c0.93347,0,1.64563-0.27454,2.13452-0.82239
			c0.48834-0.54822,0.78705-1.33783,0.89569-2.3689l-5.21301-5.26404L71.06415,13.58759z M82.92468,7.83026
			c-0.26062-0.19739-0.58142-0.3291-0.96112-0.39478c-0.38019-0.06598-0.80981-0.09851-1.28705-0.09851
			c-0.47833,0-0.95062,0.03857-1.41736,0.11499c-0.46765,0.07666-0.82031,0.13702-1.05914,0.18091v13.3902
			c0,0.54865,0.07043,0.99268,0.21216,1.33246c0.14081,0.34052,0.34155,0.60852,0.6026,0.80597
			c0.26007,0.19769,0.58087,0.3291,0.96112,0.39508c0.3797,0.06531,0.80878,0.09821,1.28705,0.09821
			c0.47729,0,0.95007-0.0387,1.41724-0.11493c0.46729-0.07684,0.81989-0.13708,1.05878-0.18066V9.96899
			c0-0.54822-0.07092-0.99225-0.2113-1.33234C83.38593,8.29645,83.18524,8.02771,82.92468,7.83026z M80.96967,5.92218
			c0.91241,0,1.64563-0.28491,2.19946-0.85516C83.72284,4.49615,84,3.79449,84,2.96106c0-0.8335-0.27716-1.53473-0.83087-2.1059
			C82.6153,0.28516,81.88208,0,80.96967,0c-0.91284,0-1.64557,0.28516-2.19934,0.85516
			c-0.55426,0.57117-0.83142,1.2724-0.83142,2.1059c0,0.83344,0.27716,1.5351,0.83142,2.10596
			C79.3241,5.63727,80.05682,5.92218,80.96967,5.92218z"/>
	</g>
</g>
</svg>
