<svg width="36" height="36" viewBox="0 0 36 36" fill="none" xmlns="http://www.w3.org/2000/svg">
<g id="Anonymous" opacity="0.5">
<path id="Rectangle 3465402" d="M28.7969 21.0552C28.7969 21.0552 28.7969 19.4332 28.7969 23.4365C28.7969 29.9036 17.9969 33.3031 17.9969 33.3031C17.9969 33.3031 7.19687 29.9036 7.19687 23.3747C7.19687 19.3713 7.19687 21.0542 7.19687 21.0542" stroke="#6B7280" stroke-width="2"/>
<path id="Rectangle 3465403" d="M4.5 12.7969C4.5 11.6923 5.39543 10.7969 6.5 10.7969H18H29.5C30.6046 10.7969 31.5 11.6923 31.5 12.7969V17.7969C31.5 18.9014 30.6046 19.7969 29.5 19.7969H21.6689C20.9172 19.7969 20.1928 19.5146 19.6392 19.006L18.6766 18.1216C18.294 17.7701 17.706 17.7701 17.3234 18.1216L16.3608 19.006C15.8072 19.5146 15.0828 19.7969 14.3311 19.7969H6.5C5.39543 19.7969 4.5 18.9014 4.5 17.7969V12.7969Z" fill="#6B7280"/>
<path id="Rectangle 3465402_2" d="M28.8031 9.9C28.8031 9.43918 28.8031 9.05375 28.8031 8.73233C28.8031 7.99038 27.9167 6.92109 27.254 6.58752C25.5004 5.70492 22.3166 4.5 18.0031 4.5C13.6897 4.5 10.5058 5.70492 8.75225 6.58752C8.08951 6.92109 7.20313 7.99038 7.20313 8.73233C7.20313 9.05375 7.20313 9.43918 7.20313 9.9" stroke="#6B7280" stroke-width="2"/>
<path id="Vector 2778" d="M17.3858 26L15 25.2133V24L17.9995 24.1801L21 24V25.2133L18.6131 26H17.3858Z" fill="#6B7280"/>
</g>
</svg>
