<svg width="18" height="18" viewBox="0 0 18 18" fill="none" xmlns="http://www.w3.org/2000/svg">
<path d="M16 9V13C16 14.8856 16 15.8284 15.4142 16.4142C14.8284 17 13.8856 17 12 17H4C2.89543 17 2 16.1046 2 15V15C2 13.8954 2.89543 13 4 13H12C13.8856 13 14.8284 13 15.4142 12.4142C16 11.8284 16 10.8856 16 9V5C16 3.11438 16 2.17157 15.4142 1.58579C14.8284 1 13.8856 1 12 1H6C4.11438 1 3.17157 1 2.58579 1.58579C2 2.17157 2 3.11438 2 5V14.7778" stroke="black" stroke-width="1.8"/>
<path d="M6 6L12 6" stroke="black" stroke-width="1.8" stroke-linecap="round"/>
</svg>
