<svg width="24" height="24" viewBox="0 0 24 24" fill="none" xmlns="http://www.w3.org/2000/svg">
<path d="M3 14.4575L2 14.4574V14.4575H3ZM20.9855 14.9428L20 14.7727C19.9937 14.8092 19.9895 14.846 19.9873 14.883L20.9855 14.9428ZM20.3149 17.7265L21.2314 18.1264V18.1264L20.3149 17.7265ZM18.364 20.4978L19.0524 21.2231L19.0524 21.2231L18.364 20.4978ZM15.4442 22.3495L15.81 23.2802H15.81L15.4442 22.3495ZM8.55585 22.3495L8.92174 21.4189L8.92173 21.4189L8.55585 22.3495ZM5.63604 20.4978L6.32446 19.7725H6.32446L5.63604 20.4978ZM3.68508 17.7265L2.76856 18.1264H2.76856L3.68508 17.7265ZM3 14.4581H2V14.4582L3 14.4581ZM16.7556 4.67699L17.4108 5.43249L16.7556 4.67699ZM15.3079 5.95714L16.1149 5.36657L15.3079 5.95714ZM15.5518 5.96188L16.3347 6.58394L15.5518 5.96188ZM11.2322 2.01516L11.7352 2.87943L11.2322 2.01516ZM11.3813 2.02267L10.8071 2.84134L11.3813 2.02267ZM10.7291 1.15089C10.2707 1.41771 8.11847 2.72626 6.06955 4.94888C4.02349 7.16841 2.00023 10.3895 2 14.4574L4 14.4575C4.00019 11.0831 5.67777 8.32464 7.54006 6.30447C9.3995 4.28739 11.3631 3.09599 11.7352 2.87943L10.7291 1.15089ZM16.1149 5.36657C14.3441 2.94685 12.3925 1.51044 11.9556 1.20399L10.8071 2.84134C11.147 3.07978 12.9075 4.37043 14.5009 6.54772L16.1149 5.36657ZM16.3347 6.58394C16.8402 5.94779 17.2597 5.56345 17.4108 5.43249L16.1005 3.92149C15.8736 4.11822 15.3641 4.59048 14.7688 5.33982L16.3347 6.58394ZM16.2804 5.43137C16.7803 5.86457 20.0001 8.8739 20.0001 14.4573H22.0001C22.0001 8.04469 18.2964 4.53193 17.5902 3.91992L16.2804 5.43137ZM20.0001 14.4573V14.7715H22.0001V14.4573H20.0001ZM20.0001 14.7715C20.0001 14.7727 20 14.773 20 14.7727L21.9709 15.113C21.9902 15.0013 22.0001 14.8872 22.0001 14.7715H20.0001ZM19.9873 14.883C19.937 15.7208 19.7387 16.5468 19.3984 17.3265L21.2314 18.1264C21.6651 17.1328 21.9193 16.0766 21.9837 15.0027L19.9873 14.883ZM19.3984 17.3265C19.0006 18.2379 18.4161 19.0695 17.6755 19.7725L19.0524 21.2231C19.9833 20.3396 20.7246 19.2878 21.2314 18.1264L19.3984 17.3265ZM17.6755 19.7725C16.9348 20.4755 16.0527 21.0358 15.0783 21.4189L15.81 23.2802C17.0194 22.8047 18.1216 22.1065 19.0524 21.2231L17.6755 19.7725ZM15.0783 21.4189C14.1038 21.802 13.0576 21.9998 12 21.9998V23.9998C13.3062 23.9998 14.6007 23.7556 15.81 23.2802L15.0783 21.4189ZM12 21.9998C10.9424 21.9998 9.89625 21.802 8.92174 21.4189L8.18996 23.2802C9.39931 23.7556 10.6938 23.9998 12 23.9998V21.9998ZM8.92173 21.4189C7.94729 21.0358 7.06516 20.4755 6.32446 19.7725L4.94762 21.2231C5.87838 22.1065 6.98055 22.8047 8.18996 23.2802L8.92173 21.4189ZM6.32446 19.7725C5.58388 19.0695 4.99936 18.2379 4.60161 17.3265L2.76856 18.1264C3.27539 19.2878 4.01675 20.3396 4.94762 21.2231L6.32446 19.7725ZM4.60161 17.3265C4.20399 16.4154 4.00008 15.4408 4 14.458L2 14.4582C2.0001 15.7185 2.26176 16.9651 2.76856 18.1264L4.60161 17.3265ZM4 14.4581V14.4575H2V14.4581H4ZM17.4108 5.43249C17.1013 5.70087 16.6174 5.72345 16.2804 5.43137L17.5902 3.91992C17.148 3.53677 16.515 3.56199 16.1005 3.92149L17.4108 5.43249ZM14.5009 6.54772C14.9508 7.16248 15.8622 7.17871 16.3347 6.58394L14.7688 5.33982C15.116 4.90284 15.784 4.91443 16.1149 5.36657L14.5009 6.54772ZM11.7352 2.87943C11.5976 2.9595 11.4308 3.00439 11.2538 2.99483C11.0784 2.98535 10.9254 2.92436 10.8071 2.84134L11.9556 1.20399C11.6056 0.958455 11.1306 0.91722 10.7291 1.15089L11.7352 2.87943Z" fill="#374151"/>
<path d="M7.68473 15.4725L8.54717 15.9787C8.55488 15.9655 8.56228 15.9522 8.56938 15.9388L7.68473 15.4725ZM16.3155 15.4729L15.4308 15.9391C15.4379 15.9526 15.4453 15.9659 15.453 15.979L16.3155 15.4729ZM11.921 11.0516L12.4759 11.8835L11.921 11.0516ZM12.0792 11.0516L11.5242 11.8835L12.0792 11.0516ZM11.366 10.2197C10.8808 10.5434 8.16435 12.4178 6.80009 15.0063L8.56938 15.9388C9.67811 13.8352 12.0055 12.1973 12.4759 11.8835L11.366 10.2197ZM17.2002 15.0067C15.836 12.418 13.1194 10.5434 12.6341 10.2197L11.5242 11.8835C11.9947 12.1973 14.3222 13.8353 15.4308 15.9391L17.2002 15.0067ZM15.453 15.979C15.8005 16.5712 16 17.2606 16 17.9997H18C18 16.8952 17.7006 15.8575 17.178 14.9668L15.453 15.979ZM16 17.9997C16 20.2088 14.2091 21.9997 12 21.9997V23.9997C15.3137 23.9997 18 21.3134 18 17.9997H16ZM12 21.9997C9.79086 21.9997 8 20.2088 8 17.9997H6C6 21.3134 8.68629 23.9997 12 23.9997V21.9997ZM8 17.9997C8 17.2605 8.19958 16.5709 8.54717 15.9787L6.8223 14.9664C6.29947 15.8572 6 16.895 6 17.9997H8ZM12.4759 11.8835C12.1884 12.0753 11.8118 12.0753 11.5242 11.8835L12.6341 10.2197C12.2497 9.96323 11.7505 9.96322 11.366 10.2197L12.4759 11.8835Z" fill="#374151"/>
</svg>
