<svg width="42" height="42" viewBox="0 0 42 42" fill="none" xmlns="http://www.w3.org/2000/svg">
<g clip-path="url(#clip0_4101_18286)">
<path d="M6.265 37.093H31.2183L30.0265 33.2342L32.8773 35.6807L35.49 38.0222L40.25 42V4.33125C40.131 1.98975 38.115 0 35.616 0L6.27375 0.00525C3.7765 0.00525 1.75 1.9985 1.75 4.34V32.76C1.75 35.2292 3.773 37.093 6.265 37.093ZM24.724 9.94525L24.6663 9.96625L24.6873 9.94525H24.724ZM11.3698 12.166C14.5775 9.8315 17.5508 9.9435 17.5508 9.9435L17.7905 10.1797C13.8653 11.116 12.0855 12.8695 12.0855 12.8695C12.0855 12.8695 12.5615 12.6367 13.3928 12.2815C18.6795 10.2025 24.4528 10.353 29.7973 12.985C29.7973 12.985 28.014 11.3452 24.3303 10.2952L24.6558 9.975C25.165 9.97675 27.86 10.0712 30.744 12.18C30.744 12.18 33.971 17.6925 33.971 24.465C33.8643 24.3355 31.969 27.3805 27.0918 27.4855C27.0918 27.4855 26.2658 26.551 25.6778 25.7355C28.5303 24.9165 29.5978 23.2785 29.5978 23.2785C28.6615 23.8682 27.8075 24.2182 27.1145 24.5682C26.0488 25.0372 24.9813 25.2682 23.9155 25.5045C18.8685 26.3235 16.0353 24.9532 13.3578 23.8665L12.4425 23.401C12.4425 23.401 13.5083 25.039 16.247 25.858C15.5278 26.6787 14.8155 27.6115 14.8155 27.6115C9.94 27.496 8.162 24.451 8.162 24.451C8.162 17.668 11.3698 12.166 11.3698 12.166Z" fill="white"/>
<path d="M25.0387 22.3492C26.283 22.3492 27.2962 21.2992 27.2962 20.0042C27.2962 18.718 26.2882 17.668 25.0387 17.668V17.6732C23.7997 17.6732 22.7847 18.7197 22.7812 20.0147C22.7812 21.2992 23.7945 22.3492 25.0387 22.3492Z" fill="white"/>
<path d="M16.9577 22.3492C18.202 22.3492 19.2152 21.2992 19.2152 20.0042C19.2152 18.718 18.209 17.668 16.9647 17.668L16.9577 17.6732C15.7134 17.6732 14.7002 18.7197 14.7002 20.0147C14.7002 21.2992 15.7134 22.3492 16.9577 22.3492Z" fill="white"/>
</g>
<defs>
<clipPath id="clip0_4101_18286">
<rect width="42" height="42" fill="white"/>
</clipPath>
</defs>
</svg>
