<svg width="48" height="48" fill="none" xmlns="http://www.w3.org/2000/svg">
  <path d="M11.794 2.433A1.162 1.162 0 0 0 11.548.12L9.174.374c-1.216.13-2.191.234-2.983.378-.816.148-1.516.35-2.165.714a6.675 6.675 0 0 0-2.53 2.506c-.37.646-.578 1.343-.732 2.157C.614 6.919.5 7.893.36 9.106l-.006.052-.233 2.318a1.162 1.162 0 1 0 2.313.232l.231-2.3c.146-1.264.249-2.15.381-2.845.13-.682.275-1.1.467-1.436a4.35 4.35 0 0 1 1.648-1.633c.338-.19.76-.331 1.443-.455.699-.127 1.59-.223 2.86-.358l2.33-.248Zm22.613-1.28a1.162 1.162 0 0 0 1.033 1.28l2.33.248c1.27.135 2.16.231 2.859.358.684.124 1.105.265 1.443.455a4.35 4.35 0 0 1 1.648 1.633c.193.335.337.754.467 1.436.132.695.235 1.581.38 2.844l.232 2.302a1.162 1.162 0 1 0 2.313-.233l-.233-2.318-.006-.052c-.14-1.214-.252-2.187-.402-2.977-.155-.814-.364-1.511-.734-2.157a6.675 6.675 0 0 0-2.529-2.506c-.65-.364-1.349-.566-2.165-.714-.792-.144-1.767-.248-2.983-.378L35.686.121a1.162 1.162 0 0 0-1.279 1.033Zm0 44.923a1.162 1.162 0 0 1 1.033-1.28l2.33-.248c1.27-.135 2.16-.23 2.859-.357.684-.124 1.105-.266 1.443-.455a4.35 4.35 0 0 0 1.648-1.633c.193-.336.337-.755.467-1.437.132-.695.235-1.581.38-2.844l.232-2.301a1.162 1.162 0 1 1 2.313.233l-.233 2.317-.006.053c-.14 1.213-.252 2.186-.402 2.976-.155.814-.364 1.512-.734 2.158a6.675 6.675 0 0 1-2.529 2.506c-.65.364-1.349.566-2.165.714-.792.143-1.767.247-2.983.377l-2.374.253a1.162 1.162 0 0 1-1.279-1.032Zm-21.58 0a1.162 1.162 0 0 0-1.033-1.28l-2.33-.248c-1.27-.135-2.16-.23-2.859-.357-.684-.124-1.105-.266-1.443-.455a4.35 4.35 0 0 1-1.648-1.633c-.192-.336-.337-.755-.467-1.437-.132-.695-.235-1.581-.38-2.844l-.232-2.301a1.162 1.162 0 0 0-2.313.233l.233 2.317.006.053c.14 1.213.252 2.186.403 2.976.154.814.363 1.512.733 2.158a6.674 6.674 0 0 0 2.529 2.506c.65.364 1.349.566 2.165.714.792.143 1.767.247 2.983.377l2.374.253a1.162 1.162 0 0 0 1.279-1.032Zm-.636-31.422a1 1 0 0 0-1 1v16.264a1 1 0 0 0 1 1h3.166a1 1 0 0 0 1-1V15.654a1 1 0 0 0-1-1h-3.166Zm8.56 0a1 1 0 0 0-1 1v16.264a1 1 0 0 0 1 1h7.637c2 0 3.774-.374 5.322-1.122 1.548-.748 2.749-1.809 3.601-3.183.852-1.374 1.279-2.983 1.279-4.827 0-1.844-.427-3.453-1.279-4.827-.852-1.374-2.053-2.435-3.6-3.183-1.549-.748-3.323-1.122-5.323-1.122H20.75Zm11.185 12.811c-.94.887-2.192 1.33-3.757 1.33h-2.962a.3.3 0 0 1-.3-.3v-9.419a.3.3 0 0 1 .3-.3h2.962c1.565 0 2.818.444 3.757 1.331.957.887 1.435 2.114 1.435 3.68 0 1.565-.478 2.79-1.435 3.678Z" fill="url(#a)" />
  <defs>
    <linearGradient id="a" x1="11.415" y1="15.756" x2="27.548" y2="39.206" gradientUnits="userSpaceOnUse">
      <stop stop-color="#CC5CDC" />
      <stop offset=".245" stop-color="#7B66FF" />
      <stop offset=".521" stop-color="#1F8AF0" />
      <stop offset=".76" stop-color="#00D1FF" />
      <stop offset="1" stop-color="#3DEDD7" />
    </linearGradient>
  </defs>
</svg>
