<svg width="25" height="25" viewBox="0 0 25 25" fill="none" xmlns="http://www.w3.org/2000/svg">
<path fill-rule="evenodd" clip-rule="evenodd" d="M6.29434 1.77834C6.62025 1.7436 6.85629 1.45123 6.82154 1.12532C6.78679 0.799406 6.49442 0.563373 6.16851 0.59812L4.95651 0.72734C4.33556 0.79354 3.83752 0.846635 3.43304 0.919969C3.01636 0.995515 2.65925 1.09878 2.32758 1.28466C1.78908 1.58645 1.34265 2.02868 1.036 2.56423C0.847098 2.89414 0.740737 3.25016 0.661669 3.66585C0.584928 4.06931 0.52769 4.56636 0.456341 5.18596L0.453267 5.21265L0.33426 6.39617C0.301469 6.72229 0.539252 7.01324 0.865364 7.04603C1.19148 7.07882 1.48243 6.84103 1.51522 6.51492L1.63337 5.33993C1.70764 4.69502 1.76018 4.24249 1.82768 3.88764C1.89392 3.53938 1.96786 3.32542 2.06602 3.15399C2.26579 2.80509 2.55673 2.51683 2.90784 2.32006C3.08045 2.22333 3.29544 2.15118 3.64478 2.08784C4.00147 2.02317 4.45625 1.97432 5.10475 1.90517L6.29434 1.77834ZM17.8415 1.12532C17.8068 1.45123 18.0428 1.7436 18.3687 1.77834L19.5583 1.90517C20.2068 1.97432 20.6616 2.02317 21.0183 2.08784C21.3676 2.15118 21.5826 2.22333 21.7552 2.32006C22.1063 2.51683 22.3973 2.80509 22.597 3.15399C22.6952 3.32542 22.7691 3.53938 22.8354 3.88764C22.9029 4.24249 22.9554 4.69502 23.0297 5.33993L23.1478 6.51492C23.1806 6.84103 23.4716 7.07882 23.7977 7.04603C24.1238 7.01324 24.3616 6.72229 24.3288 6.39617L24.2098 5.21265L24.2067 5.18596L24.2067 5.18589L24.2067 5.18578L24.2067 5.18558C24.1353 4.56616 24.0781 4.06923 24.0014 3.66585C23.9223 3.25016 23.816 2.89414 23.6271 2.56423C23.3204 2.02868 22.874 1.58645 22.3355 1.28466C22.0038 1.09878 21.6467 0.995515 21.23 0.919969C20.8255 0.846635 20.3275 0.79354 19.7065 0.72734L18.4945 0.59812C18.1686 0.563373 17.8763 0.799406 17.8415 1.12532ZM17.8415 24.0641C17.8068 23.7382 18.0428 23.4459 18.3687 23.4111L19.5583 23.2843C20.2068 23.2151 20.6616 23.1663 21.0183 23.1016C21.3676 23.0383 21.5826 22.9661 21.7552 22.8694C22.1063 22.6726 22.3973 22.3844 22.597 22.0355C22.6952 21.864 22.7691 21.6501 22.8354 21.3018C22.9029 20.947 22.9554 20.4944 23.0297 19.8495L23.1478 18.6745C23.1806 18.3484 23.4716 18.1106 23.7977 18.1434C24.1238 18.1762 24.3616 18.4672 24.3288 18.7933L24.2098 19.9768L24.2067 20.0035L24.2067 20.0036L24.2067 20.0037C24.1354 20.6232 24.0781 21.1202 24.0014 21.5236C23.9223 21.9393 23.816 22.2953 23.6271 22.6252C23.3204 23.1608 22.874 23.603 22.3355 23.9048C22.0038 24.0907 21.6467 24.1939 21.23 24.2695C20.8255 24.3428 20.3275 24.3959 19.7065 24.4621L18.4945 24.5913C18.1686 24.6261 17.8763 24.39 17.8415 24.0641ZM6.82154 24.0641C6.85629 23.7382 6.62025 23.4459 6.29434 23.4111L5.10475 23.2843C4.45625 23.2151 4.00147 23.1663 3.64478 23.1016C3.29544 23.0383 3.08045 22.9661 2.90784 22.8694C2.55673 22.6726 2.26579 22.3844 2.06602 22.0355C1.96786 21.864 1.89392 21.6501 1.82768 21.3018C1.76018 20.947 1.70764 20.4944 1.63337 19.8495L1.51522 18.6745C1.48243 18.3484 1.19148 18.1106 0.865364 18.1434C0.539252 18.1762 0.301469 18.4672 0.33426 18.7933L0.453267 19.9768L0.456341 20.0035C0.52769 20.6231 0.584928 21.1201 0.661669 21.5236C0.740737 21.9393 0.847098 22.2953 1.036 22.6252C1.34265 23.1608 1.78908 23.603 2.32758 23.9048C2.65925 24.0907 3.01636 24.1939 3.43304 24.2695C3.83752 24.3428 4.33556 24.3959 4.95651 24.4621L6.16851 24.5913C6.49442 24.6261 6.78679 24.39 6.82154 24.0641ZM6.98626 8.01901C6.43398 8.01901 5.98626 8.46673 5.98626 9.01901V16.3454C5.98626 16.8977 6.43398 17.3454 6.98626 17.3454H7.6243C8.17659 17.3454 8.6243 16.8977 8.6243 16.3454V9.01901C8.6243 8.46673 8.17659 8.01901 7.6243 8.01901H6.98626ZM11.3575 8.01901C10.8052 8.01901 10.3575 8.46673 10.3575 9.01901V16.3454C10.3575 16.8977 10.8052 17.3454 11.3575 17.3454H14.7675C15.789 17.3454 16.695 17.1544 17.4855 16.7725C18.276 16.3906 18.8889 15.8488 19.3241 15.1471C19.7594 14.4453 19.977 13.6237 19.977 12.6822C19.977 11.7407 19.7594 10.9191 19.3241 10.2174C18.8889 9.51568 18.276 8.97386 17.4855 8.59192C16.695 8.20998 15.789 8.01901 14.7675 8.01901H11.3575ZM16.5795 14.5608C16.0999 15.0138 15.4603 15.2403 14.6609 15.2403H13.2955C13.1298 15.2403 12.9955 15.106 12.9955 14.9403V10.4241C12.9955 10.2584 13.1298 10.1241 13.2955 10.1241H14.6609C15.4603 10.1241 16.0999 10.3506 16.5795 10.8036C17.068 11.2566 17.3123 11.8828 17.3123 12.6822C17.3123 13.4816 17.068 14.1078 16.5795 14.5608Z" fill="url(#paint0_linear_29161_36359)"/>
<defs>
<linearGradient id="paint0_linear_29161_36359" x1="6.10064" y1="8.58179" x2="14.339" y2="20.5563" gradientUnits="userSpaceOnUse">
<stop stop-color="#CC5CDC"/>
<stop offset="0.244792" stop-color="#7B66FF"/>
<stop offset="0.520833" stop-color="#1F8AF0"/>
<stop offset="0.760417" stop-color="#00D1FF"/>
<stop offset="1" stop-color="#3DEDD7"/>
</linearGradient>
</defs>
</svg>
