<svg width="40" height="40" viewBox="0 0 40 40" fill="none" xmlns="http://www.w3.org/2000/svg">
<rect width="40" height="40" rx="20" fill="white"/>
<mask id="mask0_39318_31136" style="mask-type:alpha" maskUnits="userSpaceOnUse" x="6" y="6" width="28" height="28">
<rect x="34" y="34" width="28" height="28" rx="14" transform="rotate(180 34 34)" fill="white"/>
</mask>
<g mask="url(#mask0_39318_31136)">
<path d="M19.1483 27.2092L24.8469 30.5055C25.1535 30.682 25.5212 30.6743 25.8282 30.4971L31.5215 27.21C31.8285 27.0328 32.0109 26.7042 32.0194 26.3644L32.0141 19.7811C32.0145 19.4273 31.8292 19.1064 31.5226 18.9299L25.824 15.6336C25.5174 15.4571 25.1497 15.4647 24.8427 15.642L14.6561 21.5232L10.6627 19.2146L10.6601 14.6019L14.651 12.2978L18.6445 14.6063L18.6541 17.6521L21.3333 16.1053L21.3362 13.629C21.3335 13.4632 21.2867 13.2855 21.2062 13.1459C21.1176 12.9925 20.9951 12.8771 20.8528 12.7918L15.1542 9.4955C14.8476 9.31899 14.4799 9.32662 14.1729 9.50386L8.47959 12.7909C8.1726 12.9681 7.99019 13.2967 7.98171 13.6365L7.98704 20.2198C7.98662 20.5736 8.17192 20.8945 8.47849 21.0711L14.1771 24.3673C14.4837 24.5438 14.8514 24.5362 15.1584 24.359L25.345 18.4777L25.4191 18.5094L29.3524 20.7783L29.355 25.391L25.3641 27.6951L21.3706 25.3866L21.3691 22.3547L18.6899 23.9016L18.6869 26.3778C18.6865 26.7316 18.8718 27.0525 19.1784 27.229L19.1483 27.2092Z" fill="#9CA3AF"/>
</g>
</svg>
