<svg width="28" height="29" viewBox="0 0 28 29" fill="none" xmlns="http://www.w3.org/2000/svg">
<path fill-rule="evenodd" clip-rule="evenodd" d="M10.2324 6.42936L14.0013 0.147949L17.7701 6.42936H15V16.4534L19.4104 14.4685C19.7692 14.307 20 13.9501 20 13.5566V12.468H19.0566C18.7805 12.468 18.5566 12.2442 18.5566 11.968V7.96802C18.5566 7.69188 18.7805 7.46802 19.0566 7.46802H23.0566C23.3328 7.46802 23.5566 7.69188 23.5566 7.96802V11.968C23.5566 12.2442 23.3328 12.468 23.0566 12.468H22V13.5566C22 14.7371 21.3077 15.8078 20.2312 16.2923L15 18.6466V20.5V21.7884C16.298 22.2107 17.2361 23.4305 17.2361 24.8694C17.2361 26.6585 15.7858 28.1088 13.9967 28.1088C12.2076 28.1088 10.7573 26.6585 10.7573 24.8694C10.7573 23.4281 11.6986 22.2066 13 21.7862V21.1466L7.76881 18.7923C6.69231 18.3078 6 17.2371 6 16.0566V14.8402C4.94057 14.4609 4.18262 13.4481 4.18262 12.2582C4.18262 10.744 5.41013 9.51648 6.92435 9.51648C8.43857 9.51648 9.66608 10.744 9.66608 12.2582C9.66608 13.3906 8.97955 14.3627 8 14.7809V16.0566C8 16.4501 8.23077 16.807 8.5896 16.9685L13 18.9534V18V6.42936H10.2324Z" fill="currentColor"/>
</svg>
