<svg width="20" height="20" viewBox="0 0 20 20" fill="none" xmlns="http://www.w3.org/2000/svg">
<g clip-path="url(#clip0_35398_60621)">
<path d="M10 12.5C11.3807 12.5 12.5 11.3807 12.5 10C12.5 8.61929 11.3807 7.5 10 7.5C8.61929 7.5 7.5 8.61929 7.5 10C7.5 11.3807 8.61929 12.5 10 12.5Z" stroke="currentColor" stroke-width="1.5" stroke-linecap="round" stroke-linejoin="round"/>
<path d="M15.606 12.274C15.5052 12.5025 15.4751 12.756 15.5197 13.0017C15.5642 13.2475 15.6814 13.4743 15.856 13.6528L15.9015 13.6983C16.0423 13.839 16.1541 14.0061 16.2304 14.19C16.3066 14.374 16.3458 14.5711 16.3458 14.7702C16.3458 14.9694 16.3066 15.1665 16.2304 15.3505C16.1541 15.5344 16.0423 15.7015 15.9015 15.8422C15.7608 15.9831 15.5937 16.0948 15.4097 16.1711C15.2258 16.2473 15.0286 16.2866 14.8295 16.2866C14.6304 16.2866 14.4332 16.2473 14.2493 16.1711C14.0654 16.0948 13.8982 15.9831 13.7575 15.8422L13.7121 15.7968C13.5335 15.6221 13.3068 15.5049 13.061 15.4604C12.8153 15.4158 12.5618 15.4459 12.3333 15.5468C12.1092 15.6428 11.9181 15.8022 11.7835 16.0055C11.6489 16.2087 11.5767 16.4469 11.5757 16.6907V16.8195C11.5757 17.2213 11.4161 17.6067 11.1319 17.8909C10.8478 18.175 10.4624 18.3346 10.0606 18.3346C9.65872 18.3346 9.27334 18.175 8.98919 17.8909C8.70504 17.6067 8.54541 17.2213 8.54541 16.8195V16.7513C8.53955 16.5005 8.45838 16.2574 8.31247 16.0533C8.16655 15.8493 7.96264 15.6939 7.72723 15.6074C7.49873 15.5065 7.24527 15.4764 6.99951 15.521C6.75376 15.5656 6.52699 15.6827 6.34844 15.8574L6.30299 15.9028C6.16227 16.0437 5.99517 16.1554 5.81123 16.2317C5.6273 16.3079 5.43013 16.3472 5.23102 16.3472C5.0319 16.3472 4.83474 16.3079 4.65081 16.2317C4.46687 16.1554 4.29977 16.0437 4.15905 15.9028C4.01818 15.7621 3.90642 15.595 3.83017 15.4111C3.75392 15.2271 3.71468 15.03 3.71468 14.8308C3.71468 14.6317 3.75392 14.4346 3.83017 14.2506C3.90642 14.0667 4.01818 13.8996 4.15905 13.7589L4.2045 13.7134C4.37915 13.5349 4.49631 13.3081 4.54087 13.0624C4.58543 12.8166 4.55535 12.5631 4.4545 12.3346C4.35847 12.1106 4.19902 11.9195 3.99577 11.7849C3.79252 11.6503 3.55434 11.578 3.31057 11.5771H3.18178C2.77993 11.5771 2.39455 11.4174 2.1104 11.1333C1.82626 10.8491 1.66663 10.4637 1.66663 10.0619C1.66663 9.66006 1.82626 9.27468 2.1104 8.99053C2.39455 8.70639 2.77993 8.54676 3.18178 8.54676H3.24996C3.50071 8.54089 3.7439 8.45972 3.94791 8.31381C4.15192 8.16789 4.30732 7.96398 4.3939 7.72857C4.49474 7.50008 4.52483 7.24661 4.48027 7.00086C4.43571 6.7551 4.31855 6.52833 4.1439 6.34979L4.09844 6.30433C3.95757 6.16361 3.84581 5.99651 3.76957 5.81257C3.69332 5.62864 3.65407 5.43148 3.65407 5.23236C3.65407 5.03325 3.69332 4.83609 3.76957 4.65215C3.84581 4.46821 3.95757 4.30111 4.09844 4.16039C4.23916 4.01952 4.40626 3.90776 4.5902 3.83151C4.77414 3.75527 4.9713 3.71602 5.17041 3.71602C5.36953 3.71602 5.56669 3.75527 5.75063 3.83151C5.93456 3.90776 6.10167 4.01952 6.24238 4.16039L6.28784 4.20585C6.46638 4.3805 6.69315 4.49765 6.93891 4.54221C7.18466 4.58677 7.43813 4.55669 7.66663 4.45585H7.72723C7.9513 4.35981 8.1424 4.20036 8.277 3.99711C8.4116 3.79386 8.48383 3.55569 8.48481 3.31191V3.18312C8.48481 2.78128 8.64444 2.39589 8.92858 2.11175C9.21273 1.8276 9.59811 1.66797 9.99996 1.66797C10.4018 1.66797 10.7872 1.8276 11.0713 2.11175C11.3555 2.39589 11.5151 2.78128 11.5151 3.18312V3.2513C11.5161 3.49508 11.5883 3.73325 11.7229 3.9365C11.8575 4.13975 12.0486 4.29921 12.2727 4.39524C12.5012 4.49609 12.7546 4.52617 13.0004 4.48161C13.2462 4.43705 13.4729 4.31989 13.6515 4.14524L13.6969 4.09979C13.8376 3.95891 14.0047 3.84716 14.1887 3.77091C14.3726 3.69466 14.5698 3.65541 14.7689 3.65541C14.968 3.65541 15.1652 3.69466 15.3491 3.77091C15.533 3.84716 15.7001 3.95891 15.8409 4.09979C15.9817 4.2405 16.0935 4.40761 16.1697 4.59154C16.246 4.77548 16.2852 4.97264 16.2852 5.17176C16.2852 5.37087 16.246 5.56803 16.1697 5.75197C16.0935 5.9359 15.9817 6.10301 15.8409 6.24373L15.7954 6.28918C15.6208 6.46772 15.5036 6.6945 15.459 6.94025C15.4145 7.186 15.4446 7.43947 15.5454 7.66797V7.72857C15.6414 7.95264 15.8009 8.14374 16.0042 8.27834C16.2074 8.41294 16.4456 8.48518 16.6894 8.48615H16.8181C17.22 8.48615 17.6054 8.64578 17.8895 8.92993C18.1737 9.21407 18.3333 9.59946 18.3333 10.0013C18.3333 10.4031 18.1737 10.7885 17.8895 11.0727C17.6054 11.3568 17.22 11.5165 16.8181 11.5165H16.75C16.5062 11.5174 16.268 11.5897 16.0648 11.7243C15.8615 11.8589 15.702 12.05 15.606 12.274V12.274Z" stroke="currentColor" stroke-width="1.5" stroke-linecap="round" stroke-linejoin="round"/>
</g>
<defs>
<clipPath id="clip0_35398_60621">
<rect width="20" height="20" fill="white"/>
</clipPath>
</defs>
</svg>
