<svg width="18" height="18" viewBox="0 0 18 18" fill="none" xmlns="http://www.w3.org/2000/svg">
<rect width="18" height="18" rx="9" fill="white"/>
<g clip-path="url(#clip0_38878_56152)">
<path d="M12.2044 5.88477C11.5098 5.88477 10.7493 6.26328 9.94716 7.00989C9.56864 7.36063 9.23527 7.74262 8.99219 8.04473C8.99219 8.04473 9.38112 8.4927 9.80825 8.97539C10.0409 8.68369 10.3708 8.28782 10.7563 7.93014C11.4682 7.26339 11.9335 7.12796 12.2009 7.12796C13.201 7.12796 14.0136 7.96834 14.0136 9.00665C14.0136 10.0345 13.201 10.8749 12.2009 10.8853C12.1523 10.8853 12.0967 10.8784 12.0273 10.8645C12.319 10.9999 12.635 11.0972 12.9301 11.0972C14.7637 11.0972 15.1248 9.82966 15.1457 9.73937C15.1978 9.5067 15.229 9.26362 15.229 9.01359C15.2255 7.2877 13.8712 5.88477 12.2044 5.88477Z" fill="url(#paint0_linear_38878_56152)"/>
<path d="M5.79809 12.1284C6.49261 12.1284 7.25311 11.7499 8.05529 11.0033C8.4338 10.6526 8.76717 10.2706 9.01025 9.96845C9.01025 9.96845 8.62132 9.52048 8.19419 9.03779C7.96152 9.32949 7.63163 9.72537 7.24617 10.083C6.53428 10.7428 6.06548 10.8852 5.80156 10.8852C4.80144 10.8852 3.98885 10.0448 3.98885 9.00654C3.98885 7.97864 4.80144 7.13827 5.80156 7.12785C5.85017 7.12785 5.90574 7.1348 5.97519 7.14869C5.68349 7.01326 5.36748 6.91602 5.07231 6.91602C3.23877 6.91255 2.87762 8.18006 2.85678 8.27382C2.80469 8.50648 2.77344 8.74956 2.77344 8.99959C2.77344 10.7255 4.12776 12.1284 5.79809 12.1284Z" fill="url(#paint1_linear_38878_56152)"/>
<path fill-rule="evenodd" clip-rule="evenodd" d="M7.19016 7.95792C6.98875 7.76345 6.00947 6.96822 5.07187 6.94044C3.39806 6.89877 2.90843 8.11418 2.86328 8.27045C3.18623 6.90919 4.38081 5.89171 5.79764 5.88477C6.95402 5.88477 8.12429 7.02031 8.98898 8.04473L8.99245 8.04126C8.99245 8.04126 9.38138 8.48923 9.80851 8.97192C9.80851 8.97192 10.2947 9.5449 10.8086 10.0484C11.01 10.2429 11.9858 11.0277 12.9234 11.0555C14.6424 11.1041 15.1181 9.81924 15.1424 9.722C14.8264 11.0937 13.6284 12.1146 12.2046 12.1216C11.0482 12.1216 9.87796 10.986 9.00981 9.96162C9.00981 9.96509 9.00634 9.96509 9.00634 9.96856C9.00634 9.96856 8.61741 9.52059 8.19027 9.0379C8.19375 9.0379 7.70758 8.46145 7.19016 7.95792ZM2.86328 8.28434C2.86328 8.28087 2.86328 8.2774 2.86675 8.27392C2.86328 8.2774 2.86328 8.28087 2.86328 8.28434Z" fill="#29ABE2"/>
</g>
<defs>
<linearGradient id="paint0_linear_38878_56152" x1="10.5787" y1="6.37949" x2="14.8597" y2="10.6958" gradientUnits="userSpaceOnUse">
<stop offset="0.21" stop-color="#F15A24"/>
<stop offset="0.6841" stop-color="#FBB03B"/>
</linearGradient>
<linearGradient id="paint1_linear_38878_56152" x1="7.42487" y1="11.6344" x2="3.1438" y2="7.3181" gradientUnits="userSpaceOnUse">
<stop offset="0.21" stop-color="#ED1E79"/>
<stop offset="0.8929" stop-color="#522785"/>
</linearGradient>
<clipPath id="clip0_38878_56152">
<rect width="12.5469" height="12.5469" fill="white" transform="translate(2.72656 2.72656)"/>
</clipPath>
</defs>
</svg>
