<svg width="18" height="18" viewBox="0 0 18 18" fill="none" xmlns="http://www.w3.org/2000/svg">
<rect width="18" height="18" rx="9" fill="#F7931A"/>
<g clip-path="url(#clip0_38878_56151)">
<path d="M13.0635 7.72409C13.2451 6.51024 12.3209 5.85776 11.0572 5.42248L11.4672 3.77822L10.4663 3.52882L10.0672 5.12979C9.80408 5.06416 9.53385 5.00232 9.26528 4.94102L9.66725 3.32948L8.66696 3.08008L8.25678 4.7238C8.03904 4.67423 7.82517 4.62523 7.61767 4.5736L7.61883 4.56843L6.23855 4.22375L5.97229 5.29279C5.97229 5.29279 6.71489 5.46301 6.69924 5.47349C7.10455 5.57465 7.17785 5.84295 7.16568 6.05562L6.6987 7.92882C6.72661 7.93591 6.76282 7.94617 6.80276 7.96222C6.76937 7.95392 6.73384 7.94487 6.69696 7.93604L6.04243 10.5601C5.99289 10.6833 5.86716 10.8681 5.58379 10.7979C5.59382 10.8124 4.85631 10.6164 4.85631 10.6164L4.35938 11.7621L5.6619 12.0868C5.90421 12.1475 6.14167 12.2111 6.37551 12.2709L5.96133 13.934L6.96108 14.1834L7.37125 12.538C7.64438 12.6121 7.90943 12.6805 8.16891 12.745L7.76012 14.3827L8.76108 14.6321L9.17522 12.9721C10.882 13.2951 12.1653 13.1649 12.7055 11.6211C13.1408 10.3782 12.6839 9.66127 11.7859 9.19376C12.4399 9.04293 12.9325 8.61279 13.0639 7.72423L13.0636 7.724L13.0635 7.72409ZM10.7767 10.9308C10.4674 12.1738 8.37466 11.5019 7.69618 11.3334L8.24582 9.13005C8.92425 9.29943 11.1 9.63461 10.7767 10.9308H10.7767ZM11.0862 7.70608C10.8041 8.83664 9.06228 8.26227 8.49727 8.12143L8.99559 6.12312C9.5606 6.26396 11.3802 6.52683 11.0863 7.70608H11.0862Z" fill="white"/>
</g>
<defs>
<clipPath id="clip0_38878_56151">
<rect width="18" height="18" fill="white"/>
</clipPath>
</defs>
</svg>
