<svg width="24" height="24" viewBox="0 0 28 28" fill="none" xmlns="http://www.w3.org/2000/svg">
  <path stroke="currentColor" stroke-width="2" stroke-linecap="round" stroke-linejoin="round" d="M14.016 19v-5m0 9v3M18 22v-8c0-2.202-1.911-4-4-4-2.259 0-4 1.912-4 4v12" />
  <path stroke="currentColor" stroke-width="2" stroke-linecap="round" stroke-linejoin="round" d="M22 26V14c0-3.252-2.139-5.904-4.354-7.012a8.027 8.027 0 0 0-6.484-.355M6 22v-7.5c0-3.036 1.245-4.763 1.963-5.572" />
  <path stroke="currentColor" stroke-width="2" stroke-linecap="round" stroke-linejoin="round" d="M26 22v-7.61c0-2.547-.645-4.662-1.478-6.15M2.39 11.018S2.9 8.507 5.035 6.05a11.934 11.934 0 0 1 8.967-4.04c3.863 0 6.491 1.744 7.947 3.026l.087.076M2 15v3" />
</svg>
