<svg width="42" height="42" viewBox="0 0 42 42" fill="none" xmlns="http://www.w3.org/2000/svg">
<g clip-path="url(#clip0_4101_18282)">
<path d="M37.6845 12.4477C39.3925 11.235 40.8292 9.72125 42 7.97825V7.9765C40.4372 8.66075 38.7747 9.11575 37.0387 9.33625C38.8237 8.2705 40.187 6.59575 40.8275 4.578C39.1632 5.57025 37.3257 6.27025 35.3675 6.66225C33.7872 4.97875 31.535 3.9375 29.078 3.9375C24.311 3.9375 20.4732 7.80675 20.4732 12.5492C20.4732 13.2317 20.531 13.888 20.6727 14.5127C13.5152 14.1627 7.18025 10.7327 2.92425 5.5055C2.18225 6.79525 1.74475 8.2705 1.74475 9.85775C1.74475 12.8397 3.2795 15.4822 5.57025 17.0135C4.186 16.9872 2.82975 16.5847 1.68 15.953V16.0475C1.68 20.2317 4.66375 23.7072 8.5785 24.5087C7.87675 24.7012 7.11375 24.7922 6.321 24.7922C5.76975 24.7922 5.21325 24.7607 4.69175 24.6452C5.8065 28.0542 8.974 30.562 12.7365 30.6442C9.807 32.935 6.0865 34.3157 2.05975 34.3157C1.3545 34.3157 0.67725 34.2842 0 34.1985C3.815 36.6572 8.3335 38.0625 13.209 38.0625C28.4042 38.0625 38.3075 25.3855 37.6845 12.4477Z" fill="white"/>
</g>
<defs>
<clipPath id="clip0_4101_18282">
<rect width="42" height="42" fill="white"/>
</clipPath>
</defs>
</svg>
