<svg width="48" height="48" viewBox="0 0 48 48" fill="none" xmlns="http://www.w3.org/2000/svg">
<path d="M28.5 8H19.5C13.136 8 9.95406 8 7.97703 10.0084C6 12.0168 6 15.2493 6 21.7143V26.2857C6 32.7507 6 35.9832 7.97703 37.9916C9.95406 40 13.136 40 19.5 40H28.5C34.864 40 38.0459 40 40.023 37.9916C42 35.9832 42 32.7507 42 26.2857V21.7143C42 15.2493 42 12.0168 40.023 10.0084C38.0459 8 34.864 8 28.5 8Z" stroke="currentColor" stroke-width="2"/>
<path d="M14 16H20" stroke="currentColor" stroke-width="2" stroke-linecap="round"/>
<path d="M30 30.2222V25.7778C30 24.9397 30 24.5207 30.2603 24.2604C30.5207 24 30.9397 24 31.7778 24H40.2222C41.0603 24 41.4793 24 41.7397 24.2604C42 24.5207 42 24.9397 42 25.7778V30.2222C42 31.0603 42 31.4793 41.7397 31.7397C41.4793 32 41.0603 32 40.2222 32H31.7778C30.9397 32 30.5207 32 30.2603 31.7397C30 31.4793 30 31.0603 30 30.2222Z" stroke="currentColor" stroke-width="2"/>
</svg>
