<svg width="18" height="18" viewBox="0 0 18 18" fill="none" xmlns="http://www.w3.org/2000/svg">
<path d="M10.9375 2.85742L7.0625 2.85744C4.67601 2.85743 3.48277 2.85743 2.74139 3.61059C2 4.36374 2 5.57593 2 8.00029L2 9.71458C2 12.1389 2 13.3511 2.74138 14.1043C3.48277 14.8574 4.67601 14.8574 7.0625 14.8574L10.9375 14.8574C13.324 14.8574 14.5172 14.8574 15.2586 14.1043C16 13.3511 16 12.1389 16 9.71456L16 8.00028C16 5.57591 16 4.36373 15.2586 3.61057C14.5172 2.85742 13.324 2.85742 10.9375 2.85742Z" stroke="#9CA3AF" stroke-width="2"/>
<path d="M11 9.16667L11 8.83333C11 8.20479 11 7.89052 11.1953 7.69526C11.3905 7.5 11.7048 7.5 12.3333 7.5L14.4167 7.5C15.0452 7.5 15.3595 7.5 15.5547 7.69526C15.75 7.89052 15.75 8.20479 15.75 8.83333L15.75 9.16667C15.75 9.79521 15.75 10.1095 15.5547 10.3047C15.3595 10.5 15.0452 10.5 14.4167 10.5L12.3333 10.5C11.7048 10.5 11.3905 10.5 11.1953 10.3047C11 10.1095 11 9.79521 11 9.16667Z" stroke="#9CA3AF" stroke-width="2"/>
</svg>
