<svg id="Layer_1" data-name="Layer 1" xmlns="http://www.w3.org/2000/svg" viewBox="0 0 1321 354.86"><defs><style>.cls-1{fill:#f05c22;}.cls-2{fill:#fbaf28;}.cls-3{fill:#23a8e0;}.cls-4{fill:#ec1978;}</style></defs><path class="cls-1" d="M1267.21,343.23a162.42,162.42,0,0,1-140.27,6.4A160.16,160.16,0,0,1,1040,262.69a162.06,162.06,0,0,1,0-126.77A160.19,160.19,0,0,1,1126.94,49a162.93,162.93,0,0,1,140.17,6.2,162.16,162.16,0,0,1,58.06,52.05L1337,99.55a177.06,177.06,0,0,0-63.09-56.77A176.66,176.66,0,0,0,1121.42,36,175,175,0,0,0,1027,130.4a175.42,175.42,0,0,0,0,137.81,174.94,174.94,0,0,0,94.43,94.43,176.6,176.6,0,0,0,152.3-6.7,177.42,177.42,0,0,0,63.08-56.29L1325.37,291A163.72,163.72,0,0,1,1267.21,343.23Z" transform="translate(-16 -21.88)"/><path class="cls-1" d="M1190.32,121.24a77.65,77.65,0,0,1,64.67,34.1l11.63-7.68A91.57,91.57,0,0,0,1233.89,118a91.79,91.79,0,0,0-79.35-3.65,91.13,91.13,0,0,0-49.19,49.18,91.48,91.48,0,0,0,0,71.57,91.19,91.19,0,0,0,49.19,49.19,91.87,91.87,0,0,0,79.16-3.55,91.55,91.55,0,0,0,32.72-29.37L1255,243.07a77.54,77.54,0,0,1-27.7,25,76.17,76.17,0,0,1-37,9.26q-32.33,0-55.2-22.86t-22.86-55.2q0-32.34,22.86-55.2T1190.32,121.24Z" transform="translate(-16 -21.88)"/><path class="cls-1" d="M1290.08,131.49a119.52,119.52,0,0,0-42.88-38.64,121.26,121.26,0,0,0-117.4,2,119.48,119.48,0,0,0-44,44,121.34,121.34,0,0,0,0,121,119.45,119.45,0,0,0,44,44,121.22,121.22,0,0,0,117.4,2,119.61,119.61,0,0,0,42.88-38.64L1278.45,259a106.31,106.31,0,0,1-37.85,34.11,106.71,106.71,0,0,1-103.7-1.68,106.22,106.22,0,0,1-38.74-38.74,106.95,106.95,0,0,1,0-106.85,106.37,106.37,0,0,1,38.74-38.74,106.91,106.91,0,0,1,103.6-1.77,106.25,106.25,0,0,1,37.75,33.81Z" transform="translate(-16 -21.88)"/><path class="cls-1" d="M1313.74,115.72a149.19,149.19,0,0,0-53-47.81,149.37,149.37,0,0,0-145.1,2.37,148.46,148.46,0,0,0-54.32,54.31,145.7,145.7,0,0,0-20,74.72,145.7,145.7,0,0,0,20,74.72,148.53,148.53,0,0,0,54.32,54.31,149.48,149.48,0,0,0,144.8,2.56,148.21,148.21,0,0,0,52.93-47.41L1301.91,275A135.19,135.19,0,0,1,1254,318.18a131.16,131.16,0,0,1-63.68,16,132.77,132.77,0,0,1-52.44-10.64,131.58,131.58,0,0,1-71.76-71.77,134.52,134.52,0,0,1,0-104.87,131.67,131.67,0,0,1,71.76-71.77,135,135,0,0,1,116,5.23,134.11,134.11,0,0,1,48,43.08Z" transform="translate(-16 -21.88)"/><rect class="cls-2" x="415.25" y="7.74" width="14.81" height="340.71"/><rect class="cls-2" x="385.62" y="7.74" width="14.81" height="340.71"/><rect class="cls-2" x="356" y="7.74" width="14.81" height="340.71"/><rect class="cls-2" x="326.37" y="7.74" width="14.81" height="340.71"/><polygon class="cls-3" points="511.61 348.44 526.42 348.44 526.42 99.09 511.61 73.98 511.61 348.44"/><polygon class="cls-3" points="783.19 7.74 768.37 7.74 768.37 257.1 783.19 282.2 783.19 7.74"/><polygon class="cls-3" points="723.93 7.74 709.12 7.74 709.12 159.99 723.93 184.47 723.93 7.74"/><polygon class="cls-3" points="753.56 7.74 738.75 7.74 738.75 208.13 753.56 233.02 753.56 7.74"/><polygon class="cls-3" points="798 324.37 603.78 7.74 586.5 7.74 795.32 348.44 812.81 348.44 812.81 7.74 798 7.74 798 324.37"/><polygon class="cls-3" points="541.23 348.44 556.05 348.44 556.05 148.05 541.23 123.16 541.23 348.44"/><polygon class="cls-3" points="516.75 7.74 726.2 348.44 743.48 348.44 534.03 7.74 516.75 7.74"/><polygon class="cls-3" points="551.73 7.74 760.76 348.44 778.45 348.44 569.21 7.74 551.73 7.74"/><polygon class="cls-3" points="570.86 348.44 585.67 348.44 585.67 196.2 570.86 171.72 570.86 348.44"/><polygon class="cls-3" points="481.98 7.74 481.98 348.44 496.79 348.44 496.79 31.81 691.42 348.44 708.5 348.44 499.68 7.74 481.98 7.74"/><rect class="cls-2" x="917.57" y="7.74" width="14.81" height="340.71"/><rect class="cls-2" x="858.31" y="7.74" width="14.81" height="340.71"/><rect class="cls-2" x="947.19" y="7.74" width="14.81" height="340.71"/><rect class="cls-2" x="887.94" y="7.74" width="14.81" height="340.71"/><rect class="cls-4" x="29.71" y="4.16" width="14.85" height="341.64"/><polygon class="cls-4" points="89.12 345.8 103.98 345.8 103.98 251.7 89.12 222.7 89.12 345.8"/><polygon class="cls-4" points="59.42 345.8 74.27 345.8 74.27 193.69 64.69 174.98 74.27 156.27 74.27 4.16 59.42 4.16 59.42 345.8"/><polygon class="cls-4" points="103.98 4.16 89.12 4.16 89.12 127.26 103.98 98.25 103.98 4.16"/><rect class="cls-4" y="4.16" width="14.85" height="341.64"/><polygon class="cls-4" points="106.92 177.62 194.39 6.8 177.88 6.8 103.98 151.13 90.41 177.62 103.98 204.11 176.53 345.8 177.88 348.44 194.39 348.44 193.03 345.8 106.92 177.62"/><polygon class="cls-4" points="140.34 177.62 227.61 6.8 211.1 6.8 123.83 177.62 209.75 345.8 211.1 348.44 227.61 348.44 226.25 345.8 140.34 177.62"/><polygon class="cls-4" points="173.55 177.62 260.82 6.8 244.32 6.8 157.05 177.62 242.97 345.8 244.32 348.44 260.82 348.44 259.47 345.8 173.55 177.62"/><polygon class="cls-4" points="277.53 6.8 190.26 177.62 277.53 348.44 294.04 348.44 206.77 177.62 294.04 6.8 277.53 6.8"/></svg>