<svg width="256" height="256" viewBox="0 0 256 256" fill="none" xmlns="http://www.w3.org/2000/svg">
<path fill-rule="evenodd" clip-rule="evenodd" d="M63.6049 12.6249C67.0812 12.2543 69.5988 9.13577 69.2282 5.65948C68.8576 2.1832 65.7391 -0.334434 62.2628 0.0361972L49.3351 1.41451C42.7117 2.12062 37.3995 2.68696 33.0851 3.46916C28.6406 4.27497 24.8315 5.37647 21.2938 7.35912C15.5499 10.5781 10.7881 15.2951 7.5173 21.0075C5.50238 24.5265 4.36789 28.324 3.52452 32.7579C2.70597 37.0613 2.09544 42.3631 1.3344 48.972L1.30161 49.2566L0.0322382 61.8806C-0.31753 65.3591 2.21877 68.4624 5.69721 68.8122C9.17566 69.162 12.279 66.6257 12.6288 63.1472L13.889 50.6142C14.6812 43.7354 15.2417 38.9085 15.9616 35.1235C16.6682 31.4089 17.4569 29.1267 18.5039 27.2982C20.6347 23.5767 23.738 20.502 27.4831 18.4031C29.3242 17.3713 31.6175 16.6017 35.3436 15.9262C39.1482 15.2364 43.999 14.7153 50.9163 13.9778L63.6049 12.6249ZM186.772 5.65948C186.401 9.13577 188.919 12.2543 192.395 12.6249L205.084 13.9778C212.001 14.7153 216.852 15.2364 220.656 15.9262C224.383 16.6017 226.676 17.3713 228.517 18.4031C232.262 20.502 235.365 23.5767 237.496 27.2982C238.543 29.1267 239.332 31.4089 240.038 35.1235C240.758 38.9085 241.319 43.7354 242.111 50.6142L243.371 63.1472C243.721 66.6257 246.824 69.162 250.303 68.8122C253.781 68.4624 256.318 65.3591 255.968 61.8806L254.698 49.2566L254.666 48.972L254.666 48.9713C253.905 42.3628 253.294 37.0612 252.476 32.7579C251.632 28.324 250.498 24.5265 248.483 21.0075C245.212 15.2951 240.45 10.5781 234.706 7.35912C231.169 5.37647 227.359 4.27497 222.915 3.46916C218.601 2.68696 213.288 2.12062 206.665 1.41451L193.737 0.0361972C190.261 -0.334434 187.142 2.1832 186.772 5.65948ZM186.772 250.334C186.401 246.858 188.919 243.74 192.395 243.369L205.084 242.016C212.001 241.279 216.852 240.757 220.656 240.068C224.383 239.392 226.676 238.623 228.517 237.591C232.262 235.492 235.365 232.417 237.496 228.696C238.543 226.867 239.332 224.585 240.038 220.87C240.758 217.085 241.319 212.258 242.111 205.38L243.371 192.847C243.721 189.368 246.824 186.832 250.303 187.182C253.781 187.531 256.318 190.635 255.968 194.113L254.698 206.737L254.666 207.022L254.666 207.022C253.905 213.631 253.294 218.933 252.476 223.236C251.632 227.67 250.498 231.467 248.483 234.986C245.212 240.699 240.45 245.416 234.706 248.635C231.169 250.617 227.359 251.719 222.915 252.525C218.601 253.307 213.288 253.873 206.665 254.579L193.737 255.958C190.261 256.328 187.142 253.811 186.772 250.334ZM69.2282 250.334C69.5988 246.858 67.0812 243.74 63.6049 243.369L50.9163 242.016C43.999 241.279 39.1482 240.757 35.3436 240.068C31.6175 239.392 29.3242 238.623 27.4831 237.591C23.738 235.492 20.6347 232.417 18.5039 228.696C17.4569 226.867 16.6682 224.585 15.9616 220.87C15.2417 217.085 14.6812 212.258 13.889 205.38L12.6288 192.847C12.279 189.368 9.17566 186.832 5.69721 187.182C2.21877 187.531 -0.31753 190.635 0.0322382 194.113L1.30161 206.737L1.3344 207.022C2.09544 213.631 2.70597 218.932 3.52452 223.236C4.36789 227.67 5.50238 231.467 7.5173 234.986C10.7881 240.699 15.5499 245.416 21.2938 248.635C24.8315 250.617 28.6406 251.719 33.0851 252.525C37.3995 253.307 42.7117 253.873 49.3351 254.579L62.2628 255.958C65.7391 256.328 68.8576 253.811 69.2282 250.334ZM61.3191 79.1905C60.7668 79.1905 60.3191 79.6382 60.3191 80.1905V177.67C60.3191 178.222 60.7668 178.67 61.3191 178.67H87.4575C88.0098 178.67 88.4575 178.222 88.4575 177.67V80.1905C88.4575 79.6382 88.0098 79.1905 87.4575 79.1905H61.3191ZM107.944 79.1905C107.392 79.1905 106.944 79.6382 106.944 80.1905V177.67C106.944 178.222 107.392 178.67 107.944 178.67H153.984C164.879 178.67 174.543 176.633 182.975 172.559C191.407 168.485 197.944 162.706 202.586 155.221C207.229 147.736 209.55 138.973 209.55 128.93C209.55 118.887 207.229 110.124 202.586 102.639C197.944 95.1545 191.407 89.3753 182.975 85.3013C174.543 81.2274 164.879 79.1905 153.984 79.1905H107.944ZM173.311 148.968C168.195 153.8 161.374 156.216 152.847 156.216H135.383C135.217 156.216 135.083 156.082 135.083 155.916V101.944C135.083 101.779 135.217 101.644 135.383 101.644H152.847C161.374 101.644 168.195 104.06 173.311 108.892C178.522 113.724 181.127 120.403 181.127 128.93C181.127 137.457 178.522 144.136 173.311 148.968Z" fill="url(#paint0_linear_27677_36404)"/>
<defs>
<linearGradient id="paint0_linear_27677_36404" x1="61.5388" y1="85.1932" x2="149.412" y2="212.919" gradientUnits="userSpaceOnUse">
<stop stop-color="#CC5CDC"/>
<stop offset="0.244792" stop-color="#7B66FF"/>
<stop offset="0.520833" stop-color="#1F8AF0"/>
<stop offset="0.760417" stop-color="#00D1FF"/>
<stop offset="1" stop-color="#3DEDD7"/>
</linearGradient>
</defs>
</svg>
