<svg width="256" height="256" viewBox="0 0 256 256" fill="none" xmlns="http://www.w3.org/2000/svg">
<path d="M193.784 64C179.514 64 163.889 71.777 147.407 87.1171C139.63 94.3233 132.781 102.172 127.786 108.379C127.786 108.379 135.777 117.583 144.553 127.501C149.334 121.507 156.112 113.373 164.031 106.025C178.658 92.3255 188.219 89.5429 193.713 89.5429C214.261 89.5429 230.957 106.809 230.957 128.143C230.957 149.262 214.261 166.528 193.713 166.742C192.714 166.742 191.572 166.6 190.145 166.314C196.138 169.097 202.631 171.095 208.696 171.095C246.368 171.095 253.788 145.052 254.216 143.197C255.287 138.417 255.929 133.423 255.929 128.285C255.857 92.825 228.031 64 193.784 64Z" fill="url(#paint0_linear_28538_35998)"/>
<path d="M62.1449 192.286C76.4147 192.286 92.0401 184.509 108.522 169.169C116.299 161.963 123.148 154.115 128.143 147.907C128.143 147.907 120.152 138.703 111.376 128.786C106.595 134.779 99.8172 142.913 91.8974 150.262C77.2709 163.818 67.6388 166.743 62.2163 166.743C41.6678 166.743 24.9721 149.477 24.9721 128.144C24.9721 107.024 41.6678 89.7579 62.2163 89.5438C63.2152 89.5438 64.3567 89.6865 65.7837 89.9719C59.7904 87.1893 53.2977 85.1916 47.233 85.1916C9.56076 85.1202 2.14047 111.163 1.71237 113.089C0.642141 117.869 0 122.864 0 128.001C0 163.461 27.8261 192.286 62.1449 192.286Z" fill="url(#paint1_linear_28538_35998)"/>
<path fill-rule="evenodd" clip-rule="evenodd" d="M90.8275 106.595C86.6893 102.6 66.5689 86.2609 47.3047 85.6901C12.9145 84.8339 2.85429 109.806 1.92676 113.017C8.56221 85.0479 33.1062 64.1427 62.2166 64C85.9758 64 110.02 87.3311 127.786 108.379L127.858 108.308C127.858 108.308 135.849 117.512 144.625 127.429C144.625 127.429 154.613 139.202 165.173 149.547C169.311 153.543 189.36 169.668 208.625 170.239C243.942 171.237 253.717 144.838 254.217 142.841C247.724 171.023 223.108 192 193.855 192.143C170.096 192.143 146.052 168.812 128.214 147.764C128.214 147.835 128.143 147.835 128.143 147.906C128.143 147.906 120.152 138.702 111.376 128.785C111.447 128.785 101.459 116.941 90.8275 106.595ZM1.92676 113.302C1.92676 113.231 1.92676 113.159 1.99811 113.088C1.92676 113.159 1.92676 113.231 1.92676 113.302Z" fill="#29ABE2"/>
<defs>
<linearGradient id="paint0_linear_28538_35998" x1="160.382" y1="74.1647" x2="248.342" y2="162.848" gradientUnits="userSpaceOnUse">
<stop offset="0.21" stop-color="#F15A24"/>
<stop offset="0.6841" stop-color="#FBB03B"/>
</linearGradient>
<linearGradient id="paint1_linear_28538_35998" x1="95.5691" y1="182.136" x2="7.60958" y2="93.4527" gradientUnits="userSpaceOnUse">
<stop offset="0.21" stop-color="#ED1E79"/>
<stop offset="0.8929" stop-color="#522785"/>
</linearGradient>
</defs>
</svg>
