<svg width="256" height="256" viewBox="0 0 256 256" fill="none" xmlns="http://www.w3.org/2000/svg">
<rect x="0.5" y="0.5" width="255" height="255" fill="#741719"/>
<path d="M112.255 163.32V183.995H152.759V197.78H105.363H98.4704V190.888V163.32H60.1428H53.2502V156.428V111.208V104.315H60.1428H105.363H112.255V111.208V126.927H145.867V111.208V104.315H152.759H197.979H204.872V111.208V156.428V163.32H197.979H152.759H145.867V156.428V140.71H112.255V145.667V156.428V163.32V163.32ZM124.872 49.1822L187.54 13L194.432 24.9371L128.566 62.9653H53.2502V49.1822H124.872ZM163.518 90.5326L215.105 60.748L221.995 72.6851L191.086 90.5326H163.518ZM132.26 76.7495L201.317 36.8775L208.207 48.8145L135.953 90.5326H53.25V76.7495H132.259H132.26ZM204.872 177.105V236.108V243H197.979H60.1428H53.2502V236.108V177.105H67.0331V229.219H191.089V177.105H204.872ZM98.4704 118.101H67.0331V149.537H98.4704V145.667V118.101ZM191.089 118.101H159.651V149.537H191.089V118.101Z" fill="white"/>
<rect x="0.5" y="0.5" width="255" height="255" stroke="black"/>
</svg>
