<svg width="24" height="24" viewBox="0 0 24 24" fill="none" xmlns="http://www.w3.org/2000/svg">
<g clip-path="url(#clip0_10889_25976)">
<path d="M3 19.0086C3.00048 18.8311 3.04525 18.6587 3.12743 18.5086L11.228 4.45956C11.3136 4.31382 11.431 4.19777 11.5658 4.11896C11.7008 4.03998 11.8502 4 12 4C12.1498 4 12.2992 4.03998 12.4342 4.11896C12.569 4.19777 12.6864 4.31382 12.772 4.45956C12.7723 4.46021 12.7727 4.46086 12.7731 4.46151L20.8726 18.5085C20.9547 18.6587 20.9995 18.8311 21 19.0086C21.0005 19.1884 20.9555 19.3632 20.8721 19.5152C20.7888 19.6671 20.6713 19.7889 20.535 19.8722C20.4004 19.9545 20.2506 19.9975 20.1 20H3.90003C3.74943 19.9975 3.59965 19.9545 3.46502 19.8722C3.32872 19.7889 3.2112 19.6671 3.1279 19.5152C3.04448 19.3632 2.99952 19.1884 3 19.0086Z" stroke="#F97316" stroke-width="2" stroke-linecap="round" stroke-linejoin="round"/>
<path d="M12 16.167H12.0088" stroke="#F97316" stroke-width="2" stroke-linecap="round" stroke-linejoin="round"/>
<path d="M12 9.5V12.8333" stroke="#F97316" stroke-width="2" stroke-linecap="round" stroke-linejoin="round"/>
</g>
<defs>
<clipPath id="clip0_10889_25976">
<rect width="24" height="24" fill="white"/>
</clipPath>
</defs>
</svg>
