<svg width="24" height="24" viewBox="0 0 24 24" fill="none" xmlns="http://www.w3.org/2000/svg">
<path d="M9 6C9 6.39397 9.0776 6.78407 9.22836 7.14805C9.37913 7.51203 9.6001 7.84274 9.87868 8.12132C10.1573 8.3999 10.488 8.62087 10.852 8.77164C11.2159 8.9224 11.606 9 12 9C12.394 9 12.7841 8.9224 13.1481 8.77164C13.512 8.62087 13.8427 8.3999 14.1213 8.12132C14.3999 7.84274 14.6209 7.51203 14.7716 7.14805C14.9224 6.78407 15 6.39396 15 6C15 5.60603 14.9224 5.21593 14.7716 4.85195C14.6209 4.48797 14.3999 4.15725 14.1213 3.87868C13.8427 3.6001 13.512 3.37912 13.148 3.22836C12.7841 3.0776 12.394 3 12 3C11.606 3 11.2159 3.0776 10.8519 3.22836C10.488 3.37913 10.1573 3.6001 9.87868 3.87868C9.6001 4.15726 9.37912 4.48797 9.22836 4.85195C9.0776 5.21593 9 5.60604 9 6L9 6Z" stroke="#374151" stroke-width="2"/>
<path d="M4.43806 13.9015C4.09687 14.0985 3.79783 14.3607 3.558 14.6733C3.31817 14.9858 3.14225 15.3426 3.04028 15.7231C2.93831 16.1037 2.9123 16.5006 2.96372 16.8912C3.01515 17.2818 3.143 17.6584 3.33998 17.9996C3.53696 18.3408 3.79922 18.6398 4.11177 18.8796C4.42433 19.1195 4.78106 19.2954 5.1616 19.3974C5.54214 19.4993 5.93904 19.5253 6.32964 19.4739C6.72023 19.4225 7.09687 19.2946 7.43806 19.0977C7.77924 18.9007 8.07829 18.6384 8.31812 18.3259C8.55795 18.0133 8.73387 17.6566 8.83583 17.276C8.9378 16.8955 8.96381 16.4986 8.91239 16.108C8.86097 15.7174 8.73312 15.3408 8.53613 14.9996C8.33915 14.6584 8.07689 14.3594 7.76434 14.1195C7.45179 13.8797 7.09505 13.7038 6.71451 13.6018C6.33397 13.4998 5.93707 13.4738 5.54648 13.5252C5.15588 13.5767 4.77924 13.7045 4.43806 13.9015L4.43806 13.9015Z" stroke="#374151" stroke-width="2"/>
<path d="M19.5619 13.9015C19.9031 14.0985 20.2022 14.3607 20.442 14.6733C20.6818 14.9859 20.8578 15.3426 20.9597 15.7231C21.0617 16.1037 21.0877 16.5006 21.0363 16.8912C20.9849 17.2818 20.857 17.6584 20.66 17.9996C20.463 18.3408 20.2008 18.6398 19.8882 18.8796C19.5757 19.1195 19.2189 19.2954 18.8384 19.3974C18.4579 19.4993 18.061 19.5253 17.6704 19.4739C17.2798 19.4225 16.9031 19.2946 16.5619 19.0977C16.2208 18.9007 15.9217 18.6384 15.6819 18.3259C15.4421 18.0133 15.2661 17.6566 15.1642 17.276C15.0622 16.8955 15.0362 16.4986 15.0876 16.108C15.139 15.7174 15.2669 15.3408 15.4639 14.9996C15.6609 14.6584 15.9231 14.3594 16.2357 14.1195C16.5482 13.8797 16.9049 13.7038 17.2855 13.6018C17.666 13.4998 18.0629 13.4738 18.4535 13.5252C18.8441 13.5767 19.2208 13.7045 19.5619 13.9015L19.5619 13.9015Z" stroke="#374151" stroke-width="2"/>
<path fill-rule="evenodd" clip-rule="evenodd" d="M9.06937 6.64344C9.02316 6.43281 8.99969 6.2173 8.99969 6.00062C8.99969 5.60666 9.07728 5.21655 9.22805 4.85257C9.29978 4.67939 9.38741 4.51374 9.48958 4.35765C9.17317 4.44955 8.86144 4.55894 8.55584 4.68552C7.46391 5.13781 6.47176 5.80075 5.63603 6.63648C4.80031 7.47221 4.13737 8.46436 3.68508 9.55629C3.23279 10.6482 3 11.8185 3 13.0004C3 13.7256 3.08763 14.4464 3.25983 15.1474C3.34387 14.981 3.44344 14.8225 3.55744 14.6739C3.79727 14.3614 4.09632 14.0991 4.4375 13.9021C4.62525 13.7937 4.82373 13.7063 5.02937 13.641C5.00983 13.4284 5 13.2147 5 13.0004C5 12.0812 5.18106 11.1709 5.53284 10.3217C5.88462 9.47238 6.40024 8.7007 7.05025 8.05069C7.63541 7.46553 8.31916 6.98929 9.06937 6.64344ZM14.9301 6.64318C15.6805 6.98905 16.3644 7.46538 16.9497 8.05069C17.5998 8.7007 18.1154 9.47237 18.4672 10.3216C18.8189 11.1709 19 12.0812 19 13.0004C19 13.2147 18.9902 13.4285 18.9706 13.6411C19.176 13.7064 19.3743 13.7938 19.5619 13.9021C19.9031 14.0991 20.2021 14.3614 20.4419 14.6739C20.5561 14.8227 20.6558 14.9816 20.74 15.1482C20.9123 14.447 21 13.7259 21 13.0004C21 11.8185 20.7672 10.6482 20.3149 9.55628C19.8626 8.46435 19.1997 7.4722 18.364 6.63647C17.5282 5.80075 16.5361 5.13781 15.4441 4.68552C15.1383 4.55884 14.8263 4.44937 14.5096 4.35742C14.6119 4.51358 14.6996 4.67931 14.7713 4.85257C14.9221 5.21655 14.9997 5.60666 14.9997 6.00062C14.9997 6.21721 14.9762 6.43263 14.9301 6.64318ZM18.2301 19.4955C18.0437 19.506 17.8563 19.499 17.6703 19.4745C17.2797 19.4231 16.9031 19.2953 16.5619 19.0983C16.3743 18.99 16.1995 18.862 16.0403 18.7168C15.6167 19.0161 15.1602 19.2682 14.6788 19.4676C13.8295 19.8194 12.9193 20.0004 12 20.0004C11.0807 20.0004 10.1705 19.8194 9.32122 19.4676C8.83964 19.2681 8.38302 19.016 7.95938 18.7165C7.80007 18.8618 7.62516 18.9899 7.4375 19.0983C7.09632 19.2953 6.71967 19.4231 6.32908 19.4745C6.14331 19.499 5.95611 19.5059 5.76992 19.4955C6.57698 20.2696 7.52166 20.887 8.55585 21.3154C9.64778 21.7676 10.8181 22.0004 12 22.0004C13.1819 22.0004 14.3522 21.7676 15.4442 21.3154C16.4784 20.887 17.4231 20.2696 18.2301 19.4955Z" fill="#374151"/>
</svg>
