<svg width="24" height="24" viewBox="0 0 24 24" fill="none" xmlns="http://www.w3.org/2000/svg">
<path stroke="currentColor" d="M5 8V16C5 17.8856 5 18.8284 5.58579 19.4142C6.17157 20 7.11438 20 9 20H15C16.8856 20 17.8284 20 18.4142 19.4142C19 18.8284 19 17.8856 19 16V8M5 8H19M5 8H3.86364C3.71017 8 3.63343 8 3.58014 7.96011C3.56488 7.94868 3.55132 7.93512 3.53989 7.91986C3.5 7.86657 3.5 7.78983 3.5 7.63636V7.63636C3.5 6.10168 3.5 5.33434 3.89892 4.80144C4.01321 4.64876 4.14876 4.51321 4.30144 4.39892C4.83434 4 5.60168 4 7.13636 4H16.8636C18.3983 4 19.1657 4 19.6986 4.39892C19.8512 4.51321 19.9868 4.64876 20.1011 4.80144C20.5 5.33434 20.5 6.10168 20.5 7.63636V7.63636C20.5 7.78983 20.5 7.86657 20.4601 7.91986C20.4487 7.93512 20.4351 7.94868 20.4199 7.96011C20.3666 8 20.2898 8 20.1364 8H19" stroke-width="2"/>
<path stroke="currentColor" d="M10 12H14" stroke-width="2" stroke-linecap="round"/>
</svg>
