<svg width="449" height="80" viewBox="0 0 449 80" fill="none" xmlns="http://www.w3.org/2000/svg">
<path opacity="0.3" d="M52.3426 7.78566C47.0727 8.51358 42.9284 10.8174 41.4706 13.8292L15.4454 67.6006C13.9877 70.6124 15.4381 73.8748 19.2502 76.1587L87.3095 116.934C91.1216 119.218 96.7164 120.177 101.986 119.449L196.071 106.453C201.341 105.725 205.485 103.422 206.943 100.41L232.968 46.6385C234.426 43.6266 232.975 40.3643 229.163 38.0803L161.104 -2.69539C157.292 -4.97933 151.697 -5.93789 146.427 -5.20997L52.3426 7.78566Z" fill="url(#paint0_radial_4798_15319)"/>
<path opacity="0.3" d="M205.948 -93.3052C200.678 -92.5772 196.534 -90.2734 195.076 -87.2616L169.051 -33.4902C167.593 -30.4784 169.043 -27.216 172.855 -24.9321L240.915 15.8436C244.727 18.1276 250.322 19.0861 255.591 18.3582L349.676 5.36256C354.946 4.63464 359.09 2.33084 360.548 -0.681013L386.573 -54.4524C388.031 -57.4642 386.58 -60.7266 382.768 -63.0105L314.709 -103.786C310.897 -106.07 305.302 -107.029 300.032 -106.301L205.948 -93.3052Z" fill="url(#paint1_radial_4798_15319)"/>
<path opacity="0.3" d="M422.571 -53.9184C417.301 -53.1905 413.156 -50.8867 411.699 -47.8749L385.673 5.89647C384.216 8.90833 385.666 12.1707 389.478 14.4546L457.537 55.2303C461.35 57.5143 466.944 58.4728 472.214 57.7449L566.299 44.7493C571.569 44.0214 575.713 41.7176 577.171 38.7057L603.196 -15.0656C604.654 -18.0775 603.203 -21.3398 599.391 -23.6238L531.332 -64.3995C527.52 -66.6834 521.925 -67.642 516.655 -66.9141L422.571 -53.9184Z" fill="url(#paint2_radial_4798_15319)"/>
<g filter="url(#filter0_d_4798_15319)">
<path d="M270.464 37.5666C265.506 38.3336 261.633 40.5693 260.305 43.4315L237.154 87.7767C237.154 88.4349 237.145 93.7264 237.154 94.4619C237.182 96.6117 238.658 98.7051 241.362 100.266L303.273 136.007C306.903 138.103 312.193 138.921 317.151 138.154L401.722 125.072C406.681 124.305 410.553 122.069 411.882 119.207L434.543 70.3839C434.892 69.6318 435.051 68.8664 435.031 68.1087C434.973 65.9828 435.031 61.4838 435.031 61.4838L368.913 26.6312C365.284 24.5359 359.994 23.7176 355.036 24.4845L270.464 37.5666Z" fill="url(#paint3_linear_4798_15319)"/>
</g>
<g filter="url(#filter1_di_4798_15319)">
<path d="M270.464 30.9672C265.506 31.7342 261.633 33.9699 260.305 36.8321L237.644 85.6553C236.315 88.5176 237.733 91.5716 241.362 93.6669L303.273 129.408C306.902 131.503 312.193 132.322 317.151 131.555L401.722 118.473C406.68 117.706 410.553 115.47 411.881 112.608L434.542 63.7845C435.871 60.9222 434.453 57.8682 430.824 55.7728L368.913 20.0318C365.284 17.9365 359.993 17.1181 355.035 17.8851L270.464 30.9672Z" fill="url(#paint4_linear_4798_15319)"/>
</g>
<g style="mix-blend-mode:overlay" opacity="0.5" filter="url(#filter2_f_4798_15319)">
<path d="M277.292 38.4991C272.926 39.1668 269.523 41.131 268.367 43.6517L248.638 85.6549C247.481 88.1757 248.746 90.87 251.956 92.7231L306.708 124.331C309.918 126.184 314.585 126.915 318.952 126.247L393.432 114.858C397.799 114.19 401.201 112.226 402.358 109.705L422.086 66.7072C423.243 64.1865 421.978 61.4921 418.768 59.6391L364.016 29.0252C360.806 27.1722 356.139 26.442 351.773 27.1097L277.292 38.4991Z" stroke="url(#paint5_linear_4798_15319)" stroke-width="1.52268"/>
</g>
<path d="M277.105 36.3577C272.748 37.0317 269.345 38.9965 268.177 41.5119L249.575 81.7924C248.408 84.3078 249.654 86.9916 252.843 88.833L307.251 120.243C310.441 122.084 315.09 122.803 319.447 122.129L393.769 110.632C398.126 109.958 401.53 107.994 402.697 105.478L421.299 65.1978C422.466 62.6824 421.221 59.9985 418.031 58.1571L363.623 26.7476C360.434 24.9062 355.785 24.187 351.427 24.861L277.105 36.3577Z" stroke="url(#paint6_linear_4798_15319)" stroke-width="1.52268"/>
<g filter="url(#filter3_dii_4798_15319)">
<path d="M286.929 41.9386C283.21 42.5138 280.306 44.1906 279.31 46.3373L262.335 82.9091C261.339 85.0558 262.402 87.3463 265.124 88.9178L311.499 115.69C314.221 117.262 318.189 117.875 321.907 117.3L385.257 107.501C388.976 106.926 391.88 105.249 392.877 103.102L409.851 66.5304C410.847 64.3837 409.784 62.0932 407.062 60.5217L360.687 33.7493C357.965 32.1778 353.997 31.564 350.279 32.1392L286.929 41.9386Z" fill="url(#paint7_linear_4798_15319)"/>
</g>
<g filter="url(#filter4_d_4798_15319)">
<path d="M299.026 57.4315C297.741 52.893 304.689 49.2166 312.427 50.3406L329.648 52.8422C332.181 53.2101 334.819 53.0667 337.118 52.4362L352.743 48.1492C359.764 46.223 368.243 49.0608 369.098 53.6227L370.999 63.7755C371.279 65.2689 372.437 66.6827 374.278 67.7788L386.795 75.23C392.419 78.578 390.711 84.0082 383.501 85.7036L367.455 89.4768C365.095 90.0318 363.172 91.049 362.012 92.357L354.122 101.249C350.577 105.244 341.043 105.763 335.733 102.249L323.914 94.4278C322.176 93.2774 319.83 92.4922 317.271 92.2046L299.878 90.2489C292.063 89.3702 287.878 84.2603 291.806 80.3931L300.548 71.7863C301.834 70.5203 302.306 69.0179 301.886 67.5321L299.026 57.4315Z" fill="url(#paint8_linear_4798_15319)"/>
</g>
<g filter="url(#filter5_d_4798_15319)">
<path fill-rule="evenodd" clip-rule="evenodd" d="M302.016 18.7778C294.372 17.681 288.003 21.6036 289.271 26.0415L295.894 58.0392C296.309 59.492 295.842 60.9615 294.571 62.1998L280.204 54.819C279.425 55.578 278.335 57.0365 278.597 58.999C279.369 63.2004 282.047 68.3189 285.346 74.6231C287.014 77.8102 288.84 81.3002 290.659 85.1281L290.659 85.1282C291.646 87.6082 295.109 89.7689 299.973 90.3095L317.169 92.2207C319.735 92.506 322.089 93.2862 323.834 94.4298L335.524 102.094C337.808 103.591 340.87 104.351 343.903 104.418C347.701 104.944 351.47 104.03 353.682 101.562L354.394 100.61L361.773 92.3706C362.935 91.0731 364.859 90.0639 367.222 89.5128L383.122 85.8037C386.663 84.9778 388.878 83.261 389.552 81.3336C389.723 81.0897 389.805 80.9392 389.805 80.9392C390.116 80.2409 390.819 78.7956 391.735 76.9154C394.881 70.4544 400.528 58.8573 401.319 54.7818C400.902 53.0207 400.106 50.1682 399.062 49.6395L381.193 40.1157C379.374 39.0442 378.23 37.6617 377.954 36.2012L375.092 21.0473C374.249 16.5859 365.872 13.8127 358.934 15.6985L335.368 22.1052C333.097 22.7225 330.491 22.8635 327.988 22.5044L302.016 18.7778Z" fill="url(#paint9_linear_4798_15319)"/>
</g>
<path d="M289.316 25.9855C287.753 20.5148 296.216 16.0803 305.64 17.4324L326.977 19.2127C330.062 19.6553 333.275 19.4815 336.074 18.7205L355.472 13.4471C364.023 11.1224 374.349 14.5402 375.388 20.0393L377.744 32.5136C378.084 34.3138 379.494 36.0177 381.736 37.3383L397.323 48.2343C404.171 52.2683 402.09 58.815 393.308 60.8616L373.336 63.7586C370.461 64.4286 368.119 65.6556 366.705 67.2327L356.956 79.7435C352.637 84.5613 341.025 85.1896 334.559 80.9553L319.844 69.7683C317.727 68.3821 314.87 67.4365 311.755 67.0906L290.215 66.3342C280.697 65.2777 275.602 59.1193 280.388 54.4559L291.193 42.2374C292.759 40.7107 293.335 38.8993 292.824 37.1084L289.316 25.9855Z" fill="url(#paint10_radial_4798_15319)"/>
<path d="M289.316 25.9855C287.753 20.5148 296.216 16.0803 305.64 17.4325L326.977 19.2127C330.062 19.6553 333.275 19.4815 336.074 18.7205L355.472 13.4471C364.023 11.1224 374.349 14.5402 375.388 20.0393L377.744 32.5136C378.084 34.3138 379.494 36.0177 381.736 37.3383L397.323 48.2343C404.171 52.2683 402.09 58.815 393.308 60.8616L373.336 63.7586C370.461 64.4286 368.119 65.6556 366.705 67.2327L356.956 79.7435C352.637 84.5613 341.025 85.1896 334.559 80.9553L319.844 69.7683C317.727 68.3821 314.87 67.4365 311.755 67.0906L290.215 66.3342C280.697 65.2777 275.602 59.1193 280.388 54.4559L291.193 42.2374C292.759 40.7107 293.335 38.8993 292.824 37.1084L289.316 25.9855Z" fill="url(#paint11_radial_4798_15319)"/>
<path d="M289.316 25.9855C287.753 20.5148 296.216 16.0803 305.64 17.4325L326.977 19.2127C330.062 19.6553 333.275 19.4815 336.074 18.7205L355.472 13.4471C364.023 11.1224 374.349 14.5402 375.388 20.0393L377.744 32.5136C378.084 34.3138 379.494 36.0177 381.736 37.3383L397.323 48.2343C404.171 52.2683 402.09 58.815 393.308 60.8616L373.336 63.7586C370.461 64.4286 368.119 65.6556 366.705 67.2327L356.956 79.7435C352.637 84.5613 341.025 85.1896 334.559 80.9553L319.844 69.7683C317.727 68.3821 314.87 67.4365 311.755 67.0906L290.215 66.3342C280.697 65.2777 275.602 59.1193 280.388 54.4559L291.193 42.2374C292.759 40.7107 293.335 38.8993 292.824 37.1084L289.316 25.9855Z" fill="url(#paint12_radial_4798_15319)"/>
<g filter="url(#filter6_i_4798_15319)">
<path d="M289.316 25.9855C287.753 20.5148 296.216 16.0803 305.64 17.4325L326.977 19.2127C330.062 19.6553 333.275 19.4815 336.074 18.7205L355.472 13.4471C364.023 11.1224 374.349 14.5402 375.388 20.0393L377.744 32.5136C378.084 34.3138 379.494 36.0177 381.736 37.3383L397.323 48.2343C404.171 52.2683 402.09 58.815 393.308 60.8616L373.336 63.7586C370.461 64.4286 368.119 65.6556 366.705 67.2327L356.956 79.7435C352.637 84.5613 341.025 85.1896 334.559 80.9553L319.844 69.7683C317.727 68.3821 314.87 67.4365 311.755 67.0906L290.215 66.3342C280.697 65.2777 275.602 59.1193 280.388 54.4559L291.193 42.2374C292.759 40.7107 293.335 38.8993 292.824 37.1084L289.316 25.9855Z" fill="white" fill-opacity="0.01"/>
</g>
<path opacity="0.7" d="M376.532 63.3047L376.623 63.2916C378.465 63.026 389.193 61.7944 394.955 60.1012C399.056 59.0219 400.393 56.8359 400.393 56.8359L388.105 83.4649C388.105 83.4649 386.637 84.9017 383.038 85.7978C379.438 86.6938 377.255 87.2416 377.255 87.2416C374.227 87.9211 367.5 89.4864 364.826 90.3117C362.152 91.137 354.515 100.586 352.929 102.897L356.724 79.9532C357.814 78.5973 363.848 71.0187 366.237 67.8229C368.78 64.4222 373.07 63.8038 376.532 63.3047Z" fill="url(#paint13_linear_4798_15319)"/>
<path opacity="0.7" d="M376.532 63.3043L376.623 63.2911C378.465 63.0255 393.518 61.0552 396.483 59.8792C399.616 58.4886 400.722 56.5863 401.074 55.7432C401.172 55.462 401.223 55.3105 401.223 55.3105C401.223 55.3105 401.187 55.4721 401.074 55.7432C400.534 57.2941 398.557 62.7904 395.747 68.5587C392.427 75.3726 389.592 81.4691 389.592 81.4691C389.592 81.4691 388.583 84.5741 383.038 85.7973C377.492 87.0205 377.255 87.2412 377.255 87.2412C374.227 87.9207 367.5 89.4859 364.826 90.3112C362.152 91.1365 354.515 100.586 352.929 102.897L356.724 79.9528C357.814 78.5968 363.848 71.0183 366.237 67.8225C368.78 64.4218 373.07 63.8033 376.532 63.3043Z" fill="url(#paint14_radial_4798_15319)"/>
<path opacity="0.7" d="M321.274 70.8461C317.949 68.1452 312.704 67.0998 309.191 67.0443C307.331 67.0149 296.882 66.4861 290.52 66.3665C285.55 65.867 283.361 64.3741 283.361 64.3741L296.012 89.5026C296.012 89.5026 298.689 90.2673 305.699 90.9683C312.709 91.6693 314.167 91.8913 314.167 91.8913C317.257 92.1803 317.704 92.2647 320.396 92.8542C323.645 93.5656 338.746 104.634 339.871 105.593L331.243 78.4623C329.989 77.256 324.198 73.222 321.274 70.8461Z" fill="url(#paint15_linear_4798_15319)"/>
<path opacity="0.7" d="M321.274 70.8461C317.949 68.1452 312.704 67.0998 309.191 67.0443C307.331 67.0149 296.882 66.4861 290.52 66.3665C285.55 65.867 283.361 64.3741 283.361 64.3741L296.012 89.5026C296.012 89.5026 298.689 90.2673 305.699 90.9683C312.709 91.6693 314.167 91.8913 314.167 91.8913C317.257 92.1803 317.704 92.2647 320.396 92.8542C323.645 93.5656 338.746 104.634 339.871 105.593L331.243 78.4623C329.989 77.256 324.198 73.222 321.274 70.8461Z" fill="url(#paint16_radial_4798_15319)"/>
<g style="mix-blend-mode:overlay" opacity="0.7" filter="url(#filter7_i_4798_15319)">
<path fill-rule="evenodd" clip-rule="evenodd" d="M289.131 24.5699C289.137 24.9942 289.198 25.4179 289.317 25.8374L291.468 32.8081L289.317 25.9858C289.179 25.5048 289.119 25.0317 289.131 24.5699ZM396.97 47.9881L397.324 48.2795C399.005 49.2697 400.148 50.3939 400.785 51.5569C400.148 50.3672 399.005 49.2252 397.323 48.2347L396.97 47.9881ZM401.398 53.9132C401.343 56.7336 398.494 59.4105 393.309 60.6189L373.337 62.9557C370.462 63.6257 368.12 64.4012 366.706 65.9784L356.957 77.8326C352.638 82.6504 341.026 83.2787 334.56 79.0444L319.845 68.5554C317.728 67.1693 314.871 66.6826 311.756 66.3368L289.967 66.1025C286.67 65.7366 283.904 64.7867 281.895 63.5074C283.922 64.9075 286.78 65.9533 290.215 66.3345L311.755 67.091C314.871 67.4368 317.728 68.3825 319.844 69.7686L334.559 80.9557C341.025 85.19 352.637 84.5617 356.956 79.7438L366.706 67.2331C368.119 65.6559 370.461 64.4289 373.336 63.759L393.308 60.8619C398.529 59.6452 401.382 56.8376 401.398 53.9132ZM293.004 38.2753C293.011 38.1412 293 37.9889 292.969 37.8095C292.989 37.965 293 38.1203 293.004 38.2753Z" fill="white"/>
</g>
<g filter="url(#filter8_di_4798_15319)">
<path fill-rule="evenodd" clip-rule="evenodd" d="M394.052 72.1042L396.142 67.7717C395.419 69.7056 394.219 70.3518 390.672 71.1989L371.49 73.9813L371.395 74.0035C368.309 74.7226 366.161 76.0395 364.643 77.7324L355.41 89.4515C351.44 93.9708 341.444 94.3575 335.967 90.8032L321.834 80.0582L321.794 80.0322C319.521 78.5439 316.303 77.1461 313.109 77.1573L313.008 77.1461L292.32 76.4195C287.99 75.9182 285.45 74.2601 284.032 72.1348L286.361 76.575C288.234 77.8024 289.947 78.4132 292.32 78.6766L312.605 79.49C315.136 79.49 318.237 80.7578 320.005 81.9043L333.983 92.1956C340.927 96.7426 352.187 96.2108 355.96 92.0845L365.581 79.6685C366.775 78.0043 369.722 76.4517 371.992 76.1177L391.245 73.1935C393.042 72.8304 393.351 72.6616 394.052 72.1042Z" fill="url(#paint17_linear_4798_15319)"/>
</g>
<path d="M394.367 69.9666C395.126 69.5175 395.473 69.0394 395.677 68.7409L396.226 67.6855L396.515 68.0879L395.584 70.9793L393.894 73.9093L393.191 74.7627L393.072 74.1891L394.037 72.1155C394.08 72.0458 394.316 71.5791 394.08 71.1586C393.959 70.9422 393.537 70.5483 393.191 70.4785C393.35 70.4179 393.834 70.2816 394.367 69.9666Z" fill="#9F82F9"/>
<path d="M286.528 74.5432C285.769 74.0941 285.044 73.4269 284.841 73.1284L284.373 72.5996L283.913 71.8877L283.266 72.0011L284.841 75.8779L286.624 78.6286L287.327 79.482L287.463 78.6908L286.381 76.6107C286.338 76.541 286.124 76.177 286.189 75.6955C286.255 75.214 286.61 74.7827 286.769 74.6904C286.61 74.6298 286.642 74.6103 286.528 74.5432Z" fill="#9F7CF9"/>
<g filter="url(#filter9_di_4798_15319)">
<path fill-rule="evenodd" clip-rule="evenodd" d="M348.439 32.0742C349.131 31.6819 349.898 30.5207 347.993 29.657C347.611 29.4841 347.209 29.2944 346.795 29.0994C345.237 28.3649 343.521 27.5558 342.171 27.2893C340.637 26.9867 339.023 26.8913 336.832 27.435C334.814 27.9358 332.531 29.0605 331.893 29.3931L331.815 29.4334C331.106 29.7988 329.286 30.7378 330.964 31.9661C332.359 32.9872 334.253 32.5831 335.006 32.2505L335.29 32.106C336.663 31.4074 338.434 30.5062 339.319 30.3718C340.217 30.2354 340.837 30.5258 341.635 30.9001C341.889 31.0188 342.16 31.1461 342.464 31.2707C342.707 31.3704 342.98 31.509 343.278 31.6605C344.63 32.3469 346.5 33.2968 348.439 32.0742ZM363.89 38.8358C362.394 37.7359 360.383 38.1785 359.703 38.5783C357.585 39.6975 359.231 40.7773 360.42 41.5575C360.682 41.7297 360.922 41.8874 361.095 42.0276C361.311 42.2031 361.531 42.3598 361.737 42.5061C362.385 42.9671 362.888 43.3248 362.652 43.8434C362.419 44.3539 360.858 45.3764 359.648 46.1692L359.398 46.3333C358.821 46.7678 358.122 47.8612 359.89 48.6666C362.018 49.6354 363.644 48.5843 364.277 48.1753L364.347 48.1303C364.923 47.7617 366.872 46.4439 367.739 45.2789C368.681 44.0141 368.516 43.0823 367.991 42.197C367.53 41.4173 366.128 40.4265 364.856 39.5271C364.518 39.2884 364.19 39.0561 363.89 38.8358ZM336.461 36.4129C337.089 36.0504 338.107 36.0504 338.735 36.4129L339.745 36.9959C340.373 37.3585 340.373 37.9462 339.745 38.3087L330.409 43.6984C329.781 44.0609 328.763 44.0609 328.135 43.6984L327.125 43.1153C326.497 42.7528 326.497 42.1651 327.125 41.8025L336.461 36.4129ZM341.903 39.5543C342.531 39.1918 343.549 39.1918 344.177 39.5543L348.529 42.0672C349.801 42.8012 350.691 43.5896 351.2 44.4322C351.708 45.2748 351.797 46.1046 351.465 46.9216C351.133 47.7387 350.381 48.4855 349.209 49.1622C348.037 49.8388 346.744 50.2729 345.328 50.4644C343.913 50.6558 342.476 50.6048 341.016 50.3112C339.557 50.0175 338.191 49.5037 336.919 48.7696L332.567 46.2567C331.939 45.8942 331.939 45.3064 332.567 44.9439L341.903 39.5543ZM339.407 47.1802C340.402 47.7547 341.481 48.0515 342.641 48.0706C343.814 48.0962 344.897 47.8217 345.892 47.2472C346.887 46.6727 347.363 46.0471 347.319 45.3705C347.285 44.7003 346.771 44.0779 345.776 43.5034L344.044 42.5035C343.856 42.3947 343.55 42.3947 343.362 42.5035L337.675 45.7864C337.487 45.8951 337.487 46.0715 337.675 46.1802L339.407 47.1802ZM331.75 57.3899C329.844 56.5262 330.611 55.365 331.303 54.9726C333.242 53.75 335.113 54.7 336.464 55.3864C336.762 55.5379 337.036 55.6765 337.278 55.7761C337.582 55.9008 337.854 56.028 338.107 56.1468C338.906 56.5211 339.525 56.8115 340.424 56.675C341.308 56.5407 343.079 55.6395 344.452 54.9409L344.737 54.7963C345.489 54.4637 347.383 54.0597 348.779 55.0808C350.457 56.3091 348.636 57.248 347.927 57.6135L347.849 57.6538C347.211 57.9864 344.928 59.1111 342.91 59.6119C340.719 60.1556 339.105 60.0601 337.572 59.7576C336.221 59.4911 334.505 58.682 332.947 57.9475L332.947 57.9475L332.947 57.9474C332.533 57.7524 332.131 57.5628 331.75 57.3899ZM320.04 48.4712C319.361 48.8709 317.349 49.3136 315.853 48.2136C315.553 47.9934 315.225 47.7611 314.887 47.5223C313.615 46.623 312.213 45.6321 311.752 44.8525C311.228 43.9671 311.062 43.0354 312.004 41.7705C312.872 40.6056 314.82 39.2877 315.396 38.9192C315.417 38.9053 315.441 38.8902 315.466 38.8742C316.099 38.4651 317.725 37.4141 319.853 38.3828C321.622 39.1883 320.922 40.2817 320.345 40.7161C320.264 40.7695 320.18 40.8243 320.095 40.8803C318.885 41.673 317.324 42.6956 317.091 43.2061C316.855 43.7247 317.358 44.0824 318.006 44.5434C318.212 44.6897 318.432 44.8463 318.648 45.0219C318.821 45.1621 319.061 45.3197 319.323 45.4919C320.512 46.2721 322.158 47.352 320.04 48.4712Z" fill="url(#paint18_linear_4798_15319)"/>
</g>
<defs>
<filter id="filter0_d_4798_15319" x="216.848" y="19.1266" width="238.487" height="154.839" filterUnits="userSpaceOnUse" color-interpolation-filters="sRGB">
<feFlood flood-opacity="0" result="BackgroundImageFix"/>
<feColorMatrix in="SourceAlpha" type="matrix" values="0 0 0 0 0 0 0 0 0 0 0 0 0 0 0 0 0 0 127 0" result="hardAlpha"/>
<feOffset dy="15.2268"/>
<feGaussianBlur stdDeviation="10.1512"/>
<feComposite in2="hardAlpha" operator="out"/>
<feColorMatrix type="matrix" values="0 0 0 0 0.333333 0 0 0 0 0.44 0 0 0 0 1 0 0 0 1 0"/>
<feBlend mode="normal" in2="BackgroundImageFix" result="effect1_dropShadow_4798_15319"/>
<feBlend mode="normal" in="SourceGraphic" in2="effect1_dropShadow_4798_15319" result="shape"/>
</filter>
<filter id="filter1_di_4798_15319" x="235.124" y="17.6025" width="201.939" height="118.296" filterUnits="userSpaceOnUse" color-interpolation-filters="sRGB">
<feFlood flood-opacity="0" result="BackgroundImageFix"/>
<feColorMatrix in="SourceAlpha" type="matrix" values="0 0 0 0 0 0 0 0 0 0 0 0 0 0 0 0 0 0 127 0" result="hardAlpha"/>
<feOffset dy="2.03023"/>
<feGaussianBlur stdDeviation="1.01512"/>
<feComposite in2="hardAlpha" operator="out"/>
<feColorMatrix type="matrix" values="0 0 0 0 0 0 0 0 0 0 0 0 0 0 0 0 0 0 0.1 0"/>
<feBlend mode="normal" in2="BackgroundImageFix" result="effect1_dropShadow_4798_15319"/>
<feBlend mode="normal" in="SourceGraphic" in2="effect1_dropShadow_4798_15319" result="shape"/>
<feColorMatrix in="SourceAlpha" type="matrix" values="0 0 0 0 0 0 0 0 0 0 0 0 0 0 0 0 0 0 127 0" result="hardAlpha"/>
<feOffset/>
<feGaussianBlur stdDeviation="1.01512"/>
<feComposite in2="hardAlpha" operator="arithmetic" k2="-1" k3="1"/>
<feColorMatrix type="matrix" values="0 0 0 0 1 0 0 0 0 1 0 0 0 0 1 0 0 0 0.25 0"/>
<feBlend mode="normal" in2="shape" result="effect2_innerShadow_4798_15319"/>
</filter>
<filter id="filter2_f_4798_15319" x="245.254" y="24.2979" width="180.216" height="104.761" filterUnits="userSpaceOnUse" color-interpolation-filters="sRGB">
<feFlood flood-opacity="0" result="BackgroundImageFix"/>
<feBlend mode="normal" in="SourceGraphic" in2="BackgroundImageFix" result="shape"/>
<feGaussianBlur stdDeviation="1.01512" result="effect1_foregroundBlur_4798_15319"/>
</filter>
<filter id="filter3_dii_4798_15319" x="260.952" y="31.4192" width="150.281" height="88.1237" filterUnits="userSpaceOnUse" color-interpolation-filters="sRGB">
<feFlood flood-opacity="0" result="BackgroundImageFix"/>
<feColorMatrix in="SourceAlpha" type="matrix" values="0 0 0 0 0 0 0 0 0 0 0 0 0 0 0 0 0 0 127 0" result="hardAlpha"/>
<feOffset dy="0.507558"/>
<feGaussianBlur stdDeviation="0.507558"/>
<feComposite in2="hardAlpha" operator="out"/>
<feColorMatrix type="matrix" values="0 0 0 0 1 0 0 0 0 1 0 0 0 0 1 0 0 0 0.33 0"/>
<feBlend mode="normal" in2="BackgroundImageFix" result="effect1_dropShadow_4798_15319"/>
<feBlend mode="normal" in="SourceGraphic" in2="effect1_dropShadow_4798_15319" result="shape"/>
<feColorMatrix in="SourceAlpha" type="matrix" values="0 0 0 0 0 0 0 0 0 0 0 0 0 0 0 0 0 0 127 0" result="hardAlpha"/>
<feOffset dy="2.03023"/>
<feGaussianBlur stdDeviation="7.61338"/>
<feComposite in2="hardAlpha" operator="arithmetic" k2="-1" k3="1"/>
<feColorMatrix type="matrix" values="0 0 0 0 0 0 0 0 0 0.7 0 0 0 0 1 0 0 0 0.6 0"/>
<feBlend mode="normal" in2="shape" result="effect2_innerShadow_4798_15319"/>
<feColorMatrix in="SourceAlpha" type="matrix" values="0 0 0 0 0 0 0 0 0 0 0 0 0 0 0 0 0 0 127 0" result="hardAlpha"/>
<feOffset dy="2.03023"/>
<feGaussianBlur stdDeviation="4.06047"/>
<feComposite in2="hardAlpha" operator="arithmetic" k2="-1" k3="1"/>
<feColorMatrix type="matrix" values="0 0 0 0 0.419608 0 0 0 0 0.305882 0 0 0 0 0.803922 0 0 0 0.66 0"/>
<feBlend mode="normal" in2="effect2_innerShadow_4798_15319" result="effect3_innerShadow_4798_15319"/>
</filter>
<filter id="filter4_d_4798_15319" x="277.18" y="37.0342" width="126.091" height="83.3139" filterUnits="userSpaceOnUse" color-interpolation-filters="sRGB">
<feFlood flood-opacity="0" result="BackgroundImageFix"/>
<feColorMatrix in="SourceAlpha" type="matrix" values="0 0 0 0 0 0 0 0 0 0 0 0 0 0 0 0 0 0 127 0" result="hardAlpha"/>
<feOffset dy="2.62573"/>
<feGaussianBlur stdDeviation="6.56433"/>
<feComposite in2="hardAlpha" operator="out"/>
<feColorMatrix type="matrix" values="0 0 0 0 0.796549 0 0 0 0 0.439216 0 0 0 0 0.964706 0 0 0 1 0"/>
<feBlend mode="normal" in2="BackgroundImageFix" result="effect1_dropShadow_4798_15319"/>
<feBlend mode="normal" in="SourceGraphic" in2="effect1_dropShadow_4798_15319" result="shape"/>
</filter>
<filter id="filter5_d_4798_15319" x="265.429" y="4.59571" width="149.019" height="115.72" filterUnits="userSpaceOnUse" color-interpolation-filters="sRGB">
<feFlood flood-opacity="0" result="BackgroundImageFix"/>
<feColorMatrix in="SourceAlpha" type="matrix" values="0 0 0 0 0 0 0 0 0 0 0 0 0 0 0 0 0 0 127 0" result="hardAlpha"/>
<feOffset dy="2.62573"/>
<feGaussianBlur stdDeviation="6.56433"/>
<feComposite in2="hardAlpha" operator="out"/>
<feColorMatrix type="matrix" values="0 0 0 0 0.796549 0 0 0 0 0.439216 0 0 0 0 0.964706 0 0 0 1 0"/>
<feBlend mode="normal" in2="BackgroundImageFix" result="effect1_dropShadow_4798_15319"/>
<feBlend mode="normal" in="SourceGraphic" in2="effect1_dropShadow_4798_15319" result="shape"/>
</filter>
<filter id="filter6_i_4798_15319" x="278.563" y="12.708" width="122.834" height="76.3228" filterUnits="userSpaceOnUse" color-interpolation-filters="sRGB">
<feFlood flood-opacity="0" result="BackgroundImageFix"/>
<feBlend mode="normal" in="SourceGraphic" in2="BackgroundImageFix" result="shape"/>
<feColorMatrix in="SourceAlpha" type="matrix" values="0 0 0 0 0 0 0 0 0 0 0 0 0 0 0 0 0 0 127 0" result="hardAlpha"/>
<feOffset dy="5.25146"/>
<feGaussianBlur stdDeviation="5.25146"/>
<feComposite in2="hardAlpha" operator="arithmetic" k2="-1" k3="1"/>
<feColorMatrix type="matrix" values="0 0 0 0 0.435294 0 0 0 0 0.894118 0 0 0 0 1 0 0 0 1 0"/>
<feBlend mode="screen" in2="shape" result="effect1_innerShadow_4798_15319"/>
</filter>
<filter id="filter7_i_4798_15319" x="281.896" y="24.5703" width="119.502" height="64.4604" filterUnits="userSpaceOnUse" color-interpolation-filters="sRGB">
<feFlood flood-opacity="0" result="BackgroundImageFix"/>
<feBlend mode="normal" in="SourceGraphic" in2="BackgroundImageFix" result="shape"/>
<feColorMatrix in="SourceAlpha" type="matrix" values="0 0 0 0 0 0 0 0 0 0 0 0 0 0 0 0 0 0 127 0" result="hardAlpha"/>
<feOffset dy="5.25146"/>
<feGaussianBlur stdDeviation="5.25146"/>
<feComposite in2="hardAlpha" operator="arithmetic" k2="-1" k3="1"/>
<feColorMatrix type="matrix" values="0 0 0 0 0.435294 0 0 0 0 0.894118 0 0 0 0 1 0 0 0 1 0"/>
<feBlend mode="screen" in2="shape" result="effect1_innerShadow_4798_15319"/>
</filter>
<filter id="filter8_di_4798_15319" x="283.375" y="67.7715" width="113.423" height="28.9388" filterUnits="userSpaceOnUse" color-interpolation-filters="sRGB">
<feFlood flood-opacity="0" result="BackgroundImageFix"/>
<feColorMatrix in="SourceAlpha" type="matrix" values="0 0 0 0 0 0 0 0 0 0 0 0 0 0 0 0 0 0 127 0" result="hardAlpha"/>
<feOffset dy="0.656433"/>
<feGaussianBlur stdDeviation="0.328216"/>
<feComposite in2="hardAlpha" operator="out"/>
<feColorMatrix type="matrix" values="0 0 0 0 1 0 0 0 0 1 0 0 0 0 1 0 0 0 0.5 0"/>
<feBlend mode="normal" in2="BackgroundImageFix" result="effect1_dropShadow_4798_15319"/>
<feBlend mode="normal" in="SourceGraphic" in2="effect1_dropShadow_4798_15319" result="shape"/>
<feColorMatrix in="SourceAlpha" type="matrix" values="0 0 0 0 0 0 0 0 0 0 0 0 0 0 0 0 0 0 127 0" result="hardAlpha"/>
<feOffset dy="1.31287"/>
<feGaussianBlur stdDeviation="0.656433"/>
<feComposite in2="hardAlpha" operator="arithmetic" k2="-1" k3="1"/>
<feColorMatrix type="matrix" values="0 0 0 0 0.193021 0 0 0 0 0.209035 0 0 0 0 0.908333 0 0 0 0.2 0"/>
<feBlend mode="normal" in2="shape" result="effect2_innerShadow_4798_15319"/>
</filter>
<filter id="filter9_di_4798_15319" x="311.328" y="27.0449" width="57.0879" height="33.6135" filterUnits="userSpaceOnUse" color-interpolation-filters="sRGB">
<feFlood flood-opacity="0" result="BackgroundImageFix"/>
<feColorMatrix in="SourceAlpha" type="matrix" values="0 0 0 0 0 0 0 0 0 0 0 0 0 0 0 0 0 0 127 0" result="hardAlpha"/>
<feOffset dy="0.656433"/>
<feComposite in2="hardAlpha" operator="out"/>
<feColorMatrix type="matrix" values="0 0 0 0 1 0 0 0 0 1 0 0 0 0 1 0 0 0 1 0"/>
<feBlend mode="normal" in2="BackgroundImageFix" result="effect1_dropShadow_4798_15319"/>
<feBlend mode="normal" in="SourceGraphic" in2="effect1_dropShadow_4798_15319" result="shape"/>
<feColorMatrix in="SourceAlpha" type="matrix" values="0 0 0 0 0 0 0 0 0 0 0 0 0 0 0 0 0 0 127 0" result="hardAlpha"/>
<feOffset dy="0.656433"/>
<feGaussianBlur stdDeviation="1.31287"/>
<feComposite in2="hardAlpha" operator="arithmetic" k2="-1" k3="1"/>
<feColorMatrix type="matrix" values="0 0 0 0 0.0125 0 0 0 0 0.58525 0 0 0 0 1 0 0 0 1 0"/>
<feBlend mode="color-burn" in2="shape" result="effect2_innerShadow_4798_15319"/>
</filter>
<radialGradient id="paint0_radial_4798_15319" cx="0" cy="0" r="1" gradientUnits="userSpaceOnUse" gradientTransform="translate(324.278 114.415) rotate(-173.29) scale(179.781 155.688)">
<stop stop-color="white"/>
<stop offset="1" stop-color="white" stop-opacity="0"/>
</radialGradient>
<radialGradient id="paint1_radial_4798_15319" cx="0" cy="0" r="1" gradientUnits="userSpaceOnUse" gradientTransform="translate(368.259 105.881) rotate(-149.007) scale(220.539 190.984)">
<stop stop-color="white"/>
<stop offset="1" stop-color="white" stop-opacity="0"/>
</radialGradient>
<radialGradient id="paint2_radial_4798_15319" cx="0" cy="0" r="1" gradientUnits="userSpaceOnUse" gradientTransform="translate(416.835 54.0239) rotate(-99.3665) scale(64.5344 55.886)">
<stop stop-color="white"/>
<stop offset="1" stop-color="white" stop-opacity="0"/>
</radialGradient>
<linearGradient id="paint3_linear_4798_15319" x1="374.251" y1="39.5827" x2="305.505" y2="142.735" gradientUnits="userSpaceOnUse">
<stop stop-color="#68FBFF"/>
<stop offset="0.338542" stop-color="#69A5E6"/>
<stop offset="0.453125" stop-color="#6A88DE"/>
<stop offset="1" stop-color="#6B23C0"/>
</linearGradient>
<linearGradient id="paint4_linear_4798_15319" x1="336.093" y1="17.0032" x2="305.505" y2="136.136" gradientUnits="userSpaceOnUse">
<stop stop-color="#68FBFF"/>
<stop offset="1" stop-color="#9E4DFF"/>
</linearGradient>
<linearGradient id="paint5_linear_4798_15319" x1="312.743" y1="128.021" x2="392.419" y2="-15.1081" gradientUnits="userSpaceOnUse">
<stop stop-color="#050505"/>
<stop offset="0.994792" stop-opacity="0.38"/>
</linearGradient>
<linearGradient id="paint6_linear_4798_15319" x1="312.211" y1="123.912" x2="359.725" y2="0.196172" gradientUnits="userSpaceOnUse">
<stop stop-color="white"/>
<stop offset="1" stop-color="#BFFCFF" stop-opacity="0.42"/>
</linearGradient>
<linearGradient id="paint7_linear_4798_15319" x1="312.478" y1="116.593" x2="308.098" y2="19.6093" gradientUnits="userSpaceOnUse">
<stop stop-color="#AE47FF"/>
<stop offset="1" stop-color="#01F1FB"/>
</linearGradient>
<linearGradient id="paint8_linear_4798_15319" x1="317.837" y1="25.2944" x2="313.203" y2="95.7409" gradientUnits="userSpaceOnUse">
<stop stop-color="#6EE8FF"/>
<stop offset="1" stop-color="#C2D9FF"/>
</linearGradient>
<linearGradient id="paint9_linear_4798_15319" x1="333.581" y1="61.5969" x2="326.263" y2="98.9223" gradientUnits="userSpaceOnUse">
<stop stop-color="#77E9FF"/>
<stop offset="1" stop-color="#E7F0FF"/>
</linearGradient>
<radialGradient id="paint10_radial_4798_15319" cx="0" cy="0" r="1" gradientUnits="userSpaceOnUse" gradientTransform="translate(340.894 54.5192) rotate(-107.898) scale(83.2187 104.516)">
<stop offset="0.154967" stop-color="white"/>
<stop offset="1" stop-color="#6EE8FF"/>
</radialGradient>
<radialGradient id="paint11_radial_4798_15319" cx="0" cy="0" r="1" gradientUnits="userSpaceOnUse" gradientTransform="translate(389.178 11.109) rotate(172.138) scale(73.9745 91.1903)">
<stop stop-color="#DB6EF6" stop-opacity="0.22"/>
<stop offset="1" stop-color="#C783F8" stop-opacity="0"/>
</radialGradient>
<radialGradient id="paint12_radial_4798_15319" cx="0" cy="0" r="1" gradientUnits="userSpaceOnUse" gradientTransform="translate(306.123 95.1483) rotate(-70.329) scale(41.644 52.2426)">
<stop stop-color="#2CB9F9"/>
<stop offset="1" stop-color="#83F8F8" stop-opacity="0"/>
</radialGradient>
<linearGradient id="paint13_linear_4798_15319" x1="385.247" y1="92.3075" x2="355.832" y2="84.9781" gradientUnits="userSpaceOnUse">
<stop stop-color="#CDEDFF" stop-opacity="0.38"/>
<stop offset="0.245594" stop-color="#97D9FE" stop-opacity="0.789047"/>
<stop offset="0.694705" stop-color="#7BCFFE"/>
<stop offset="0.961564" stop-color="#7BCFFE" stop-opacity="0"/>
</linearGradient>
<radialGradient id="paint14_radial_4798_15319" cx="0" cy="0" r="1" gradientUnits="userSpaceOnUse" gradientTransform="translate(385.583 53.1791) rotate(111.138) scale(26.889 31.5423)">
<stop stop-color="#BC7CFB"/>
<stop offset="1" stop-color="#8B7CFB" stop-opacity="0"/>
</radialGradient>
<linearGradient id="paint15_linear_4798_15319" x1="304.357" y1="97.2434" x2="332.602" y2="86.2348" gradientUnits="userSpaceOnUse">
<stop stop-color="#CDEDFF" stop-opacity="0.38"/>
<stop offset="0.245594" stop-color="#97D9FE" stop-opacity="0.789047"/>
<stop offset="0.694705" stop-color="#7BCFFE"/>
<stop offset="0.961564" stop-color="#7BCFFE" stop-opacity="0"/>
</linearGradient>
<radialGradient id="paint16_radial_4798_15319" cx="0" cy="0" r="1" gradientUnits="userSpaceOnUse" gradientTransform="translate(302.729 55.2449) rotate(80.8993) scale(30.1178 21.1874)">
<stop stop-color="#C276F7" stop-opacity="0.58"/>
<stop offset="1" stop-color="#C276F7" stop-opacity="0"/>
</radialGradient>
<linearGradient id="paint17_linear_4798_15319" x1="283.277" y1="76.5712" x2="397.257" y2="75.2435" gradientUnits="userSpaceOnUse">
<stop offset="0.015625" stop-color="#6EE8FF"/>
<stop offset="0.291667" stop-color="#6A86FE"/>
<stop offset="0.522548" stop-color="#FFCD1A"/>
<stop offset="0.660335" stop-color="#FA43C7"/>
<stop offset="0.822917" stop-color="#6271F9"/>
<stop offset="1" stop-color="#4098FF"/>
</linearGradient>
<linearGradient id="paint18_linear_4798_15319" x1="341.448" y1="39.3424" x2="342.612" y2="51.3137" gradientUnits="userSpaceOnUse">
<stop stop-color="#73D0F3"/>
<stop offset="1" stop-color="#84F8EA"/>
</linearGradient>
</defs>
</svg>
