<svg width="40" height="40" viewBox="0 0 40 40" fill="none" xmlns="http://www.w3.org/2000/svg">
<g clip-path="url(#clip0_36990_49377)">
<path d="M39.3971 24.8381C36.726 35.5525 25.874 42.0731 15.1584 39.4012C4.44722 36.7301 -2.07335 25.8775 0.59897 15.1639C3.26894 4.44838 14.1209 -2.07268 24.8332 0.598468C35.5481 3.26961 42.0683 14.1234 39.3968 24.8383L39.397 24.8381H39.3971Z" fill="#F7931A"/>
<path d="M28.8168 17.1496C29.2148 14.488 27.1885 13.0573 24.4177 12.1029L25.3165 8.49759L23.1219 7.95073L22.2468 11.4611C21.6699 11.3172 21.0774 11.1816 20.4885 11.0472L21.3698 7.51366L19.1765 6.9668L18.2772 10.5709C17.7997 10.4622 17.3308 10.3548 16.8758 10.2416L16.8783 10.2303L13.8519 9.47449L13.268 11.8185C13.268 11.8185 14.8963 12.1918 14.862 12.2147C15.7507 12.4366 15.9114 13.0249 15.8847 13.4912L14.8608 17.5985C14.922 17.614 15.0014 17.6365 15.089 17.6717C15.0158 17.6535 14.9379 17.6337 14.857 17.6143L13.4218 23.3681C13.3132 23.6381 13.0375 24.0433 12.4162 23.8894C12.4382 23.9213 10.8211 23.4913 10.8211 23.4913L9.73145 26.0035L12.5875 26.7155C13.1188 26.8488 13.6394 26.9882 14.1522 27.1193L13.244 30.7659L15.4361 31.3128L16.3355 27.7048C16.9344 27.8674 17.5155 28.0174 18.0845 28.1587L17.1881 31.7497L19.3829 32.2965L20.291 28.6567C24.0334 29.365 26.8473 29.0794 28.0318 25.6944C28.9862 22.9691 27.9843 21.3972 26.0154 20.3721C27.4494 20.0414 28.5296 19.0982 28.8176 17.1499L28.8169 17.1494L28.8168 17.1496ZM23.8025 24.1809C23.1242 26.9062 18.5356 25.433 17.048 25.0636L18.2531 20.2324C19.7407 20.6038 24.5113 21.3387 23.8026 24.1809H23.8025ZM24.4812 17.1101C23.8625 19.589 20.0434 18.3296 18.8045 18.0208L19.8971 13.6392C21.136 13.948 25.1257 14.5244 24.4814 17.1101H24.4812Z" fill="white"/>
</g>
<defs>
<clipPath id="clip0_36990_49377">
<rect width="39.9955" height="40" fill="white"/>
</clipPath>
</defs>
</svg>
