<svg width="18" height="18" viewBox="0 0 18 18" fill="none" xmlns="http://www.w3.org/2000/svg">
<g clip-path="url(#clip0_26258_35847)">
<path d="M16.0998 7.80078V7.80086L16.1004 15.6022C16.1004 15.6022 16.1004 15.6022 16.1004 15.6022C16.1004 15.8783 15.8765 16.1022 15.6004 16.1022L7.65098 16.1022C7.37483 16.1022 7.15098 15.8783 7.15098 15.6022V15.6021L7.15039 7.80078C7.15039 7.80077 7.15039 7.80075 7.15039 7.80073C7.15042 7.52461 7.37426 7.30078 7.65039 7.30078H15.5998C15.8759 7.30078 16.0998 7.52464 16.0998 7.80078Z" stroke="black" stroke-width="2" stroke-linecap="round" stroke-linejoin="round"/>
<path d="M4.05078 11.2502H3.30078C2.90296 11.2502 2.52143 11.0922 2.24012 10.8109C1.95882 10.5296 1.80078 10.148 1.80078 9.75019V3.30078C1.80078 2.90296 1.95882 2.52143 2.24012 2.24012C2.52143 1.95882 2.90296 1.80078 3.30078 1.80078L9.75019 1.80078C10.148 1.80078 10.5296 1.95882 10.8109 2.24012C11.0922 2.52143 11.2502 2.90296 11.2502 3.30078V4.05078" stroke="black" stroke-width="2" stroke-linecap="round" stroke-linejoin="round"/>
</g>
<defs>
<clipPath id="clip0_26258_35847">
<rect width="18" height="18" fill="white"/>
</clipPath>
</defs>
</svg>
