<svg width="564" height="564" fill="none" xmlns="http://www.w3.org/2000/svg"><g filter="url(#a)"><path d="M245.28 122.15a72.15 72.15 0 0 1 72.149 0l83.941 48.463a72.151 72.151 0 0 1 36.075 62.483v96.927a72.149 72.149 0 0 1-36.075 62.483l-83.941 48.464a72.15 72.15 0 0 1-72.149 0l-83.941-48.464a72.149 72.149 0 0 1-36.075-62.483v-96.927a72.151 72.151 0 0 1 36.075-62.483l83.941-48.463Z" fill="url(#b)"/><path d="M248.659 128.003a65.391 65.391 0 0 1 65.39 0l83.941 48.464a65.39 65.39 0 0 1 32.696 56.629v96.927a65.392 65.392 0 0 1-32.695 56.63l-83.941 48.463a65.39 65.39 0 0 1-65.391 0l-83.941-48.463a65.39 65.39 0 0 1-32.695-56.63v-96.927a65.39 65.39 0 0 1 32.695-56.629l83.941-48.464Z" stroke="url(#c)" stroke-width="13.518"/></g><path d="M251.315 134.069a60.08 60.08 0 0 1 60.079 0l82.673 47.731a60.08 60.08 0 0 1 30.04 52.03v95.463a60.077 60.077 0 0 1-30.04 52.03l-82.673 47.732a60.08 60.08 0 0 1-60.079 0l-82.673-47.732a60.077 60.077 0 0 1-30.04-52.03V233.83a60.08 60.08 0 0 1 30.04-52.03l82.673-47.731Z" fill="url(#d)"/><g style="mix-blend-mode:overlay" opacity=".3" filter="url(#e)"><path fill-rule="evenodd" clip-rule="evenodd" d="M125.264 322.646v7.38a72.15 72.15 0 0 0 36.075 62.483l83.941 48.463a72.145 72.145 0 0 0 72.149 0l83.941-48.463a72.15 72.15 0 0 0 36.075-62.483v-96.927a72.131 72.131 0 0 0-15.299-44.425c-22.615 23.08-55.467 50.165-103.325 80.164-83.396 52.276-140.275 53.067-191.293 53.776l-2.264.032Z" fill="url(#f)" shape-rendering="crispEdges"/></g><mask id="g" style="mask-type:alpha" maskUnits="userSpaceOnUse" x="138" y="126" width="287" height="312"><path d="M251.426 134.068a60.08 60.08 0 0 1 60.079 0l82.712 47.754a60.079 60.079 0 0 1 30.04 52.03v95.508a60.079 60.079 0 0 1-30.04 52.03l-82.712 47.754a60.08 60.08 0 0 1-60.079 0l-82.713-47.754a60.08 60.08 0 0 1-30.039-52.03v-95.508a60.08 60.08 0 0 1 30.039-52.03l82.713-47.754Z" fill="#1B1313"/></mask><g mask="url(#g)"><path fill-rule="evenodd" clip-rule="evenodd" d="M238.048 402.541c-5.699 17.399-20.874 46.532-30.58 61.72-2.257 3.53-5.105 7.528-7.804 11.316-4.488 6.301-8.566 12.023-8.825 14.059-2.599-.222-7.065-1.068-12.665-2.129-6.898-1.307-15.517-2.939-24.488-4.134.052-.027.104-.051.154-.071-60.813-7.592-76.46-3.329-83.663 2.958-15.332 13.382-22.892 20.781-26.943 40.318.084 10.978-.46 16.494 15.68 22.774 14.867 1.386 23.571-.083 32.261-10.976 10.417-15.753 21.039-18.873 29.048-17.025a5.92 5.92 0 0 0 1.547.145c17.521 4.409 43.28 8.878 60.248 11.563 19.733 3.121 32.729 3.232 43.649 2.264 8.911-4.584 48.142-40.001 61.002-55.239 1.058-1.254 2.238-2.634 3.513-4.126 18.088-21.16 55.44-64.856 40.429-92.971-16.068-30.096-76.277-32.464-92.563 19.554Z" fill="url(#h)"/><path d="M403.864 349.877c4.819 18.284 34.27 41.609 44.486 46.73l73.765 120.282c-8.763 35.454-7.06 101.922-31.63 94.847-30.712-8.845-68.493-24.73-95.805-40.87-27.312-16.14-95.787-16.543-133.338-57.018-37.55-40.476-17.581-90.611-6.172-121.524 11.409-30.914 6.995-46.169 2.09-81.601-3.924-28.346-17.246-77.711-23.416-98.851 3.819-9.726 14.079-31.352 24.569-40.052 13.112-10.875 45.987-13.859 77.225-2.881 31.237 10.977 43.247 44.358 47.628 62.241 4.382 17.884 9.307 50.318 11.442 58.448 3.248 12.363 10.823 20.304 13.822 23.174-.534.201-1.639 2.255-6.604 1.792-2.254-.21-4.553-1.701-5.425-2.378.446 4.935 2.543 19.376 7.363 37.661Z" fill="url(#i)"/><path fill-rule="evenodd" clip-rule="evenodd" d="M258.145 341.674c.444-10.834-2.988-25.648-4.759-31.7 34.144-4.775 63.551 13.451 66.306 17.699-.478-.08-1.214-.255-2.155-.478-3.296-.782-9.104-2.161-15.102-2.182-7.708-.029-11.935.062-14.043.949l.107.009c.851.068 3.818.306 7.071 2.456 3.407 2.251 3.991 3.053 4.491 4.308-4.672-1.335-10.913-.869-16.636.142-5.724 1.011-9.133 2.411-11.318 3.65.969 5.725 1.882 17.883-3.74 31.398.414-.313 1.702-1.094 3.542-1.719 1.84-.625 4.196-1.134 5.144-1.31-4.058 7.588-13.684 26.392-19.724 40.9-7.529 18.084-10.685 50.621-6.155 67.014.487-1.519 1.117-2.851 1.555-3.623.005.76.07 2.68.288 4.284.217 1.604.814 3.596 1.085 4.392.61-.283 2.609-1.875 5.729-5.974s4.861-9.004 5.342-10.943c.291.583 1.115 2.372 2.08 4.865.965 2.494 1.452 4.24 1.575 4.801.76-.544 2.848-2.599 4.523-6.523 1.948-4.567 3.297-8.065 3.503-11.224 3.449 9.579-2.518 21.155-9.88 28.466.004-.049.014-.121.026-.213.095-.718.354-2.682-.204-4.808-.342-1.3-.474-1.686-.651-2.198-.08-.233-.169-.492-.291-.875l-.169.389c-.469 1.093-1.406 3.279-3.338 5.926-1.563 2.141-3.93 5.043-5.995 6.962 8.019 16.518 19.979 26.734 27.855 32.891-.198-.704-.649-2.714-.872-5.168-.222-2.453.329-7.484.799-8.567l.724.848c4.754 5.572 15.979 18.73 27.383 26.464 11.291 7.658 27.819 13.09 52.567 21.224h.001l.001.001c8.211 2.698 17.326 5.694 27.455 9.168 17.755 6.088 40.97 16.854 60.063 27.512a88.016 88.016 0 0 1-.155-2.116c-.403-6.633 2.156-11.914 3.485-13.725-.512 5.5 3.641 15.912 6.207 21.366 11.432 6.895 20.357 13.381 24.044 18.096l-14.067 1.536c-3.526-4.005-7.885-6.554-17.35-12.088v-.001c-5.358-3.133-12.352-7.222-21.757-13.074-15.637-9.731-40.078-17.51-66.358-25.875-27.001-8.594-55.943-17.806-79.273-30.387-25.992-14.015-37.691-29.272-45.602-43.159-5.963-10.467-8.47-26.181-9.31-31.447-.052-.323-.097-.607-.137-.848-.856 1.566-2.701 5.284-3.225 7.625-.525 2.34-.999 6.111-1.17 7.704-1.58-1.769-6.233-9.686-3.758-36.855 2.422-26.586 22.318-55.057 33.135-64.999-.925.605-3.62 1.873-7.001 2.098-3.382.225-6.201-.787-7.187-1.321 1.267-.848 4.631-3.453 7.953-7.093 4.153-4.549 6.789-11.106 7.343-24.65Z" fill="url(#j)"/><path d="M351.916 402.302c3.832-8.981 6.484-15.859 6.888-22.071 6.782 18.836-4.951 41.601-19.428 55.977.079-.836.89-5.153-.35-9.874-.976-3.719-1.085-3.634-1.852-6.042-.782 1.743-2.573 6.494-6.897 12.417-4.323 5.923-11.772 14.802-16.304 17.109-.489-1.236-6.275-14.519-6.998-20.583-.724-6.063 2.625-13.798 4.39-16.907.01 1.493.137 5.268.565 8.423.428 3.155 1.602 7.072 2.135 8.636 1.199-.557 5.13-3.685 11.266-11.747 6.135-8.061 9.558-17.704 10.503-21.519.573 1.147 2.193 4.665 4.09 9.568 1.898 4.903 2.856 8.337 3.097 9.441 1.497-1.069 5.602-5.11 8.895-12.828Z" fill="#E13031"/><path d="M184.288 248.354c1.58-1.081 4.332-3.074 5.204-4.348.74.098 1.676.446 2.494 2.501.537 1.349.285 3.088-.013 3.828-1.918 1.813-7.914 5.049-11.215 5.623-7.502 1.303-15.025.259-21.679-5.754-5.323-4.81-6.128-11.968-5.517-13.268.361.3.53 2.937 3.235 6.29 2.351 2.916 7.358 7.225 13.92 7.837 5.024.468 10.196-.4 13.571-2.709Z" fill="#020202"/><path d="M570.004 477.15c-41.365-59.878-100.582-59.238-147.173-102.046-2.891-2.656-7.006-5.765-8.822-7.777-1.391 9.59-3.377 27.977-17.579 46.293-14.203 18.317-30.904 24.225-44.275 27.723 9.212 6.837 12.22 8.321 22.091 9.797 10.945 1.638 16.462-.377 18.889-2.184-1.067 4.833-3.26 11.781-8.796 16.937-7.201 6.706-13.056 9.917-18.692 10.508 2.2 5.443 13.454 11.648 15.209 29.096 1.627 16.175 1.736 25.714 2.345 33.286l10.353-17.124c5.968 7.81 20.214 24.268 64.417 42.116s115.081 20.533 143.467 7.834c-.534-13.72-2.557-52.659-31.434-94.459Z" fill="url(#k)"/><path d="M223.083 290.948c14.5-2.765 25.963-10.361 29.883-13.814l36.473-19.859c-1.403 7.622-5.704 25.096-11.686 34.01-7.477 11.143-21.16 17.551-33.318 20.986-12.159 3.436-19.523 6.262-26.589 17.329-6.271 9.823-12.569 18.138-26.846 13.368-10.707-3.578-5.562-21.659-1.352-28.951 4.211-7.292 15.311-19.613 33.435-23.069Z" fill="url(#l)"/><path d="M169.707 232.023c2.919-2.537 14.188-4.803 19.458-5.619 16.646 9.033 17.956 28.5 16.53 37.105-4.747 2.105-16.356 3.701-27.549-1.75-10.063-4.899-11.831-19.118-12.038-21.946-.279-3.837-.049-4.619 3.599-7.79Z" fill="#88B6D0"/><path d="M234.868 287.378c8.272-2.419 14.818-11.264 17.297-15.541 7.489-5.53 25.286-9.143 33.249-10.259 1.47 2.502 3.878 9.244 1.753 16.198-2.655 8.692-6.154 14.264-16.764 26.097-8.489 9.467-23.562 10.555-30.038 9.915-.046-4.445 4.742-9.13 10.522-11.734 12.427-5.598 14.443-9.25 14.649-11.457-.863.594-7.073 4.364-12.002 5.783-7.028 2.023-11.261 2.973-23.523 4.637-18.7 2.538-28.463 19.283-31.742 26.415-.003-1.483 1.206-11.146 5.483-17.058 7.079-9.784 15.88-13.61 21.552-15.697 0 0-2.067-.528-6.673-.622-4.607-.094-6.582.357-6.582.357.322-.205 2.448-1.236 6.454-2.638 5.007-1.753 6.025-1.371 16.365-4.396Z" fill="url(#m)"/><path d="M216.215 297.987c-4.093-5.336-5.05-13.597-5.018-17.06 5.353-.208 10.757.923 12.791 1.514-1.086 5.124-3.246 15.672-3.199 16.876.058 1.505.542 5.339-4.574-1.33Z" fill="url(#n)"/><path d="M188.225 281.034c-4.093-5.336-5.05-13.596-5.017-17.059 5.352-.208 10.757.923 12.79 1.514-1.086 5.123-3.245 15.671-3.199 16.876.059 1.505.542 5.339-4.574-1.331Z" fill="url(#o)"/><path d="M245.406 173.419c13.765-13.736 42.798-12.856 55.594-10.698-2.987 32.027 16.774 54.626 30.693 97.791 11.135 34.533 2.806 61.586-2.751 70.796-5.457-2.979-17.842-9.523-23.727-11.875-7.355-2.94-38.654-7.592-55.55-.783-13.517 5.448-22.917 5.212-27.077 4.224.577-.879 3.022-3.764 6.387-6.376 8.981-6.973 28.774-10.7 40.705-18.365 11.931-7.666 14.725-26.285 6.623-29.951-3.497-1.582-11.497 7.575-21.729 12.717-10.233 5.142-25.872 6.294-40.549 4.194-11.742-1.68-20.186-9.061-21.92-13.124-3.3 1.399-8.831 1.918-12.706-2.54-4.845-5.572-8.047-18.306-9.146-27.43-.88-7.299 1.583-10.012 2.925-10.456 2.517-1.716 9.826-6.008 18.925-9.451 9.098-3.443 24.173-7.337 30.572-8.854 1.842-7.549 8.967-26.082 22.731-39.819Z" fill="#FF7417"/><path d="M203.504 242.482c-.433-3.72-12.109-9.877-15.535-10.863-17.623-3.429-15.048 10.357-11.127 16.907 5.171 8.637 14.584 10.56 19.5 7.717 4.915-2.842 7.704-9.11 7.162-13.761Z" fill="#220503"/><path d="M276.398 169.57c-20.813-1.94-36.094-.034-39.911 1.699-16.022 12.671-16.659 27.339-18.48 46.855l.057-.026c1.749-.807 5.657-2.609 12.8-.549 35.82 10.336 51.263 45.762 51.263 45.762 45.103-11.305 58.796-65.641 56.993-79.053-12.253-4.406-41.909-12.747-62.722-14.688Z" fill="#519BC4"/><path d="M215.896 266.759c-15.616-12.919-8.295-30.473-35.837-33.041-7.147-.667-10.175.484-11.893 2.619-1.192 2.047-.751 8.5 1.468 14.15 2.218 5.651 2.92 5.687 4.059 7.424.161.461.738 2.087.822 2.372-2.009-1.528-5.727-6.932-7.156-12.944-1.429-6.013-2.022-10.337-.171-12.77 6.589-10.686 39.682-18.603 49.663-20.518 7.196-2.448 18.299.709 28.219 5.762 23.056 13.824 37.87 40.875 22.737 48.858-15.134 7.983-34.382 12.589-51.911-1.912Z" fill="#519BC3"/><path d="M274.739 167.788c-20.167-1.881-34.974-.034-38.673 1.646-15.525 12.278-16.142 26.491-17.906 45.401 1.667-.768 4.874-1.546 11.828.614 31.401 9.754 50.511 44.766 50.511 44.766 43.703-10.955 56.815-64.273 55.068-77.268-11.873-4.27-40.661-13.279-60.828-15.159Z" fill="url(#p)"/><path d="M307.079 195.864c11.125 5.37 14.474 14.781 14.759 18.814-24.441 13.892-48.242 4.139-57.433-4.028-.016-1.719-3.308-4.021-2.361-11.63 1.245-9.995 7.922-11.282 10.606-11.736 6.5-.759 23.303 3.209 34.429 8.58Z" fill="url(#q)"/><path d="M222.411 188.196c-.106.068-2.072 6.27-2.513 10.996 9.852 12.536 19.405 7.748 25.5 4.3 4.824-1.875 7.502-6.347 8.382-11.143 1.157-6.3-6.376-6.146-7.649-6.87-3.144-1.545-18.045-.891-23.72 2.717Z" fill="url(#r)"/><path d="M297.035 188.631c15.105 4.978 22.082 17.584 23.784 21.72-17.143-20.767-37.623-17.719-45.527-14.102-7.903 3.618-11.505-.244-10.6-4.228.841-3.699 13.058-9.746 32.343-3.39ZM241.505 182.737c5.231.826 8.599 2.336 11.143 4.653 2.193 1.997 2.088 6.057-.592 6.825-5.65 1.619-6.556-3.7-14.45-6.052-9.666-2.88-15.237.415-15.237.415-.441-.32-.929-1.068-.296-2.459.454-.997 1.077-1.501 1.725-1.736 0 0 5.983-3.497 17.707-1.646Z" fill="#020202"/><ellipse cx="281.727" cy="214.056" rx="19.169" ry="5.396" transform="rotate(19.389 281.727 214.056)" fill="#020202"/><ellipse cx="233.231" cy="200.759" rx="13.219" ry="4.826" transform="rotate(5.91 233.231 200.759)" fill="#020202"/><path d="M180.831 231.286c-11.144-1.039-15.03 3.697-14.788 7.254-2.066-12.431 40.993-25.971 52.352-28.15 7.182-2.444 18.264.708 28.165 5.752 23.012 13.796 34.411 42.583 22.693 48.764-11.718 6.181-28.695 15.771-50.057 1.453-16.834-11.283-10.875-32.51-38.365-35.073Z" fill="url(#s)"/><ellipse cx="223.236" cy="251.103" rx="2.616" ry="3.952" transform="rotate(17.578 223.236 251.103)" fill="#D2702E"/><path d="M228.427 252.466c-1.353-1.354-3.69-3.821-4.31-5.234-.746-.042-1.73.128-2.914 1.996-.777 1.226-.851 2.982-.695 3.764 1.549 2.137 6.845 6.426 9.982 7.599 7.133 2.668 14.719 3.033 22.369-1.646 6.12-3.744 8.235-10.629 7.875-12.02-.41.229-1.064 2.788-4.342 5.584-2.85 2.431-8.566 5.74-15.129 5.128-5.024-.469-9.946-2.277-12.836-5.171Z" fill="#020202"/><path d="M272.601 230.309c-5.137-5.47-8.937-12.709-10.195-15.645-.477-1.113-2.112-1.539-3.371-.333-.825.79-.844 2.546-.519 3.534.597 1.817 3.603 7.084 10.847 13.619 7.244 6.534 18.419 9.152 23.102 9.644-4.481-1.327-14.727-5.348-19.864-10.819Z" fill="url(#t)"/></g><path d="M286.912 126.914c-13.98-29.9-22.936-29.505-24.572-25.823-8.056 17.419-3.907 58.421-1.92 76.998 1.144 3.912 5.499 15.551 13.77 30.805s27.051 34.603 34.89 41.366c.241-4.549.768-14.488.235-26.02-.818-17.728-4.929-59.949-22.403-97.326Z" fill="url(#u)"/><path d="M279.102 135.37c-10.35-24.341-17.05-23.99-18.287-20.982-6.089 14.231-3.132 47.656-1.712 62.8.841 3.187 4.057 12.665 10.189 25.079 6.132 12.414 20.864 32.003 26.703 37.494.196-3.71-.127-15.687-.484-25.09-.548-14.455-3.472-48.874-16.409-79.301Z" fill="url(#v)"/><path d="M184.288 248.354c1.58-1.081 4.332-3.074 5.204-4.348.74.098 1.676.446 2.495 2.501.536 1.349.284 3.088-.013 3.828-1.918 1.813-7.915 5.049-11.215 5.623-7.503 1.303-15.026.259-21.68-5.754-5.322-4.81-6.128-11.968-5.517-13.268.361.3.53 2.937 3.235 6.29 2.352 2.916 7.358 7.225 13.92 7.837 5.025.468 10.196-.4 13.571-2.709Z" fill="#020202"/><path d="M350.756 118.488c-14.086-29.35-23.731-29.47-25.607-26.043-9.22 16.196-6.061 55.605-4.514 73.467 1.105 3.802 5.419 15.166 13.83 30.202 8.411 15.036 27.996 34.571 36.212 41.47.404-4.333 1.287-13.802 1.081-24.851-.316-16.985-3.395-57.557-21.002-94.245Z" fill="url(#w)"/><path d="M342.079 126.145c-10.359-23.835-17.576-23.873-19.002-21.067-7.002 13.259-4.885 45.362-3.839 59.912.803 3.092 3.961 12.328 10.161 24.531 6.201 12.203 21.424 31.742 27.529 37.314.33-3.535.362-14.997.278-24.002-.13-13.842-2.18-46.894-15.127-76.688Z" fill="url(#x)"/><path d="M169.707 232.025c2.919-2.537 14.188-4.803 19.458-5.619 16.646 9.032 17.956 28.5 16.53 37.105-4.747 2.105-16.356 3.701-27.549-1.75-10.063-4.899-11.831-19.118-12.037-21.946-.28-3.837-.05-4.619 3.598-7.79Z" fill="#88B6D0"/><path d="M216.214 297.99c-4.093-5.335-5.05-13.596-5.017-17.059 5.352-.208 10.757.923 12.79 1.514-1.086 5.124-3.245 15.671-3.199 16.876.059 1.505.542 5.339-4.574-1.331Z" fill="url(#y)"/><path d="M188.225 281.038c-4.093-5.336-5.05-13.596-5.017-17.059 5.352-.208 10.757.923 12.79 1.514-1.086 5.123-3.245 15.671-3.199 16.876.059 1.505.542 5.339-4.574-1.331Z" fill="url(#z)"/><path d="M245.406 173.42c13.765-13.736 42.798-12.856 55.594-10.698-2.986 32.027 16.775 54.626 30.693 97.791 11.135 34.533 2.806 61.586-2.751 70.796-5.457-2.979-17.842-9.523-23.727-11.875-7.355-2.94-38.654-7.592-55.55-.783-13.517 5.448-22.917 5.212-27.076 4.224.576-.879 3.021-3.764 6.386-6.376 8.981-6.973 28.774-10.7 40.705-18.365 11.931-7.666 14.725-26.285 6.623-29.951-3.497-1.582-11.496 7.575-21.729 12.717-10.233 5.141-25.871 6.294-40.549 4.194-11.742-1.68-20.186-9.062-21.92-13.124-3.3 1.399-8.831 1.918-12.706-2.54-4.845-5.572-8.046-18.306-9.146-27.43-.88-7.299 1.584-10.012 2.925-10.456 2.517-1.716 9.826-6.008 18.925-9.451 9.098-3.443 24.173-7.337 30.572-8.854 1.842-7.549 8.967-26.082 22.731-39.819Z" fill="#FF7417"/><path d="M203.505 242.484c-.434-3.72-12.11-9.877-15.536-10.863-17.623-3.429-15.048 10.357-11.127 16.907 5.171 8.637 14.584 10.56 19.5 7.717 4.915-2.843 7.704-9.11 7.163-13.761Z" fill="#220503"/><path d="M276.398 169.571c-20.813-1.941-36.094-.035-39.911 1.699-16.022 12.671-16.659 27.339-18.48 46.855l.057-.026c1.749-.807 5.658-2.609 12.8-.549 35.821 10.336 51.264 45.762 51.264 45.762 45.102-11.305 58.796-65.641 56.992-79.053-12.253-4.406-41.909-12.747-62.722-14.688Z" fill="#519BC4"/><path d="M215.896 266.761c-15.616-12.919-8.294-30.473-35.836-33.041-7.148-.667-10.176.484-11.893 2.619-1.193 2.047-.751 8.5 1.467 14.15 2.218 5.651 2.92 5.687 4.059 7.424.162.461.739 2.087.822 2.372-2.009-1.528-5.727-6.932-7.156-12.945-1.429-6.012-2.022-10.336-.17-12.769 6.588-10.686 39.681-18.603 49.663-20.518 7.196-2.448 18.298.709 28.219 5.762 23.055 13.824 37.869 40.875 22.736 48.858-15.134 7.983-34.382 12.589-51.911-1.912Z" fill="#519BC3"/><path d="M274.739 167.791c-20.167-1.881-34.974-.034-38.673 1.645-15.525 12.279-16.142 26.492-17.906 45.402 1.667-.768 4.874-1.546 11.828.614 31.401 9.754 50.511 44.766 50.511 44.766 43.703-10.955 56.815-64.273 55.068-77.268-11.873-4.27-40.661-13.279-60.828-15.159Z" fill="url(#A)"/><path d="M307.079 195.865c11.125 5.37 14.474 14.781 14.759 18.814-24.441 13.892-48.242 4.139-57.433-4.028-.016-1.719-3.308-4.021-2.361-11.63 1.245-9.995 7.922-11.282 10.606-11.736 6.5-.759 23.303 3.209 34.429 8.58Z" fill="url(#B)"/><path d="M222.411 188.196c-.106.068-2.072 6.27-2.513 10.996 9.852 12.536 19.405 7.748 25.5 4.3 4.824-1.875 7.502-6.347 8.382-11.143 1.157-6.3-6.376-6.146-7.649-6.87-3.144-1.545-18.045-.891-23.72 2.717Z" fill="url(#C)"/><path d="M297.035 188.633c15.105 4.978 22.082 17.584 23.784 21.72-17.143-20.767-37.623-17.719-45.527-14.102-7.903 3.618-11.505-.244-10.6-4.228.841-3.699 13.058-9.746 32.343-3.39ZM241.505 182.738c5.232.826 8.599 2.336 11.143 4.653 2.193 1.997 2.088 6.057-.592 6.825-5.65 1.619-6.556-3.7-14.45-6.052-9.666-2.88-15.237.415-15.237.415-.441-.32-.929-1.068-.296-2.459.454-.997 1.077-1.501 1.725-1.736 0 0 5.983-3.497 17.707-1.646Z" fill="#020202"/><ellipse cx="281.728" cy="214.057" rx="19.169" ry="5.396" transform="rotate(19.389 281.728 214.057)" fill="#020202"/><ellipse cx="233.231" cy="200.76" rx="13.219" ry="4.826" transform="rotate(5.91 233.231 200.76)" fill="#020202"/><path d="M180.831 231.29c-11.144-1.04-15.03 3.697-14.788 7.254-2.066-12.431 40.993-25.971 52.352-28.151 7.183-2.443 18.264.709 28.165 5.752 23.012 13.797 34.411 42.584 22.693 48.765-11.717 6.181-28.694 15.771-50.057 1.452-16.833-11.282-10.875-32.509-38.365-35.072Z" fill="url(#D)"/><ellipse cx="223.237" cy="251.104" rx="2.616" ry="3.952" transform="rotate(17.578 223.237 251.104)" fill="#D2702E"/><path d="M228.427 252.469c-1.353-1.354-3.69-3.821-4.31-5.235-.746-.041-1.73.129-2.914 1.997-.777 1.226-.851 2.982-.695 3.764 1.549 2.136 6.845 6.426 9.982 7.599 7.133 2.668 14.719 3.033 22.369-1.647 6.12-3.743 8.235-10.628 7.875-12.019-.41.229-1.064 2.788-4.342 5.584-2.85 2.431-8.566 5.74-15.129 5.128-5.024-.469-9.946-2.277-12.836-5.171Z" fill="#020202"/><path d="M272.6 230.311c-5.137-5.47-8.937-12.709-10.195-15.645-.477-1.113-2.111-1.539-3.37-.333-.825.79-.844 2.546-.52 3.534.598 1.817 3.603 7.084 10.847 13.618 7.244 6.535 18.42 9.153 23.102 9.644-4.481-1.326-14.727-5.347-19.864-10.818Z" fill="url(#E)"/><defs><linearGradient id="b" x1="349.824" y1="151.668" x2="197.781" y2="415.479" gradientUnits="userSpaceOnUse"><stop stop-color="#4550FB"/><stop offset="1" stop-color="#D334EE"/></linearGradient><linearGradient id="c" x1="212.221" y1="124.098" x2="396.142" y2="461.797" gradientUnits="userSpaceOnUse"><stop stop-color="#fff"/><stop offset=".526" stop-color="#F0D1FF"/><stop offset="1" stop-color="#E1A3FF"/></linearGradient><linearGradient id="f" x1="254.299" y1="281.498" x2="312.419" y2="396.737" gradientUnits="userSpaceOnUse"><stop/><stop offset="1" stop-opacity="0"/></linearGradient><linearGradient id="h" x1="245.783" y1="433.835" x2="162.718" y2="614.481" gradientUnits="userSpaceOnUse"><stop stop-color="#F7A02C"/><stop offset="1" stop-color="#E15D84"/></linearGradient><linearGradient id="i" x1="286.137" y1="324.185" x2="428.397" y2="622.819" gradientUnits="userSpaceOnUse"><stop offset=".058" stop-color="#FF7517"/><stop offset=".457" stop-color="#F90"/><stop offset="1" stop-color="#FF255A"/></linearGradient><linearGradient id="j" x1="297.713" y1="304.837" x2="456" y2="641.852" gradientUnits="userSpaceOnUse"><stop offset=".064" stop-color="#E13031"/><stop offset=".241" stop-color="#E92F2F"/><stop offset=".937" stop-color="#D2490E"/></linearGradient><linearGradient id="k" x1="336.452" y1="360.095" x2="537.471" y2="514.423" gradientUnits="userSpaceOnUse"><stop offset=".25" stop-color="#E62F2F"/><stop offset="1" stop-color="#4E1F00"/></linearGradient><linearGradient id="l" x1="270.104" y1="275.03" x2="232.052" y2="347.546" gradientUnits="userSpaceOnUse"><stop stop-color="#FF2525"/><stop offset="1" stop-color="#FF6CA1"/></linearGradient><linearGradient id="m" x1="270.178" y1="266.974" x2="198.243" y2="335.258" gradientUnits="userSpaceOnUse"><stop stop-color="#DF1414"/><stop offset="1" stop-color="#FF617A"/></linearGradient><linearGradient id="n" x1="217.542" y1="280.681" x2="218.962" y2="297.994" gradientUnits="userSpaceOnUse"><stop stop-color="#CEEDFF"/><stop offset="1" stop-color="#F9FDFF"/></linearGradient><linearGradient id="o" x1="189.552" y1="263.729" x2="190.972" y2="281.042" gradientUnits="userSpaceOnUse"><stop stop-color="#CEEDFF"/><stop offset="1" stop-color="#F9FDFF"/></linearGradient><linearGradient id="p" x1="221.872" y1="193.64" x2="307.068" y2="229.028" gradientUnits="userSpaceOnUse"><stop stop-color="#E7F4FB"/><stop offset="1" stop-color="#fff"/></linearGradient><linearGradient id="q" x1="291.095" y1="193.351" x2="287.549" y2="213.354" gradientUnits="userSpaceOnUse"><stop stop-color="#CDE2EF"/><stop offset="1" stop-color="#E9F2F8" stop-opacity="0"/></linearGradient><linearGradient id="r" x1="241.139" y1="190.83" x2="239.157" y2="196.687" gradientUnits="userSpaceOnUse"><stop stop-color="#CDE2EF"/><stop offset="1" stop-color="#E9F2F8" stop-opacity="0"/></linearGradient><linearGradient id="s" x1="248.24" y1="249.534" x2="233.322" y2="214.411" gradientUnits="userSpaceOnUse"><stop stop-color="#F7FCFF"/><stop offset=".596" stop-color="#fff"/><stop offset="1" stop-color="#E8F4FB"/></linearGradient><linearGradient id="t" x1="259.794" y1="216.609" x2="296.401" y2="241.729" gradientUnits="userSpaceOnUse"><stop stop-color="#E9F2F8" stop-opacity=".964"/><stop offset="1" stop-color="#F7FCFF"/></linearGradient><linearGradient id="u" x1="277.401" y1="102.962" x2="293.923" y2="167.787" gradientUnits="userSpaceOnUse"><stop stop-color="#FCA643"/><stop offset="1" stop-color="#E54033"/></linearGradient><linearGradient id="v" x1="251.833" y1="134.443" x2="269.054" y2="165.572" gradientUnits="userSpaceOnUse"><stop stop-color="#FDA84C"/><stop offset="1" stop-color="#FF7417"/></linearGradient><linearGradient id="w" x1="362.856" y1="244.14" x2="304.489" y2="80.72" gradientUnits="userSpaceOnUse"><stop stop-color="#E13031"/><stop offset="1" stop-color="#FFB545"/></linearGradient><linearGradient id="x" x1="314.919" y1="137.091" x2="331.863" y2="173.097" gradientUnits="userSpaceOnUse"><stop stop-color="#FDA94C"/><stop offset="1" stop-color="#FF7417"/></linearGradient><linearGradient id="y" x1="217.541" y1="280.685" x2="218.961" y2="297.998" gradientUnits="userSpaceOnUse"><stop stop-color="#CEEDFF"/><stop offset="1" stop-color="#F9FDFF"/></linearGradient><linearGradient id="z" x1="189.552" y1="263.733" x2="190.972" y2="281.046" gradientUnits="userSpaceOnUse"><stop stop-color="#CEEDFF"/><stop offset="1" stop-color="#F9FDFF"/></linearGradient><linearGradient id="A" x1="221.872" y1="193.643" x2="307.068" y2="229.031" gradientUnits="userSpaceOnUse"><stop stop-color="#E7F4FB"/><stop offset="1" stop-color="#fff"/></linearGradient><linearGradient id="B" x1="291.095" y1="193.352" x2="287.549" y2="213.355" gradientUnits="userSpaceOnUse"><stop stop-color="#CDE2EF"/><stop offset="1" stop-color="#E9F2F8" stop-opacity="0"/></linearGradient><linearGradient id="C" x1="241.139" y1="190.83" x2="239.157" y2="196.687" gradientUnits="userSpaceOnUse"><stop stop-color="#CDE2EF"/><stop offset="1" stop-color="#E9F2F8" stop-opacity="0"/></linearGradient><linearGradient id="D" x1="248.24" y1="249.538" x2="233.322" y2="214.415" gradientUnits="userSpaceOnUse"><stop stop-color="#F7FCFF"/><stop offset=".596" stop-color="#fff"/><stop offset="1" stop-color="#E8F4FB"/></linearGradient><linearGradient id="E" x1="259.794" y1="216.611" x2="296.4" y2="241.731" gradientUnits="userSpaceOnUse"><stop stop-color="#E9F2F8" stop-opacity=".964"/><stop offset="1" stop-color="#F7FCFF"/></linearGradient><filter id="a" x="59.177" y="70.428" width="444.355" height="470.327" filterUnits="userSpaceOnUse" color-interpolation-filters="sRGB"><feFlood flood-opacity="0" result="BackgroundImageFix"/><feColorMatrix in="SourceAlpha" values="0 0 0 0 0 0 0 0 0 0 0 0 0 0 0 0 0 0 127 0" result="hardAlpha"/><feOffset dy="24.032"/><feGaussianBlur stdDeviation="33.044"/><feComposite in2="hardAlpha" operator="out"/><feColorMatrix values="0 0 0 0 0.975 0 0 0 0 0.329062 0 0 0 0 0.639112 0 0 0 0.66 0"/><feBlend in2="BackgroundImageFix" result="effect1_dropShadow_5208_16807"/><feBlend in="SourceGraphic" in2="effect1_dropShadow_5208_16807" result="shape"/></filter><filter id="e" x="53.115" y="140.574" width="456.479" height="406.263" filterUnits="userSpaceOnUse" color-interpolation-filters="sRGB"><feFlood flood-opacity="0" result="BackgroundImageFix"/><feColorMatrix in="SourceAlpha" values="0 0 0 0 0 0 0 0 0 0 0 0 0 0 0 0 0 0 127 0" result="hardAlpha"/><feOffset dy="24.05"/><feGaussianBlur stdDeviation="36.075"/><feComposite in2="hardAlpha" operator="out"/><feColorMatrix values="0 0 0 0 0.879167 0 0 0 0 0.454236 0 0 0 0 0.760186 0 0 0 0.66 0"/><feBlend in2="BackgroundImageFix" result="effect1_dropShadow_5208_16807"/><feBlend in="SourceGraphic" in2="effect1_dropShadow_5208_16807" result="shape"/></filter><radialGradient id="d" cx="0" cy="0" r="1" gradientUnits="userSpaceOnUse" gradientTransform="rotate(-112.225 325.078 85.097) scale(198.081)"><stop stop-color="#FF3767"/><stop offset="1" stop-color="#FF3767" stop-opacity="0"/></radialGradient></defs></svg>