<svg width="18" height="19" viewBox="0 0 18 19" fill="none" xmlns="http://www.w3.org/2000/svg">
<path fill="currentColor" fill-rule="evenodd" clip-rule="evenodd" d="M1.8 1.8V2.67111L6.64432 7.56724C7.14446 8.07274 7.425 8.75514 7.425 9.46625V15.6866L10.575 14.6253V9.46625C10.575 8.75514 10.8555 8.07274 11.3557 7.56724L16.2 2.67111V1.8H1.8ZM17.1 0C17.5971 0 18 0.402944 18 0.9V3.0411C18 3.27814 17.9065 3.50561 17.7398 3.67411L12.6352 8.83325C12.4685 9.00174 12.375 9.22921 12.375 9.46625V15.5951C12.375 15.7882 12.2517 15.9599 12.0687 16.0215L6.21867 17.9924C5.92702 18.0906 5.625 17.8737 5.625 17.5659V9.46625C5.625 9.22921 5.53149 9.00174 5.36477 8.83325L0.260228 3.67411C0.0935114 3.50561 0 3.27814 0 3.04111V0.900001C0 0.402944 0.402944 0 0.9 0H17.1Z" />
</svg>
