<svg width="42" height="42" viewBox="0 0 42 42" fill="none" xmlns="http://www.w3.org/2000/svg">
<g clip-path="url(#clip0_4101_18278)">
<path fill-rule="evenodd" clip-rule="evenodd" d="M20.9999 0.00120196C16.0095 -0.00399944 11.1805 1.81344 7.37806 5.12783C3.57567 8.44223 1.04851 13.0369 0.249485 18.0885C-0.549536 23.1401 0.431809 28.3184 3.01763 32.6954C5.60346 37.0724 9.62476 40.3621 14.3609 41.9748C15.4051 42.1731 15.7918 41.512 15.7918 40.9304C15.7918 40.3487 15.7918 39.0664 15.7918 37.2684C9.95204 38.5904 8.71447 34.3865 8.71447 34.3865C8.32773 33.0857 7.50011 31.9698 6.38113 31.2401C4.47322 29.9181 6.52294 29.9181 6.52294 29.9181C7.18981 30.0115 7.82697 30.2602 8.38561 30.6452C8.94425 31.0301 9.40953 31.5412 9.74578 32.1391C10.0308 32.6696 10.4155 33.137 10.8777 33.5143C11.3398 33.8915 11.8703 34.1712 12.4384 34.3371C13.0065 34.5031 13.601 34.552 14.1876 34.481C14.7743 34.4101 15.3414 34.2207 15.8563 33.9238C15.9394 32.8368 16.3962 31.8155 17.1454 31.0418C12.4787 30.4998 7.58002 28.649 7.58002 20.3997C7.55148 18.2602 8.32701 16.1915 9.74578 14.6225C9.10569 12.7654 9.17943 10.728 9.95202 8.92471C9.95202 8.92471 11.7182 8.34303 15.7274 11.1325C19.1704 10.1651 22.8037 10.1651 26.2467 11.1325C30.2559 8.34303 32.022 8.92471 32.022 8.92471C32.7959 10.7277 32.8697 12.7656 32.2283 14.6225C33.6435 16.1928 34.4145 18.2617 34.3811 20.3997C34.3811 28.6754 29.4695 30.4866 24.79 30.9757C25.289 31.495 25.6746 32.1171 25.9213 32.8009C26.1681 33.4847 26.2702 34.2144 26.2209 34.9417C26.2209 37.8237 26.2209 40.1372 26.2209 40.8511C26.2209 41.5649 26.5948 42.0937 27.6647 41.8822C32.3924 40.2619 36.4038 36.9699 38.9818 32.5949C41.5597 28.2199 42.536 23.0471 41.7362 18.0016C40.9363 12.9561 38.4124 8.36691 34.6158 5.05462C30.8192 1.74233 25.9975 -0.0770311 21.0128 -0.078125L20.9999 0.00120196Z" fill="white"/>
</g>
<defs>
<clipPath id="clip0_4101_18278">
<rect width="42" height="42" fill="white"/>
</clipPath>
</defs>
</svg>
