<svg width="44" height="42" viewBox="0 0 44 42" fill="none" xmlns="http://www.w3.org/2000/svg">
<path fill-rule="evenodd" clip-rule="evenodd" d="M11.1049 2.07137C11.69 2.01056 12.1138 1.4989 12.0514 0.92855C11.989 0.358196 11.4641 -0.0548704 10.8789 0.00593886L8.70286 0.232078C7.58797 0.34793 6.69378 0.440849 5.96755 0.569185C5.21942 0.701393 4.57825 0.882117 3.98275 1.20741C3.01591 1.73555 2.21436 2.50947 1.6638 3.44669C1.32464 4.02405 1.13367 4.64711 0.991709 5.37458C0.853925 6.08064 0.751157 6.9505 0.623053 8.03482L0.617534 8.08152L0.403864 10.1527C0.344989 10.7234 0.771915 11.2326 1.35743 11.29C1.94295 11.3474 2.46533 10.9313 2.52421 10.3605L2.73634 8.30426C2.86969 7.17565 2.96402 6.38371 3.08521 5.76271C3.20414 5.15324 3.3369 4.77882 3.51314 4.47881C3.87182 3.86822 4.39418 3.36376 5.02458 3.01939C5.33449 2.85011 5.72051 2.72384 6.34772 2.613C6.98813 2.49983 7.80466 2.41433 8.96902 2.29333L11.1049 2.07137ZM31.8392 0.92855C31.7768 1.4989 32.2006 2.01056 32.7858 2.07137L34.9216 2.29333C36.086 2.41433 36.9025 2.49983 37.5429 2.613C38.1701 2.72384 38.5561 2.85011 38.866 3.01939C39.4964 3.36376 40.0188 3.86822 40.3775 4.47881C40.5537 4.77882 40.6865 5.15324 40.8054 5.76271C40.9266 6.38371 41.0209 7.17565 41.1543 8.30426L41.3664 10.3605C41.4253 10.9313 41.9477 11.3474 42.5332 11.29C43.1187 11.2326 43.5456 10.7234 43.4868 10.1527L43.2731 8.08152L43.2676 8.03482C43.1395 6.9505 43.0367 6.08064 42.8989 5.37458C42.757 4.64711 42.566 4.02405 42.2268 3.44669C41.6763 2.50947 40.8747 1.73555 39.9079 1.20741C39.3124 0.882117 38.6712 0.701393 37.9231 0.569185C37.1968 0.440849 36.3027 0.34793 35.1878 0.232078L33.0117 0.00593886C32.4265 -0.0548704 31.9016 0.358196 31.8392 0.92855ZM31.8392 41.0714C31.7768 40.5011 32.2006 39.9894 32.7858 39.9286L34.9216 39.7067C36.086 39.5857 36.9025 39.5002 37.5429 39.387C38.1701 39.2762 38.5561 39.1499 38.866 38.9806C39.4964 38.6362 40.0188 38.1318 40.3775 37.5212C40.5537 37.2212 40.6865 36.8468 40.8054 36.2373C40.9266 35.6163 41.0209 34.8244 41.1543 33.6957L41.3664 31.6395C41.4253 31.0687 41.9477 30.6526 42.5332 30.71C43.1187 30.7674 43.5456 31.2766 43.4868 31.8473L43.2731 33.9185L43.2676 33.9652C43.1395 35.0495 43.0367 35.9194 42.8989 36.6254C42.757 37.3529 42.566 37.9759 42.2268 38.5533C41.6763 39.4905 40.8747 40.2645 39.9079 40.7926C39.3124 41.1179 38.6712 41.2986 37.9231 41.4308C37.1968 41.5592 36.3027 41.6521 35.1878 41.7679L33.0117 41.9941C32.4265 42.0549 31.9016 41.6418 31.8392 41.0714ZM12.0514 41.0714C12.1138 40.5011 11.69 39.9894 11.1049 39.9286L8.96902 39.7067C7.80466 39.5857 6.98813 39.5002 6.34772 39.387C5.72051 39.2762 5.33449 39.1499 5.02458 38.9806C4.39418 38.6362 3.87182 38.1318 3.51314 37.5212C3.3369 37.2212 3.20414 36.8468 3.08521 36.2373C2.96402 35.6163 2.86969 34.8244 2.73634 33.6957L2.52421 31.6395C2.46533 31.0687 1.94295 30.6526 1.35743 30.71C0.771915 30.7674 0.344989 31.2766 0.403864 31.8473L0.617534 33.9185L0.623053 33.9652C0.751157 35.0495 0.853925 35.9194 0.991709 36.6254C1.13367 37.3529 1.32464 37.9759 1.6638 38.5533C2.21436 39.4905 3.01591 40.2645 3.98275 40.7926C4.57825 41.1179 5.21942 41.2986 5.96755 41.4308C6.69378 41.5592 7.58797 41.6521 8.70286 41.7679L10.8789 41.9941C11.4641 42.0549 11.989 41.6418 12.0514 41.0714ZM11.3887 12.9925C10.9181 12.9925 10.5367 13.374 10.5367 13.8445V28.462C10.5367 28.9326 10.9181 29.314 11.3887 29.314H14.4211C14.8916 29.314 15.2731 28.9325 15.2731 28.462V13.8445C15.2731 13.374 14.8916 12.9925 14.4211 12.9925H11.3887ZM19.237 12.9925C18.7664 12.9925 18.3849 13.374 18.3849 13.8445V28.462C18.3849 28.9326 18.7664 29.314 19.237 29.314H26.3029C28.1369 29.314 29.7636 28.9798 31.1829 28.3114C32.6022 27.643 33.7026 26.6948 34.4841 25.4668C35.2655 24.2388 35.6562 22.801 35.6562 21.1533C35.6562 19.5056 35.2655 18.0677 34.4841 16.8397C33.7026 15.6117 32.6022 14.6635 31.1829 13.9951C29.7636 13.3267 28.1369 12.9925 26.3029 12.9925H19.237ZM29.5562 24.4409C28.6951 25.2336 27.5468 25.63 26.1116 25.63H23.377C23.2358 25.63 23.1214 25.5156 23.1214 25.3744V16.9321C23.1214 16.7909 23.2358 16.6765 23.377 16.6765H26.1116C27.5468 16.6765 28.6951 17.0729 29.5562 17.8656C30.4334 18.6584 30.8719 19.7543 30.8719 21.1533C30.8719 22.5522 30.4334 23.6481 29.5562 24.4409Z" fill="url(#paint0_linear_40852_44676)"/>
<defs>
<linearGradient id="paint0_linear_40852_44676" x1="10.7576" y1="13.9774" x2="25.0388" y2="35.2754" gradientUnits="userSpaceOnUse">
<stop stop-color="#CC5CDC"/>
<stop offset="0.244792" stop-color="#7B66FF"/>
<stop offset="0.520833" stop-color="#1F8AF0"/>
<stop offset="0.760417" stop-color="#00D1FF"/>
<stop offset="1" stop-color="#3DEDD7"/>
</linearGradient>
</defs>
</svg>
