<svg width="660" height="545" viewBox="0 0 660 545" fill="none" xmlns="http://www.w3.org/2000/svg">
<g clip-path="url(#clip0_3055_12858)">
<path fill-rule="evenodd" clip-rule="evenodd" d="M425.266 198.117L414.504 191.948L383.435 185.779L372.58 192.141C372.954 192.719 373.141 193.394 373.141 194.165C373.141 195.803 372.205 197.345 370.427 198.406C368.836 199.273 366.965 199.755 364.999 199.755C363.221 199.755 361.443 199.273 360.04 198.502C358.449 197.538 357.513 196.092 357.513 194.55C357.513 192.912 358.449 191.37 360.227 190.309C362.941 188.767 366.871 188.575 369.679 189.731L382.874 182.021L415.721 188.575L426.951 195.032L425.266 198.117ZM361.818 195.514C363.596 196.574 366.871 196.478 368.743 195.321C369.491 194.936 369.772 194.454 369.866 194.261C369.866 193.972 369.491 193.587 369.024 193.297C368.181 192.815 366.965 192.526 365.748 192.526C364.344 192.526 363.034 192.815 362.005 193.394C361.35 193.779 360.975 194.261 360.975 194.55C360.975 194.84 361.35 195.225 361.818 195.514ZM95.6471 202.448C97.0508 203.219 98.8289 203.701 100.607 203.701C101.917 203.701 103.227 203.508 104.444 203.027L154.604 233.098L147.959 252.857L168.828 265.387L196.341 262.206L199.242 246.977L215.713 237.243L237.237 250.158L230.405 270.88L279.349 299.795L281.033 296.808L234.523 269.338L241.354 248.616L215.713 233.291L196.154 244.857L193.44 259.122L169.577 261.917L152.077 251.411L158.721 231.652L107.719 200.906C108.468 200.039 108.842 199.075 108.842 198.111C108.842 196.569 107.906 195.123 106.315 194.159C103.508 192.521 98.9224 192.521 95.9278 194.352C94.1498 195.412 93.2139 196.954 93.2139 198.593C93.1204 200.039 94.0562 201.484 95.6471 202.448ZM97.6123 197.34C98.6417 196.762 99.9518 196.472 101.356 196.472C102.572 196.472 103.789 196.762 104.631 197.244C105.099 197.533 105.473 197.918 105.473 198.207C105.473 198.497 105.099 198.978 104.444 199.364C102.572 200.521 99.2968 200.617 97.5187 199.557C97.0508 199.268 96.6765 198.882 96.6765 198.593C96.4893 198.207 96.8636 197.725 97.6123 197.34ZM197.372 278.109L157.506 282.831L119.511 260.181L127.84 236.567L108.749 225.098C107.626 225.58 106.316 225.772 105.006 225.772C103.228 225.772 101.45 225.29 100.046 224.519C98.4553 223.556 97.5195 222.11 97.5195 220.568C97.5195 218.929 98.4553 217.387 100.233 216.327C103.228 214.496 107.814 214.496 110.621 216.134C112.212 217.098 113.148 218.544 113.148 220.086C113.148 221.146 112.773 222.11 112.025 222.977L132.051 234.929L123.722 258.543L158.161 279.265L198.027 274.542L262.224 312.903L260.54 315.891L197.372 278.109ZM100.795 220.471C100.795 220.76 101.169 221.146 101.637 221.435C103.509 222.495 106.691 222.399 108.656 221.339C109.311 220.953 109.685 220.471 109.685 220.182C109.685 219.893 109.311 219.508 108.843 219.218C108.001 218.736 106.784 218.447 105.568 218.447C104.164 218.447 102.854 218.736 101.824 219.315C101.169 219.7 100.795 220.182 100.795 220.471ZM200.271 265.965L265.217 305.675L263.346 308.76L199.429 269.628L162.464 273.965L133.36 256.52L141.034 234.641L129.71 227.894C128.4 228.472 126.716 228.858 125.125 228.858C123.347 228.858 121.569 228.376 120.165 227.605C118.574 226.641 117.638 225.195 117.638 223.653C117.638 222.015 118.574 220.473 120.352 219.412C123.347 217.581 127.932 217.581 130.74 219.22C132.331 220.183 133.266 221.629 133.266 223.171C133.266 224.039 133.079 224.81 132.611 225.484L145.245 233.002L137.571 254.881L163.306 270.303L200.271 265.965ZM121.101 223.557C121.101 223.846 121.475 224.231 121.943 224.521C123.721 225.581 126.996 225.484 128.962 224.424C129.617 224.039 129.991 223.557 129.991 223.268C129.991 222.978 129.617 222.593 129.149 222.304C128.307 221.822 127.09 221.533 125.873 221.533C124.47 221.533 123.16 221.822 122.13 222.4C121.475 222.786 121.101 223.268 121.101 223.557ZM154.697 212.665C152.919 212.665 151.141 212.183 149.738 211.412C148.147 210.448 147.211 209.002 147.211 207.653C147.211 206.014 148.147 204.472 149.925 203.412C152.919 201.581 157.505 201.581 160.312 203.219C161.903 204.183 162.839 205.629 162.839 207.171C162.839 207.942 162.558 208.713 162.09 209.484L200.459 232.616L216.087 223.363L255.766 247.074L248.467 267.218L298.533 296.904L296.849 299.892L244.349 268.76L251.648 248.616L216.181 227.315L200.553 236.568L159.283 211.701C157.879 212.376 156.288 212.665 154.697 212.665ZM155.446 205.34C154.042 205.34 152.732 205.629 151.703 206.207C150.954 206.689 150.58 207.171 150.767 207.46C150.767 207.749 151.141 208.135 151.609 208.424C153.387 209.484 156.663 209.388 158.534 208.231C159.189 207.846 159.564 207.364 159.564 207.075C159.564 206.785 159.189 206.4 158.721 206.111C157.879 205.629 156.663 205.34 155.446 205.34ZM168.36 202.448C169.764 203.219 171.542 203.701 173.32 203.701C174.537 203.701 175.847 203.508 176.97 203.123L182.865 206.689L183.24 216.327L198.774 225.677L215.526 215.46L265.03 245.146L260.351 262.109L303.118 287.844L304.803 284.856L264.282 260.567L268.961 243.604L215.526 211.316L198.774 221.532L186.609 214.207L186.234 204.569L180.339 201.003C181.087 200.135 181.555 199.075 181.555 198.111C181.555 196.569 180.619 195.123 179.029 194.159C176.221 192.521 171.636 192.521 168.641 194.352C166.863 195.412 165.927 196.954 165.927 198.593C165.833 200.039 166.769 201.484 168.36 202.448ZM170.325 197.34C171.355 196.762 172.665 196.472 174.069 196.472C175.285 196.472 176.502 196.762 177.344 197.244C177.812 197.533 178.186 197.918 178.186 198.207C178.186 198.497 177.812 198.978 177.157 199.364C175.285 200.521 172.01 200.617 170.232 199.557C169.764 199.268 169.39 198.882 169.39 198.593C169.202 198.207 169.577 197.725 170.325 197.34ZM390.787 394.478L392.472 391.49L424.571 410.766L416.897 432.645L442.632 448.067L479.597 443.73L490.733 450.38C493.634 449.031 497.658 449.127 500.185 450.669C501.776 451.633 502.712 453.079 502.712 454.621C502.712 456.259 501.776 457.802 499.998 458.862C498.407 459.729 496.535 460.211 494.57 460.211C492.792 460.211 491.014 459.729 489.61 458.958C488.019 457.994 487.083 456.549 487.083 455.006C487.083 454.139 487.364 453.368 487.832 452.597L478.942 447.296L441.977 451.633L412.873 434.188L420.546 412.309L390.787 394.478ZM498.5 453.657C497.658 453.175 496.442 452.886 495.225 452.886C493.821 452.886 492.511 453.175 491.575 453.85C490.92 454.235 490.546 454.717 490.546 455.006C490.546 455.296 490.92 455.681 491.388 455.97C493.166 457.03 496.348 456.934 498.313 455.778C498.968 455.392 499.343 454.91 499.343 454.621C499.343 454.332 498.968 453.946 498.5 453.657ZM508.046 466.573C505.894 465.32 502.619 465.031 499.905 465.802L477.351 452.308L437.485 457.031L403.047 436.308L411.376 412.694L369.919 387.827L368.235 390.815L407.258 414.236L398.93 437.85L436.924 460.597L476.79 455.874L496.536 467.729C495.6 468.693 495.038 469.753 495.038 471.006C495.038 472.548 495.974 473.994 497.565 474.958C498.969 475.729 500.747 476.211 502.525 476.211C504.49 476.211 506.362 475.729 507.953 474.862C509.731 473.801 510.667 472.259 510.667 470.621C510.573 468.982 509.637 467.536 508.046 466.573ZM506.175 471.681C504.303 472.838 501.028 472.934 499.25 471.874C498.782 471.585 498.407 471.199 498.407 470.91C498.407 470.621 498.782 470.139 499.437 469.753C500.466 469.175 501.776 468.886 503.18 468.886C504.397 468.886 505.613 469.175 506.455 469.657C506.923 469.946 507.298 470.332 507.298 470.621C507.204 470.814 506.923 471.295 506.175 471.681ZM530.691 457.126C533.312 456.452 536.4 456.741 538.459 457.994C540.05 458.958 540.985 460.307 540.892 461.946C540.892 463.584 539.956 465.126 538.178 466.186C536.587 467.054 534.715 467.536 532.75 467.536C530.972 467.536 529.194 467.054 527.79 466.283C526.199 465.319 525.264 463.873 525.264 462.331C525.264 461.078 525.919 459.921 526.948 458.958L509.729 448.645L516.56 427.922L495.037 415.007L478.566 424.742L475.665 439.97L448.152 443.151L427.283 430.621L433.927 410.862L378.433 377.61L380.118 374.622L438.045 409.32L431.401 429.079L448.901 439.585L472.764 436.79L475.478 422.525L495.037 410.959L520.678 426.284L513.847 447.006L530.691 457.126ZM529.568 463.295C531.346 464.355 534.622 464.259 536.493 463.102C537.242 462.717 537.616 462.235 537.616 462.042C537.616 461.753 537.242 461.367 536.774 461.078C535.932 460.596 534.715 460.307 533.499 460.307C532.095 460.307 530.785 460.596 529.755 461.174C529.1 461.56 528.726 462.042 528.726 462.331C528.726 462.62 529.1 463.006 529.568 463.295ZM585.717 473.897C583.191 472.355 579.26 472.259 576.359 473.608L527.977 444.886L535.277 424.742L495.598 401.031L479.97 410.284L411.187 368.839L409.502 371.827L479.876 414.236L495.504 404.983L530.972 426.284L523.672 446.428L573.271 475.825C572.803 476.596 572.522 477.367 572.522 478.234C572.522 479.777 573.458 481.222 575.049 482.186C576.453 482.957 578.231 483.439 580.009 483.439C581.974 483.439 583.846 482.957 585.437 482.09C587.215 481.03 588.15 479.487 588.15 477.849C588.244 476.21 587.308 474.765 585.717 473.897ZM583.752 479.006C581.787 480.162 578.605 480.259 576.827 479.198C576.359 478.909 575.985 478.524 575.985 478.234C575.985 477.945 576.359 477.463 577.014 477.078C578.044 476.5 579.354 476.21 580.757 476.21C581.974 476.21 583.191 476.5 584.033 476.981C584.501 477.271 584.875 477.656 584.875 477.945C584.781 478.138 584.501 478.62 583.752 479.006ZM543.793 438.043L565.879 451.247C568.686 450.187 572.336 450.283 574.675 451.826C576.266 452.789 577.202 454.235 577.202 455.777C577.202 457.416 576.266 458.958 574.488 460.018C572.897 460.886 571.026 461.367 569.06 461.367C567.282 461.367 565.504 460.886 564.101 460.114C562.51 459.151 561.574 457.705 561.574 456.163C561.574 455.199 561.948 454.331 562.603 453.464L539.769 439.778L544.448 422.814L494.943 393.128L478.192 403.345L462.658 393.996L462.283 384.357L435.519 368.358L437.203 365.37L465.559 382.333L465.933 391.972L478.192 399.297L494.943 388.984L548.472 421.079L543.793 438.043ZM565.879 457.127C567.657 458.187 570.932 458.09 572.804 456.934C573.552 456.452 573.927 455.97 573.927 455.874C573.927 455.584 573.552 455.199 573.084 454.91C572.242 454.428 571.026 454.139 569.809 454.139C568.405 454.139 567.095 454.428 566.066 455.006C565.411 455.392 565.036 455.874 565.036 456.163C565.036 456.452 565.411 456.837 565.879 457.127ZM207.688 365.246L169.6 388.571L168.384 409.871L131.232 432.811L133.01 435.799L171.659 411.896L172.876 390.595L209.466 368.234L207.688 365.246ZM214.333 374.594L216.111 377.582L184.48 397.148L183.076 431.46L209.654 448.135L207.876 451.123L179.614 433.388L181.205 395.124L214.333 374.594ZM421.712 251.417L397.848 265.488L399.533 268.476L425.268 253.344L423.022 227.899L438.556 218.55L436.872 215.562L419.466 225.971L421.712 251.417ZM451.284 250.645L406.833 277.247L405.055 274.259L450.442 247.176L485.629 246.983L522.22 270.018L520.442 273.006L484.693 250.549L451.284 250.645ZM551.604 366.691C553.007 367.462 554.785 367.944 556.564 367.944C558.529 367.944 560.4 367.462 561.991 366.595C563.769 365.535 564.705 363.993 564.705 362.354C564.705 360.812 563.769 359.366 562.178 358.402C561.523 358.017 560.775 357.728 559.933 357.535L565.36 327.463L587.165 319.271L584.357 333.246C582.673 333.343 581.082 333.825 579.772 334.596C577.994 335.656 577.058 337.198 577.058 338.836C577.058 340.379 577.994 341.824 579.585 342.788C580.989 343.559 582.767 344.041 584.545 344.041C586.51 344.041 588.381 343.559 589.972 342.692C591.75 341.632 592.686 340.089 592.686 338.451C592.686 336.909 591.75 335.463 590.16 334.499C589.505 334.114 588.662 333.825 587.82 333.632L592.873 307.994L557.031 286.886L555.347 289.874L589.037 309.729L587.914 315.319L562.366 324.957L556.47 357.342C554.785 357.438 553.101 357.92 551.791 358.691C550.013 359.752 549.077 361.294 549.077 362.932C549.077 364.282 550.013 365.727 551.604 366.691ZM589.317 338.355C589.317 338.644 588.943 339.126 588.288 339.511C586.416 340.668 583.141 340.764 581.363 339.704C580.895 339.415 580.521 339.029 580.521 338.74C580.521 338.451 580.895 337.969 581.55 337.583C582.579 337.005 583.89 336.716 585.293 336.716C586.51 336.716 587.726 337.005 588.569 337.487C588.943 337.776 589.317 338.065 589.317 338.355ZM553.569 361.583C554.598 361.005 555.908 360.715 557.312 360.715C558.529 360.715 559.745 361.005 560.588 361.487C561.056 361.776 561.43 362.161 561.43 362.45C561.43 362.74 561.055 363.221 560.4 363.607C558.529 364.764 555.253 364.86 553.475 363.8C553.007 363.511 552.633 363.125 552.633 362.836C552.54 362.45 552.82 361.968 553.569 361.583Z" fill="url(#paint0_linear_3055_12858)"/>
<g filter="url(#filter0_f_3055_12858)">
<path d="M433.381 233.811L407.175 218.725C403.594 216.654 404.071 213.045 408.19 210.737L430.336 198.076C434.515 195.71 440.783 195.473 444.364 197.544L470.57 212.631C474.151 214.701 473.674 218.31 469.555 220.618L447.409 233.22C443.23 235.586 436.962 235.882 433.381 233.811Z" fill="#748AFF"/>
</g>
<g filter="url(#filter1_f_3055_12858)">
<path d="M434.859 228.806L415.709 217.881C413.092 216.382 413.441 213.768 416.45 212.098L432.634 202.929C435.688 201.216 440.268 201.044 442.886 202.544L462.036 213.469C464.653 214.968 464.304 217.581 461.294 219.252L445.11 228.378C442.057 230.091 437.476 230.306 434.859 228.806Z" fill="#370FA8" fill-opacity="0.42"/>
</g>
<g opacity="0.8" filter="url(#filter2_f_3055_12858)">
<path d="M95.7617 485.409L60.9581 464.827C56.1834 462.012 56.8162 457.086 62.3388 453.861L91.7924 436.563C97.3149 433.338 105.656 432.986 110.431 435.8L145.292 456.383C150.067 459.197 149.434 464.123 143.911 467.348L114.458 484.647C108.878 487.872 100.536 488.224 95.7617 485.409Z" fill="#748AFF"/>
</g>
<g filter="url(#filter3_f_3055_12858)">
<path d="M98.7741 475.487L78.2084 463.138C75.387 461.449 75.7609 458.493 79.0242 456.558L96.4286 446.179C99.6919 444.244 104.621 444.033 107.442 445.722L128.042 458.071C130.864 459.76 130.49 462.715 127.226 464.65L109.822 475.03C106.525 476.965 101.596 477.176 98.7741 475.487Z" fill="#370FA8" fill-opacity="0.42"/>
</g>
<g opacity="0.7" filter="url(#filter4_f_3055_12858)">
<path d="M530.514 315.235L492.258 292.341C487.005 289.22 487.678 283.739 493.74 280.201L526.136 261.054C532.198 257.446 541.358 257.099 546.611 260.221L584.867 283.115C590.121 286.237 589.447 291.717 583.386 295.255L550.989 314.402C544.928 318.01 535.768 318.357 530.514 315.235Z" fill="#748AFF"/>
</g>
<g filter="url(#filter5_f_3055_12858)">
<path d="M533.283 305.141L508.379 289.979C504.96 287.911 505.398 284.282 509.344 281.938L530.433 269.258C534.379 266.868 540.342 266.639 543.761 268.706L568.665 283.868C572.084 285.936 571.646 289.565 567.7 291.908L546.611 304.589C542.665 306.978 536.703 307.208 533.283 305.141Z" fill="#370FA8" fill-opacity="0.42"/>
</g>
<g opacity="0.5" filter="url(#filter6_f_3055_12858)">
<path d="M203.613 515.344L180.009 500.825C176.783 498.824 177.213 495.337 180.923 493.107L200.871 480.874C204.635 478.588 210.28 478.359 213.506 480.36L237.11 494.937C240.336 496.937 240.39 495.794 236.626 498.081L216.195 514.887C212.538 517.116 206.893 517.345 203.613 515.344Z" fill="#748AFF"/>
</g>
<g filter="url(#filter7_f_3055_12858)">
<path d="M205.434 509.728L189.723 499.906C187.576 498.553 187.862 496.194 190.332 494.686L203.609 486.41C206.114 484.864 209.872 484.709 212.02 486.062L227.731 495.923C229.878 497.277 229.914 496.503 227.409 498.05L213.809 509.419C211.375 510.927 207.618 511.082 205.434 509.728Z" fill="#370FA8" fill-opacity="0.42"/>
</g>
<g opacity="0.6" filter="url(#filter8_f_3055_12858)">
<path d="M312.703 451.967L189.212 378.212C172.342 368.144 174.488 350.525 194.022 338.931L298.423 277.074C317.957 265.481 347.479 264.26 364.423 274.404L487.84 348.16C504.71 358.228 502.565 375.847 483.031 387.441L378.63 449.298C359.096 460.815 329.573 462.035 312.703 451.967Z" fill="#001AFF"/>
</g>
<path d="M235.576 492.47L235.482 466.061L181.298 465.001L181.392 491.024C181.205 491.603 181.485 492.277 182.14 492.663L206.659 507.602C207.969 508.373 210.122 508.277 211.619 507.41L234.172 494.301C235.202 493.723 235.576 493.048 235.576 492.47Z" fill="url(#paint1_linear_3055_12858)"/>
<path d="M206.659 480.809L182.141 465.869C180.831 465.098 181.018 463.749 182.515 462.881L205.068 449.773C206.566 448.906 208.812 448.809 210.028 449.58L234.547 464.52C235.857 465.291 235.67 466.64 234.172 467.508L211.619 480.616C210.122 481.483 207.876 481.58 206.659 480.809Z" fill="url(#paint2_linear_3055_12858)"/>
<path d="M235.576 459.123V447.749L217.327 447.364L210.121 443.027C208.811 442.256 206.659 442.352 205.162 443.219L198.611 446.978L181.298 446.593V457.966C181.298 458.448 181.579 458.93 182.14 459.219L206.659 474.158C207.969 474.929 210.121 474.833 211.619 473.966L234.172 460.858C235.202 460.376 235.576 459.797 235.576 459.123Z" fill="url(#paint3_linear_3055_12858)"/>
<path d="M206.753 462.689L182.141 447.749C180.831 446.978 181.018 445.629 182.515 444.761L205.068 431.653C206.566 430.786 208.812 430.689 210.028 431.46L234.547 446.4C235.857 447.171 235.67 448.52 234.172 449.388L211.619 462.496C210.215 463.363 208.063 463.46 206.753 462.689Z" fill="url(#paint4_linear_3055_12858)"/>
<path d="M207.501 456.424L192.435 447.268C191.686 446.786 191.78 446.015 192.715 445.436L206.566 437.437C207.501 436.955 208.812 436.858 209.654 437.34L224.72 446.497C225.469 446.979 225.376 447.75 224.44 448.328L210.59 456.328C209.654 456.81 208.344 456.906 207.501 456.424Z" fill="url(#paint5_linear_3055_12858)"/>
<path d="M192.435 447.267L194.961 448.81L206.472 442.063C207.408 441.581 208.718 441.484 209.56 441.966L222.1 449.581L224.346 448.231C225.282 447.749 225.376 446.882 224.627 446.4L209.56 437.244C208.812 436.762 207.408 436.858 206.472 437.34L192.622 445.34C191.78 445.918 191.686 446.786 192.435 447.267Z" fill="url(#paint6_linear_3055_12858)"/>
<path opacity="0.5" d="M206.753 446.785L182.141 431.846C180.831 431.075 181.018 429.725 182.515 428.858L205.068 415.75C206.566 414.882 208.812 414.786 210.028 415.557L234.547 430.496C235.857 431.268 235.67 432.617 234.172 433.484L211.713 446.689C210.215 447.556 207.969 447.556 206.753 446.785Z" fill="#EAB6FF"/>
<path opacity="0.4" d="M234.266 433.582L211.712 446.69C210.215 447.557 207.969 447.654 206.753 446.882L182.14 431.847C181.579 431.558 181.298 431.076 181.298 430.594V446.593C181.298 447.075 181.579 447.557 182.14 447.846L206.659 462.786C207.969 463.557 210.122 463.46 211.619 462.593L234.172 449.485C235.014 449.003 235.482 448.328 235.389 447.75V431.75C235.576 432.521 235.108 433.1 234.266 433.582Z" fill="url(#paint7_linear_3055_12858)"/>
<path opacity="0.4" d="M234.266 433.582L211.712 446.69C210.215 447.557 207.969 447.654 206.753 446.882L182.14 431.847C181.579 431.558 181.298 431.076 181.298 430.594V446.593C181.298 447.075 181.579 447.557 182.14 447.846L206.659 462.786C207.969 463.557 210.122 463.46 211.619 462.593L234.172 449.485C235.014 449.003 235.482 448.328 235.389 447.75V431.75C235.576 432.521 235.108 433.1 234.266 433.582Z" fill="url(#paint8_linear_3055_12858)"/>
<path d="M576.869 279.753V175.081L500.225 173.539V277.537C499.945 278.404 500.319 279.272 501.348 279.946L536.161 301.151C537.939 302.211 541.121 302.114 543.273 300.958L575.278 282.452C576.401 281.585 576.963 280.621 576.869 279.753Z" fill="url(#paint9_linear_3055_12858)"/>
<path d="M536.067 195.996L501.255 174.792C499.477 173.731 499.664 171.804 501.816 170.551L533.821 152.045C535.88 150.792 539.062 150.696 540.934 151.852L575.746 173.057C577.524 174.117 577.337 176.045 575.185 177.298L543.18 195.803C541.027 196.96 537.845 197.056 536.067 195.996Z" fill="url(#paint10_linear_3055_12858)"/>
<path d="M537.191 187.031L515.854 174.02C514.731 173.345 514.918 172.188 516.229 171.417L535.787 160.044C537.097 159.273 539.063 159.273 540.092 159.948L561.429 172.959C562.552 173.634 562.365 174.791 561.054 175.562L541.496 186.839C540.279 187.61 538.314 187.706 537.191 187.031Z" fill="url(#paint11_linear_3055_12858)"/>
<path d="M530.078 269.536C530.078 268.09 529.236 266.355 528.207 265.68L502.285 249.97C501.817 249.681 501.349 249.681 500.975 249.874C500.881 249.874 500.881 249.97 500.787 249.97L494.33 253.922L522.592 275.319L529.143 271.271C529.33 271.271 529.423 271.174 529.517 271.078C529.891 270.692 530.078 270.211 530.078 269.536Z" fill="url(#paint12_linear_3055_12858)"/>
<path d="M521.469 275.03L495.64 259.32C494.517 258.645 493.675 256.91 493.769 255.464C493.769 254.019 494.705 253.344 495.828 254.019L521.75 269.729C522.873 270.404 523.715 272.139 523.621 273.585C523.434 275.03 522.592 275.705 521.469 275.03Z" fill="url(#paint13_linear_3055_12858)"/>
<path d="M529.985 257.778C529.985 256.332 529.143 254.597 528.113 253.923L502.191 238.212C501.723 237.923 501.255 237.923 500.881 238.116C500.787 238.116 500.787 238.212 500.694 238.212L494.237 242.164L522.498 263.561L529.049 259.513C529.236 259.513 529.33 259.417 529.423 259.32C529.798 258.935 529.985 258.453 529.985 257.778Z" fill="url(#paint14_linear_3055_12858)"/>
<path d="M521.375 263.271L495.453 247.561C494.33 246.886 493.488 245.151 493.582 243.706C493.582 242.26 494.517 241.585 495.64 242.26L521.563 257.97C522.686 258.645 523.528 260.38 523.434 261.826C523.341 263.368 522.498 263.946 521.375 263.271Z" fill="url(#paint15_linear_3055_12858)"/>
<path d="M530.078 246.115C530.078 244.669 529.236 242.934 528.207 242.26L502.284 226.549C501.816 226.26 501.349 226.26 500.974 226.453C500.881 226.453 500.881 226.549 500.787 226.549L494.33 230.501L522.592 251.898L529.142 247.85C529.33 247.85 529.423 247.753 529.517 247.657C529.891 247.271 530.078 246.79 530.078 246.115Z" fill="url(#paint16_linear_3055_12858)"/>
<path d="M521.469 251.608L495.546 235.898C494.423 235.223 493.581 233.488 493.675 232.043C493.675 230.597 494.611 229.922 495.734 230.597L521.656 246.307C522.779 246.982 523.621 248.717 523.528 250.163C523.434 251.608 522.592 252.283 521.469 251.608Z" fill="url(#paint17_linear_3055_12858)"/>
<path d="M530.078 234.357C530.078 232.911 529.236 231.176 528.207 230.502L502.285 214.791C501.817 214.502 501.349 214.502 500.975 214.695C500.881 214.695 500.881 214.791 500.787 214.791L494.33 218.743L522.592 240.14L529.143 236.092C529.33 236.092 529.423 235.996 529.517 235.899C529.798 235.514 529.985 235.032 530.078 234.357Z" fill="url(#paint18_linear_3055_12858)"/>
<path d="M521.469 239.851L495.547 224.14C494.424 223.465 493.582 221.731 493.675 220.285C493.675 218.839 494.611 218.164 495.734 218.839L521.656 234.549C522.779 235.224 523.622 236.959 523.528 238.405C523.434 239.851 522.499 240.525 521.469 239.851Z" fill="url(#paint19_linear_3055_12858)"/>
<path d="M530.078 222.597C530.078 221.152 529.236 219.417 528.207 218.742L502.285 203.032C501.817 202.742 501.349 202.742 500.975 202.935C500.881 202.935 500.881 203.032 500.787 203.032L494.33 206.983L522.592 228.38L529.143 224.332C529.33 224.332 529.423 224.236 529.517 224.139C529.891 223.754 530.078 223.272 530.078 222.597Z" fill="url(#paint20_linear_3055_12858)"/>
<path d="M521.469 228.091L495.64 212.38C494.517 211.706 493.675 209.971 493.769 208.525C493.769 207.079 494.705 206.405 495.828 207.079L521.75 222.79C522.873 223.464 523.715 225.199 523.621 226.645C523.528 228.091 522.592 228.766 521.469 228.091Z" fill="url(#paint21_linear_3055_12858)"/>
<path d="M530.078 210.935C530.078 209.489 529.236 207.754 528.207 207.08L502.285 191.273C501.817 190.984 501.349 190.984 500.975 191.176C500.881 191.176 500.881 191.273 500.787 191.273L494.33 195.224L522.592 216.622L529.143 212.573C529.33 212.573 529.423 212.477 529.517 212.381C529.891 212.092 530.078 211.61 530.078 210.935Z" fill="url(#paint22_linear_3055_12858)"/>
<path d="M521.469 216.428L495.64 200.622C494.517 199.947 493.675 198.212 493.769 196.766C493.769 195.32 494.705 194.646 495.828 195.32L521.75 211.031C522.873 211.706 523.715 213.441 523.621 214.886C523.528 216.428 522.592 217.103 521.469 216.428Z" fill="url(#paint23_linear_3055_12858)"/>
<path d="M515.854 174.117L519.41 176.237L535.787 166.695C537.097 165.924 539.062 165.924 540.092 166.599L557.872 177.394L561.054 175.563C562.364 174.792 562.458 173.635 561.429 172.96L540.092 159.949C538.969 159.274 537.004 159.37 535.787 160.045L516.228 171.515C514.918 172.286 514.825 173.442 515.854 174.117Z" fill="url(#paint24_linear_3055_12858)"/>
<path d="M571.348 196.574L547.11 211.032V207.176L571.348 192.719V196.574Z" fill="url(#paint25_linear_3055_12858)"/>
<path d="M571.348 204.092L563.955 208.525V204.574L571.348 200.236V204.092Z" fill="url(#paint26_linear_3055_12858)"/>
<path d="M561.054 210.165L547.11 218.454V214.598L561.054 206.31V210.165Z" fill="url(#paint27_linear_3055_12858)"/>
<path d="M571.348 211.224L554.129 221.537V217.682L571.348 207.369V211.224Z" fill="url(#paint28_linear_3055_12858)"/>
<path d="M551.322 223.176L547.11 225.682V221.826L551.322 219.32V223.176Z" fill="url(#paint29_linear_3055_12858)"/>
<path d="M571.348 218.742L547.11 233.2V229.248L571.348 214.887V218.742Z" fill="url(#paint30_linear_3055_12858)"/>
<path d="M571.349 226.26L563.956 230.693V226.742L571.349 222.404V226.26Z" fill="url(#paint31_linear_3055_12858)"/>
<path d="M561.054 232.333L547.11 240.622V236.766L561.054 228.478V232.333Z" fill="url(#paint32_linear_3055_12858)"/>
<path d="M571.348 233.392L554.129 243.705V239.85L571.348 229.537V233.392Z" fill="url(#paint33_linear_3055_12858)"/>
<path d="M551.322 245.345L547.11 247.851V243.995L551.322 241.489V245.345Z" fill="url(#paint34_linear_3055_12858)"/>
<path d="M571.348 240.525L547.11 254.983V251.031L571.348 236.67V240.525Z" fill="url(#paint35_linear_3055_12858)"/>
<path d="M571.349 247.947L563.956 252.381V248.525L571.349 244.092V247.947Z" fill="url(#paint36_linear_3055_12858)"/>
<path d="M561.054 254.115L547.11 262.404V258.548L561.054 250.163V254.115Z" fill="url(#paint37_linear_3055_12858)"/>
<path d="M571.348 255.176L554.129 265.489V261.537L571.348 251.32V255.176Z" fill="url(#paint38_linear_3055_12858)"/>
<path d="M551.322 267.127L547.11 269.536V265.681L551.322 263.271V267.127Z" fill="url(#paint39_linear_3055_12858)"/>
<path d="M571.348 262.693L547.11 277.054V273.199L571.348 258.741V262.693Z" fill="url(#paint40_linear_3055_12858)"/>
<path d="M143.865 453.051V368.041L61.326 366.402V450.738C61.0453 451.702 61.4196 452.665 62.5426 453.34L99.9754 476.183C101.941 477.339 105.31 477.243 107.556 475.894L141.994 455.942C143.304 455.075 143.959 454.015 143.865 453.051Z" fill="url(#paint41_linear_3055_12858)"/>
<path d="M99.8818 390.498L62.449 367.655C60.4837 366.499 60.7645 364.475 63.0105 363.125L97.4487 343.174C99.6946 341.824 103.157 341.728 105.029 342.885L142.462 365.728C144.427 366.884 144.146 368.908 141.9 370.258L107.462 390.209C105.31 391.655 101.847 391.751 99.8818 390.498Z" fill="url(#paint42_linear_3055_12858)"/>
<path d="M101.098 380.956L78.1707 366.98C76.9541 366.209 77.1413 365.053 78.545 364.185L99.601 351.945C101.005 351.174 103.064 351.077 104.28 351.752L127.208 365.728C128.424 366.499 128.237 367.655 126.833 368.523L105.777 380.763C104.374 381.534 102.315 381.631 101.098 380.956Z" fill="url(#paint43_linear_3055_12858)"/>
<path d="M93.4246 444.568C93.4246 443.026 92.5824 441.099 91.3658 440.424L63.4784 423.46C62.9169 423.171 62.449 423.075 62.0746 423.364C61.9811 423.364 61.9811 423.46 61.8875 423.46L54.9624 427.701L85.3766 450.737L92.3952 446.4C92.5824 446.4 92.676 446.303 92.8631 446.11C93.2375 445.821 93.4246 445.243 93.4246 444.568Z" fill="url(#paint44_linear_3055_12858)"/>
<path d="M84.16 450.448L56.2726 433.484C55.056 432.81 54.2137 430.882 54.2137 429.34C54.2137 427.798 55.2431 427.027 56.3661 427.798L84.3472 444.761C85.5637 445.436 86.406 447.363 86.406 448.905C86.3124 450.448 85.3766 451.219 84.16 450.448Z" fill="url(#paint45_linear_3055_12858)"/>
<path d="M93.4246 431.847C93.4246 430.304 92.5824 428.377 91.3658 427.702L63.4784 410.739C62.9169 410.45 62.449 410.353 62.0746 410.642C61.9811 410.642 61.9811 410.739 61.8875 410.739L54.9624 414.98L85.3766 438.015L92.3952 433.678C92.5824 433.678 92.676 433.582 92.8631 433.389C93.1439 433.1 93.4246 432.618 93.4246 431.847Z" fill="url(#paint46_linear_3055_12858)"/>
<path d="M84.16 437.824L56.2726 420.86C55.056 420.186 54.2137 418.258 54.2137 416.716C54.2137 415.174 55.2431 414.403 56.3661 415.174L84.2536 432.137C85.4701 432.812 86.3124 434.739 86.3124 436.282C86.3124 437.824 85.283 438.498 84.16 437.824Z" fill="url(#paint47_linear_3055_12858)"/>
<path d="M93.5184 419.316C93.5184 417.774 92.6762 415.847 91.4596 415.172L63.5721 398.208C63.0106 397.919 62.5427 397.823 62.1684 398.112C62.0748 398.112 62.0748 398.208 61.9812 398.208L55.0562 402.449L85.4703 425.485L92.489 421.148C92.6762 421.148 92.7697 421.051 92.9569 420.859C93.2377 420.473 93.5184 419.991 93.5184 419.316Z" fill="url(#paint48_linear_3055_12858)"/>
<path d="M84.2538 425.196L56.3663 408.232C55.1497 407.558 54.3075 405.63 54.3075 404.088C54.3075 402.546 55.3369 401.775 56.4599 402.546L84.3473 419.509C85.5639 420.184 86.4062 422.112 86.4062 423.654C86.4062 425.196 85.3768 425.87 84.2538 425.196Z" fill="url(#paint49_linear_3055_12858)"/>
<path d="M93.5184 406.689C93.5184 405.147 92.6762 403.22 91.4596 402.545L63.5721 385.582C63.0106 385.292 62.5427 385.196 62.1684 385.485C62.0748 385.485 62.0748 385.582 61.9812 385.582L55.0562 389.822L85.4703 412.858L92.489 408.521C92.6762 408.521 92.7697 408.424 92.9569 408.232C93.2377 407.942 93.5184 407.364 93.5184 406.689Z" fill="url(#paint50_linear_3055_12858)"/>
<path d="M84.2538 412.569L56.3663 395.605C55.1497 394.931 54.3075 393.003 54.3075 391.461C54.3075 389.919 55.3369 389.148 56.4599 389.919L84.3473 406.882C85.5639 407.557 86.4062 409.484 86.4062 411.027C86.4062 412.569 85.3768 413.243 84.2538 412.569Z" fill="url(#paint51_linear_3055_12858)"/>
<path d="M78.1706 366.981L82.0075 369.294L99.6009 359.077C101.005 358.306 103.063 358.21 104.28 358.885L123.371 370.547L126.833 368.523C128.237 367.752 128.424 366.499 127.208 365.728L104.28 351.752C103.063 350.981 101.005 351.078 99.6009 351.945L78.5449 364.186C77.1412 365.053 76.954 366.21 78.1706 366.981Z" fill="url(#paint52_linear_3055_12858)"/>
<path d="M137.97 391.269L111.767 406.787V402.642L137.97 387.028V391.269Z" fill="url(#paint53_linear_3055_12858)"/>
<path d="M137.97 399.269L129.922 404.089V399.848L137.97 395.125V399.269Z" fill="url(#paint54_linear_3055_12858)"/>
<path d="M126.833 405.823L111.767 414.787V410.642L126.833 401.679V405.823Z" fill="url(#paint55_linear_3055_12858)"/>
<path d="M137.97 406.98L119.347 418.065V413.92L137.97 402.836V406.98Z" fill="url(#paint56_linear_3055_12858)"/>
<path d="M116.259 419.895L111.767 422.594V418.353L116.259 415.751V419.895Z" fill="url(#paint57_linear_3055_12858)"/>
<path d="M137.97 415.075L111.767 430.593V426.448L137.97 410.931V415.075Z" fill="url(#paint58_linear_3055_12858)"/>
<path d="M137.97 423.173L129.922 427.896V423.751L137.97 419.028V423.173Z" fill="url(#paint59_linear_3055_12858)"/>
<path d="M126.833 429.726L111.767 438.689V434.545L126.833 425.581V429.726Z" fill="url(#paint60_linear_3055_12858)"/>
<path d="M137.97 430.883L119.347 441.967V437.822L137.97 426.738V430.883Z" fill="url(#paint61_linear_3055_12858)"/>
<path d="M116.259 443.798L111.767 446.4V442.256L116.259 439.653V443.798Z" fill="url(#paint62_linear_3055_12858)"/>
<path d="M137.97 438.592L111.767 454.11V449.869L137.97 434.352V438.592Z" fill="url(#paint63_linear_3055_12858)"/>
<path d="M465.787 210.549L465.694 184.14L411.51 183.08L411.603 209.104C411.416 209.682 411.697 210.357 412.352 210.742L436.87 225.682C438.18 226.453 440.333 226.356 441.83 225.489L464.383 212.381C465.413 211.899 465.881 211.224 465.787 210.549Z" fill="url(#paint64_linear_3055_12858)"/>
<path d="M436.871 198.887L412.352 183.947C411.042 183.176 411.229 181.827 412.726 180.959L435.28 167.851C436.777 166.984 439.023 166.888 440.239 167.659L464.758 182.598C466.068 183.369 465.881 184.718 464.384 185.586L441.83 198.694C440.333 199.561 438.181 199.658 436.871 198.887Z" fill="url(#paint65_linear_3055_12858)"/>
<path d="M465.787 177.298V165.924L447.539 165.539L440.333 161.202C439.023 160.43 436.87 160.527 435.373 161.394L428.822 165.153L411.51 164.768V176.141C411.51 176.623 411.79 177.105 412.352 177.394L436.964 192.237C438.274 193.008 440.426 192.912 441.924 192.044L464.477 178.936C465.413 178.551 465.881 177.876 465.787 177.298Z" fill="url(#paint66_linear_3055_12858)"/>
<path d="M436.964 180.863L412.445 165.924C411.135 165.153 411.322 163.803 412.82 162.936L435.373 149.828C436.87 148.96 439.116 148.864 440.333 149.635L464.851 164.575C466.162 165.346 465.974 166.695 464.477 167.562L442.017 180.671C440.52 181.538 438.274 181.634 436.964 180.863Z" fill="url(#paint67_linear_3055_12858)"/>
<path d="M437.806 174.502L422.74 165.346C421.991 164.864 422.085 164.093 423.02 163.515L436.871 155.515C437.806 155.033 439.116 154.936 439.959 155.418L455.025 164.575C455.774 165.057 455.68 165.828 454.745 166.406L440.895 174.406C439.959 174.888 438.555 174.984 437.806 174.502Z" fill="url(#paint68_linear_3055_12858)"/>
<path d="M422.739 165.346L425.266 166.888L436.777 160.141C437.713 159.659 439.023 159.563 439.865 160.045L452.405 167.659L454.651 166.309C455.587 165.828 455.68 164.96 454.932 164.478L439.865 155.322C439.116 154.84 437.713 154.936 436.777 155.418L422.927 163.418C422.084 164.093 421.991 164.864 422.739 165.346Z" fill="url(#paint69_linear_3055_12858)"/>
<path opacity="0.5" d="M436.964 164.96L412.446 150.021C411.135 149.25 411.323 147.9 412.82 147.033L435.373 133.925C436.871 133.057 439.116 132.961 440.333 133.732L464.852 148.671C466.162 149.442 465.975 150.792 464.477 151.659L441.924 164.767C440.52 165.635 438.274 165.731 436.964 164.96Z" fill="#EAB6FF"/>
<path opacity="0.4" d="M464.571 151.66L442.017 164.768C440.52 165.636 438.274 165.732 437.057 164.961L412.539 150.022C411.977 149.732 411.697 149.25 411.697 148.769V164.768C411.697 165.25 411.977 165.732 412.539 166.021L437.057 180.961C438.368 181.732 440.52 181.635 442.017 180.768L464.571 167.66C465.413 167.178 465.881 166.503 465.787 165.925V149.925C465.787 150.6 465.413 151.178 464.571 151.66Z" fill="url(#paint70_linear_3055_12858)"/>
<path opacity="0.4" d="M464.571 151.66L442.017 164.768C440.52 165.636 438.274 165.732 437.057 164.961L412.539 150.022C411.977 149.732 411.697 149.25 411.697 148.769V164.768C411.697 165.25 411.977 165.732 412.539 166.021L437.057 180.961C438.368 181.732 440.52 181.635 442.017 180.768L464.571 167.66C465.413 167.178 465.881 166.503 465.787 165.925V149.925C465.787 150.6 465.413 151.178 464.571 151.66Z" fill="url(#paint71_linear_3055_12858)"/>
<path d="M503.221 347.222L503.127 323.994L481.042 323.897L365.187 254.79C347.874 244.477 317.647 245.73 297.714 257.585L190.844 320.813C190.001 321.295 189.159 321.873 188.317 322.451L174.28 322.355V343.849C174.373 350.21 178.21 356.378 185.884 360.908L312.22 436.376C329.532 446.69 359.759 445.437 379.692 433.581L486.563 370.354C497.793 363.703 503.408 355.222 503.221 347.222Z" fill="url(#paint72_linear_3055_12858)"/>
<path d="M312.406 414.787L186.07 339.319C168.758 329.006 171.004 311.078 191.03 299.223L297.901 235.996C317.927 224.14 348.154 222.888 365.374 233.201L491.709 308.669C509.022 318.982 506.776 336.909 486.75 348.764L379.879 411.992C359.852 423.847 329.625 425.1 312.406 414.787Z" fill="url(#paint73_linear_3055_12858)"/>
<path fill-rule="evenodd" clip-rule="evenodd" d="M398.822 270.34C385.025 262.847 371.309 261.005 369.816 260.805L369.736 260.794L369.702 260.789L369.182 262.931C369.355 262.931 382.788 264.627 396.222 271.768L398.822 270.34ZM393.271 262.128L391.538 264.002C391.538 264.002 398.038 266.323 404.278 270.161C410.517 273.821 414.331 277.659 414.331 277.659L417.537 276.588C417.364 276.41 413.551 272.482 406.878 268.555C400.291 264.627 393.531 262.217 393.271 262.128ZM413.12 308.722C413.207 308.543 417.973 291.584 394.487 277.034C371 262.485 341.448 264.895 341.188 264.984L340.408 262.753L340.498 262.746C342.728 262.585 372.547 260.422 397.087 275.517C421.592 290.678 417.193 307.817 416.861 309.112L416.851 309.15L416.847 309.168L413.12 308.722ZM286.587 297.296C284.68 298.367 283.033 299.617 281.473 300.956L278.613 299.349C280.173 298.1 281.907 296.85 283.813 295.69L309.986 280.069C330.18 268.019 364.066 268.555 385.386 281.23C406.705 293.904 407.659 313.988 387.466 326.038L361.293 341.658C359.386 342.73 357.306 343.801 355.139 344.693L352.366 343.087C354.533 342.194 356.699 341.212 358.606 340.052L384.779 324.431C403.585 313.274 402.719 294.529 382.872 282.747C363.026 270.965 331.566 270.518 312.76 281.676L286.587 297.296ZM303.485 330.054C290.745 322.467 290.139 310.417 302.272 303.276L324.978 289.709C337.025 282.479 357.304 282.836 370.044 290.423C382.784 298.01 383.391 310.06 371.258 317.201L348.638 330.768C336.505 337.998 316.312 337.641 303.485 330.054ZM367.531 291.94C356.264 285.246 338.411 284.978 327.751 291.315L304.958 304.883C294.298 311.22 294.818 321.842 306.085 328.537C317.352 335.231 335.205 335.499 345.865 329.162L368.571 315.594C379.231 309.257 378.797 298.635 367.531 291.94ZM313.455 324.164C306.435 319.968 306.175 313.452 312.761 309.436L334.774 296.314C337.974 294.407 342.237 293.468 346.58 293.477C351.205 293.474 355.929 294.547 359.562 296.672C366.581 300.867 366.841 307.383 360.255 311.399L338.242 324.521C337.309 325.077 336.286 325.55 335.198 325.942C328.588 328.412 319.507 327.781 313.455 324.164ZM356.961 298.278C351.414 294.976 342.748 294.886 337.548 298.01L321.699 307.42L315.622 311.042C310.422 314.167 310.682 319.344 316.142 322.557C321.399 325.687 329.457 325.931 334.712 323.289C334.941 323.169 335.164 323.044 335.381 322.914L357.394 309.793C362.681 306.758 362.421 301.581 356.961 298.278ZM324.288 314.881C322.815 315.773 322.641 317.112 323.941 317.916C325.241 318.719 327.581 318.63 329.055 317.737L348.468 306.222C349.941 305.33 350.114 303.991 348.814 303.188C347.514 302.384 345.174 302.474 343.701 303.366L324.288 314.881ZM275.495 328.715C277.749 331.75 280.349 335.231 287.195 339.248L287.195 339.248C287.369 339.337 287.542 339.427 287.715 339.427C294.475 343.354 300.542 345.139 305.915 346.657C310.768 348.085 315.188 349.424 319.955 352.191C329.228 357.725 329.835 360.76 329.835 360.76H333.561C333.561 360.313 332.954 356.743 322.555 350.584H322.468C317.397 347.663 312.582 346.234 307.516 344.731L307.516 344.731L307.388 344.693C302.015 343.176 296.555 341.569 290.228 337.909C283.732 334.123 281.282 330.946 278.971 327.947L278.875 327.823C276.882 325.145 274.975 322.646 270.729 319.968C261.629 314.166 251.576 311.667 251.142 311.578L249.842 313.631C249.853 313.642 250.02 313.691 250.32 313.778L250.321 313.778C252.353 314.37 260.493 316.743 268.042 321.485C271.855 323.895 273.675 326.216 275.495 328.715ZM276.793 345.496C269.427 341.122 264.314 335.588 260.587 331.482L260.219 331.081C258.909 329.651 257.805 328.446 256.774 327.466C252.614 323.717 246.201 322.467 246.114 322.467L247.067 320.325C247.089 320.331 247.141 320.342 247.221 320.358C248.373 320.6 255.271 322.046 259.894 326.305C261.107 327.376 262.407 328.805 263.88 330.501C267.434 334.428 272.374 339.784 279.393 343.979C286.847 348.442 294.993 351.03 302.186 353.262C304.44 353.976 306.606 354.69 308.686 355.404C315.407 357.684 318.161 361.747 318.723 362.578C318.777 362.658 318.811 362.708 318.826 362.723L315.273 363.348C315.273 363.348 313.02 359.421 306.953 357.278C305.723 356.856 304.493 356.465 303.246 356.068L303.244 356.068L303.242 356.067C302.38 355.793 301.511 355.517 300.627 355.225C300.159 355.074 299.688 354.922 299.212 354.769L299.212 354.769C292.11 352.482 284.185 349.93 276.793 345.496ZM246.807 333.893C250.187 338.177 256.34 345.853 265.44 351.298C265.874 351.477 266.307 351.745 266.74 352.012C277.483 357.89 287.088 360.503 293.036 362.122L293.607 362.277C294.213 362.456 294.791 362.614 295.32 362.76L295.321 362.76C296.38 363.051 297.247 363.289 297.767 363.527C300.02 364.419 301.146 365.401 301.146 365.401L304.18 364.241C304.18 364.241 302.62 362.902 299.76 361.742C298.633 361.295 297.16 360.849 294.993 360.314C289.36 358.796 279.827 356.208 269.254 350.406C260.365 345.615 254.184 337.953 250.633 333.553L250.403 333.268L250.187 333C248.802 331.197 246.434 330.09 245.667 329.731C245.522 329.663 245.434 329.622 245.42 329.608L243.427 331.393C243.427 331.393 245.594 332.375 246.807 333.893ZM261.455 355.226C252.788 350.076 245.563 342.451 244.79 341.634L244.751 341.594L244.728 341.57L248.022 340.588L248.046 340.614C248.53 341.132 255.813 348.945 264.488 353.977C273.241 359.064 289.015 363.438 289.188 363.438L287.801 365.402C287.108 365.223 271.248 360.85 261.975 355.405C261.769 355.405 261.672 355.349 261.554 355.281C261.53 355.267 261.504 355.252 261.477 355.238L261.455 355.226ZM336.331 358.082L335.378 357.011C335.378 357.011 334.511 354.422 331.651 352.637C328.618 350.763 324.285 349.245 324.285 349.245L323.505 348.978L323.072 347.906L323.852 347.371L324.545 346.925L325.758 347.103C327.318 347.371 335.118 348.62 340.578 347.46C345.691 346.389 348.031 345.407 348.725 345.05C348.791 345.016 348.844 344.982 348.89 344.953C348.964 344.906 349.018 344.872 349.071 344.872L351.671 346.568C351.621 346.568 351.571 346.597 351.471 346.657L351.47 346.658L351.469 346.658L351.468 346.659C351.416 346.689 351.351 346.728 351.267 346.774C351.24 346.789 351.21 346.805 351.179 346.821L351.151 346.835C349.505 347.639 343.091 351.12 341.271 353.619C340.145 355.136 339.625 356.208 339.365 356.832L339.35 356.863C339.171 357.233 338.804 357.995 337.371 358.082H336.331ZM333.818 350.852C333.883 350.885 333.947 350.931 334.016 350.98C334.133 351.062 334.262 351.153 334.425 351.209C335.725 352.012 336.591 352.905 337.371 353.708L337.371 353.708C337.458 353.589 337.535 353.471 337.612 353.352L337.612 353.351C337.766 353.113 337.92 352.875 338.151 352.637C338.845 351.745 339.971 350.673 341.271 349.781C338.498 350.227 335.378 350.316 332.605 350.138C332.865 350.316 333.298 350.584 333.818 350.852ZM346.994 351.477C344.047 353.53 343.267 355.85 343.267 355.94L346.994 356.564C346.994 356.475 347.6 354.69 349.94 352.994C352.454 351.209 354.534 350.227 354.534 350.227L352.194 348.442C352.02 348.442 349.767 349.513 346.994 351.477ZM257.117 311.132L257.204 310.328C257.365 309.495 258.659 309.284 259.254 309.187C259.296 309.18 259.335 309.174 259.37 309.168C259.496 309.146 259.633 309.123 259.78 309.099L259.785 309.098C260.85 308.918 262.473 308.645 264.83 308.097C268.643 307.115 274.017 303.812 276.183 302.295C276.24 302.256 276.293 302.221 276.341 302.189C276.511 302.077 276.617 302.008 276.617 301.938L279.39 303.455L279.043 303.634L278.975 303.692C278.391 304.19 276.804 305.544 275.057 308.543C273.15 311.756 275.317 316.487 275.837 317.469L276.183 318.094L274.797 319.076L272.717 318.808L272.283 318.362C272.283 318.362 269.683 315.684 266.39 313.899C263.27 312.203 258.85 311.667 258.85 311.667L258.243 311.578L257.117 311.132ZM271.33 308.186C269.683 308.989 267.95 309.703 266.303 310.06C266.024 310.143 265.726 310.206 265.435 310.268C265.095 310.34 264.764 310.41 264.483 310.507C265.957 310.953 267.517 311.489 268.903 312.292C269.333 312.513 269.729 312.768 270.112 313.015C270.348 313.167 270.579 313.316 270.81 313.452C270.55 311.846 270.55 309.882 271.33 308.186ZM259.719 304.706L260.586 306.937C260.617 306.921 260.766 306.897 261.011 306.857C262.139 306.672 265.293 306.157 268.212 304.616C271.506 303.01 273.239 301.671 273.326 301.582L270.292 300.153C270.292 300.153 268.732 301.403 265.699 302.92C262.839 304.349 259.719 304.706 259.719 304.706ZM360.773 313.988L340.493 326.038C332.606 330.769 319.347 330.591 310.94 325.592C302.533 320.594 302.187 312.739 310.16 308.008L332.78 294.53C340.666 289.799 353.926 289.977 362.333 294.976C370.393 299.796 370.999 307.205 363.979 312.025L366.666 313.631C375.073 308.008 374.379 299.171 364.846 293.459C354.966 287.567 339.366 287.389 330.006 292.923L307.387 306.401C298.027 311.935 298.46 321.218 308.34 327.109C318.22 333.001 333.82 333.179 343.18 327.645L363.459 315.595L360.773 313.988ZM299.76 301.938C289.014 308.275 287.367 318.183 294.473 326.127L291.7 327.734C283.207 318.808 284.854 307.561 296.987 300.331L319.953 286.674C334.686 277.927 359.386 278.284 374.986 287.567C381.572 291.494 385.472 296.314 386.686 301.313H382.959C381.832 296.85 378.279 292.566 372.473 289.084C358.346 280.694 336.073 280.337 322.727 288.281L299.76 301.938ZM387.206 303.992H383.48C383.74 309.347 380.533 314.613 373.86 318.63L350.893 332.287C337.547 340.231 315.274 339.874 301.147 331.484C299.587 330.591 298.287 329.609 297.074 328.627L294.387 330.145C295.601 331.126 296.987 332.108 298.547 333.09C314.147 342.373 338.847 342.73 353.58 333.983L376.546 320.326C383.999 315.774 387.466 309.883 387.206 303.992ZM318.475 284.978L303.135 294.083L300.362 292.476L315.702 283.372C327.228 276.499 343.781 274.446 358.948 276.945L358.081 279.087C344.128 276.766 328.961 278.73 318.475 284.978ZM380.355 284.354C375.328 281.409 369.608 279.266 363.455 277.838L362.588 279.98C368.135 281.23 373.335 283.194 377.842 285.872C394.655 295.869 395.348 311.668 379.488 321.129L355.049 335.678C346.122 340.945 333.902 343.176 321.942 342.373V344.604C334.942 345.497 348.115 343.087 357.735 337.374L382.175 322.825C399.421 312.471 398.641 295.244 380.355 284.354ZM295.683 334.785C301.836 338.534 309.376 340.855 317.176 341.926L317.263 344.157C308.509 342.997 300.103 340.408 293.17 336.302C274.796 325.502 274.017 308.275 291.35 297.921L297.243 294.35L299.93 295.957L294.036 299.527C278.176 308.989 278.87 324.788 295.683 334.785ZM275.663 347.549C275.533 347.46 275.404 347.393 275.274 347.326L275.273 347.326C275.143 347.259 275.013 347.192 274.883 347.103C266.997 342.729 261.19 336.303 257.29 331.929C256.923 331.533 256.578 331.158 256.253 330.803L256.252 330.803L256.252 330.802L256.252 330.802L256.251 330.802L256.251 330.801L256.251 330.801C254.888 329.317 253.866 328.204 252.957 327.555C250.084 325.582 246.584 324.706 245.493 324.433C245.301 324.385 245.183 324.355 245.157 324.342L244.117 326.484C244.117 326.484 247.584 327.198 250.184 328.983C250.931 329.496 252.235 330.911 253.791 332.598L253.791 332.598L253.997 332.822L254.392 333.257C258.19 337.44 263.619 343.42 271.07 347.817C271.503 348.085 271.937 348.353 272.37 348.531C272.63 348.621 272.803 348.71 272.977 348.888L275.663 347.549ZM298.542 356.832C300.882 357.457 302.875 358.082 304.522 358.796C308.572 360.548 310.578 363.002 310.893 363.388C310.915 363.415 310.929 363.432 310.935 363.437L307.555 364.241C307.54 364.241 307.474 364.172 307.358 364.051C306.811 363.481 305.143 361.743 302.355 360.492C301.055 359.956 299.235 359.421 297.068 358.796C292.475 357.546 285.802 355.672 276.529 350.941L279.215 349.424C287.571 353.64 293.509 355.368 298.041 356.686L298.542 356.832ZM267.002 324.61C266.049 323.717 265.009 323.003 263.969 322.289C256.506 317.874 250.643 316.379 249.512 316.091L249.511 316.091L249.511 316.091L249.51 316.091C249.407 316.065 249.344 316.049 249.323 316.041L248.196 318.094C248.283 318.094 253.916 319.344 261.369 323.807C262.149 324.253 262.929 324.878 263.622 325.503L267.002 324.61ZM303.662 348.811L303.662 348.811C308.739 350.292 313.653 351.725 318.567 354.779C321.946 356.894 324.463 359.792 325.617 361.119C325.973 361.529 326.199 361.789 326.28 361.831L322.814 362.634C322.814 362.634 319.954 358.707 316.054 356.297C311.587 353.466 306.951 352.126 302.059 350.712L301.927 350.673L301.585 350.575C296.38 349.082 290.431 347.376 283.901 343.533L283.381 343.265C276.101 338.98 271.854 334.25 268.475 330.412L268.24 330.143L268.24 330.143C267.554 329.357 266.931 328.643 266.308 328.002L269.601 327.109C270.294 327.823 270.988 328.626 271.681 329.43L272.066 329.855C275.525 333.683 279.476 338.057 286.328 342.015C292.568 345.586 298.027 347.192 303.314 348.71L303.662 348.811ZM399.69 273.821L402.29 272.304C415.704 280.609 419.849 288.461 420.622 289.924L420.622 289.925L420.625 289.931C420.689 290.052 420.729 290.128 420.75 290.156L417.11 290.602C417.104 290.596 417.086 290.56 417.052 290.494C416.544 289.494 412.616 281.776 399.69 273.821ZM307.646 278.464C307.827 278.339 308.008 278.258 308.16 278.19L308.216 278.165L308.258 278.146C308.273 278.139 308.287 278.132 308.301 278.126C308.314 278.119 308.327 278.113 308.339 278.107L305.652 276.5C305.471 276.562 305.29 276.668 305.138 276.756C305.106 276.775 305.074 276.793 305.045 276.81C305.014 276.827 304.986 276.843 304.959 276.857L272.113 296.405C271.94 296.539 271.767 296.65 271.593 296.762L271.593 296.762L271.592 296.762C271.419 296.874 271.246 296.985 271.073 297.119L273.759 298.726C273.933 298.592 274.106 298.48 274.279 298.369C274.453 298.257 274.626 298.145 274.799 298.012L307.646 278.464ZM390.411 327.556C395.091 324.789 398.557 321.576 401.157 318.184L404.451 319.344C401.764 322.915 397.951 326.217 393.097 329.163L379.318 337.375L376.631 335.768L390.411 327.556ZM399.165 284.354C396.738 282.123 393.965 280.07 390.672 278.106C367.705 264.538 332.259 263.199 308.946 274.625L311.633 276.231C333.473 265.699 366.665 266.948 388.072 279.713C391.105 281.498 393.705 283.461 395.958 285.514L399.165 284.354ZM401.678 286.853C410.431 296.226 411.991 307.204 406.185 316.845L402.891 315.595C408.005 306.758 406.618 296.583 398.558 287.924L401.678 286.853ZM373.339 337.731L357.48 347.193C357.133 347.46 356.7 347.639 356.266 347.817L358.953 349.424C359.063 349.368 359.181 349.302 359.306 349.233L359.306 349.233C359.574 349.085 359.87 348.921 360.166 348.799L376.026 339.338L373.339 337.731ZM339.626 299.617C343.526 297.385 350.113 297.475 354.186 299.885C358.346 302.295 358.52 306.222 354.62 308.543L333.213 321.307C329.313 323.539 322.727 323.449 318.653 321.039C314.493 318.54 314.32 314.702 318.22 312.381L318.827 312.024L320.993 313.274L321.513 313.631L320.907 313.988C318.393 315.505 318.567 318.004 321.167 319.522C323.853 321.129 327.927 321.218 330.44 319.7L351.846 306.936C354.36 305.419 354.186 302.92 351.586 301.402C348.9 299.795 344.826 299.706 342.313 301.224L324.72 311.667L323.68 311.042L322.033 310.06L339.626 299.617Z" fill="url(#paint74_linear_3055_12858)"/>
<path fill-rule="evenodd" clip-rule="evenodd" d="M398.822 270.34C385.025 262.847 371.309 261.005 369.816 260.805L369.736 260.794L369.702 260.789L369.182 262.931C369.355 262.931 382.788 264.627 396.222 271.768L398.822 270.34ZM393.271 262.128L391.538 264.002C391.538 264.002 398.038 266.323 404.278 270.161C410.517 273.821 414.331 277.659 414.331 277.659L417.537 276.588C417.364 276.41 413.551 272.482 406.878 268.555C400.291 264.627 393.531 262.217 393.271 262.128ZM413.12 308.722C413.207 308.543 417.973 291.584 394.487 277.034C371 262.485 341.448 264.895 341.188 264.984L340.408 262.753L340.498 262.746C342.728 262.585 372.547 260.422 397.087 275.517C421.592 290.678 417.193 307.817 416.861 309.112L416.851 309.15L416.847 309.168L413.12 308.722ZM286.587 297.296C284.68 298.367 283.033 299.617 281.473 300.956L278.613 299.349C280.173 298.1 281.907 296.85 283.813 295.69L309.986 280.069C330.18 268.019 364.066 268.555 385.386 281.23C406.705 293.904 407.659 313.988 387.466 326.038L361.293 341.658C359.386 342.73 357.306 343.801 355.139 344.693L352.366 343.087C354.533 342.194 356.699 341.212 358.606 340.052L384.779 324.431C403.585 313.274 402.719 294.529 382.872 282.747C363.026 270.965 331.566 270.518 312.76 281.676L286.587 297.296ZM303.485 330.054C290.745 322.467 290.139 310.417 302.272 303.276L324.978 289.709C337.025 282.479 357.304 282.836 370.044 290.423C382.784 298.01 383.391 310.06 371.258 317.201L348.638 330.768C336.505 337.998 316.312 337.641 303.485 330.054ZM367.531 291.94C356.264 285.246 338.411 284.978 327.751 291.315L304.958 304.883C294.298 311.22 294.818 321.842 306.085 328.537C317.352 335.231 335.205 335.499 345.865 329.162L368.571 315.594C379.231 309.257 378.797 298.635 367.531 291.94ZM313.455 324.164C306.435 319.968 306.175 313.452 312.761 309.436L334.774 296.314C337.974 294.407 342.237 293.468 346.58 293.477C351.205 293.474 355.929 294.547 359.562 296.672C366.581 300.867 366.841 307.383 360.255 311.399L338.242 324.521C337.309 325.077 336.286 325.55 335.198 325.942C328.588 328.412 319.507 327.781 313.455 324.164ZM356.961 298.278C351.414 294.976 342.748 294.886 337.548 298.01L321.699 307.42L315.622 311.042C310.422 314.167 310.682 319.344 316.142 322.557C321.399 325.687 329.457 325.931 334.712 323.289C334.941 323.169 335.164 323.044 335.381 322.914L357.394 309.793C362.681 306.758 362.421 301.581 356.961 298.278ZM324.288 314.881C322.815 315.773 322.641 317.112 323.941 317.916C325.241 318.719 327.581 318.63 329.055 317.737L348.468 306.222C349.941 305.33 350.114 303.991 348.814 303.188C347.514 302.384 345.174 302.474 343.701 303.366L324.288 314.881ZM275.495 328.715C277.749 331.75 280.349 335.231 287.195 339.248L287.195 339.248C287.369 339.337 287.542 339.427 287.715 339.427C294.475 343.354 300.542 345.139 305.915 346.657C310.768 348.085 315.188 349.424 319.955 352.191C329.228 357.725 329.835 360.76 329.835 360.76H333.561C333.561 360.313 332.954 356.743 322.555 350.584H322.468C317.397 347.663 312.582 346.234 307.516 344.731L307.516 344.731L307.388 344.693C302.015 343.176 296.555 341.569 290.228 337.909C283.732 334.123 281.282 330.946 278.971 327.947L278.875 327.823C276.882 325.145 274.975 322.646 270.729 319.968C261.629 314.166 251.576 311.667 251.142 311.578L249.842 313.631C249.853 313.642 250.02 313.691 250.32 313.778L250.321 313.778C252.353 314.37 260.493 316.743 268.042 321.485C271.855 323.895 273.675 326.216 275.495 328.715ZM276.793 345.496C269.427 341.122 264.314 335.588 260.587 331.482L260.219 331.081C258.909 329.651 257.805 328.446 256.774 327.466C252.614 323.717 246.201 322.467 246.114 322.467L247.067 320.325C247.089 320.331 247.141 320.342 247.221 320.358C248.373 320.6 255.271 322.046 259.894 326.305C261.107 327.376 262.407 328.805 263.88 330.501C267.434 334.428 272.374 339.784 279.393 343.979C286.847 348.442 294.993 351.03 302.186 353.262C304.44 353.976 306.606 354.69 308.686 355.404C315.407 357.684 318.161 361.747 318.723 362.578C318.777 362.658 318.811 362.708 318.826 362.723L315.273 363.348C315.273 363.348 313.02 359.421 306.953 357.278C305.723 356.856 304.493 356.465 303.246 356.068L303.244 356.068L303.242 356.067C302.38 355.793 301.511 355.517 300.627 355.225C300.159 355.074 299.688 354.922 299.212 354.769L299.212 354.769C292.11 352.482 284.185 349.93 276.793 345.496ZM246.807 333.893C250.187 338.177 256.34 345.853 265.44 351.298C265.874 351.477 266.307 351.745 266.74 352.012C277.483 357.89 287.088 360.503 293.036 362.122L293.607 362.277C294.213 362.456 294.791 362.614 295.32 362.76L295.321 362.76C296.38 363.051 297.247 363.289 297.767 363.527C300.02 364.419 301.146 365.401 301.146 365.401L304.18 364.241C304.18 364.241 302.62 362.902 299.76 361.742C298.633 361.295 297.16 360.849 294.993 360.314C289.36 358.796 279.827 356.208 269.254 350.406C260.365 345.615 254.184 337.953 250.633 333.553L250.403 333.268L250.187 333C248.802 331.197 246.434 330.09 245.667 329.731C245.522 329.663 245.434 329.622 245.42 329.608L243.427 331.393C243.427 331.393 245.594 332.375 246.807 333.893ZM261.455 355.226C252.788 350.076 245.563 342.451 244.79 341.634L244.751 341.594L244.728 341.57L248.022 340.588L248.046 340.614C248.53 341.132 255.813 348.945 264.488 353.977C273.241 359.064 289.015 363.438 289.188 363.438L287.801 365.402C287.108 365.223 271.248 360.85 261.975 355.405C261.769 355.405 261.672 355.349 261.554 355.281C261.53 355.267 261.504 355.252 261.477 355.238L261.455 355.226ZM336.331 358.082L335.378 357.011C335.378 357.011 334.511 354.422 331.651 352.637C328.618 350.763 324.285 349.245 324.285 349.245L323.505 348.978L323.072 347.906L323.852 347.371L324.545 346.925L325.758 347.103C327.318 347.371 335.118 348.62 340.578 347.46C345.691 346.389 348.031 345.407 348.725 345.05C348.791 345.016 348.844 344.982 348.89 344.953C348.964 344.906 349.018 344.872 349.071 344.872L351.671 346.568C351.621 346.568 351.571 346.597 351.471 346.657L351.47 346.658L351.469 346.658L351.468 346.659C351.416 346.689 351.351 346.728 351.267 346.774C351.24 346.789 351.21 346.805 351.179 346.821L351.151 346.835C349.505 347.639 343.091 351.12 341.271 353.619C340.145 355.136 339.625 356.208 339.365 356.832L339.35 356.863C339.171 357.233 338.804 357.995 337.371 358.082H336.331ZM333.818 350.852C333.883 350.885 333.947 350.931 334.016 350.98C334.133 351.062 334.262 351.153 334.425 351.209C335.725 352.012 336.591 352.905 337.371 353.708L337.371 353.708C337.458 353.589 337.535 353.471 337.612 353.352L337.612 353.351C337.766 353.113 337.92 352.875 338.151 352.637C338.845 351.745 339.971 350.673 341.271 349.781C338.498 350.227 335.378 350.316 332.605 350.138C332.865 350.316 333.298 350.584 333.818 350.852ZM346.994 351.477C344.047 353.53 343.267 355.85 343.267 355.94L346.994 356.564C346.994 356.475 347.6 354.69 349.94 352.994C352.454 351.209 354.534 350.227 354.534 350.227L352.194 348.442C352.02 348.442 349.767 349.513 346.994 351.477ZM257.117 311.132L257.204 310.328C257.365 309.495 258.659 309.284 259.254 309.187C259.296 309.18 259.335 309.174 259.37 309.168C259.496 309.146 259.633 309.123 259.78 309.099L259.785 309.098C260.85 308.918 262.473 308.645 264.83 308.097C268.643 307.115 274.017 303.812 276.183 302.295C276.24 302.256 276.293 302.221 276.341 302.189C276.511 302.077 276.617 302.008 276.617 301.938L279.39 303.455L279.043 303.634L278.975 303.692C278.391 304.19 276.804 305.544 275.057 308.543C273.15 311.756 275.317 316.487 275.837 317.469L276.183 318.094L274.797 319.076L272.717 318.808L272.283 318.362C272.283 318.362 269.683 315.684 266.39 313.899C263.27 312.203 258.85 311.667 258.85 311.667L258.243 311.578L257.117 311.132ZM271.33 308.186C269.683 308.989 267.95 309.703 266.303 310.06C266.024 310.143 265.726 310.206 265.435 310.268C265.095 310.34 264.764 310.41 264.483 310.507C265.957 310.953 267.517 311.489 268.903 312.292C269.333 312.513 269.729 312.768 270.112 313.015C270.348 313.167 270.579 313.316 270.81 313.452C270.55 311.846 270.55 309.882 271.33 308.186ZM259.719 304.706L260.586 306.937C260.617 306.921 260.766 306.897 261.011 306.857C262.139 306.672 265.293 306.157 268.212 304.616C271.506 303.01 273.239 301.671 273.326 301.582L270.292 300.153C270.292 300.153 268.732 301.403 265.699 302.92C262.839 304.349 259.719 304.706 259.719 304.706ZM360.773 313.988L340.493 326.038C332.606 330.769 319.347 330.591 310.94 325.592C302.533 320.594 302.187 312.739 310.16 308.008L332.78 294.53C340.666 289.799 353.926 289.977 362.333 294.976C370.393 299.796 370.999 307.205 363.979 312.025L366.666 313.631C375.073 308.008 374.379 299.171 364.846 293.459C354.966 287.567 339.366 287.389 330.006 292.923L307.387 306.401C298.027 311.935 298.46 321.218 308.34 327.109C318.22 333.001 333.82 333.179 343.18 327.645L363.459 315.595L360.773 313.988ZM299.76 301.938C289.014 308.275 287.367 318.183 294.473 326.127L291.7 327.734C283.207 318.808 284.854 307.561 296.987 300.331L319.953 286.674C334.686 277.927 359.386 278.284 374.986 287.567C381.572 291.494 385.472 296.314 386.686 301.313H382.959C381.832 296.85 378.279 292.566 372.473 289.084C358.346 280.694 336.073 280.337 322.727 288.281L299.76 301.938ZM387.206 303.992H383.48C383.74 309.347 380.533 314.613 373.86 318.63L350.893 332.287C337.547 340.231 315.274 339.874 301.147 331.484C299.587 330.591 298.287 329.609 297.074 328.627L294.387 330.145C295.601 331.126 296.987 332.108 298.547 333.09C314.147 342.373 338.847 342.73 353.58 333.983L376.546 320.326C383.999 315.774 387.466 309.883 387.206 303.992ZM318.475 284.978L303.135 294.083L300.362 292.476L315.702 283.372C327.228 276.499 343.781 274.446 358.948 276.945L358.081 279.087C344.128 276.766 328.961 278.73 318.475 284.978ZM380.355 284.354C375.328 281.409 369.608 279.266 363.455 277.838L362.588 279.98C368.135 281.23 373.335 283.194 377.842 285.872C394.655 295.869 395.348 311.668 379.488 321.129L355.049 335.678C346.122 340.945 333.902 343.176 321.942 342.373V344.604C334.942 345.497 348.115 343.087 357.735 337.374L382.175 322.825C399.421 312.471 398.641 295.244 380.355 284.354ZM295.683 334.785C301.836 338.534 309.376 340.855 317.176 341.926L317.263 344.157C308.509 342.997 300.103 340.408 293.17 336.302C274.796 325.502 274.017 308.275 291.35 297.921L297.243 294.35L299.93 295.957L294.036 299.527C278.176 308.989 278.87 324.788 295.683 334.785ZM275.663 347.549C275.533 347.46 275.404 347.393 275.274 347.326L275.273 347.326C275.143 347.259 275.013 347.192 274.883 347.103C266.997 342.729 261.19 336.303 257.29 331.929C256.923 331.533 256.578 331.158 256.253 330.803L256.252 330.803L256.252 330.802L256.252 330.802L256.251 330.802L256.251 330.801L256.251 330.801C254.888 329.317 253.866 328.204 252.957 327.555C250.084 325.582 246.584 324.706 245.493 324.433C245.301 324.385 245.183 324.355 245.157 324.342L244.117 326.484C244.117 326.484 247.584 327.198 250.184 328.983C250.931 329.496 252.235 330.911 253.791 332.598L253.791 332.598L253.997 332.822L254.392 333.257C258.19 337.44 263.619 343.42 271.07 347.817C271.503 348.085 271.937 348.353 272.37 348.531C272.63 348.621 272.803 348.71 272.977 348.888L275.663 347.549ZM298.542 356.832C300.882 357.457 302.875 358.082 304.522 358.796C308.572 360.548 310.578 363.002 310.893 363.388C310.915 363.415 310.929 363.432 310.935 363.437L307.555 364.241C307.54 364.241 307.474 364.172 307.358 364.051C306.811 363.481 305.143 361.743 302.355 360.492C301.055 359.956 299.235 359.421 297.068 358.796C292.475 357.546 285.802 355.672 276.529 350.941L279.215 349.424C287.571 353.64 293.509 355.368 298.041 356.686L298.542 356.832ZM267.002 324.61C266.049 323.717 265.009 323.003 263.969 322.289C256.506 317.874 250.643 316.379 249.512 316.091L249.511 316.091L249.511 316.091L249.51 316.091C249.407 316.065 249.344 316.049 249.323 316.041L248.196 318.094C248.283 318.094 253.916 319.344 261.369 323.807C262.149 324.253 262.929 324.878 263.622 325.503L267.002 324.61ZM303.662 348.811L303.662 348.811C308.739 350.292 313.653 351.725 318.567 354.779C321.946 356.894 324.463 359.792 325.617 361.119C325.973 361.529 326.199 361.789 326.28 361.831L322.814 362.634C322.814 362.634 319.954 358.707 316.054 356.297C311.587 353.466 306.951 352.126 302.059 350.712L301.927 350.673L301.585 350.575C296.38 349.082 290.431 347.376 283.901 343.533L283.381 343.265C276.101 338.98 271.854 334.25 268.475 330.412L268.24 330.143L268.24 330.143C267.554 329.357 266.931 328.643 266.308 328.002L269.601 327.109C270.294 327.823 270.988 328.626 271.681 329.43L272.066 329.855C275.525 333.683 279.476 338.057 286.328 342.015C292.568 345.586 298.027 347.192 303.314 348.71L303.662 348.811ZM399.69 273.821L402.29 272.304C415.704 280.609 419.849 288.461 420.622 289.924L420.622 289.925L420.625 289.931C420.689 290.052 420.729 290.128 420.75 290.156L417.11 290.602C417.104 290.596 417.086 290.56 417.052 290.494C416.544 289.494 412.616 281.776 399.69 273.821ZM307.646 278.464C307.827 278.339 308.008 278.258 308.16 278.19L308.216 278.165L308.258 278.146C308.273 278.139 308.287 278.132 308.301 278.126C308.314 278.119 308.327 278.113 308.339 278.107L305.652 276.5C305.471 276.562 305.29 276.668 305.138 276.756C305.106 276.775 305.074 276.793 305.045 276.81C305.014 276.827 304.986 276.843 304.959 276.857L272.113 296.405C271.94 296.539 271.767 296.65 271.593 296.762L271.593 296.762L271.592 296.762C271.419 296.874 271.246 296.985 271.073 297.119L273.759 298.726C273.933 298.592 274.106 298.48 274.279 298.369C274.453 298.257 274.626 298.145 274.799 298.012L307.646 278.464ZM390.411 327.556C395.091 324.789 398.557 321.576 401.157 318.184L404.451 319.344C401.764 322.915 397.951 326.217 393.097 329.163L379.318 337.375L376.631 335.768L390.411 327.556ZM399.165 284.354C396.738 282.123 393.965 280.07 390.672 278.106C367.705 264.538 332.259 263.199 308.946 274.625L311.633 276.231C333.473 265.699 366.665 266.948 388.072 279.713C391.105 281.498 393.705 283.461 395.958 285.514L399.165 284.354ZM401.678 286.853C410.431 296.226 411.991 307.204 406.185 316.845L402.891 315.595C408.005 306.758 406.618 296.583 398.558 287.924L401.678 286.853ZM373.339 337.731L357.48 347.193C357.133 347.46 356.7 347.639 356.266 347.817L358.953 349.424C359.063 349.368 359.181 349.302 359.306 349.233L359.306 349.233C359.574 349.085 359.87 348.921 360.166 348.799L376.026 339.338L373.339 337.731ZM339.626 299.617C343.526 297.385 350.113 297.475 354.186 299.885C358.346 302.295 358.52 306.222 354.62 308.543L333.213 321.307C329.313 323.539 322.727 323.449 318.653 321.039C314.493 318.54 314.32 314.702 318.22 312.381L318.827 312.024L320.993 313.274L321.513 313.631L320.907 313.988C318.393 315.505 318.567 318.004 321.167 319.522C323.853 321.129 327.927 321.218 330.44 319.7L351.846 306.936C354.36 305.419 354.186 302.92 351.586 301.402C348.9 299.795 344.826 299.706 342.313 301.224L324.72 311.667L323.68 311.042L322.033 310.06L339.626 299.617Z" fill="white"/>
<path opacity="0.5" d="M312.407 393.1L186.071 317.632C168.758 307.319 171.004 289.392 191.031 277.537L297.901 214.309C317.928 202.454 348.155 201.201 365.374 211.514L491.71 286.982C509.023 297.295 506.777 315.222 486.75 327.078L379.879 390.305C359.853 402.16 329.626 403.413 312.407 393.1Z" fill="url(#paint75_linear_3055_12858)"/>
<path opacity="0.5" d="M503.127 306.259C502.285 313.584 496.763 321.102 486.656 327.078L379.786 390.305C359.759 402.16 329.532 403.413 312.313 393.1L185.977 317.632C178.304 313.006 174.467 306.934 174.373 300.572V322.066C174.467 328.427 178.304 334.596 185.977 339.126L312.313 414.594C329.626 424.907 359.853 423.654 379.786 411.799L486.656 348.571C497.793 342.017 503.408 333.535 503.22 325.536L503.127 306.259Z" fill="url(#paint76_linear_3055_12858)"/>
</g>
<defs>
<filter id="filter0_f_3055_12858" x="394.768" y="186.134" width="88.2092" height="59.0625" filterUnits="userSpaceOnUse" color-interpolation-filters="sRGB">
<feFlood flood-opacity="0" result="BackgroundImageFix"/>
<feBlend mode="normal" in="SourceGraphic" in2="BackgroundImageFix" result="shape"/>
<feGaussianBlur stdDeviation="5" result="effect1_foregroundBlur_3055_12858"/>
</filter>
<filter id="filter1_f_3055_12858" x="405.95" y="193.522" width="65.8452" height="44.2861" filterUnits="userSpaceOnUse" color-interpolation-filters="sRGB">
<feFlood flood-opacity="0" result="BackgroundImageFix"/>
<feBlend mode="normal" in="SourceGraphic" in2="BackgroundImageFix" result="shape"/>
<feGaussianBlur stdDeviation="4" result="effect1_foregroundBlur_3055_12858"/>
</filter>
<filter id="filter2_f_3055_12858" x="42.7501" y="418.897" width="120.75" height="83.4141" filterUnits="userSpaceOnUse" color-interpolation-filters="sRGB">
<feFlood flood-opacity="0" result="BackgroundImageFix"/>
<feBlend mode="normal" in="SourceGraphic" in2="BackgroundImageFix" result="shape"/>
<feGaussianBlur stdDeviation="7.5" result="effect1_foregroundBlur_3055_12858"/>
</filter>
<filter id="filter3_f_3055_12858" x="66.3127" y="434.58" width="73.625" height="52.0488" filterUnits="userSpaceOnUse" color-interpolation-filters="sRGB">
<feFlood flood-opacity="0" result="BackgroundImageFix"/>
<feBlend mode="normal" in="SourceGraphic" in2="BackgroundImageFix" result="shape"/>
<feGaussianBlur stdDeviation="5" result="effect1_foregroundBlur_3055_12858"/>
</filter>
<filter id="filter4_f_3055_12858" x="473.718" y="243.095" width="129.69" height="89.2666" filterUnits="userSpaceOnUse" color-interpolation-filters="sRGB">
<feFlood flood-opacity="0" result="BackgroundImageFix"/>
<feBlend mode="normal" in="SourceGraphic" in2="BackgroundImageFix" result="shape"/>
<feGaussianBlur stdDeviation="7.5" result="effect1_foregroundBlur_3055_12858"/>
</filter>
<filter id="filter5_f_3055_12858" x="496.075" y="257.298" width="84.8949" height="59.251" filterUnits="userSpaceOnUse" color-interpolation-filters="sRGB">
<feFlood flood-opacity="0" result="BackgroundImageFix"/>
<feBlend mode="normal" in="SourceGraphic" in2="BackgroundImageFix" result="shape"/>
<feGaussianBlur stdDeviation="5" result="effect1_foregroundBlur_3055_12858"/>
</filter>
<filter id="filter6_f_3055_12858" x="167.841" y="468.997" width="81.6506" height="57.7148" filterUnits="userSpaceOnUse" color-interpolation-filters="sRGB">
<feFlood flood-opacity="0" result="BackgroundImageFix"/>
<feBlend mode="normal" in="SourceGraphic" in2="BackgroundImageFix" result="shape"/>
<feGaussianBlur stdDeviation="5" result="effect1_foregroundBlur_3055_12858"/>
</filter>
<filter id="filter7_f_3055_12858" x="178.28" y="475.141" width="61.0365" height="45.5137" filterUnits="userSpaceOnUse" color-interpolation-filters="sRGB">
<feFlood flood-opacity="0" result="BackgroundImageFix"/>
<feBlend mode="normal" in="SourceGraphic" in2="BackgroundImageFix" result="shape"/>
<feGaussianBlur stdDeviation="5" result="effect1_foregroundBlur_3055_12858"/>
</filter>
<filter id="filter8_f_3055_12858" x="147.841" y="237.522" width="381.37" height="251.27" filterUnits="userSpaceOnUse" color-interpolation-filters="sRGB">
<feFlood flood-opacity="0" result="BackgroundImageFix"/>
<feBlend mode="normal" in="SourceGraphic" in2="BackgroundImageFix" result="shape"/>
<feGaussianBlur stdDeviation="15" result="effect1_foregroundBlur_3055_12858"/>
</filter>
<linearGradient id="paint0_linear_3055_12858" x1="70.8965" y1="160.77" x2="168.29" y2="627.324" gradientUnits="userSpaceOnUse">
<stop stop-color="#CC5CDC"/>
<stop offset="0.328125" stop-color="#6A6CFC"/>
<stop offset="0.65625" stop-color="#0AD5F8"/>
<stop offset="1" stop-color="#3DEDD7"/>
</linearGradient>
<linearGradient id="paint1_linear_3055_12858" x1="213.457" y1="486.495" x2="204.737" y2="486.495" gradientUnits="userSpaceOnUse">
<stop stop-color="#3D00E7"/>
<stop offset="1" stop-color="#6031FF"/>
</linearGradient>
<linearGradient id="paint2_linear_3055_12858" x1="267.884" y1="506.464" x2="160.847" y2="436.541" gradientUnits="userSpaceOnUse">
<stop stop-color="#6318FF"/>
<stop offset="1" stop-color="#FFF6E2"/>
</linearGradient>
<linearGradient id="paint3_linear_3055_12858" x1="213.457" y1="458.563" x2="204.737" y2="458.563" gradientUnits="userSpaceOnUse">
<stop stop-color="#3D00E7"/>
<stop offset="1" stop-color="#6031FF"/>
</linearGradient>
<linearGradient id="paint4_linear_3055_12858" x1="275.256" y1="497.098" x2="163.702" y2="418.42" gradientUnits="userSpaceOnUse">
<stop stop-color="#6318FF"/>
<stop offset="1" stop-color="#FFF6E2"/>
</linearGradient>
<linearGradient id="paint5_linear_3055_12858" x1="191.96" y1="446.837" x2="225.178" y2="446.837" gradientUnits="userSpaceOnUse">
<stop stop-color="#4500FF"/>
<stop offset="1" stop-color="#6A31FF"/>
</linearGradient>
<linearGradient id="paint6_linear_3055_12858" x1="209.743" y1="443.299" x2="204.73" y2="443.299" gradientUnits="userSpaceOnUse">
<stop stop-color="#3600F4"/>
<stop offset="1" stop-color="#330EE0"/>
</linearGradient>
<linearGradient id="paint7_linear_3055_12858" x1="212.653" y1="447.022" x2="204.797" y2="447.022" gradientUnits="userSpaceOnUse">
<stop stop-color="#8161E2"/>
<stop offset="1" stop-color="#CACCFF"/>
</linearGradient>
<linearGradient id="paint8_linear_3055_12858" x1="212.653" y1="447.022" x2="204.797" y2="447.022" gradientUnits="userSpaceOnUse">
<stop stop-color="#8161E2"/>
<stop offset="1" stop-color="#9554FF"/>
</linearGradient>
<linearGradient id="paint9_linear_3055_12858" x1="545.124" y1="237.662" x2="534.778" y2="237.662" gradientUnits="userSpaceOnUse">
<stop stop-color="#3D00E7"/>
<stop offset="1" stop-color="#6031FF"/>
</linearGradient>
<linearGradient id="paint10_linear_3055_12858" x1="668.801" y1="271.385" x2="447.448" y2="115.266" gradientUnits="userSpaceOnUse">
<stop stop-color="#6318FF"/>
<stop offset="1" stop-color="#FFF6E2"/>
</linearGradient>
<linearGradient id="paint11_linear_3055_12858" x1="629.401" y1="241.383" x2="461.281" y2="122.81" gradientUnits="userSpaceOnUse">
<stop stop-color="#4500FF"/>
<stop offset="1" stop-color="#6A31FF"/>
</linearGradient>
<linearGradient id="paint12_linear_3055_12858" x1="529.212" y1="273.238" x2="484.024" y2="241.803" gradientUnits="userSpaceOnUse">
<stop stop-color="#A43DFF"/>
<stop offset="1" stop-color="#EAD6E2"/>
</linearGradient>
<linearGradient id="paint13_linear_3055_12858" x1="594.489" y1="381.015" x2="461.183" y2="362.704" gradientUnits="userSpaceOnUse">
<stop stop-color="#BF9FFF"/>
<stop offset="1" stop-color="#FFF6E2"/>
</linearGradient>
<linearGradient id="paint14_linear_3055_12858" x1="529.118" y1="261.521" x2="483.93" y2="230.085" gradientUnits="userSpaceOnUse">
<stop stop-color="#A43DFF"/>
<stop offset="1" stop-color="#EAD6E2"/>
</linearGradient>
<linearGradient id="paint15_linear_3055_12858" x1="595.376" y1="370.626" x2="462.07" y2="352.315" gradientUnits="userSpaceOnUse">
<stop stop-color="#BF9FFF"/>
<stop offset="1" stop-color="#FFF6E2"/>
</linearGradient>
<linearGradient id="paint16_linear_3055_12858" x1="529.193" y1="249.801" x2="484.005" y2="218.366" gradientUnits="userSpaceOnUse">
<stop stop-color="#A43DFF"/>
<stop offset="1" stop-color="#EAD6E2"/>
</linearGradient>
<linearGradient id="paint17_linear_3055_12858" x1="594.47" y1="357.578" x2="461.164" y2="339.267" gradientUnits="userSpaceOnUse">
<stop stop-color="#BF9FFF"/>
<stop offset="1" stop-color="#FFF6E2"/>
</linearGradient>
<linearGradient id="paint18_linear_3055_12858" x1="529.156" y1="238.05" x2="483.968" y2="206.616" gradientUnits="userSpaceOnUse">
<stop stop-color="#A43DFF"/>
<stop offset="1" stop-color="#EAD6E2"/>
</linearGradient>
<linearGradient id="paint19_linear_3055_12858" x1="595.414" y1="347.156" x2="462.107" y2="328.845" gradientUnits="userSpaceOnUse">
<stop stop-color="#BF9FFF"/>
<stop offset="1" stop-color="#FFF6E2"/>
</linearGradient>
<linearGradient id="paint20_linear_3055_12858" x1="529.23" y1="226.331" x2="484.042" y2="194.896" gradientUnits="userSpaceOnUse">
<stop stop-color="#A43DFF"/>
<stop offset="1" stop-color="#EAD6E2"/>
</linearGradient>
<linearGradient id="paint21_linear_3055_12858" x1="594.508" y1="334.107" x2="461.202" y2="315.796" gradientUnits="userSpaceOnUse">
<stop stop-color="#BF9FFF"/>
<stop offset="1" stop-color="#FFF6E2"/>
</linearGradient>
<linearGradient id="paint22_linear_3055_12858" x1="529.23" y1="214.612" x2="484.042" y2="183.177" gradientUnits="userSpaceOnUse">
<stop stop-color="#A43DFF"/>
<stop offset="1" stop-color="#EAD6E2"/>
</linearGradient>
<linearGradient id="paint23_linear_3055_12858" x1="596.649" y1="325.293" x2="463.343" y2="306.982" gradientUnits="userSpaceOnUse">
<stop stop-color="#BF9FFF"/>
<stop offset="1" stop-color="#FFF6E2"/>
</linearGradient>
<linearGradient id="paint24_linear_3055_12858" x1="540.465" y1="168.488" x2="534.536" y2="168.488" gradientUnits="userSpaceOnUse">
<stop stop-color="#3600F4"/>
<stop offset="1" stop-color="#330EE0"/>
</linearGradient>
<linearGradient id="paint25_linear_3055_12858" x1="602.658" y1="219.379" x2="530.353" y2="190.284" gradientUnits="userSpaceOnUse">
<stop stop-color="#6318FF"/>
<stop offset="1" stop-color="#13FFE2"/>
</linearGradient>
<linearGradient id="paint26_linear_3055_12858" x1="583.313" y1="210.658" x2="557.22" y2="200.159" gradientUnits="userSpaceOnUse">
<stop stop-color="#6318FF"/>
<stop offset="1" stop-color="#13FFE2"/>
</linearGradient>
<linearGradient id="paint27_linear_3055_12858" x1="580.579" y1="223.064" x2="536.493" y2="205.324" gradientUnits="userSpaceOnUse">
<stop stop-color="#6318FF"/>
<stop offset="1" stop-color="#13FFE2"/>
</linearGradient>
<linearGradient id="paint28_linear_3055_12858" x1="594.59" y1="227.289" x2="541.542" y2="205.943" gradientUnits="userSpaceOnUse">
<stop stop-color="#6318FF"/>
<stop offset="1" stop-color="#13FFE2"/>
</linearGradient>
<linearGradient id="paint29_linear_3055_12858" x1="559.482" y1="226.65" x2="542.35" y2="219.756" gradientUnits="userSpaceOnUse">
<stop stop-color="#6318FF"/>
<stop offset="1" stop-color="#13FFE2"/>
</linearGradient>
<linearGradient id="paint30_linear_3055_12858" x1="602.658" y1="241.515" x2="530.353" y2="212.421" gradientUnits="userSpaceOnUse">
<stop stop-color="#6318FF"/>
<stop offset="1" stop-color="#13FFE2"/>
</linearGradient>
<linearGradient id="paint31_linear_3055_12858" x1="583.313" y1="232.823" x2="557.22" y2="222.324" gradientUnits="userSpaceOnUse">
<stop stop-color="#6318FF"/>
<stop offset="1" stop-color="#13FFE2"/>
</linearGradient>
<linearGradient id="paint32_linear_3055_12858" x1="580.579" y1="245.229" x2="536.492" y2="227.489" gradientUnits="userSpaceOnUse">
<stop stop-color="#6318FF"/>
<stop offset="1" stop-color="#13FFE2"/>
</linearGradient>
<linearGradient id="paint33_linear_3055_12858" x1="594.589" y1="249.454" x2="541.542" y2="228.108" gradientUnits="userSpaceOnUse">
<stop stop-color="#6318FF"/>
<stop offset="1" stop-color="#13FFE2"/>
</linearGradient>
<linearGradient id="paint34_linear_3055_12858" x1="559.482" y1="248.816" x2="542.35" y2="241.922" gradientUnits="userSpaceOnUse">
<stop stop-color="#6318FF"/>
<stop offset="1" stop-color="#13FFE2"/>
</linearGradient>
<linearGradient id="paint35_linear_3055_12858" x1="602.658" y1="263.287" x2="530.353" y2="234.192" gradientUnits="userSpaceOnUse">
<stop stop-color="#6318FF"/>
<stop offset="1" stop-color="#13FFE2"/>
</linearGradient>
<linearGradient id="paint36_linear_3055_12858" x1="583.313" y1="254.567" x2="557.22" y2="244.068" gradientUnits="userSpaceOnUse">
<stop stop-color="#6318FF"/>
<stop offset="1" stop-color="#13FFE2"/>
</linearGradient>
<linearGradient id="paint37_linear_3055_12858" x1="580.579" y1="266.971" x2="536.492" y2="249.231" gradientUnits="userSpaceOnUse">
<stop stop-color="#6318FF"/>
<stop offset="1" stop-color="#13FFE2"/>
</linearGradient>
<linearGradient id="paint38_linear_3055_12858" x1="594.589" y1="271.197" x2="541.542" y2="249.852" gradientUnits="userSpaceOnUse">
<stop stop-color="#6318FF"/>
<stop offset="1" stop-color="#13FFE2"/>
</linearGradient>
<linearGradient id="paint39_linear_3055_12858" x1="559.482" y1="270.558" x2="542.35" y2="263.664" gradientUnits="userSpaceOnUse">
<stop stop-color="#6318FF"/>
<stop offset="1" stop-color="#13FFE2"/>
</linearGradient>
<linearGradient id="paint40_linear_3055_12858" x1="602.658" y1="285.423" x2="530.353" y2="256.328" gradientUnits="userSpaceOnUse">
<stop stop-color="#6318FF"/>
<stop offset="1" stop-color="#13FFE2"/>
</linearGradient>
<linearGradient id="paint41_linear_3055_12858" x1="109.672" y1="421.616" x2="98.5263" y2="421.616" gradientUnits="userSpaceOnUse">
<stop stop-color="#3D00E7"/>
<stop offset="1" stop-color="#6031FF"/>
</linearGradient>
<linearGradient id="paint42_linear_3055_12858" x1="242.908" y1="471.799" x2="4.44388" y2="303.611" gradientUnits="userSpaceOnUse">
<stop stop-color="#6318FF"/>
<stop offset="1" stop-color="#FFF6E2"/>
</linearGradient>
<linearGradient id="paint43_linear_3055_12858" x1="200.461" y1="439.479" x2="19.3469" y2="311.74" gradientUnits="userSpaceOnUse">
<stop stop-color="#4500FF"/>
<stop offset="1" stop-color="#6A31FF"/>
</linearGradient>
<linearGradient id="paint44_linear_3055_12858" x1="92.5077" y1="448.546" x2="43.8268" y2="414.681" gradientUnits="userSpaceOnUse">
<stop stop-color="#A43DFF"/>
<stop offset="1" stop-color="#EAD6E2"/>
</linearGradient>
<linearGradient id="paint45_linear_3055_12858" x1="162.831" y1="564.654" x2="19.2204" y2="544.927" gradientUnits="userSpaceOnUse">
<stop stop-color="#6318FF"/>
<stop offset="1" stop-color="#FFF6E2"/>
</linearGradient>
<linearGradient id="paint46_linear_3055_12858" x1="92.4676" y1="435.887" x2="43.7867" y2="402.022" gradientUnits="userSpaceOnUse">
<stop stop-color="#A43DFF"/>
<stop offset="1" stop-color="#EAD6E2"/>
</linearGradient>
<linearGradient id="paint47_linear_3055_12858" x1="163.847" y1="553.429" x2="20.2361" y2="533.702" gradientUnits="userSpaceOnUse">
<stop stop-color="#6318FF"/>
<stop offset="1" stop-color="#FFF6E2"/>
</linearGradient>
<linearGradient id="paint48_linear_3055_12858" x1="92.5482" y1="423.262" x2="43.8671" y2="389.397" gradientUnits="userSpaceOnUse">
<stop stop-color="#A43DFF"/>
<stop offset="1" stop-color="#EAD6E2"/>
</linearGradient>
<linearGradient id="paint49_linear_3055_12858" x1="162.872" y1="539.37" x2="19.2605" y2="519.644" gradientUnits="userSpaceOnUse">
<stop stop-color="#6318FF"/>
<stop offset="1" stop-color="#FFF6E2"/>
</linearGradient>
<linearGradient id="paint50_linear_3055_12858" x1="92.5481" y1="410.637" x2="43.867" y2="376.772" gradientUnits="userSpaceOnUse">
<stop stop-color="#A43DFF"/>
<stop offset="1" stop-color="#EAD6E2"/>
</linearGradient>
<linearGradient id="paint51_linear_3055_12858" x1="165.178" y1="529.874" x2="21.567" y2="510.147" gradientUnits="userSpaceOnUse">
<stop stop-color="#6318FF"/>
<stop offset="1" stop-color="#FFF6E2"/>
</linearGradient>
<linearGradient id="paint52_linear_3055_12858" x1="104.651" y1="360.949" x2="98.2633" y2="360.949" gradientUnits="userSpaceOnUse">
<stop stop-color="#3600F4"/>
<stop offset="1" stop-color="#330EE0"/>
</linearGradient>
<linearGradient id="paint53_linear_3055_12858" x1="171.652" y1="415.773" x2="93.757" y2="384.429" gradientUnits="userSpaceOnUse">
<stop stop-color="#6318FF"/>
<stop offset="1" stop-color="#13FFE2"/>
</linearGradient>
<linearGradient id="paint54_linear_3055_12858" x1="150.811" y1="406.379" x2="122.701" y2="395.068" gradientUnits="userSpaceOnUse">
<stop stop-color="#6318FF"/>
<stop offset="1" stop-color="#13FFE2"/>
</linearGradient>
<linearGradient id="paint55_linear_3055_12858" x1="147.866" y1="419.742" x2="100.371" y2="400.631" gradientUnits="userSpaceOnUse">
<stop stop-color="#6318FF"/>
<stop offset="1" stop-color="#13FFE2"/>
</linearGradient>
<linearGradient id="paint56_linear_3055_12858" x1="162.96" y1="424.295" x2="105.812" y2="401.3" gradientUnits="userSpaceOnUse">
<stop stop-color="#6318FF"/>
<stop offset="1" stop-color="#13FFE2"/>
</linearGradient>
<linearGradient id="paint57_linear_3055_12858" x1="125.139" y1="423.606" x2="106.682" y2="416.18" gradientUnits="userSpaceOnUse">
<stop stop-color="#6318FF"/>
<stop offset="1" stop-color="#13FFE2"/>
</linearGradient>
<linearGradient id="paint58_linear_3055_12858" x1="171.651" y1="439.62" x2="93.7571" y2="408.276" gradientUnits="userSpaceOnUse">
<stop stop-color="#6318FF"/>
<stop offset="1" stop-color="#13FFE2"/>
</linearGradient>
<linearGradient id="paint59_linear_3055_12858" x1="150.81" y1="430.258" x2="122.701" y2="418.947" gradientUnits="userSpaceOnUse">
<stop stop-color="#6318FF"/>
<stop offset="1" stop-color="#13FFE2"/>
</linearGradient>
<linearGradient id="paint60_linear_3055_12858" x1="147.866" y1="443.62" x2="100.371" y2="424.509" gradientUnits="userSpaceOnUse">
<stop stop-color="#6318FF"/>
<stop offset="1" stop-color="#13FFE2"/>
</linearGradient>
<linearGradient id="paint61_linear_3055_12858" x1="162.959" y1="448.173" x2="105.812" y2="425.178" gradientUnits="userSpaceOnUse">
<stop stop-color="#6318FF"/>
<stop offset="1" stop-color="#13FFE2"/>
</linearGradient>
<linearGradient id="paint62_linear_3055_12858" x1="125.139" y1="447.484" x2="106.682" y2="440.057" gradientUnits="userSpaceOnUse">
<stop stop-color="#6318FF"/>
<stop offset="1" stop-color="#13FFE2"/>
</linearGradient>
<linearGradient id="paint63_linear_3055_12858" x1="171.651" y1="463.073" x2="93.7569" y2="431.73" gradientUnits="userSpaceOnUse">
<stop stop-color="#6318FF"/>
<stop offset="1" stop-color="#13FFE2"/>
</linearGradient>
<linearGradient id="paint64_linear_3055_12858" x1="443.709" y1="204.609" x2="434.988" y2="204.609" gradientUnits="userSpaceOnUse">
<stop stop-color="#3D00E7"/>
<stop offset="1" stop-color="#6031FF"/>
</linearGradient>
<linearGradient id="paint65_linear_3055_12858" x1="498.136" y1="224.577" x2="391.099" y2="154.655" gradientUnits="userSpaceOnUse">
<stop stop-color="#6318FF"/>
<stop offset="1" stop-color="#FFF6E2"/>
</linearGradient>
<linearGradient id="paint66_linear_3055_12858" x1="443.709" y1="176.676" x2="434.989" y2="176.676" gradientUnits="userSpaceOnUse">
<stop stop-color="#3D00E7"/>
<stop offset="1" stop-color="#6031FF"/>
</linearGradient>
<linearGradient id="paint67_linear_3055_12858" x1="505.507" y1="215.211" x2="393.954" y2="136.533" gradientUnits="userSpaceOnUse">
<stop stop-color="#6318FF"/>
<stop offset="1" stop-color="#FFF6E2"/>
</linearGradient>
<linearGradient id="paint68_linear_3055_12858" x1="422.211" y1="164.95" x2="455.43" y2="164.95" gradientUnits="userSpaceOnUse">
<stop stop-color="#4500FF"/>
<stop offset="1" stop-color="#6A31FF"/>
</linearGradient>
<linearGradient id="paint69_linear_3055_12858" x1="439.995" y1="161.412" x2="434.981" y2="161.412" gradientUnits="userSpaceOnUse">
<stop stop-color="#3600F4"/>
<stop offset="1" stop-color="#330EE0"/>
</linearGradient>
<linearGradient id="paint70_linear_3055_12858" x1="442.905" y1="165.135" x2="435.048" y2="165.135" gradientUnits="userSpaceOnUse">
<stop stop-color="#8161E2"/>
<stop offset="1" stop-color="#CACCFF"/>
</linearGradient>
<linearGradient id="paint71_linear_3055_12858" x1="442.905" y1="165.135" x2="435.048" y2="165.135" gradientUnits="userSpaceOnUse">
<stop stop-color="#8161E2"/>
<stop offset="1" stop-color="#9554FF"/>
</linearGradient>
<linearGradient id="paint72_linear_3055_12858" x1="391.875" y1="345.546" x2="297.5" y2="345.546" gradientUnits="userSpaceOnUse">
<stop stop-color="#5033FF"/>
<stop offset="1" stop-color="#567BFF"/>
</linearGradient>
<linearGradient id="paint73_linear_3055_12858" x1="897.948" y1="740.887" x2="-49.2208" y2="70.7201" gradientUnits="userSpaceOnUse">
<stop stop-color="#6318FF"/>
<stop offset="1" stop-color="#FFF6E2"/>
</linearGradient>
<linearGradient id="paint74_linear_3055_12858" x1="356.891" y1="353.057" x2="342.32" y2="275.081" gradientUnits="userSpaceOnUse">
<stop stop-color="#2918DD"/>
<stop offset="1" stop-color="#13CEE2"/>
</linearGradient>
<linearGradient id="paint75_linear_3055_12858" x1="237.524" y1="249.34" x2="437.954" y2="374.491" gradientUnits="userSpaceOnUse">
<stop stop-color="#B1D5FF"/>
<stop offset="1" stop-color="white"/>
</linearGradient>
<linearGradient id="paint76_linear_3055_12858" x1="391.875" y1="361.186" x2="297.499" y2="361.186" gradientUnits="userSpaceOnUse">
<stop stop-color="#3347FF"/>
<stop offset="1" stop-color="#3177FF"/>
</linearGradient>
<clipPath id="clip0_3055_12858">
<rect width="660" height="545" fill="white"/>
</clipPath>
</defs>
</svg>
