<svg width="45" height="22" viewBox="0 0 45 22" fill="none" xmlns="http://www.w3.org/2000/svg">
<path d="M8.52688 6.10938C8.72015 6.10938 8.81679 6.10938 8.89061 6.14615C8.95554 6.1785 9.00833 6.23012 9.04142 6.29361C9.07903 6.36579 9.07903 6.46028 9.07903 6.64925V14.9C9.07903 15.0889 9.07903 15.1834 9.04142 15.2556C9.00833 15.3191 8.95554 15.3707 8.89061 15.4031C8.81679 15.4398 8.72015 15.4398 8.52688 15.4398H7.11658C7.02117 15.4398 6.97346 15.4398 6.92928 15.4282C6.89014 15.4178 6.85316 15.4008 6.82005 15.378C6.78268 15.3521 6.75224 15.3162 6.69138 15.2444L2.93785 10.8141C2.8476 10.7076 2.80247 10.6543 2.76303 10.6487C2.72888 10.6439 2.6945 10.656 2.67136 10.681C2.64464 10.7099 2.64464 10.7791 2.64464 10.9174V14.9C2.64464 15.0889 2.64464 15.1834 2.60703 15.2556C2.57394 15.3191 2.52115 15.3707 2.45622 15.4031C2.3824 15.4398 2.28577 15.4398 2.0925 15.4398H0.552147C0.358877 15.4398 0.262242 15.4398 0.188423 15.4031C0.12349 15.3707 0.0706978 15.3191 0.0376127 15.2556C0 15.1834 0 15.0889 0 14.9V6.64925C0 6.46028 0 6.36579 0.0376127 6.29361C0.0706978 6.23012 0.12349 6.1785 0.188423 6.14615C0.262242 6.10938 0.358877 6.10938 0.552147 6.10938H1.96245C2.05786 6.10938 2.10556 6.10938 2.14975 6.12104C2.18889 6.13137 2.22587 6.14837 2.25898 6.17125C2.29635 6.19708 2.32679 6.233 2.38765 6.30484L6.14118 10.7351C6.23143 10.8416 6.27656 10.8949 6.316 10.9005C6.35015 10.9053 6.38453 10.8932 6.40766 10.8682C6.43439 10.8393 6.43439 10.7701 6.43439 10.6318V6.64925C6.43439 6.46028 6.43439 6.36579 6.472 6.29361C6.50508 6.23012 6.55788 6.1785 6.62281 6.14615C6.69663 6.10938 6.79326 6.10938 6.98653 6.10938H8.52688Z" fill="#9CA3AF"/>
<path d="M13.7008 8.14875C13.6428 8.14875 13.6138 8.14875 13.5917 8.15978C13.5722 8.16949 13.5563 8.18497 13.5464 8.20402C13.5351 8.22567 13.5351 8.25402 13.5351 8.31071V10.0395C13.5351 10.0962 13.5351 10.1245 13.5464 10.1462C13.5563 10.1652 13.5722 10.1807 13.5917 10.1904C13.6138 10.2015 13.6428 10.2015 13.7008 10.2015H17.1953C17.3886 10.2015 17.4852 10.2015 17.5591 10.2382C17.624 10.2706 17.6768 10.3222 17.7099 10.3857C17.7475 10.4579 17.7475 10.5524 17.7475 10.7413V11.7009C17.7475 11.8899 17.7475 11.9844 17.7099 12.0566C17.6768 12.1201 17.624 12.1717 17.5591 12.204C17.4852 12.2408 17.3886 12.2408 17.1953 12.2408H13.7008C13.6428 12.2408 13.6138 12.2408 13.5917 12.2519C13.5722 12.2616 13.5563 12.277 13.5464 12.2961C13.5351 12.3177 13.5351 12.3461 13.5351 12.4028V14.9C13.5351 15.0889 13.5351 15.1834 13.4975 15.2556C13.4644 15.3191 13.4116 15.3707 13.3467 15.4031C13.2729 15.4398 13.1763 15.4398 12.983 15.4398H11.3881C11.1948 15.4398 11.0982 15.4398 11.0244 15.4031C10.9595 15.3707 10.9067 15.3191 10.8736 15.2556C10.836 15.1834 10.836 15.0889 10.836 14.9V6.64925C10.836 6.46028 10.836 6.36579 10.8736 6.29361C10.9067 6.23012 10.9595 6.1785 11.0244 6.14615C11.0982 6.10938 11.1948 6.10938 11.3881 6.10938H17.7679C17.9611 6.10938 18.0578 6.10938 18.1316 6.14615C18.1965 6.1785 18.2493 6.23012 18.2824 6.29361C18.32 6.36579 18.32 6.46028 18.32 6.64925V7.60887C18.32 7.79785 18.32 7.89233 18.2824 7.96451C18.2493 8.028 18.1965 8.07962 18.1316 8.11197C18.0578 8.14875 17.9611 8.14875 17.7679 8.14875H13.7008Z" fill="#9CA3AF"/>
<path d="M28.8828 7.23523C28.8828 7.03196 29.0476 6.86719 29.2509 6.86719H30.8158C31.019 6.86719 31.1838 7.03196 31.1838 7.23523V14.4533C31.1838 14.6565 31.019 14.8213 30.8158 14.8213H29.2509C29.0476 14.8213 28.8828 14.6565 28.8828 14.4533V7.23523Z" fill="#9CA3AF"/>
<path d="M32.6956 7.23523C32.6956 7.03196 32.8603 6.86719 33.0636 6.86719H36.5422C37.4332 6.86719 38.2234 7.03006 38.9129 7.3558C39.6025 7.68154 40.1371 8.14363 40.5167 8.74209C40.8963 9.34054 41.0861 10.0413 41.0861 10.8442C41.0861 11.6472 40.8963 12.348 40.5167 12.9464C40.1371 13.5449 39.6025 14.007 38.9129 14.3327C38.2234 14.6584 37.4332 14.8213 36.5422 14.8213H33.0636C32.8603 14.8213 32.6956 14.6565 32.6956 14.4533V7.23523ZM36.4492 13.0259C37.1465 13.0259 37.7043 12.8328 38.1227 12.4464C38.5488 12.0601 38.7619 11.526 38.7619 10.8442C38.7619 10.1625 38.5488 9.6284 38.1227 9.24206C37.7043 8.85572 37.1465 8.66254 36.4492 8.66254H35.107C35.046 8.66254 34.9966 8.71198 34.9966 8.77296V12.9155C34.9966 12.9765 35.046 13.0259 35.107 13.0259H36.4492Z" fill="#9CA3AF"/>
<path d="M39.7449 1.04688L40.7829 1.15509C41.8996 1.27153 42.4579 1.32974 42.8979 1.57088C43.286 1.78358 43.6077 2.09522 43.8286 2.47254C44.079 2.90031 44.1432 3.44521 44.2715 4.53499L44.375 5.54119" stroke="#9CA3AF" stroke-width="1.10411" stroke-linecap="round"/>
<path d="M39.7449 20.5078L40.7829 20.3996C41.8996 20.2832 42.4579 20.2249 42.8979 19.9838C43.286 19.7711 43.6077 19.4595 43.8286 19.0821C44.079 18.6544 44.1432 18.1095 44.2715 17.0197L44.375 16.0135" stroke="#9CA3AF" stroke-width="1.10411" stroke-linecap="round"/>
<path d="M29.0988 1.04688L28.0609 1.15509C26.9442 1.27153 26.3858 1.32974 25.9459 1.57088C25.5578 1.78358 25.2361 2.09522 25.0152 2.47254C24.7647 2.90031 24.7005 3.44521 24.5722 4.53499L24.4688 5.54119" stroke="#9CA3AF" stroke-width="1.10411" stroke-linecap="round"/>
<path d="M29.0988 20.5078L28.0609 20.3996C26.9442 20.2832 26.3858 20.2249 25.9459 19.9838C25.5578 19.7711 25.2361 19.4595 25.0152 19.0821C24.7647 18.6544 24.7005 18.1095 24.5722 17.0197L24.4688 16.0135" stroke="#9CA3AF" stroke-width="1.10411" stroke-linecap="round"/>
</svg>
