<svg width="100" height="47" viewBox="0 0 100 47" fill="none" xmlns="http://www.w3.org/2000/svg">
<path d="M19.2993 12.5156C19.7257 12.5156 19.939 12.5156 20.1019 12.5983C20.2451 12.671 20.3616 12.787 20.4346 12.9297C20.5176 13.0919 20.5176 13.3043 20.5176 13.7291V32.2735C20.5176 32.6983 20.5176 32.9106 20.4346 33.0729C20.3616 33.2156 20.2451 33.3316 20.1019 33.4043C19.939 33.487 19.7257 33.487 19.2993 33.487H16.1874C15.9769 33.487 15.8716 33.487 15.7741 33.4608C15.6877 33.4375 15.6061 33.3993 15.5331 33.3479C15.4506 33.2898 15.3835 33.2091 15.2492 33.0476L6.96685 23.0901C6.76771 22.8506 6.66814 22.7309 6.58111 22.7184C6.50576 22.7075 6.42991 22.7347 6.37885 22.791C6.31989 22.8559 6.31989 23.0114 6.31989 23.3223V32.2735C6.31989 32.6983 6.31989 32.9106 6.23689 33.0729C6.16389 33.2156 6.0474 33.3316 5.90412 33.4043C5.74124 33.487 5.52801 33.487 5.10155 33.487H1.70271C1.27625 33.487 1.06302 33.487 0.900139 33.4043C0.756861 33.3316 0.640373 33.2156 0.567369 33.0729C0.484375 32.9106 0.484375 32.6983 0.484375 32.2735V13.7291C0.484375 13.3043 0.484375 13.0919 0.567369 12.9297C0.640373 12.787 0.756861 12.671 0.900139 12.5983C1.06302 12.5156 1.27625 12.5156 1.70271 12.5156H4.81461C5.02513 12.5156 5.13039 12.5156 5.22788 12.5418C5.31426 12.5651 5.39585 12.6033 5.46891 12.6547C5.55137 12.7128 5.61852 12.7935 5.75282 12.955L14.0351 22.9125C14.2343 23.152 14.3339 23.2717 14.4209 23.2842C14.4962 23.2951 14.5721 23.2679 14.6231 23.2116C14.6821 23.1467 14.6821 22.9912 14.6821 22.6803V13.7291C14.6821 13.3043 14.6821 13.0919 14.7651 12.9297C14.8381 12.787 14.9546 12.671 15.0979 12.5983C15.2608 12.5156 15.474 12.5156 15.9004 12.5156H19.2993Z" fill="black"/>
<path d="M30.7157 17.0994C30.5878 17.0994 30.5238 17.0994 30.4749 17.1242C30.4319 17.146 30.397 17.1808 30.3751 17.2236C30.3502 17.2723 30.3502 17.336 30.3502 17.4634V21.349C30.3502 21.4764 30.3502 21.5402 30.3751 21.5888C30.397 21.6316 30.4319 21.6664 30.4749 21.6883C30.5238 21.7131 30.5878 21.7131 30.7157 21.7131H38.4266C38.853 21.7131 39.0662 21.7131 39.2291 21.7957C39.3724 21.8684 39.4889 21.9844 39.5619 22.1271C39.6449 22.2894 39.6449 22.5018 39.6449 22.9265V25.0834C39.6449 25.5081 39.6449 25.7205 39.5619 25.8827C39.4889 26.0254 39.3724 26.1414 39.2291 26.2141C39.0662 26.2968 38.853 26.2968 38.4266 26.2968H30.7157C30.5878 26.2968 30.5238 26.2968 30.4749 26.3216C30.4319 26.3434 30.397 26.3782 30.3751 26.421C30.3502 26.4697 30.3502 26.5334 30.3502 26.6608V32.2735C30.3502 32.6983 30.3502 32.9106 30.2672 33.0729C30.1942 33.2156 30.0777 33.3316 29.9344 33.4043C29.7715 33.487 29.5583 33.487 29.1319 33.487H25.6127C25.1862 33.487 24.973 33.487 24.8101 33.4043C24.6668 33.3316 24.5504 33.2156 24.4774 33.0729C24.3944 32.9106 24.3944 32.6983 24.3944 32.2735V13.7291C24.3944 13.3043 24.3944 13.0919 24.4774 12.9297C24.5504 12.787 24.6668 12.671 24.8101 12.5983C24.973 12.5156 25.1862 12.5156 25.6127 12.5156H39.6899C40.1164 12.5156 40.3296 12.5156 40.4925 12.5983C40.6358 12.671 40.7523 12.787 40.8253 12.9297C40.9083 13.0919 40.9083 13.3043 40.9083 13.7291V15.8859C40.9083 16.3107 40.9083 16.523 40.8253 16.6853C40.7523 16.828 40.6358 16.944 40.4925 17.0167C40.3296 17.0994 40.1164 17.0994 39.6899 17.0994H30.7157Z" fill="black"/>
<path fill-rule="evenodd" clip-rule="evenodd" d="M64.7969 2.26888C65.4242 2.20227 65.8784 1.64183 65.8116 1.01709C65.7447 0.392351 65.182 -0.0601024 64.5547 0.00650514L62.2221 0.254207C61.027 0.381106 60.0685 0.482884 59.29 0.623458C58.4881 0.768272 57.8008 0.966228 57.1625 1.32254C56.1261 1.90103 55.2669 2.74875 54.6767 3.77534C54.3131 4.40775 54.1084 5.09022 53.9563 5.88705C53.8086 6.66044 53.6984 7.61325 53.5611 8.80095L53.5552 8.85211L53.3261 11.1208C53.263 11.7459 53.7207 12.3037 54.3483 12.3665C54.9759 12.4294 55.5359 11.9736 55.599 11.3484L55.8264 9.09609C55.9693 7.85986 56.0705 6.99241 56.2004 6.31219C56.3278 5.64462 56.4702 5.23448 56.6591 4.90587C57.0436 4.23706 57.6035 3.6845 58.2792 3.3073C58.6114 3.12187 59.0252 2.98357 59.6976 2.86216C60.384 2.73819 61.2593 2.64454 62.5074 2.512L64.7969 2.26888ZM87.0198 1.01709C86.9529 1.64183 87.4071 2.20227 88.0344 2.26888L90.3239 2.512C91.572 2.64454 92.4473 2.73819 93.1337 2.86216C93.8061 2.98357 94.2199 3.12187 94.5521 3.3073C95.2278 3.6845 95.7878 4.23706 96.1722 4.90587C96.3611 5.23448 96.5035 5.64462 96.6309 6.31219C96.7608 6.99241 96.862 7.85986 97.0049 9.09609L97.2323 11.3484C97.2954 11.9736 97.8554 12.4294 98.483 12.3665C99.1106 12.3037 99.5683 11.7459 99.5052 11.1208L99.2761 8.85211L99.2702 8.80095L99.2702 8.80085L99.2702 8.80067C99.1329 7.61309 99.0227 6.66038 98.875 5.88705C98.7229 5.09022 98.5182 4.40775 98.1546 3.77534C97.5644 2.74875 96.7052 1.90103 95.6688 1.32254C95.0305 0.966228 94.3432 0.768272 93.5413 0.623458C92.7628 0.482884 91.8043 0.381106 90.6092 0.254207L88.2766 0.00650514C87.6493 -0.0601024 87.0866 0.392351 87.0198 1.01709ZM87.0198 44.9868C86.9529 44.3621 87.4071 43.8016 88.0344 43.735L90.3239 43.4919C91.572 43.3594 92.4473 43.2657 93.1337 43.1418C93.8061 43.0203 94.2199 42.882 94.5521 42.6966C95.2278 42.3194 95.7878 41.7668 96.1722 41.098C96.3611 40.7694 96.5035 40.3593 96.6309 39.6917C96.7608 39.0115 96.862 38.144 97.0049 36.9078L97.2323 34.6555C97.2954 34.0303 97.8554 33.5745 98.483 33.6374C99.1106 33.7002 99.5683 34.258 99.5052 34.8831L99.2761 37.1518L99.2702 37.203L99.2702 37.2031L99.2702 37.2033L99.2701 37.2037C99.1329 38.3911 99.0227 39.3436 98.875 40.1169C98.7229 40.9137 98.5182 41.5962 98.1546 42.2286C97.5644 43.2552 96.7052 44.1029 95.6688 44.6814C95.0305 45.0377 94.3432 45.2356 93.5413 45.3804C92.7629 45.521 91.8046 45.6228 90.6097 45.7496L90.6094 45.7497L90.6092 45.7497L88.2766 45.9974C87.6493 46.064 87.0866 45.6116 87.0198 44.9868ZM65.8116 44.9868C65.8784 44.3621 65.4242 43.8016 64.7969 43.735L62.5074 43.4919C61.2593 43.3594 60.384 43.2657 59.6976 43.1418C59.0252 43.0203 58.6114 42.882 58.2792 42.6966C57.6035 42.3194 57.0436 41.7668 56.6591 41.098C56.4702 40.7694 56.3278 40.3593 56.2004 39.6917C56.0705 39.0115 55.9693 38.144 55.8264 36.9078L55.599 34.6555C55.5359 34.0303 54.9759 33.5745 54.3483 33.6374C53.7207 33.7002 53.263 34.258 53.3261 34.8831L53.5552 37.1518L53.5611 37.203C53.6984 38.3907 53.8086 39.3435 53.9563 40.1169C54.1084 40.9137 54.3131 41.5962 54.6767 42.2286C55.2669 43.2552 56.1261 44.1029 57.1625 44.6814C57.8008 45.0377 58.4881 45.2356 59.29 45.3804C60.0685 45.521 61.0269 45.6228 62.2219 45.7497L62.2221 45.7497L64.5547 45.9974C65.182 46.064 65.7447 45.6116 65.8116 44.9868ZM64.9623 14.2305C64.5434 14.2305 64.2039 14.57 64.2039 14.9889V31.3499C64.2039 31.7687 64.5434 32.1083 64.9623 32.1083H68.5227C68.9416 32.1083 69.2811 31.7687 69.2811 31.3499V14.9889C69.2811 14.57 68.9416 14.2305 68.5227 14.2305H64.9623ZM73.3753 14.2305C72.9564 14.2305 72.6169 14.57 72.6169 14.9889V31.3499C72.6169 31.7687 72.9564 32.1083 73.3753 32.1083H81.1046C83.0706 32.1083 84.8143 31.7422 86.3358 31.0101C87.8572 30.2779 89.0368 29.2393 89.8745 27.8942C90.7121 26.5491 91.131 24.9742 91.131 23.1694C91.131 21.3646 90.7121 19.7896 89.8745 18.4445C89.0368 17.0994 87.8572 16.0608 86.3358 15.3287C84.8143 14.5965 83.0706 14.2305 81.1046 14.2305H73.3753ZM84.5921 26.7705C83.6689 27.6388 82.4381 28.073 80.8995 28.073H77.9217C77.796 28.073 77.6941 27.9711 77.6941 27.8455V18.4933C77.6941 18.3676 77.796 18.2657 77.9217 18.2657H80.8995C82.4381 18.2657 83.6689 18.6999 84.5921 19.5683C85.5323 20.4366 86.0024 21.637 86.0024 23.1694C86.0024 24.7018 85.5323 25.9021 84.5921 26.7705Z" fill="url(#paint0_linear_40852_44600)"/>
<defs>
<linearGradient id="paint0_linear_40852_44600" x1="64.4239" y1="15.3098" x2="80.1926" y2="38.3223" gradientUnits="userSpaceOnUse">
<stop stop-color="#CC5CDC"/>
<stop offset="0.244792" stop-color="#7B66FF"/>
<stop offset="0.520833" stop-color="#1F8AF0"/>
<stop offset="0.760417" stop-color="#00D1FF"/>
<stop offset="1" stop-color="#3DEDD7"/>
</linearGradient>
</defs>
</svg>
