<svg width="89" height="22" viewBox="0 0 89 22" fill="none" xmlns="http://www.w3.org/2000/svg">
<path d="M53.7323 15.5668C53.6208 15.5668 53.5227 15.493 53.492 15.3858L51.0915 7.0157C51.0456 6.85594 51.1656 6.69678 51.3318 6.69678H52.856C52.9717 6.69678 53.0723 6.77617 53.0992 6.88871L54.5163 12.8236C54.5214 12.8449 54.5404 12.8599 54.5623 12.8599C54.5838 12.8599 54.6026 12.8454 54.6081 12.8247L56.1733 6.88309C56.2022 6.77329 56.3015 6.69678 56.415 6.69678H57.7876C57.9013 6.69678 58.0006 6.77344 58.0295 6.88338L59.59 12.8356C59.5958 12.8576 59.6156 12.8729 59.6384 12.8729C59.6616 12.8729 59.6817 12.857 59.6871 12.8345L61.1038 6.88883C61.1306 6.77623 61.2312 6.69678 61.347 6.69678H62.8711C63.0373 6.69678 63.1573 6.85594 63.1114 7.0157L60.7109 15.3858C60.6802 15.493 60.5822 15.5668 60.4706 15.5668H59.0145C58.9034 15.5668 58.8057 15.4935 58.7745 15.3869L57.1437 9.80084C57.138 9.78109 57.1199 9.76752 57.0993 9.76752C57.0787 9.76752 57.0606 9.78111 57.0548 9.80087L55.4283 15.3867C55.3972 15.4935 55.2994 15.5668 55.1883 15.5668H53.7323Z" fill="currentColor"/>
<path d="M65.5224 15.6924C65.0969 15.6924 64.7178 15.6188 64.385 15.4716C64.0522 15.3214 63.7888 15.1005 63.5949 14.8089C63.4039 14.5144 63.3084 14.1477 63.3084 13.7088C63.3084 13.3392 63.3764 13.0288 63.5124 12.7776C63.6484 12.5264 63.8337 12.3243 64.0681 12.1713C64.3025 12.0182 64.5688 11.9027 64.8669 11.8248C65.1678 11.7468 65.4833 11.692 65.8132 11.6602C66.201 11.6198 66.5136 11.5822 66.7509 11.5476C66.9882 11.5101 67.1604 11.4552 67.2675 11.383C67.3746 11.3108 67.4281 11.204 67.4281 11.0625V11.0365C67.4281 10.7622 67.3413 10.55 67.1677 10.3999C66.9969 10.2497 66.7538 10.1746 66.4383 10.1746C66.1055 10.1746 65.8407 10.2483 65.6439 10.3955C65.5067 10.4962 65.4018 10.6151 65.3293 10.7523C65.2738 10.8573 65.1682 10.9344 65.0498 10.9248L63.8269 10.8257C63.6764 10.8135 63.5699 10.671 63.6176 10.5277C63.7142 10.2378 63.86 9.98009 64.0551 9.75453C64.3097 9.45712 64.6382 9.22902 65.0405 9.07021C65.4457 8.90852 65.9145 8.82767 66.447 8.82767C66.8175 8.82767 67.172 8.87098 67.5106 8.95761C67.8521 9.04423 68.1545 9.17849 68.4179 9.3604C68.6842 9.5423 68.894 9.77618 69.0474 10.062C69.2007 10.345 69.2774 10.6843 69.2774 11.0798V15.3168C69.2774 15.4549 69.1655 15.5668 69.0274 15.5668H67.7736C67.6356 15.5668 67.5236 15.4549 67.5236 15.3168V14.6767C67.5236 14.6588 67.5091 14.6443 67.4913 14.6443C67.4791 14.6443 67.4681 14.6511 67.4624 14.6618C67.3564 14.8625 67.2161 15.04 67.0418 15.1944C66.8623 15.3503 66.6467 15.473 66.3949 15.5625C66.1431 15.6491 65.8523 15.6924 65.5224 15.6924ZM66.052 14.4191C66.324 14.4191 66.5642 14.3657 66.7726 14.2589C66.981 14.1491 67.1445 14.0019 67.2632 13.8171C67.3818 13.6323 67.4411 13.423 67.4411 13.1891V12.7443C67.4411 12.6317 67.3098 12.5534 67.2024 12.5871C67.104 12.6159 66.9926 12.6434 66.8681 12.6693C66.7437 12.6924 66.6192 12.7141 66.4948 12.7343C66.3703 12.7516 66.2575 12.7675 66.1562 12.782C65.9391 12.8137 65.7495 12.8642 65.5875 12.9335C65.4254 13.0028 65.2995 13.0967 65.2098 13.2151C65.1201 13.3306 65.0752 13.4749 65.0752 13.6482C65.0752 13.8994 65.1664 14.0914 65.3487 14.2242C65.5339 14.3541 65.7684 14.4191 66.052 14.4191Z" fill="currentColor"/>
<path d="M72.4745 6.69678C72.6126 6.69678 72.7245 6.80871 72.7245 6.94678V15.3168C72.7245 15.4549 72.6126 15.5668 72.4745 15.5668H71.1252C70.9871 15.5668 70.8752 15.4549 70.8752 15.3168V6.94678C70.8752 6.80871 70.9871 6.69678 71.1252 6.69678H72.4745Z" fill="currentColor"/>
<path d="M75.9682 6.69678C76.1063 6.69678 76.2182 6.80871 76.2182 6.94678V15.3168C76.2182 15.4549 76.1063 15.5668 75.9682 15.5668H74.6189C74.4808 15.5668 74.3689 15.4549 74.3689 15.3168V6.94678C74.3689 6.80871 74.4808 6.69678 74.6189 6.69678H75.9682Z" fill="currentColor"/>
<path d="M80.9014 15.6968C80.2155 15.6968 79.6251 15.5582 79.1302 15.281C78.6382 15.0009 78.2591 14.6053 77.9929 14.0943C77.7266 13.5803 77.5935 12.9725 77.5935 12.2709C77.5935 11.5866 77.7266 10.986 77.9929 10.4692C78.2591 9.95231 78.6339 9.54952 79.1172 9.26078C79.6034 8.97204 80.1736 8.82767 80.8276 8.82767C81.2675 8.82767 81.677 8.89841 82.0562 9.0399C82.4382 9.17849 82.771 9.38783 83.0546 9.6679C83.3411 9.94798 83.564 10.3002 83.7232 10.7247C83.8823 11.1462 83.9619 11.64 83.9619 12.2059V12.4627C83.9619 12.6007 83.85 12.7127 83.7119 12.7127H78.5815C78.4434 12.7127 78.3315 12.6007 78.3315 12.4627V11.8193C78.3315 11.6812 78.4434 11.5693 78.5815 11.5693H81.9711C82.1092 11.5693 82.2237 11.4566 82.2028 11.3201C82.1774 11.154 82.1257 11.0017 82.0475 10.8633C81.9317 10.6583 81.7711 10.498 81.5656 10.3825C81.363 10.2641 81.1272 10.205 80.858 10.205C80.5773 10.205 80.3284 10.2699 80.1113 10.3999C79.8972 10.5269 79.7293 10.6987 79.6078 10.9153C79.4862 11.1289 79.424 11.3671 79.4211 11.6299V12.717C79.4211 13.0462 79.4819 13.3306 79.6034 13.5702C79.7279 13.8099 79.903 13.9947 80.1287 14.1246C80.3544 14.2545 80.6221 14.3195 80.9318 14.3195C81.1373 14.3195 81.3254 14.2906 81.4962 14.2329C81.6669 14.1751 81.8131 14.0885 81.9346 13.973C82.0133 13.8982 82.0799 13.8125 82.1344 13.7159C82.1883 13.6202 82.2873 13.5535 82.3969 13.5607L83.6349 13.6422C83.7868 13.6522 83.8956 13.7951 83.8472 13.9395C83.7481 14.2353 83.5953 14.5006 83.3889 14.7353C83.1226 15.0385 82.7782 15.2752 82.3557 15.4456C81.9361 15.613 81.4513 15.6968 80.9014 15.6968Z" fill="currentColor"/>
<path d="M88.6285 8.91429C88.7665 8.91429 88.8785 9.02622 88.8785 9.16429V10.0502C88.8785 10.1883 88.7665 10.3002 88.6285 10.3002H85.1129C84.9748 10.3002 84.8629 10.1883 84.8629 10.0502V9.16429C84.8629 9.02622 84.9748 8.91429 85.1129 8.91429H88.6285ZM85.7745 7.57045C85.7745 7.43238 85.8865 7.32045 86.0245 7.32045H87.3739C87.5119 7.32045 87.6239 7.43238 87.6239 7.57045V13.5226C87.6239 13.6929 87.6499 13.8257 87.702 13.921C87.7541 14.0134 87.8265 14.0784 87.9191 14.1159C88.0146 14.1535 88.1245 14.1722 88.249 14.1722C88.3358 14.1722 88.4226 14.165 88.5095 14.1506C88.6204 14.1284 88.7279 14.2 88.7513 14.3106L88.9528 15.2618C88.9796 15.3881 88.9057 15.5135 88.7804 15.5442C88.7285 15.557 88.6715 15.5703 88.6093 15.5842C88.4414 15.6246 88.2374 15.6491 87.9972 15.6578C87.5515 15.6751 87.1608 15.6159 86.8251 15.4802C86.4923 15.3445 86.2333 15.1337 86.048 14.8479C85.8628 14.562 85.7716 14.2011 85.7745 13.7651V7.57045Z" fill="currentColor"/>
<path d="M8.7681 6.11243C8.96136 6.11243 9.058 6.11243 9.13182 6.1492C9.19675 6.18155 9.24954 6.23317 9.28263 6.29666C9.32024 6.36884 9.32024 6.46333 9.32024 6.6523V14.903C9.32024 15.092 9.32024 15.1865 9.28263 15.2587C9.24954 15.3221 9.19675 15.3738 9.13182 15.4061C9.058 15.4429 8.96136 15.4429 8.76809 15.4429H7.35779C7.26238 15.4429 7.21468 15.4429 7.17049 15.4312C7.13135 15.4209 7.09437 15.4039 7.06126 15.381C7.02389 15.3552 6.99345 15.3193 6.93259 15.2474L3.17906 10.8172C3.08881 10.7106 3.04368 10.6574 3.00424 10.6518C2.97009 10.6469 2.93572 10.659 2.91258 10.6841C2.88585 10.713 2.88585 10.7822 2.88585 10.9205V14.903C2.88585 15.092 2.88585 15.1865 2.84824 15.2587C2.81516 15.3221 2.76236 15.3738 2.69743 15.4061C2.62361 15.4429 2.52698 15.4429 2.33371 15.4429H0.793358C0.600088 15.4429 0.503453 15.4429 0.429634 15.4061C0.364701 15.3738 0.311909 15.3221 0.278824 15.2587C0.241211 15.1865 0.241211 15.092 0.241211 14.903V6.6523C0.241211 6.46333 0.241211 6.36884 0.278824 6.29666C0.311909 6.23317 0.364701 6.18155 0.429634 6.1492C0.503453 6.11243 0.600088 6.11243 0.793358 6.11243H2.20366C2.29907 6.11243 2.34678 6.11243 2.39096 6.12409C2.4301 6.13442 2.46708 6.15142 2.50019 6.17431C2.53756 6.20013 2.568 6.23605 2.62886 6.30789L6.3824 10.7382C6.47265 10.8447 6.51777 10.8979 6.55721 10.9035C6.59136 10.9084 6.62574 10.8963 6.64888 10.8712C6.6756 10.8423 6.6756 10.7732 6.6756 10.6348V6.6523C6.6756 6.46333 6.6756 6.36884 6.71321 6.29666C6.7463 6.23317 6.79909 6.18155 6.86402 6.1492C6.93784 6.11243 7.03448 6.11243 7.22774 6.11243H8.7681Z" fill="currentColor"/>
<path d="M13.942 8.1518C13.884 8.1518 13.855 8.1518 13.8329 8.16283C13.8134 8.17254 13.7976 8.18802 13.7876 8.20707C13.7763 8.22872 13.7763 8.25707 13.7763 8.31376V10.0425C13.7763 10.0992 13.7763 10.1276 13.7876 10.1492C13.7976 10.1683 13.8134 10.1838 13.8329 10.1935C13.855 10.2045 13.884 10.2045 13.942 10.2045H17.4365C17.6298 10.2045 17.7264 10.2045 17.8003 10.2413C17.8652 10.2736 17.918 10.3252 17.9511 10.3887C17.9887 10.4609 17.9887 10.5554 17.9887 10.7444V11.704C17.9887 11.893 17.9887 11.9875 17.9511 12.0596C17.918 12.1231 17.8652 12.1747 17.8003 12.2071C17.7264 12.2439 17.6298 12.2439 17.4365 12.2439H13.942C13.884 12.2439 13.855 12.2439 13.8329 12.2549C13.8134 12.2646 13.7976 12.2801 13.7876 12.2991C13.7763 12.3208 13.7763 12.3491 13.7763 12.4058V14.903C13.7763 15.092 13.7763 15.1865 13.7387 15.2587C13.7056 15.3221 13.6529 15.3738 13.5879 15.4061C13.5141 15.4429 13.4175 15.4429 13.2242 15.4429H11.6293C11.436 15.4429 11.3394 15.4429 11.2656 15.4061C11.2007 15.3738 11.1479 15.3221 11.1148 15.2587C11.0772 15.1865 11.0772 15.092 11.0772 14.903V6.6523C11.0772 6.46333 11.0772 6.36884 11.1148 6.29666C11.1479 6.23317 11.2007 6.18155 11.2656 6.1492C11.3394 6.11243 11.436 6.11243 11.6293 6.11243H18.0091C18.2024 6.11243 18.299 6.11243 18.3728 6.1492C18.4377 6.18155 18.4905 6.23317 18.5236 6.29666C18.5612 6.36884 18.5612 6.46333 18.5612 6.6523V7.61192C18.5612 7.8009 18.5612 7.89539 18.5236 7.96756C18.4905 8.03105 18.4377 8.08267 18.3728 8.11502C18.299 8.1518 18.2024 8.1518 18.0091 8.1518H13.942Z" fill="currentColor"/>
<path d="M29.1221 7.23791C29.1221 7.03465 29.2868 6.86987 29.4901 6.86987H31.055C31.2583 6.86987 31.4231 7.03465 31.4231 7.23791V14.4559C31.4231 14.6592 31.2583 14.824 31.055 14.824H29.4901C29.2868 14.824 29.1221 14.6592 29.1221 14.4559V7.23791Z" fill="currentColor"/>
<path d="M32.9348 7.23791C32.9348 7.03465 33.0996 6.86987 33.3029 6.86987H36.7815C37.6724 6.86987 38.4627 7.03274 39.1522 7.35848C39.8417 7.68422 40.3763 8.14632 40.7559 8.74477C41.1356 9.34322 41.3254 10.0439 41.3254 10.8469C41.3254 11.6499 41.1356 12.3506 40.7559 12.9491C40.3763 13.5475 39.8417 14.0096 39.1522 14.3354C38.4627 14.6611 37.6724 14.824 36.7815 14.824H33.3029C33.0996 14.824 32.9348 14.6592 32.9348 14.4559V7.23791ZM36.6885 13.0286C37.3858 13.0286 37.9436 12.8355 38.362 12.4491C38.7881 12.0628 39.0011 11.5287 39.0011 10.8469C39.0011 10.1651 38.7881 9.63109 38.362 9.24474C37.9436 8.8584 37.3858 8.66523 36.6885 8.66523H35.3462C35.2853 8.66523 35.2358 8.71466 35.2358 8.77564V12.9182C35.2358 12.9792 35.2853 13.0286 35.3462 13.0286H36.6885Z" fill="currentColor"/>
<path d="M39.9842 1.04578L41.0221 1.15399C42.1388 1.27043 42.6972 1.32864 43.1372 1.56978C43.5252 1.78248 43.8469 2.09412 44.0678 2.47144C44.3183 2.89922 44.3825 3.44411 44.5108 4.53389L44.6143 5.54009" stroke="currentColor" stroke-width="1.10411" stroke-linecap="round"/>
<path d="M39.9842 20.5103L41.0221 20.402C42.1388 20.2856 42.6972 20.2274 43.1372 19.9863C43.5252 19.7736 43.8469 19.4619 44.0678 19.0846C44.3183 18.6568 44.3825 18.1119 44.5108 17.0221L44.6143 16.0159" stroke="currentColor" stroke-width="1.10411" stroke-linecap="round"/>
<path d="M29.3381 1.04578L28.3002 1.15399C27.1834 1.27043 26.6251 1.32864 26.1851 1.56978C25.797 1.78248 25.4753 2.09412 25.2544 2.47144C25.004 2.89922 24.9398 3.44411 24.8115 4.53389L24.708 5.54009" stroke="currentColor" stroke-width="1.10411" stroke-linecap="round"/>
<path d="M29.3381 20.5103L28.3002 20.402C27.1834 20.2856 26.6251 20.2274 26.1851 19.9863C25.797 19.7736 25.4753 19.4619 25.2544 19.0846C25.004 18.6568 24.9398 18.1119 24.8115 17.0221L24.708 16.0159" stroke="currentColor" stroke-width="1.10411" stroke-linecap="round"/>
</svg>
