<svg width="115" height="115" viewBox="0 0 115 115" fill="none" xmlns="http://www.w3.org/2000/svg">
<rect width="115" height="115" rx="2" fill="currentColor"/>
<g opacity="0.1">
<path d="M34.5 63.1461L36.875 63.1461V63.1461H34.5ZM79.4527 64.5306L77.1252 64.0579C77.1044 64.1604 77.0903 64.2641 77.0832 64.3684L79.4527 64.5306ZM77.7873 71.3184L75.6105 70.3684L75.6105 70.3684L77.7873 71.3184ZM72.9099 78.2467L71.2749 76.524L71.2749 76.524L72.9099 78.2467ZM65.6104 82.876L66.4794 85.0863L66.4794 85.0863L65.6104 82.876ZM48.3896 82.876L47.5206 85.0863L47.5206 85.0863L48.3896 82.876ZM41.0901 78.2467L42.7251 76.524L42.7251 76.524L41.0901 78.2467ZM36.2127 71.3184L34.036 72.2683L34.036 72.2683L36.2127 71.3184ZM68.8998 38.6847L70.4536 40.4808L68.8998 38.6847ZM65.285 41.9144L67.2024 40.5129L65.285 41.9144ZM65.864 41.9256L67.7248 43.4015L65.864 41.9256ZM55.092 32.032L53.8987 29.9785L55.092 32.032ZM53.8987 29.9785C52.7873 30.6244 47.4152 33.8813 42.2943 39.4268C37.1804 44.9648 32.125 53 32.125 63.1461H36.875C36.875 54.6502 41.1065 47.7147 45.784 42.6493C50.4546 37.5915 55.3785 34.6123 56.2852 34.0855L53.8987 29.9785ZM67.2024 40.5129C62.7683 34.4465 57.8739 30.8533 56.8068 30.1058L54.0817 33.9963C54.9184 34.5824 59.3566 37.8283 63.3676 43.3159L67.2024 40.5129ZM67.7248 43.4015C69.01 41.7811 70.0775 40.8063 70.4536 40.4808L67.3459 36.8886C66.788 37.3712 65.5045 38.557 64.0033 40.4498L67.7248 43.4015ZM67.773 40.477C69.0008 41.538 77.1252 49.0959 77.1252 63.1449H81.8752C81.8752 47.1212 72.5957 38.3667 70.8789 36.8831L67.773 40.477ZM77.1252 63.1449V64.0554H81.8752V63.1449H77.1252ZM77.1252 64.0554C77.1252 64.0585 77.1249 64.0591 77.1252 64.0579L81.7802 65.0032C81.8427 64.695 81.8752 64.3778 81.8752 64.0554H77.1252ZM77.0832 64.3684C76.9424 66.4257 76.4466 68.4527 75.6105 70.3684L79.964 72.2683C81.0165 69.8567 81.6438 67.297 81.8221 64.6928L77.0832 64.3684ZM75.6105 70.3684C74.6093 72.6626 73.1383 74.7555 71.2749 76.524L74.5449 79.9693C76.8602 77.7717 78.7038 75.1561 79.964 72.2683L75.6105 70.3684ZM71.2749 76.524C69.4113 78.2929 67.1922 79.7021 64.7414 80.6657L66.4794 85.0863C69.4882 83.9034 72.2299 82.1666 74.5449 79.9693L71.2749 76.524ZM64.7414 80.6657C62.2904 81.6293 59.6596 82.1266 57 82.1266V86.8766C60.2499 86.8766 63.4707 86.2692 66.4794 85.0863L64.7414 80.6657ZM57 82.1266C54.3404 82.1266 51.7096 81.6293 49.2586 80.6657L47.5206 85.0863C50.5293 86.2692 53.7501 86.8766 57 86.8766V82.1266ZM49.2586 80.6657C46.8078 79.7021 44.5887 78.2929 42.7251 76.524L39.4551 79.9693C41.7701 82.1666 44.5118 83.9034 47.5206 85.0863L49.2586 80.6657ZM42.7251 76.524C40.8617 74.7555 39.3907 72.6626 38.3895 70.3684L34.036 72.2683C35.2962 75.1561 37.1398 77.7717 39.4551 79.9693L42.7251 76.524ZM38.3895 70.3684C37.3884 68.0745 36.875 65.6209 36.875 63.1461L32.125 63.1461C32.125 66.2802 32.7756 69.3802 34.036 72.2683L38.3895 70.3684ZM70.4536 40.4808C69.7351 41.1025 68.5878 41.1811 67.773 40.477L70.8789 36.8831C69.8142 35.963 68.3143 36.0508 67.3459 36.8886L70.4536 40.4808ZM63.3676 43.3159C64.4359 44.7776 66.6027 44.8162 67.7248 43.4015L64.0033 40.4498C64.828 39.41 66.4165 39.4377 67.2024 40.5129L63.3676 43.3159ZM56.2852 34.0855C55.9567 34.2764 55.5555 34.3841 55.1287 34.3586C54.7081 34.3335 54.3507 34.1848 54.0817 33.9963L56.8068 30.1058C55.994 29.5365 54.8697 29.4143 53.8987 29.9785L56.2852 34.0855Z" fill="#374151"/>
<path d="M46.2093 65.6849L48.258 66.8863C48.2763 66.8551 48.2938 66.8236 48.3106 66.7917L46.2093 65.6849ZM67.7912 65.6859L65.6898 66.7925C65.7066 66.8244 65.7241 66.856 65.7423 66.8871L67.7912 65.6859ZM69.4999 71.998L71.8749 71.998L71.8749 71.998L69.4999 71.998ZM44.4999 71.998L46.8749 71.9981L44.4999 71.998ZM56.8112 54.622L58.1281 56.5984L56.8112 54.622ZM57.1891 54.622L55.8722 56.5984L57.1891 54.622ZM55.4942 52.6455C54.3049 53.438 47.5099 58.119 44.1079 64.5782L48.3106 66.7917C51.1046 61.4869 56.9726 57.3684 58.1281 56.5984L55.4942 52.6455ZM69.8926 64.5793C66.491 58.1196 59.6955 53.4381 58.5061 52.6456L55.8722 56.5984C57.0278 57.3684 62.8961 61.4873 65.6898 66.7925L69.8926 64.5793ZM65.7423 66.8871C66.6206 68.3853 67.1249 70.1292 67.1249 71.9981L71.8749 71.998C71.8748 69.2619 71.1338 66.6917 69.8401 64.4848L65.7423 66.8871ZM67.1249 71.998C67.1249 71.998 67.1249 71.998 67.1249 71.998C67.1249 71.998 67.1249 71.998 67.1249 71.998C67.1249 71.998 67.1249 71.998 67.1249 71.998C67.1249 71.998 67.1249 71.998 67.1249 71.998C67.1249 71.998 67.1249 71.998 67.1249 71.998C67.1249 71.998 67.1249 71.998 67.1249 71.998C67.1249 71.998 67.1249 71.9981 67.1249 71.9981C67.1249 71.9981 67.1249 71.9981 67.1249 71.9981C67.1249 71.9981 67.1249 71.9981 67.1249 71.9981C67.1249 71.9981 67.1249 71.9981 67.1249 71.9981C67.1249 71.9981 67.1249 71.9981 67.1249 71.9981C67.1249 71.9981 67.1249 71.9981 67.1249 71.9981C67.1249 71.9981 67.1249 71.9981 67.1249 71.9981C67.1249 71.9981 67.1249 71.9981 67.1249 71.9981C67.1249 71.9981 67.1249 71.9981 67.1249 71.9981C67.1249 71.9981 67.1249 71.9981 67.1249 71.9981C67.1249 71.9981 67.1249 71.9981 67.1249 71.9981C67.1249 71.9981 67.1249 71.9981 67.1249 71.9981C67.1249 71.9981 67.1249 71.9981 67.1249 71.9981C67.1249 71.9981 67.1249 71.9981 67.1249 71.9981C67.1249 71.9981 67.1249 71.9981 67.1249 71.9981C67.1249 71.9981 67.1249 71.9981 67.1249 71.9981C67.1249 71.9981 67.1249 71.9981 67.1249 71.9981C67.1249 71.9981 67.1249 71.9981 67.1249 71.9981C67.1249 71.9981 67.1249 71.9981 67.1249 71.9981C67.1249 71.9981 67.1249 71.9981 67.1249 71.9981C67.1249 71.9981 67.1249 71.9981 67.1249 71.9981C67.1249 71.9981 67.1249 71.9981 67.1249 71.9981C67.1249 71.9981 67.1249 71.9981 67.1249 71.9981C67.1249 71.9981 67.1249 71.9981 67.1249 71.9981C67.1249 71.9981 67.1249 71.9981 67.1249 71.9981C67.1249 71.9981 67.1249 71.9981 67.1249 71.9981C67.1249 71.9981 67.1249 71.9981 67.1249 71.9981C67.1249 71.9981 67.1249 71.9981 67.1249 71.9981C67.1249 71.9981 67.1249 71.9981 67.1249 71.9981C67.1249 71.9981 67.1249 71.9981 67.1249 71.9981C67.1249 71.9981 67.1249 71.9981 67.1249 71.9981C67.1249 71.9981 67.1249 71.9981 67.1249 71.9981C67.1249 71.9981 67.1249 71.9981 67.1249 71.9981C67.1249 71.9981 67.1249 71.9981 67.1249 71.9981C67.1249 71.9981 67.1249 71.9981 67.1249 71.9981C67.1249 71.9981 67.1249 71.9981 67.1249 71.9981C67.1249 71.9981 67.1249 71.9981 67.1249 71.9981C67.1249 71.9981 67.1249 71.9981 67.1249 71.9981C67.1249 71.9981 67.1249 71.9981 67.1249 71.9981C67.1249 71.9981 67.1249 71.9981 67.1249 71.9981C67.1249 71.9981 67.1249 71.9981 67.1249 71.9981C67.1249 71.9981 67.1249 71.9981 67.1249 71.9981C67.1249 71.9981 67.1249 71.9981 67.1249 71.9981C67.1249 71.9981 67.1249 71.9981 67.1249 71.9981C67.1249 71.9981 67.1249 71.9981 67.1249 71.9981C67.1249 71.9981 67.1249 71.9981 67.1249 71.9981C67.1249 71.9981 67.1249 71.9981 67.1249 71.9981C67.1249 71.9981 67.1249 71.9981 67.1249 71.9981C67.1249 71.9981 67.1249 71.9981 67.1249 71.9981C67.1249 71.9981 67.1249 71.9981 67.1249 71.9981C67.1249 71.9981 67.1249 71.9981 67.1249 71.9981C67.1249 71.9981 67.1249 71.9981 67.1249 71.9981C67.1249 71.9981 67.1249 71.9981 67.1249 71.9981C67.1249 71.9981 67.1249 71.9981 67.1249 71.9981C67.1249 71.9981 67.1249 71.9981 67.1249 71.9981C67.1249 71.9981 67.1249 71.9981 67.1249 71.9981C67.1249 71.9981 67.1249 71.9981 67.1249 71.9981C67.1249 71.9981 67.1249 71.9981 67.1249 71.9981C67.1249 71.9981 67.1249 71.9981 67.1249 71.9981C67.1249 71.9981 67.1249 71.9981 67.1249 71.9981C67.1249 71.9981 67.1249 71.9981 67.1249 71.9981C67.1249 71.9981 67.1249 71.9981 67.1249 71.9981C67.1249 71.9981 67.1249 71.9981 67.1249 71.9981C67.1249 71.9981 67.1249 71.9981 67.1249 71.9981C67.1249 71.9981 67.1249 71.9981 67.1249 71.9981C67.1249 71.9981 67.1249 71.9981 67.1249 71.9981C67.1249 71.9981 67.1249 71.9981 67.1249 71.9981C67.1249 71.9981 67.1249 71.9981 67.1249 71.9981C67.1249 71.9981 67.1249 71.9981 67.1249 71.9981C67.1249 71.9981 67.1249 71.9981 67.1249 71.9981C67.1249 71.9981 67.1249 71.9981 67.1249 71.9981C67.1249 71.9981 67.1249 71.9981 67.1249 71.9981C67.1249 71.9981 67.1249 71.9981 67.1249 71.9981C67.1249 71.9981 67.1249 71.9981 67.1249 71.9981C67.1249 71.9981 67.1249 71.9981 67.1249 71.9981C67.1249 71.9981 67.1249 71.9981 67.1249 71.9981C67.1249 71.9981 67.1249 71.9981 67.1249 71.9981C67.1249 71.9981 67.1249 71.9981 67.1249 71.9981C67.1249 71.9981 67.1249 71.9981 67.1249 71.9981C67.1249 71.9981 67.1249 71.9981 67.1249 71.9981C67.1249 71.9981 67.1249 71.9981 67.1249 71.9981C67.1249 71.9981 67.1249 71.9981 67.1249 71.9981C67.1249 71.9981 67.1249 71.9981 67.1249 71.9981C67.1249 71.9981 67.1249 71.9981 67.1249 71.9981C67.1249 71.9981 67.1249 71.9981 67.1249 71.9981C67.1249 71.9981 67.1249 71.9981 67.1249 71.9981C67.1249 71.9981 67.1249 71.9981 67.1249 71.9981C67.1249 71.9981 67.1249 71.9981 67.1249 71.9981C67.1249 71.9981 67.1249 71.9981 67.1249 71.9981C67.1249 71.9981 67.1249 71.9981 67.1249 71.9981C67.1249 71.9981 67.1249 71.9981 67.1249 71.9981C67.1249 71.9981 67.1249 71.9981 67.1249 71.9981C67.1249 71.9981 67.1249 71.9981 67.1249 71.9981C67.1249 71.9981 67.1249 71.9981 67.1249 71.9981C67.1249 71.9981 67.1249 71.9981 67.1249 71.9981C67.1249 71.9981 67.1249 71.9981 67.1249 71.9981C67.1249 71.9981 67.1249 71.9981 67.1249 71.9981C67.1249 71.9981 67.1249 71.9981 67.1249 71.9981C67.1249 71.9981 67.1249 71.9981 67.1249 71.9981C67.1249 71.9981 67.1249 71.9981 67.1249 71.9981C67.1249 71.9981 67.1249 71.9981 67.1249 71.9981C67.1249 71.9981 67.1249 71.9981 67.1249 71.9981C67.1249 71.9981 67.1249 71.9981 67.1249 71.9981C67.1249 71.9981 67.1249 71.9981 67.1249 71.9981C67.1249 71.9981 67.1249 71.9981 67.1249 71.9981C67.1249 71.9981 67.1249 71.9981 67.1249 71.9982C67.1249 71.9982 67.1249 71.9982 67.1249 71.9982C67.1249 71.9982 67.1249 71.9982 67.1249 71.9982C67.1249 71.9982 67.1249 71.9982 67.1249 71.9982C67.1249 71.9982 67.1249 71.9982 67.1249 71.9982C67.1249 71.9982 67.1249 71.9982 67.1249 71.9982C67.1249 71.9982 67.1249 71.9982 67.1249 71.9982C67.1249 71.9982 67.1249 71.9982 67.1249 71.9982C67.1249 71.9982 67.1249 71.9982 67.1249 71.9982C67.1249 71.9982 67.1249 71.9982 67.1249 71.9982C67.1249 71.9982 67.1249 71.9982 67.1249 71.9982C67.1249 71.9982 67.1249 71.9982 67.1249 71.9982C67.1249 71.9982 67.1249 71.9982 67.1249 71.9982C67.1249 71.9982 67.1249 71.9982 67.1249 71.9982C67.1249 71.9982 67.1249 71.9982 67.1249 71.9982C67.1249 71.9982 67.1249 71.9982 67.1249 71.9982C67.1249 71.9982 67.1249 71.9982 67.1249 71.9982C67.1249 71.9982 67.1249 71.9982 67.1249 71.9982C67.1249 71.9982 67.1249 71.9982 67.1249 71.9982C67.1249 71.9982 67.1249 71.9982 67.1249 71.9982C67.1249 71.9982 67.1249 71.9982 67.1249 71.9982C67.1249 71.9982 67.1249 71.9982 67.1249 71.9982C67.1249 71.9982 67.1249 71.9982 67.1249 71.9982C67.1249 71.9982 67.1249 71.9982 67.1249 71.9982C67.1249 71.9982 67.1249 71.9982 67.1249 71.9982C67.1249 71.9982 67.1249 71.9982 67.1249 71.9982C67.1249 71.9982 67.1249 71.9982 67.1249 71.9982C67.1249 71.9982 67.1249 71.9982 67.1249 71.9982C67.1249 71.9982 67.1249 71.9982 67.1249 71.9982C67.1249 71.9982 67.1249 71.9982 67.1249 71.9982C67.1249 71.9982 67.1249 71.9982 67.1249 71.9982C67.1249 71.9982 67.1249 71.9982 67.1249 71.9982C67.1249 71.9982 67.1249 71.9982 67.1249 71.9982C67.1249 71.9982 67.1249 71.9982 67.1249 71.9982C67.1249 71.9982 67.1249 71.9982 67.1249 71.9982C67.1249 71.9982 67.1249 71.9982 67.1249 71.9982C67.1249 71.9982 67.1249 71.9982 67.1249 71.9982C67.1249 71.9982 67.1249 71.9982 67.1249 71.9982C67.1249 71.9982 67.1249 71.9982 67.1249 71.9982C67.1249 71.9982 67.1249 71.9982 67.1249 71.9982C67.1249 71.9982 67.1249 71.9982 67.1249 71.9982C67.1249 71.9982 67.1249 71.9982 67.1249 71.9982C67.1249 71.9982 67.1249 71.9982 67.1249 71.9982C67.1249 71.9982 67.1249 71.9982 67.1249 71.9982C67.1249 71.9982 67.1249 71.9982 67.1249 71.9982C67.1249 71.9982 67.1249 71.9982 67.1249 71.9982C67.1249 71.9982 67.1249 71.9982 67.1249 71.9982C67.1249 71.9982 67.1249 71.9982 67.1249 71.9982C67.1249 71.9982 67.1249 71.9982 67.1249 71.9982C67.1249 71.9982 67.1249 71.9982 67.1249 71.9982C67.1249 71.9982 67.1249 71.9982 67.1249 71.9982C67.1249 71.9982 67.1249 71.9982 67.1249 71.9982C67.1249 71.9982 67.1249 71.9982 67.1249 71.9982C67.1249 71.9982 67.1249 71.9982 67.1249 71.9982C67.1249 71.9982 67.1249 71.9982 67.1249 71.9982C67.1249 71.9982 67.1249 71.9982 67.1249 71.9982C67.1249 71.9982 67.1249 71.9982 67.1249 71.9982C67.1249 71.9982 67.1249 71.9982 67.1249 71.9982C67.1249 71.9982 67.1249 71.9982 67.1249 71.9982C67.1249 71.9982 67.1249 71.9982 67.1249 71.9982C67.1249 71.9982 67.1249 71.9982 67.1249 71.9982C67.1249 71.9982 67.1249 71.9982 67.1249 71.9982C67.1249 71.9982 67.1249 71.9982 67.1249 71.9982C67.1249 71.9982 67.1249 71.9982 67.1249 71.9982C67.1249 71.9982 67.1249 71.9982 67.1249 71.9982C67.1249 71.9982 67.1249 71.9982 67.1249 71.9982C67.1249 71.9982 67.1249 71.9982 67.1249 71.9982C67.1249 71.9982 67.1249 71.9982 67.1249 71.9982C67.1249 71.9982 67.1249 71.9982 67.1249 71.9982C67.1249 71.9982 67.1249 71.9982 67.1249 71.9982C67.1249 71.9982 67.1249 71.9982 67.1249 71.9982C67.1249 71.9982 67.1249 71.9982 67.1249 71.9982C67.1249 71.9982 67.1249 71.9982 67.1249 71.9982C67.1249 71.9982 67.1249 71.9982 67.1249 71.9982C67.1249 71.9982 67.1249 71.9982 67.1249 71.9982C67.1249 71.9982 67.1249 71.9982 67.1249 71.9982C67.1249 71.9982 67.1249 71.9982 67.1249 71.9982C67.1249 71.9982 67.1249 71.9982 67.1249 71.9982C67.1249 71.9982 67.1249 71.9982 67.1249 71.9982C67.1249 71.9982 67.1249 71.9982 67.1249 71.9982C67.1249 71.9982 67.1249 71.9982 67.1249 71.9982C67.1249 71.9982 67.1249 71.9982 67.1249 71.9982C67.1249 71.9982 67.1249 71.9982 67.1249 71.9982C67.1249 71.9982 67.1249 71.9982 67.1249 71.9982C67.1249 71.9982 67.1249 71.9982 67.1249 71.9982C67.1249 71.9982 67.1249 71.9982 67.1249 71.9982C67.1249 71.9982 67.1249 71.9982 67.1249 71.9982C67.1249 71.9982 67.1249 71.9982 67.1249 71.9982C67.1249 71.9982 67.1249 71.9982 67.1249 71.9982C67.1249 71.9982 67.1249 71.9982 67.1249 71.9982C67.1249 71.9982 67.1249 71.9982 67.1249 71.9982C67.1249 71.9982 67.1249 71.9982 67.1249 71.9982C67.1249 71.9982 67.1249 71.9982 67.1249 71.9982C67.1249 71.9982 67.1249 71.9982 67.1249 71.9982C67.1249 71.9982 67.1249 71.9982 67.1249 71.9982C67.1249 71.9982 67.1249 71.9982 67.1249 71.9982C67.1249 71.9982 67.1249 71.9982 67.1249 71.9982C67.1249 71.9982 67.1249 71.9982 67.1249 71.9982C67.1249 71.9982 67.1249 71.9982 67.1249 71.9982C67.1249 71.9982 67.1249 71.9982 67.1249 71.9982C67.1249 71.9982 67.1249 71.9982 67.1249 71.9982C67.1249 71.9982 67.1249 71.9982 67.1249 71.9982C67.1249 71.9982 67.1249 71.9982 67.1249 71.9982C67.1249 71.9982 67.1249 71.9982 67.1249 71.9982C67.1249 71.9982 67.1249 71.9982 67.1249 71.9982C67.1249 71.9982 67.1249 71.9982 67.1249 71.9982C67.1249 71.9983 67.1249 71.9983 67.1249 71.9983C67.1249 71.9983 67.1249 71.9983 67.1249 71.9983C67.1249 71.9983 67.1249 71.9983 67.1249 71.9983C67.1249 71.9983 67.1249 71.9983 67.1249 71.9983C67.1249 71.9983 67.1249 71.9983 67.1249 71.9983C67.1249 71.9983 67.1249 71.9983 67.1249 71.9983C67.1249 71.9983 67.1249 71.9983 67.1249 71.9983C67.1249 71.9983 67.1249 71.9983 67.1249 71.9983C67.1249 71.9983 67.1249 71.9983 67.1249 71.9983C67.1249 71.9983 67.1249 71.9983 67.1249 71.9983C67.1249 71.9983 67.1249 71.9983 67.1249 71.9983C67.1249 71.9983 67.1249 71.9983 67.1249 71.9983C67.1249 71.9983 67.1249 71.9983 67.1249 71.9983C67.1249 71.9983 67.1249 71.9983 67.1249 71.9983C67.1249 71.9983 67.1249 71.9983 67.1249 71.9983C67.1249 71.9983 67.1249 71.9983 67.1249 71.9983C67.1249 71.9983 67.1249 71.9983 67.1249 71.9983C67.1249 71.9983 67.1249 71.9983 67.1249 71.9983C67.1249 71.9983 67.1249 71.9983 67.1249 71.9983C67.1249 71.9983 67.1249 71.9983 67.1249 71.9983C67.1249 71.9983 67.1249 71.9983 67.1249 71.9983C67.1249 71.9983 67.1249 71.9983 67.1249 71.9983C67.1249 71.9983 67.1249 71.9983 67.1249 71.9983C67.1249 71.9983 67.1249 71.9983 67.1249 71.9983C67.1249 71.9983 67.1249 71.9983 67.1249 71.9983C67.1249 71.9983 67.1249 71.9983 67.1249 71.9983C67.1249 71.9983 67.1249 71.9983 67.1249 71.9983C67.1249 71.9983 67.1249 71.9983 67.1249 71.9983C67.1249 71.9983 67.1249 71.9983 67.1249 71.9983C67.1249 71.9983 67.1249 71.9983 67.1249 71.9983C67.1249 71.9983 67.1249 71.9983 67.1249 71.9983C67.1249 71.9983 67.1249 71.9983 67.1249 71.9983C67.1249 71.9983 67.1249 71.9983 67.1249 71.9983C67.1249 71.9983 67.1249 71.9983 67.1249 71.9983C67.1249 71.9983 67.1249 71.9983 67.1249 71.9983C67.1249 71.9983 67.1249 71.9983 67.1249 71.9983C67.1249 71.9983 67.1249 71.9983 67.1249 71.9983C67.1249 71.9983 67.1249 71.9983 67.1249 71.9983C67.1249 71.9983 67.1249 71.9983 67.1249 71.9983C67.1249 71.9983 67.1249 71.9983 67.1249 71.9983C67.1249 71.9983 67.1249 71.9983 67.1249 71.9983C67.1249 71.9983 67.1249 71.9983 67.1249 71.9983C67.1249 71.9983 67.1249 71.9983 67.1249 71.9983C67.1249 71.9983 67.1249 71.9983 67.1249 71.9983C67.1249 71.9983 67.1249 71.9983 67.1249 71.9983C67.1249 71.9983 67.1249 71.9983 67.1249 71.9983C67.1249 71.9983 67.1249 71.9983 67.1249 71.9983C67.1249 71.9983 67.1249 71.9983 67.1249 71.9983C67.1249 71.9983 67.1249 71.9983 67.1249 71.9983C67.1249 71.9983 67.1249 71.9983 67.1249 71.9983C67.1249 71.9983 67.1249 71.9983 67.1249 71.9983C67.1249 71.9983 67.1249 71.9983 67.1249 71.9983C67.1249 71.9983 67.1249 71.9983 67.1249 71.9983C67.1249 71.9983 67.1249 71.9983 67.1249 71.9983C67.1249 71.9983 67.1249 71.9983 67.1249 71.9983C67.1249 71.9983 67.1249 71.9983 67.1249 71.9983C67.1249 71.9983 67.1249 71.9983 67.1249 71.9983C67.1249 71.9983 67.1249 71.9983 67.1249 71.9983C67.1249 71.9983 67.1249 71.9983 67.1249 71.9983C67.1249 71.9983 67.1249 71.9983 67.1249 71.9983C67.1249 71.9983 67.1249 71.9983 67.1249 71.9983C67.1249 71.9983 67.1249 71.9983 67.1249 71.9983C67.1249 71.9983 67.1249 71.9983 67.1249 71.9983C67.1249 71.9983 67.1249 71.9983 67.1249 71.9983C67.1249 71.9983 67.1249 71.9983 67.1249 71.9983C67.1249 71.9983 67.1249 71.9983 67.1249 71.9983C67.1249 71.9983 67.1249 71.9983 67.1249 71.9983C67.1249 71.9983 67.1249 71.9983 67.1249 71.9983C67.1249 71.9983 67.1249 71.9983 67.1249 71.9983C67.1249 71.9983 67.1249 71.9983 67.1249 71.9983C67.1249 71.9983 67.1249 71.9983 67.1249 71.9983C67.1249 71.9983 67.1249 71.9983 67.1249 71.9983C67.1249 71.9983 67.1249 71.9983 67.1249 71.9983C67.1249 71.9983 67.1249 71.9983 67.1249 71.9983C67.1249 71.9983 67.1249 71.9983 67.1249 71.9983C67.1249 71.9983 67.1249 71.9983 67.1249 71.9983C67.1249 71.9983 67.1249 71.9983 67.1249 71.9983C67.1249 71.9983 67.1249 71.9983 67.1249 71.9983C67.1249 71.9983 67.1249 71.9983 67.1249 71.9983C67.1249 71.9983 67.1249 71.9983 67.1249 71.9983C67.1249 71.9983 67.1249 71.9983 67.1249 71.9983C67.1249 71.9983 67.1249 71.9983 67.1249 71.9983C67.1249 71.9983 67.1249 71.9983 67.1249 71.9983C67.1249 71.9983 67.1249 71.9983 67.1249 71.9983C67.1249 71.9983 67.1249 71.9983 67.1249 71.9983C67.1249 71.9983 67.1249 71.9983 67.1249 71.9983C67.1249 71.9983 67.1249 71.9983 67.1249 71.9983C67.1249 71.9983 67.1249 71.9983 67.1249 71.9983C67.1249 71.9983 67.1249 71.9983 67.1249 71.9983C67.1249 71.9983 67.1249 71.9983 67.1249 71.9983C67.1249 71.9983 67.1249 71.9983 67.1249 71.9983C67.1249 71.9983 67.1249 71.9983 67.1249 71.9983C67.1249 71.9983 67.1249 71.9983 67.1249 71.9983C67.1249 71.9983 67.1249 71.9983 67.1249 71.9983C67.1249 71.9983 67.1249 71.9983 67.1249 71.9983C67.1249 71.9983 67.1249 71.9983 67.1249 71.9983C67.1249 71.9983 67.1249 71.9983 67.1249 71.9983C67.1249 71.9983 67.1249 71.9983 67.1249 71.9983C67.1249 71.9983 67.1249 71.9983 67.1249 71.9983C67.1249 71.9983 67.1249 71.9983 67.1249 71.9983C67.1249 71.9983 67.1249 71.9983 67.1249 71.9983C67.1249 71.9983 67.1249 71.9983 67.1249 71.9983C67.1249 71.9983 67.1249 71.9983 67.1249 71.9983C67.1249 71.9983 67.1249 71.9983 67.1249 71.9983C67.1249 71.9983 67.1249 71.9983 67.1249 71.9983C67.1249 71.9984 67.1249 71.9984 67.1249 71.9984C67.1249 71.9984 67.1249 71.9984 67.1249 71.9984C67.1249 71.9984 67.1249 71.9984 67.1249 71.9984C67.1249 71.9984 67.1249 71.9984 67.1249 71.9984C67.1249 71.9984 67.1249 71.9984 67.1249 71.9984C67.1249 71.9984 67.1249 71.9984 67.1249 71.9984C67.1249 71.9984 67.1249 71.9984 67.1249 71.9984C67.1249 71.9984 67.1249 71.9984 67.1249 71.9984C67.1249 71.9984 67.1249 71.9984 67.1249 71.9984C67.1249 71.9984 67.1249 71.9984 67.1249 71.9984C67.1249 71.9984 67.1249 71.9984 67.1249 71.9984C67.1249 71.9984 67.1249 71.9984 67.1249 71.9984C67.1249 71.9984 67.1249 71.9984 67.1249 71.9984C67.1249 71.9984 67.1249 71.9984 67.1249 71.9984C67.1249 71.9984 67.1249 71.9984 67.1249 71.9984C67.1249 71.9984 67.1249 71.9984 67.1249 71.9984C67.1249 71.9984 67.1249 71.9984 67.1249 71.9984C67.1249 71.9984 67.1249 71.9984 67.1249 71.9984C67.1249 71.9984 67.1249 71.9984 67.1249 71.9984C67.1249 71.9984 67.1249 71.9984 67.1249 71.9984C67.1249 71.9984 67.1249 71.9984 67.1249 71.9984C67.1249 71.9984 67.1249 71.9984 67.1249 71.9984C67.1249 71.9984 67.1249 71.9984 67.1249 71.9984C67.1249 71.9984 67.1249 71.9984 67.1249 71.9984C67.1249 71.9984 67.1249 71.9984 67.1249 71.9984C67.1249 71.9984 67.1249 71.9984 67.1249 71.9984C67.1249 71.9984 67.1249 71.9984 67.1249 71.9984C67.1249 71.9984 67.1249 71.9984 67.1249 71.9984C67.1249 71.9984 67.1249 71.9984 67.1249 71.9984C67.1249 71.9984 67.1249 71.9984 67.1249 71.9984C67.1249 71.9984 67.1249 71.9984 67.1249 71.9984C67.1249 71.9984 67.1249 71.9984 67.1249 71.9984C67.1249 71.9984 67.1249 71.9984 67.1249 71.9984C67.1249 71.9984 67.1249 71.9984 67.1249 71.9984C67.1249 71.9984 67.1249 71.9984 67.1249 71.9984C67.1249 71.9984 67.1249 71.9984 67.1249 71.9984C67.1249 71.9984 67.1249 71.9984 67.1249 71.9984C67.1249 71.9984 67.1249 71.9984 67.1249 71.9984C67.1249 71.9984 67.1249 71.9984 67.1249 71.9984C67.1249 71.9984 67.1249 71.9984 67.1249 71.9984C67.1249 71.9984 67.1249 71.9984 67.1249 71.9984C67.1249 71.9984 67.1249 71.9984 67.1249 71.9984C67.1249 71.9984 67.1249 71.9984 67.1249 71.9984C67.1249 71.9984 67.1249 71.9984 67.1249 71.9984C67.1249 71.9984 67.1249 71.9984 67.1249 71.9984C67.1249 71.9984 67.1249 71.9984 67.1249 71.9984C67.1249 71.9984 67.1249 71.9984 67.1249 71.9984C67.1249 71.9984 67.1249 71.9984 67.1249 71.9984C67.1249 71.9984 67.1249 71.9984 67.1249 71.9984C67.1249 71.9984 67.1249 71.9984 67.1249 71.9984C67.1249 71.9984 67.1249 71.9984 67.1249 71.9984C67.1249 71.9984 67.1249 71.9984 67.1249 71.9984C67.1249 71.9984 67.1249 71.9984 67.1249 71.9984C67.1249 71.9984 67.1249 71.9984 67.1249 71.9984C67.1249 71.9984 67.1249 71.9984 67.1249 71.9984C67.1249 71.9984 67.1249 71.9984 67.1249 71.9984C67.1249 71.9984 67.1249 71.9984 67.1249 71.9984C67.1249 71.9984 67.1249 71.9984 67.1249 71.9984C67.1249 71.9984 67.1249 71.9984 67.1249 71.9984C67.1249 71.9984 67.1249 71.9984 67.1249 71.9984C67.1249 71.9984 67.1249 71.9984 67.1249 71.9984C67.1249 71.9984 67.1249 71.9984 67.1249 71.9984C67.1249 71.9984 67.1249 71.9984 67.1249 71.9984C67.1249 71.9984 67.1249 71.9984 67.1249 71.9984C67.1249 71.9984 67.1249 71.9984 67.1249 71.9984C67.1249 71.9984 67.1249 71.9984 67.1249 71.9984C67.1249 71.9984 67.1249 71.9984 67.1249 71.9984C67.1249 71.9984 67.1249 71.9984 67.1249 71.9984C67.1249 71.9984 67.1249 71.9984 67.1249 71.9984C67.1249 71.9984 67.1249 71.9984 67.1249 71.9984C67.1249 71.9984 67.1249 71.9984 67.1249 71.9984C67.1249 71.9984 67.1249 71.9984 67.1249 71.9984C67.1249 71.9984 67.1249 71.9984 67.1249 71.9984C67.1249 71.9984 67.1249 71.9984 67.1249 71.9984C67.1249 71.9984 67.1249 71.9984 67.1249 71.9984C67.1249 71.9984 67.1249 71.9984 67.1249 71.9984C67.1249 71.9984 67.1249 71.9984 67.1249 71.9984C67.1249 71.9984 67.1249 71.9984 67.1249 71.9984C67.1249 71.9984 67.1249 71.9984 67.1249 71.9984C67.1249 71.9984 67.1249 71.9984 67.1249 71.9984C67.1249 71.9984 67.1249 71.9984 67.1249 71.9984C67.1249 71.9984 67.1249 71.9984 67.1249 71.9984C67.1249 71.9984 67.1249 71.9984 67.1249 71.9984C67.1249 71.9984 67.1249 71.9984 67.1249 71.9984C67.1249 71.9984 67.1249 71.9984 67.1249 71.9984C67.1249 71.9984 67.1249 71.9984 67.1249 71.9984C67.1249 71.9984 67.1249 71.9984 67.1249 71.9984C67.1249 71.9984 67.1249 71.9984 67.1249 71.9984C67.1249 71.9984 67.1249 71.9984 67.1249 71.9984C67.1249 71.9984 67.1249 71.9984 67.1249 71.9984C67.1249 71.9984 67.1249 71.9984 67.1249 71.9984C67.1249 71.9984 67.1249 71.9984 67.1249 71.9984C67.1249 71.9984 67.1249 71.9984 67.1249 71.9984C67.1249 71.9984 67.1249 71.9984 67.1249 71.9984C67.1249 71.9984 67.1249 71.9984 67.1249 71.9984C67.1249 71.9984 67.1249 71.9984 67.1249 71.9984C67.1249 71.9984 67.1249 71.9984 67.1249 71.9984C67.1249 71.9984 67.1249 71.9984 67.1249 71.9984C67.1249 71.9984 67.1249 71.9984 67.1249 71.9984C67.1249 71.9984 67.1249 71.9984 67.1249 71.9984C67.1249 71.9984 67.1249 71.9984 67.1249 71.9984C67.1249 71.9984 67.1249 71.9984 67.1249 71.9984C67.1249 71.9984 67.1249 71.9984 67.1249 71.9984C67.1249 71.9984 67.1249 71.9984 67.1249 71.9984C67.1249 71.9984 67.1249 71.9984 67.1249 71.9984C67.1249 71.9984 67.1249 71.9985 67.1249 71.9985C67.1249 71.9985 67.1249 71.9985 67.1249 71.9985C67.1249 71.9985 67.1249 71.9985 67.1249 71.9985C67.1249 71.9985 67.1249 71.9985 67.1249 71.9985C67.1249 71.9985 67.1249 71.9985 67.1249 71.9985C67.1249 71.9985 67.1249 71.9985 67.1249 71.9985C67.1249 71.9985 67.1249 71.9985 67.1249 71.9985C67.1249 71.9985 67.1249 71.9985 67.1249 71.9985C67.1249 71.9985 67.1249 71.9985 67.1249 71.9985C67.1249 71.9985 67.1249 71.9985 67.1249 71.9985C67.1249 71.9985 67.1249 71.9985 67.1249 71.9985C67.1249 71.9985 67.1249 71.9985 67.1249 71.9985C67.1249 71.9985 67.1249 71.9985 67.1249 71.9985C67.1249 71.9985 67.1249 71.9985 67.1249 71.9985C67.1249 71.9985 67.1249 71.9985 67.1249 71.9985C67.1249 71.9985 67.1249 71.9985 67.1249 71.9985C67.1249 71.9985 67.1249 71.9985 67.1249 71.9985C67.1249 71.9985 67.1249 71.9985 67.1249 71.9985C67.1249 71.9985 67.1249 71.9985 67.1249 71.9985C67.1249 71.9985 67.1249 71.9985 67.1249 71.9985C67.1249 71.9985 67.1249 71.9985 67.1249 71.9985C67.1249 71.9985 67.1249 71.9985 67.1249 71.9985C67.1249 71.9985 67.1249 71.9985 67.1249 71.9985C67.1249 71.9985 67.1249 71.9985 67.1249 71.9985C67.1249 71.9985 67.1249 71.9985 67.1249 71.9985C67.1249 71.9985 67.1249 71.9985 67.1249 71.9985C67.1249 71.9985 67.1249 71.9985 67.1249 71.9985C67.1249 71.9985 67.1249 71.9985 67.1249 71.9985C67.1249 71.9985 67.1249 71.9985 67.1249 71.9985C67.1249 71.9985 67.1249 71.9985 67.1249 71.9985C67.1249 71.9985 67.1249 71.9985 67.1249 71.9985C67.1249 71.9985 67.1249 71.9985 67.1249 71.9985C67.1249 71.9985 67.1249 71.9985 67.1249 71.9985C67.1249 71.9985 67.1249 71.9985 67.1249 71.9985C67.1249 71.9985 67.1249 71.9985 67.1249 71.9985C67.1249 71.9985 67.1249 71.9985 67.1249 71.9985C67.1249 71.9985 67.1249 71.9985 67.1249 71.9985C67.1249 71.9985 67.1249 71.9985 67.1249 71.9985C67.1249 71.9985 67.1249 71.9985 67.1249 71.9985C67.1249 71.9985 67.1249 71.9985 67.1249 71.9985C67.1249 71.9985 67.1249 71.9985 67.1249 71.9985C67.1249 71.9985 67.1249 71.9985 67.1249 71.9985C67.1249 71.9985 67.1249 71.9985 67.1249 71.9985C67.1249 71.9985 67.1249 71.9985 67.1249 71.9985C67.1249 71.9985 67.1249 71.9985 67.1249 71.9985C67.1249 71.9985 67.1249 71.9985 67.1249 71.9985C67.1249 71.9985 67.1249 71.9985 67.1249 71.9985C67.1249 71.9985 67.1249 71.9985 67.1249 71.9985C67.1249 71.9985 67.1249 71.9985 67.1249 71.9985C67.1249 71.9985 67.1249 71.9985 67.1249 71.9985C67.1249 71.9985 67.1249 71.9985 67.1249 71.9985C67.1249 71.9985 67.1249 71.9985 67.1249 71.9985C67.1249 71.9985 67.1249 71.9985 67.1249 71.9985C67.1249 71.9985 67.1249 71.9985 67.1249 71.9985C67.1249 71.9985 67.1249 71.9985 67.1249 71.9985C67.1249 71.9985 67.1249 71.9985 67.1249 71.9985C67.1249 71.9985 67.1249 71.9985 67.1249 71.9985C67.1249 71.9985 67.1249 71.9985 67.1249 71.9985C67.1249 71.9985 67.1249 71.9985 67.1249 71.9985C67.1249 71.9985 67.1249 71.9985 67.1249 71.9985C67.1249 71.9985 67.1249 71.9985 67.1249 71.9985C67.1249 71.9985 67.1249 71.9985 67.1249 71.9985C67.1249 71.9985 67.1249 71.9985 67.1249 71.9985C67.1249 71.9985 67.1249 71.9985 67.1249 71.9985C67.1249 71.9985 67.1249 71.9985 67.1249 71.9985C67.1249 71.9985 67.1249 71.9985 67.1249 71.9985C67.1249 71.9985 67.1249 71.9985 67.1249 71.9985C67.1249 71.9985 67.1249 71.9985 67.1249 71.9985C67.1249 71.9985 67.1249 71.9985 67.1249 71.9985C67.1249 71.9985 67.1249 71.9985 67.1249 71.9985C67.1249 71.9985 67.1249 71.9985 67.1249 71.9985C67.1249 71.9985 67.1249 71.9985 67.1249 71.9985C67.1249 71.9985 67.1249 71.9985 67.1249 71.9985C67.1249 71.9985 67.1249 71.9985 67.1249 71.9985C67.1249 71.9985 67.1249 71.9985 67.1249 71.9985C67.1249 71.9985 67.1249 71.9985 67.1249 71.9985C67.1249 71.9985 67.1249 71.9985 67.1249 71.9985C67.1249 71.9985 67.1249 71.9985 67.1249 71.9985C67.1249 71.9985 67.1249 71.9985 67.1249 71.9985C67.1249 71.9985 67.1249 71.9985 67.1249 71.9985C67.1249 71.9985 67.1249 71.9985 67.1249 71.9985C67.1249 71.9985 67.1249 71.9985 67.1249 71.9985C67.1249 71.9985 67.1249 71.9985 67.1249 71.9985C67.1249 71.9985 67.1249 71.9985 67.1249 71.9985C67.1249 71.9985 67.1249 71.9985 67.1249 71.9985H71.8749C71.8749 71.9985 71.8749 71.9985 71.8749 71.9985C71.8749 71.9985 71.8749 71.9985 71.8749 71.9985C71.8749 71.9985 71.8749 71.9985 71.8749 71.9985C71.8749 71.9985 71.8749 71.9985 71.8749 71.9985C71.8749 71.9985 71.8749 71.9985 71.8749 71.9985C71.8749 71.9985 71.8749 71.9985 71.8749 71.9985C71.8749 71.9985 71.8749 71.9985 71.8749 71.9985C71.8749 71.9985 71.8749 71.9985 71.8749 71.9985C71.8749 71.9985 71.8749 71.9985 71.8749 71.9985C71.8749 71.9985 71.8749 71.9985 71.8749 71.9985C71.8749 71.9985 71.8749 71.9985 71.8749 71.9985C71.8749 71.9985 71.8749 71.9985 71.8749 71.9985C71.8749 71.9985 71.8749 71.9985 71.8749 71.9985C71.8749 71.9985 71.8749 71.9985 71.8749 71.9985C71.8749 71.9985 71.8749 71.9985 71.8749 71.9985C71.8749 71.9985 71.8749 71.9985 71.8749 71.9985C71.8749 71.9985 71.8749 71.9985 71.8749 71.9985C71.8749 71.9985 71.8749 71.9985 71.8749 71.9985C71.8749 71.9985 71.8749 71.9985 71.8749 71.9985C71.8749 71.9985 71.8749 71.9985 71.8749 71.9985C71.8749 71.9985 71.8749 71.9985 71.8749 71.9985C71.8749 71.9985 71.8749 71.9985 71.8749 71.9985C71.8749 71.9985 71.8749 71.9985 71.8749 71.9985C71.8749 71.9985 71.8749 71.9985 71.8749 71.9985C71.8749 71.9985 71.8749 71.9985 71.8749 71.9985C71.8749 71.9985 71.8749 71.9985 71.8749 71.9985C71.8749 71.9985 71.8749 71.9985 71.8749 71.9985C71.8749 71.9985 71.8749 71.9985 71.8749 71.9985C71.8749 71.9985 71.8749 71.9985 71.8749 71.9985C71.8749 71.9985 71.8749 71.9985 71.8749 71.9985C71.8749 71.9985 71.8749 71.9985 71.8749 71.9985C71.8749 71.9985 71.8749 71.9985 71.8749 71.9985C71.8749 71.9985 71.8749 71.9985 71.8749 71.9985C71.8749 71.9985 71.8749 71.9985 71.8749 71.9985C71.8749 71.9985 71.8749 71.9985 71.8749 71.9985C71.8749 71.9985 71.8749 71.9985 71.8749 71.9985C71.8749 71.9985 71.8749 71.9985 71.8749 71.9985C71.8749 71.9985 71.8749 71.9985 71.8749 71.9985C71.8749 71.9985 71.8749 71.9985 71.8749 71.9985C71.8749 71.9985 71.8749 71.9985 71.8749 71.9985C71.8749 71.9985 71.8749 71.9985 71.8749 71.9985C71.8749 71.9985 71.8749 71.9985 71.8749 71.9985C71.8749 71.9985 71.8749 71.9985 71.8749 71.9985C71.8749 71.9985 71.8749 71.9985 71.8749 71.9985C71.8749 71.9985 71.8749 71.9985 71.8749 71.9985C71.8749 71.9985 71.8749 71.9985 71.8749 71.9985C71.8749 71.9985 71.8749 71.9985 71.8749 71.9985C71.8749 71.9985 71.8749 71.9985 71.8749 71.9985C71.8749 71.9985 71.8749 71.9985 71.8749 71.9985C71.8749 71.9985 71.8749 71.9985 71.8749 71.9985C71.8749 71.9985 71.8749 71.9985 71.8749 71.9985C71.8749 71.9985 71.8749 71.9985 71.8749 71.9985C71.8749 71.9985 71.8749 71.9985 71.8749 71.9985C71.8749 71.9985 71.8749 71.9985 71.8749 71.9985C71.8749 71.9985 71.8749 71.9985 71.8749 71.9985C71.8749 71.9985 71.8749 71.9985 71.8749 71.9985C71.8749 71.9985 71.8749 71.9985 71.8749 71.9985C71.8749 71.9985 71.8749 71.9985 71.8749 71.9985C71.8749 71.9985 71.8749 71.9985 71.8749 71.9985C71.8749 71.9985 71.8749 71.9985 71.8749 71.9985C71.8749 71.9985 71.8749 71.9985 71.8749 71.9985C71.8749 71.9985 71.8749 71.9985 71.8749 71.9985C71.8749 71.9985 71.8749 71.9985 71.8749 71.9985C71.8749 71.9985 71.8749 71.9985 71.8749 71.9985C71.8749 71.9985 71.8749 71.9985 71.8749 71.9985C71.8749 71.9985 71.8749 71.9985 71.8749 71.9985C71.8749 71.9985 71.8749 71.9985 71.8749 71.9985C71.8749 71.9985 71.8749 71.9985 71.8749 71.9985C71.8749 71.9985 71.8749 71.9985 71.8749 71.9985C71.8749 71.9985 71.8749 71.9985 71.8749 71.9985C71.8749 71.9985 71.8749 71.9985 71.8749 71.9985C71.8749 71.9985 71.8749 71.9985 71.8749 71.9985C71.8749 71.9985 71.8749 71.9985 71.8749 71.9985C71.8749 71.9985 71.8749 71.9985 71.8749 71.9985C71.8749 71.9985 71.8749 71.9985 71.8749 71.9985C71.8749 71.9985 71.8749 71.9985 71.8749 71.9985C71.8749 71.9985 71.8749 71.9985 71.8749 71.9985C71.8749 71.9985 71.8749 71.9985 71.8749 71.9985C71.8749 71.9985 71.8749 71.9985 71.8749 71.9985C71.8749 71.9985 71.8749 71.9985 71.8749 71.9985C71.8749 71.9985 71.8749 71.9985 71.8749 71.9985C71.8749 71.9985 71.8749 71.9985 71.8749 71.9985C71.8749 71.9985 71.8749 71.9985 71.8749 71.9985C71.8749 71.9985 71.8749 71.9985 71.8749 71.9985C71.8749 71.9985 71.8749 71.9984 71.8749 71.9984C71.8749 71.9984 71.8749 71.9984 71.8749 71.9984C71.8749 71.9984 71.8749 71.9984 71.8749 71.9984C71.8749 71.9984 71.8749 71.9984 71.8749 71.9984C71.8749 71.9984 71.8749 71.9984 71.8749 71.9984C71.8749 71.9984 71.8749 71.9984 71.8749 71.9984C71.8749 71.9984 71.8749 71.9984 71.8749 71.9984C71.8749 71.9984 71.8749 71.9984 71.8749 71.9984C71.8749 71.9984 71.8749 71.9984 71.8749 71.9984C71.8749 71.9984 71.8749 71.9984 71.8749 71.9984C71.8749 71.9984 71.8749 71.9984 71.8749 71.9984C71.8749 71.9984 71.8749 71.9984 71.8749 71.9984C71.8749 71.9984 71.8749 71.9984 71.8749 71.9984C71.8749 71.9984 71.8749 71.9984 71.8749 71.9984C71.8749 71.9984 71.8749 71.9984 71.8749 71.9984C71.8749 71.9984 71.8749 71.9984 71.8749 71.9984C71.8749 71.9984 71.8749 71.9984 71.8749 71.9984C71.8749 71.9984 71.8749 71.9984 71.8749 71.9984C71.8749 71.9984 71.8749 71.9984 71.8749 71.9984C71.8749 71.9984 71.8749 71.9984 71.8749 71.9984C71.8749 71.9984 71.8749 71.9984 71.8749 71.9984C71.8749 71.9984 71.8749 71.9984 71.8749 71.9984C71.8749 71.9984 71.8749 71.9984 71.8749 71.9984C71.8749 71.9984 71.8749 71.9984 71.8749 71.9984C71.8749 71.9984 71.8749 71.9984 71.8749 71.9984C71.8749 71.9984 71.8749 71.9984 71.8749 71.9984C71.8749 71.9984 71.8749 71.9984 71.8749 71.9984C71.8749 71.9984 71.8749 71.9984 71.8749 71.9984C71.8749 71.9984 71.8749 71.9984 71.8749 71.9984C71.8749 71.9984 71.8749 71.9984 71.8749 71.9984C71.8749 71.9984 71.8749 71.9984 71.8749 71.9984C71.8749 71.9984 71.8749 71.9984 71.8749 71.9984C71.8749 71.9984 71.8749 71.9984 71.8749 71.9984C71.8749 71.9984 71.8749 71.9984 71.8749 71.9984C71.8749 71.9984 71.8749 71.9984 71.8749 71.9984C71.8749 71.9984 71.8749 71.9984 71.8749 71.9984C71.8749 71.9984 71.8749 71.9984 71.8749 71.9984C71.8749 71.9984 71.8749 71.9984 71.8749 71.9984C71.8749 71.9984 71.8749 71.9984 71.8749 71.9984C71.8749 71.9984 71.8749 71.9984 71.8749 71.9984C71.8749 71.9984 71.8749 71.9984 71.8749 71.9984C71.8749 71.9984 71.8749 71.9984 71.8749 71.9984C71.8749 71.9984 71.8749 71.9984 71.8749 71.9984C71.8749 71.9984 71.8749 71.9984 71.8749 71.9984C71.8749 71.9984 71.8749 71.9984 71.8749 71.9984C71.8749 71.9984 71.8749 71.9984 71.8749 71.9984C71.8749 71.9984 71.8749 71.9984 71.8749 71.9984C71.8749 71.9984 71.8749 71.9984 71.8749 71.9984C71.8749 71.9984 71.8749 71.9984 71.8749 71.9984C71.8749 71.9984 71.8749 71.9984 71.8749 71.9984C71.8749 71.9984 71.8749 71.9984 71.8749 71.9984C71.8749 71.9984 71.8749 71.9984 71.8749 71.9984C71.8749 71.9984 71.8749 71.9984 71.8749 71.9984C71.8749 71.9984 71.8749 71.9984 71.8749 71.9984C71.8749 71.9984 71.8749 71.9984 71.8749 71.9984C71.8749 71.9984 71.8749 71.9984 71.8749 71.9984C71.8749 71.9984 71.8749 71.9984 71.8749 71.9984C71.8749 71.9984 71.8749 71.9984 71.8749 71.9984C71.8749 71.9984 71.8749 71.9984 71.8749 71.9984C71.8749 71.9984 71.8749 71.9984 71.8749 71.9984C71.8749 71.9984 71.8749 71.9984 71.8749 71.9984C71.8749 71.9984 71.8749 71.9984 71.8749 71.9984C71.8749 71.9984 71.8749 71.9984 71.8749 71.9984C71.8749 71.9984 71.8749 71.9984 71.8749 71.9984C71.8749 71.9984 71.8749 71.9984 71.8749 71.9984C71.8749 71.9984 71.8749 71.9984 71.8749 71.9984C71.8749 71.9984 71.8749 71.9984 71.8749 71.9984C71.8749 71.9984 71.8749 71.9984 71.8749 71.9984C71.8749 71.9984 71.8749 71.9984 71.8749 71.9984C71.8749 71.9984 71.8749 71.9984 71.8749 71.9984C71.8749 71.9984 71.8749 71.9984 71.8749 71.9984C71.8749 71.9984 71.8749 71.9984 71.8749 71.9984C71.8749 71.9984 71.8749 71.9984 71.8749 71.9984C71.8749 71.9984 71.8749 71.9984 71.8749 71.9984C71.8749 71.9984 71.8749 71.9984 71.8749 71.9984C71.8749 71.9984 71.8749 71.9984 71.8749 71.9984C71.8749 71.9984 71.8749 71.9984 71.8749 71.9984C71.8749 71.9984 71.8749 71.9984 71.8749 71.9984C71.8749 71.9984 71.8749 71.9984 71.8749 71.9984C71.8749 71.9984 71.8749 71.9984 71.8749 71.9984C71.8749 71.9984 71.8749 71.9984 71.8749 71.9984C71.8749 71.9984 71.8749 71.9984 71.8749 71.9984C71.8749 71.9984 71.8749 71.9984 71.8749 71.9984C71.8749 71.9984 71.8749 71.9984 71.8749 71.9984C71.8749 71.9984 71.8749 71.9984 71.8749 71.9984C71.8749 71.9984 71.8749 71.9984 71.8749 71.9984C71.8749 71.9984 71.8749 71.9984 71.8749 71.9984C71.8749 71.9984 71.8749 71.9984 71.8749 71.9984C71.8749 71.9984 71.8749 71.9984 71.8749 71.9984C71.8749 71.9984 71.8749 71.9984 71.8749 71.9984C71.8749 71.9984 71.8749 71.9984 71.8749 71.9984C71.8749 71.9984 71.8749 71.9984 71.8749 71.9984C71.8749 71.9984 71.8749 71.9984 71.8749 71.9984C71.8749 71.9984 71.8749 71.9984 71.8749 71.9984C71.8749 71.9984 71.8749 71.9984 71.8749 71.9984C71.8749 71.9984 71.8749 71.9984 71.8749 71.9984C71.8749 71.9984 71.8749 71.9984 71.8749 71.9984C71.8749 71.9984 71.8749 71.9984 71.8749 71.9984C71.8749 71.9984 71.8749 71.9984 71.8749 71.9984C71.8749 71.9984 71.8749 71.9984 71.8749 71.9984C71.8749 71.9984 71.8749 71.9984 71.8749 71.9984C71.8749 71.9984 71.8749 71.9984 71.8749 71.9984C71.8749 71.9984 71.8749 71.9984 71.8749 71.9984C71.8749 71.9984 71.8749 71.9984 71.8749 71.9984C71.8749 71.9984 71.8749 71.9984 71.8749 71.9984C71.8749 71.9984 71.8749 71.9984 71.8749 71.9983C71.8749 71.9983 71.8749 71.9983 71.8749 71.9983C71.8749 71.9983 71.8749 71.9983 71.8749 71.9983C71.8749 71.9983 71.8749 71.9983 71.8749 71.9983C71.8749 71.9983 71.8749 71.9983 71.8749 71.9983C71.8749 71.9983 71.8749 71.9983 71.8749 71.9983C71.8749 71.9983 71.8749 71.9983 71.8749 71.9983C71.8749 71.9983 71.8749 71.9983 71.8749 71.9983C71.8749 71.9983 71.8749 71.9983 71.8749 71.9983C71.8749 71.9983 71.8749 71.9983 71.8749 71.9983C71.8749 71.9983 71.8749 71.9983 71.8749 71.9983C71.8749 71.9983 71.8749 71.9983 71.8749 71.9983C71.8749 71.9983 71.8749 71.9983 71.8749 71.9983C71.8749 71.9983 71.8749 71.9983 71.8749 71.9983C71.8749 71.9983 71.8749 71.9983 71.8749 71.9983C71.8749 71.9983 71.8749 71.9983 71.8749 71.9983C71.8749 71.9983 71.8749 71.9983 71.8749 71.9983C71.8749 71.9983 71.8749 71.9983 71.8749 71.9983C71.8749 71.9983 71.8749 71.9983 71.8749 71.9983C71.8749 71.9983 71.8749 71.9983 71.8749 71.9983C71.8749 71.9983 71.8749 71.9983 71.8749 71.9983C71.8749 71.9983 71.8749 71.9983 71.8749 71.9983C71.8749 71.9983 71.8749 71.9983 71.8749 71.9983C71.8749 71.9983 71.8749 71.9983 71.8749 71.9983C71.8749 71.9983 71.8749 71.9983 71.8749 71.9983C71.8749 71.9983 71.8749 71.9983 71.8749 71.9983C71.8749 71.9983 71.8749 71.9983 71.8749 71.9983C71.8749 71.9983 71.8749 71.9983 71.8749 71.9983C71.8749 71.9983 71.8749 71.9983 71.8749 71.9983C71.8749 71.9983 71.8749 71.9983 71.8749 71.9983C71.8749 71.9983 71.8749 71.9983 71.8749 71.9983C71.8749 71.9983 71.8749 71.9983 71.8749 71.9983C71.8749 71.9983 71.8749 71.9983 71.8749 71.9983C71.8749 71.9983 71.8749 71.9983 71.8749 71.9983C71.8749 71.9983 71.8749 71.9983 71.8749 71.9983C71.8749 71.9983 71.8749 71.9983 71.8749 71.9983C71.8749 71.9983 71.8749 71.9983 71.8749 71.9983C71.8749 71.9983 71.8749 71.9983 71.8749 71.9983C71.8749 71.9983 71.8749 71.9983 71.8749 71.9983C71.8749 71.9983 71.8749 71.9983 71.8749 71.9983C71.8749 71.9983 71.8749 71.9983 71.8749 71.9983C71.8749 71.9983 71.8749 71.9983 71.8749 71.9983C71.8749 71.9983 71.8749 71.9983 71.8749 71.9983C71.8749 71.9983 71.8749 71.9983 71.8749 71.9983C71.8749 71.9983 71.8749 71.9983 71.8749 71.9983C71.8749 71.9983 71.8749 71.9983 71.8749 71.9983C71.8749 71.9983 71.8749 71.9983 71.8749 71.9983C71.8749 71.9983 71.8749 71.9983 71.8749 71.9983C71.8749 71.9983 71.8749 71.9983 71.8749 71.9983C71.8749 71.9983 71.8749 71.9983 71.8749 71.9983C71.8749 71.9983 71.8749 71.9983 71.8749 71.9983C71.8749 71.9983 71.8749 71.9983 71.8749 71.9983C71.8749 71.9983 71.8749 71.9983 71.8749 71.9983C71.8749 71.9983 71.8749 71.9983 71.8749 71.9983C71.8749 71.9983 71.8749 71.9983 71.8749 71.9983C71.8749 71.9983 71.8749 71.9983 71.8749 71.9983C71.8749 71.9983 71.8749 71.9983 71.8749 71.9983C71.8749 71.9983 71.8749 71.9983 71.8749 71.9983C71.8749 71.9983 71.8749 71.9983 71.8749 71.9983C71.8749 71.9983 71.8749 71.9983 71.8749 71.9983C71.8749 71.9983 71.8749 71.9983 71.8749 71.9983C71.8749 71.9983 71.8749 71.9983 71.8749 71.9983C71.8749 71.9983 71.8749 71.9983 71.8749 71.9983C71.8749 71.9983 71.8749 71.9983 71.8749 71.9983C71.8749 71.9983 71.8749 71.9983 71.8749 71.9983C71.8749 71.9983 71.8749 71.9983 71.8749 71.9983C71.8749 71.9983 71.8749 71.9983 71.8749 71.9983C71.8749 71.9983 71.8749 71.9983 71.8749 71.9983C71.8749 71.9983 71.8749 71.9983 71.8749 71.9983C71.8749 71.9983 71.8749 71.9983 71.8749 71.9983C71.8749 71.9983 71.8749 71.9983 71.8749 71.9983C71.8749 71.9983 71.8749 71.9983 71.8749 71.9983C71.8749 71.9983 71.8749 71.9983 71.8749 71.9983C71.8749 71.9983 71.8749 71.9983 71.8749 71.9983C71.8749 71.9983 71.8749 71.9983 71.8749 71.9983C71.8749 71.9983 71.8749 71.9983 71.8749 71.9983C71.8749 71.9983 71.8749 71.9983 71.8749 71.9983C71.8749 71.9983 71.8749 71.9983 71.8749 71.9983C71.8749 71.9983 71.8749 71.9983 71.8749 71.9983C71.8749 71.9983 71.8749 71.9983 71.8749 71.9983C71.8749 71.9983 71.8749 71.9983 71.8749 71.9983C71.8749 71.9983 71.8749 71.9983 71.8749 71.9983C71.8749 71.9983 71.8749 71.9983 71.8749 71.9983C71.8749 71.9983 71.8749 71.9983 71.8749 71.9983C71.8749 71.9983 71.8749 71.9983 71.8749 71.9983C71.8749 71.9983 71.8749 71.9983 71.8749 71.9983C71.8749 71.9983 71.8749 71.9983 71.8749 71.9983C71.8749 71.9983 71.8749 71.9983 71.8749 71.9983C71.8749 71.9983 71.8749 71.9983 71.8749 71.9983C71.8749 71.9983 71.8749 71.9983 71.8749 71.9983C71.8749 71.9983 71.8749 71.9983 71.8749 71.9983C71.8749 71.9983 71.8749 71.9983 71.8749 71.9983C71.8749 71.9983 71.8749 71.9983 71.8749 71.9983C71.8749 71.9983 71.8749 71.9983 71.8749 71.9983C71.8749 71.9983 71.8749 71.9983 71.8749 71.9983C71.8749 71.9983 71.8749 71.9983 71.8749 71.9983C71.8749 71.9983 71.8749 71.9983 71.8749 71.9983C71.8749 71.9983 71.8749 71.9983 71.8749 71.9983C71.8749 71.9983 71.8749 71.9983 71.8749 71.9983C71.8749 71.9983 71.8749 71.9983 71.8749 71.9983C71.8749 71.9983 71.8749 71.9983 71.8749 71.9983C71.8749 71.9983 71.8749 71.9983 71.8749 71.9983C71.8749 71.9983 71.8749 71.9983 71.8749 71.9983C71.8749 71.9983 71.8749 71.9983 71.8749 71.9983C71.8749 71.9983 71.8749 71.9983 71.8749 71.9983C71.8749 71.9983 71.8749 71.9983 71.8749 71.9982C71.8749 71.9982 71.8749 71.9982 71.8749 71.9982C71.8749 71.9982 71.8749 71.9982 71.8749 71.9982C71.8749 71.9982 71.8749 71.9982 71.8749 71.9982C71.8749 71.9982 71.8749 71.9982 71.8749 71.9982C71.8749 71.9982 71.8749 71.9982 71.8749 71.9982C71.8749 71.9982 71.8749 71.9982 71.8749 71.9982C71.8749 71.9982 71.8749 71.9982 71.8749 71.9982C71.8749 71.9982 71.8749 71.9982 71.8749 71.9982C71.8749 71.9982 71.8749 71.9982 71.8749 71.9982C71.8749 71.9982 71.8749 71.9982 71.8749 71.9982C71.8749 71.9982 71.8749 71.9982 71.8749 71.9982C71.8749 71.9982 71.8749 71.9982 71.8749 71.9982C71.8749 71.9982 71.8749 71.9982 71.8749 71.9982C71.8749 71.9982 71.8749 71.9982 71.8749 71.9982C71.8749 71.9982 71.8749 71.9982 71.8749 71.9982C71.8749 71.9982 71.8749 71.9982 71.8749 71.9982C71.8749 71.9982 71.8749 71.9982 71.8749 71.9982C71.8749 71.9982 71.8749 71.9982 71.8749 71.9982C71.8749 71.9982 71.8749 71.9982 71.8749 71.9982C71.8749 71.9982 71.8749 71.9982 71.8749 71.9982C71.8749 71.9982 71.8749 71.9982 71.8749 71.9982C71.8749 71.9982 71.8749 71.9982 71.8749 71.9982C71.8749 71.9982 71.8749 71.9982 71.8749 71.9982C71.8749 71.9982 71.8749 71.9982 71.8749 71.9982C71.8749 71.9982 71.8749 71.9982 71.8749 71.9982C71.8749 71.9982 71.8749 71.9982 71.8749 71.9982C71.8749 71.9982 71.8749 71.9982 71.8749 71.9982C71.8749 71.9982 71.8749 71.9982 71.8749 71.9982C71.8749 71.9982 71.8749 71.9982 71.8749 71.9982C71.8749 71.9982 71.8749 71.9982 71.8749 71.9982C71.8749 71.9982 71.8749 71.9982 71.8749 71.9982C71.8749 71.9982 71.8749 71.9982 71.8749 71.9982C71.8749 71.9982 71.8749 71.9982 71.8749 71.9982C71.8749 71.9982 71.8749 71.9982 71.8749 71.9982C71.8749 71.9982 71.8749 71.9982 71.8749 71.9982C71.8749 71.9982 71.8749 71.9982 71.8749 71.9982C71.8749 71.9982 71.8749 71.9982 71.8749 71.9982C71.8749 71.9982 71.8749 71.9982 71.8749 71.9982C71.8749 71.9982 71.8749 71.9982 71.8749 71.9982C71.8749 71.9982 71.8749 71.9982 71.8749 71.9982C71.8749 71.9982 71.8749 71.9982 71.8749 71.9982C71.8749 71.9982 71.8749 71.9982 71.8749 71.9982C71.8749 71.9982 71.8749 71.9982 71.8749 71.9982C71.8749 71.9982 71.8749 71.9982 71.8749 71.9982C71.8749 71.9982 71.8749 71.9982 71.8749 71.9982C71.8749 71.9982 71.8749 71.9982 71.8749 71.9982C71.8749 71.9982 71.8749 71.9982 71.8749 71.9982C71.8749 71.9982 71.8749 71.9982 71.8749 71.9982C71.8749 71.9982 71.8749 71.9982 71.8749 71.9982C71.8749 71.9982 71.8749 71.9982 71.8749 71.9982C71.8749 71.9982 71.8749 71.9982 71.8749 71.9982C71.8749 71.9982 71.8749 71.9982 71.8749 71.9982C71.8749 71.9982 71.8749 71.9982 71.8749 71.9982C71.8749 71.9982 71.8749 71.9982 71.8749 71.9982C71.8749 71.9982 71.8749 71.9982 71.8749 71.9982C71.8749 71.9982 71.8749 71.9982 71.8749 71.9982C71.8749 71.9982 71.8749 71.9982 71.8749 71.9982C71.8749 71.9982 71.8749 71.9982 71.8749 71.9982C71.8749 71.9982 71.8749 71.9982 71.8749 71.9982C71.8749 71.9982 71.8749 71.9982 71.8749 71.9982C71.8749 71.9982 71.8749 71.9982 71.8749 71.9982C71.8749 71.9982 71.8749 71.9982 71.8749 71.9982C71.8749 71.9982 71.8749 71.9982 71.8749 71.9982C71.8749 71.9982 71.8749 71.9982 71.8749 71.9982C71.8749 71.9982 71.8749 71.9982 71.8749 71.9982C71.8749 71.9982 71.8749 71.9982 71.8749 71.9982C71.8749 71.9982 71.8749 71.9982 71.8749 71.9982C71.8749 71.9982 71.8749 71.9982 71.8749 71.9982C71.8749 71.9982 71.8749 71.9982 71.8749 71.9982C71.8749 71.9982 71.8749 71.9982 71.8749 71.9982C71.8749 71.9982 71.8749 71.9982 71.8749 71.9982C71.8749 71.9982 71.8749 71.9982 71.8749 71.9982C71.8749 71.9982 71.8749 71.9982 71.8749 71.9982C71.8749 71.9982 71.8749 71.9982 71.8749 71.9982C71.8749 71.9982 71.8749 71.9982 71.8749 71.9982C71.8749 71.9982 71.8749 71.9982 71.8749 71.9982C71.8749 71.9982 71.8749 71.9982 71.8749 71.9982C71.8749 71.9982 71.8749 71.9982 71.8749 71.9982C71.8749 71.9982 71.8749 71.9982 71.8749 71.9982C71.8749 71.9982 71.8749 71.9982 71.8749 71.9982C71.8749 71.9982 71.8749 71.9982 71.8749 71.9982C71.8749 71.9982 71.8749 71.9982 71.8749 71.9982C71.8749 71.9982 71.8749 71.9982 71.8749 71.9982C71.8749 71.9982 71.8749 71.9982 71.8749 71.9982C71.8749 71.9982 71.8749 71.9982 71.8749 71.9982C71.8749 71.9982 71.8749 71.9982 71.8749 71.9982C71.8749 71.9982 71.8749 71.9982 71.8749 71.9982C71.8749 71.9982 71.8749 71.9982 71.8749 71.9982C71.8749 71.9982 71.8749 71.9982 71.8749 71.9982C71.8749 71.9982 71.8749 71.9982 71.8749 71.9982C71.8749 71.9982 71.8749 71.9982 71.8749 71.9982C71.8749 71.9982 71.8749 71.9982 71.8749 71.9982C71.8749 71.9982 71.8749 71.9982 71.8749 71.9982C71.8749 71.9982 71.8749 71.9982 71.8749 71.9982C71.8749 71.9982 71.8749 71.9982 71.8749 71.9982C71.8749 71.9982 71.8749 71.9982 71.8749 71.9982C71.8749 71.9982 71.8749 71.9982 71.8749 71.9982C71.8749 71.9982 71.8749 71.9982 71.8749 71.9982C71.8749 71.9982 71.8749 71.9982 71.8749 71.9982C71.8749 71.9982 71.8749 71.9982 71.8749 71.9982C71.8749 71.9982 71.8749 71.9982 71.8749 71.9982C71.8749 71.9982 71.8749 71.9982 71.8749 71.9982C71.8749 71.9982 71.8749 71.9982 71.8749 71.9982C71.8749 71.9982 71.8749 71.9982 71.8749 71.9982C71.8749 71.9982 71.8749 71.9982 71.8749 71.9982C71.8749 71.9981 71.8749 71.9981 71.8749 71.9981C71.8749 71.9981 71.8749 71.9981 71.8749 71.9981C71.8749 71.9981 71.8749 71.9981 71.8749 71.9981C71.8749 71.9981 71.8749 71.9981 71.8749 71.9981C71.8749 71.9981 71.8749 71.9981 71.8749 71.9981C71.8749 71.9981 71.8749 71.9981 71.8749 71.9981C71.8749 71.9981 71.8749 71.9981 71.8749 71.9981C71.8749 71.9981 71.8749 71.9981 71.8749 71.9981C71.8749 71.9981 71.8749 71.9981 71.8749 71.9981C71.8749 71.9981 71.8749 71.9981 71.8749 71.9981C71.8749 71.9981 71.8749 71.9981 71.8749 71.9981C71.8749 71.9981 71.8749 71.9981 71.8749 71.9981C71.8749 71.9981 71.8749 71.9981 71.8749 71.9981C71.8749 71.9981 71.8749 71.9981 71.8749 71.9981C71.8749 71.9981 71.8749 71.9981 71.8749 71.9981C71.8749 71.9981 71.8749 71.9981 71.8749 71.9981C71.8749 71.9981 71.8749 71.9981 71.8749 71.9981C71.8749 71.9981 71.8749 71.9981 71.8749 71.9981C71.8749 71.9981 71.8749 71.9981 71.8749 71.9981C71.8749 71.9981 71.8749 71.9981 71.8749 71.9981C71.8749 71.9981 71.8749 71.9981 71.8749 71.9981C71.8749 71.9981 71.8749 71.9981 71.8749 71.9981C71.8749 71.9981 71.8749 71.9981 71.8749 71.9981C71.8749 71.9981 71.8749 71.9981 71.8749 71.9981C71.8749 71.9981 71.8749 71.9981 71.8749 71.9981C71.8749 71.9981 71.8749 71.9981 71.8749 71.9981C71.8749 71.9981 71.8749 71.9981 71.8749 71.9981C71.8749 71.9981 71.8749 71.9981 71.8749 71.9981C71.8749 71.9981 71.8749 71.9981 71.8749 71.9981C71.8749 71.9981 71.8749 71.9981 71.8749 71.9981C71.8749 71.9981 71.8749 71.9981 71.8749 71.9981C71.8749 71.9981 71.8749 71.9981 71.8749 71.9981C71.8749 71.9981 71.8749 71.9981 71.8749 71.9981C71.8749 71.9981 71.8749 71.9981 71.8749 71.9981C71.8749 71.9981 71.8749 71.9981 71.8749 71.9981C71.8749 71.9981 71.8749 71.9981 71.8749 71.9981C71.8749 71.9981 71.8749 71.9981 71.8749 71.9981C71.8749 71.9981 71.8749 71.9981 71.8749 71.9981C71.8749 71.9981 71.8749 71.9981 71.8749 71.9981C71.8749 71.9981 71.8749 71.9981 71.8749 71.9981C71.8749 71.9981 71.8749 71.9981 71.8749 71.9981C71.8749 71.9981 71.8749 71.9981 71.8749 71.9981C71.8749 71.9981 71.8749 71.9981 71.8749 71.9981C71.8749 71.9981 71.8749 71.9981 71.8749 71.9981C71.8749 71.9981 71.8749 71.9981 71.8749 71.9981C71.8749 71.9981 71.8749 71.9981 71.8749 71.9981C71.8749 71.9981 71.8749 71.9981 71.8749 71.9981C71.8749 71.9981 71.8749 71.9981 71.8749 71.9981C71.8749 71.9981 71.8749 71.9981 71.8749 71.9981C71.8749 71.9981 71.8749 71.9981 71.8749 71.9981C71.8749 71.9981 71.8749 71.9981 71.8749 71.9981C71.8749 71.9981 71.8749 71.9981 71.8749 71.9981C71.8749 71.9981 71.8749 71.9981 71.8749 71.9981C71.8749 71.9981 71.8749 71.9981 71.8749 71.9981C71.8749 71.9981 71.8749 71.9981 71.8749 71.9981C71.8749 71.9981 71.8749 71.9981 71.8749 71.9981C71.8749 71.9981 71.8749 71.9981 71.8749 71.9981C71.8749 71.9981 71.8749 71.9981 71.8749 71.9981C71.8749 71.9981 71.8749 71.9981 71.8749 71.9981C71.8749 71.9981 71.8749 71.9981 71.8749 71.9981C71.8749 71.9981 71.8749 71.9981 71.8749 71.9981C71.8749 71.9981 71.8749 71.9981 71.8749 71.9981C71.8749 71.9981 71.8749 71.9981 71.8749 71.9981C71.8749 71.9981 71.8749 71.9981 71.8749 71.9981C71.8749 71.9981 71.8749 71.9981 71.8749 71.9981C71.8749 71.9981 71.8749 71.9981 71.8749 71.9981C71.8749 71.9981 71.8749 71.9981 71.8749 71.9981C71.8749 71.9981 71.8749 71.9981 71.8749 71.9981C71.8749 71.9981 71.8749 71.9981 71.8749 71.9981C71.8749 71.9981 71.8749 71.9981 71.8749 71.9981C71.8749 71.9981 71.8749 71.9981 71.8749 71.9981C71.8749 71.9981 71.8749 71.9981 71.8749 71.9981C71.8749 71.9981 71.8749 71.9981 71.8749 71.9981C71.8749 71.9981 71.8749 71.9981 71.8749 71.9981C71.8749 71.9981 71.8749 71.9981 71.8749 71.9981C71.8749 71.9981 71.8749 71.9981 71.8749 71.9981C71.8749 71.9981 71.8749 71.9981 71.8749 71.9981C71.8749 71.9981 71.8749 71.9981 71.8749 71.9981C71.8749 71.9981 71.8749 71.9981 71.8749 71.9981C71.8749 71.9981 71.8749 71.9981 71.8749 71.9981C71.8749 71.9981 71.8749 71.9981 71.8749 71.9981C71.8749 71.9981 71.8749 71.9981 71.8749 71.9981C71.8749 71.9981 71.8749 71.9981 71.8749 71.9981C71.8749 71.9981 71.8749 71.9981 71.8749 71.9981C71.8749 71.9981 71.8749 71.9981 71.8749 71.9981C71.8749 71.9981 71.8749 71.9981 71.8749 71.9981C71.8749 71.9981 71.8749 71.9981 71.8749 71.9981C71.8749 71.9981 71.8749 71.9981 71.8749 71.9981C71.8749 71.9981 71.8749 71.9981 71.8749 71.9981C71.8749 71.9981 71.8749 71.9981 71.8749 71.9981C71.8749 71.9981 71.8749 71.9981 71.8749 71.9981C71.8749 71.9981 71.8749 71.9981 71.8749 71.9981C71.8749 71.9981 71.8749 71.9981 71.8749 71.9981C71.8749 71.9981 71.8749 71.9981 71.8749 71.9981C71.8749 71.9981 71.8749 71.9981 71.8749 71.9981C71.8749 71.9981 71.8749 71.9981 71.8749 71.9981C71.8749 71.9981 71.8749 71.9981 71.8749 71.9981C71.8749 71.9981 71.8749 71.9981 71.8749 71.9981C71.8749 71.9981 71.8749 71.9981 71.8749 71.9981C71.8749 71.9981 71.8749 71.9981 71.8749 71.9981C71.8749 71.9981 71.8749 71.9981 71.8749 71.9981C71.8749 71.9981 71.8749 71.9981 71.8749 71.9981C71.8749 71.9981 71.8749 71.9981 71.8749 71.9981C71.8749 71.9981 71.8749 71.9981 71.8749 71.9981C71.8749 71.9981 71.8749 71.9981 71.8749 71.9981C71.8749 71.9981 71.8749 71.998 71.8749 71.998C71.8749 71.998 71.8749 71.998 71.8749 71.998C71.8749 71.998 71.8749 71.998 71.8749 71.998C71.8749 71.998 71.8749 71.998 71.8749 71.998C71.8749 71.998 71.8749 71.998 71.8749 71.998C71.8749 71.998 71.8749 71.998 71.8749 71.998C71.8749 71.998 71.8749 71.998 71.8749 71.998H67.1249ZM67.1249 71.9985C67.1249 77.5904 62.5918 82.1235 56.9999 82.1235V86.8735C65.2152 86.8735 71.8749 80.2138 71.8749 71.9985H67.1249ZM56.9999 82.1235C51.4081 82.1235 46.8749 77.5904 46.8749 71.9985H42.1249C42.1249 80.2138 48.7847 86.8735 56.9999 86.8735V82.1235ZM46.8749 71.9985C46.8749 71.9982 46.8749 71.9982 46.8749 71.9981L42.1249 71.998C42.1249 71.9982 42.1249 71.9985 42.1249 71.9985H46.8749ZM46.8749 71.9981C46.875 70.1289 47.3794 68.3846 48.258 66.8863L44.1605 64.4836C42.8663 66.6907 42.125 69.2614 42.1249 71.998L46.8749 71.9981ZM58.1281 56.5984C57.4457 57.0531 56.5546 57.0531 55.8722 56.5984L58.5061 52.6456C57.5935 52.0374 56.4069 52.0374 55.4942 52.6455L58.1281 56.5984Z" fill="#374151"/>
</g>
</svg>
