<svg width="18" height="18" viewBox="0 0 18 18" fill="none" xmlns="http://www.w3.org/2000/svg">
<path fill="currentColor" d="M16 2V1H17V2H16ZM7.70711 11.7071C7.31658 12.0976 6.68342 12.0976 6.29289 11.7071C5.90237 11.3166 5.90237 10.6834 6.29289 10.2929L7.70711 11.7071ZM15 9.2V2H17V9.2H15ZM16 3H8.8V1H16V3ZM16.7071 2.70711L7.70711 11.7071L6.29289 10.2929L15.2929 1.29289L16.7071 2.70711Z"/>
<path stroke="currentColor" d="M14 13.1427L14 14.0951C14 14.6003 13.7993 15.0848 13.4421 15.4421C13.0848 15.7993 12.6003 16 12.0951 16L3.90488 16C3.39967 16 2.91516 15.7993 2.55793 15.4421C2.20069 15.0848 2 14.6003 2 14.0951L2 5.90488C2 5.39968 2.20069 4.91516 2.55793 4.55793C2.91516 4.20069 3.39967 4 3.90488 4L4.85732 4" stroke-width="2" stroke-linecap="round" stroke-linejoin="round"/>
</svg>
