<svg width="19" height="18" viewBox="0 0 19 18" fill="none" xmlns="http://www.w3.org/2000/svg">
<g clip-path="url(#clip0_41802_31923)">
<path d="M7.42721 8.30773C9.72127 8.30773 11.581 6.44798 11.581 4.15386C11.581 1.85975 9.72127 0 7.42721 0C5.13314 0 3.27344 1.85975 3.27344 4.15386C3.27344 6.44798 5.13314 8.30773 7.42721 8.30773Z" fill="currentColor"/>
<path d="M18.5005 8.30461C18.5025 7.72596 18.3491 7.15738 18.0562 6.65829C17.7634 6.15921 17.3419 5.74793 16.8358 5.46744C16.3297 5.18695 15.7575 5.04753 15.1791 5.06377C14.6007 5.08001 14.0373 5.2513 13.5477 5.55974C13.0581 5.86819 12.6603 6.30247 12.396 6.81719C12.1316 7.33192 12.0103 7.90821 12.0448 8.48583C12.0793 9.06346 12.2683 9.62122 12.592 10.1008C12.9158 10.5805 13.3624 10.9643 13.8852 11.2123V16.1508L15.2698 17.5354L17.5774 15.2277L16.1928 13.8431L17.5774 12.4585L16.4328 11.3138C17.0407 11.0793 17.5635 10.6664 17.9325 10.1293C18.3015 9.59228 18.4995 8.95621 18.5005 8.30461ZM15.2698 8.30461C15.0872 8.30461 14.9087 8.25047 14.7569 8.14904C14.6051 8.04761 14.4868 7.90344 14.417 7.73477C14.3471 7.5661 14.3288 7.3805 14.3644 7.20144C14.4 7.02238 14.488 6.8579 14.6171 6.72881C14.7461 6.59971 14.9106 6.5118 15.0897 6.47618C15.2687 6.44056 15.4543 6.45884 15.623 6.52871C15.7917 6.59858 15.9358 6.71689 16.0373 6.86869C16.1387 7.02049 16.1928 7.19896 16.1928 7.38153C16.1928 7.62634 16.0956 7.86113 15.9225 8.03424C15.7494 8.20735 15.5146 8.30461 15.2698 8.30461Z" fill="currentColor"/>
<path d="M11.0598 10.1675C10.351 9.85146 9.58364 9.68792 8.80754 9.6875H6.03836C4.5695 9.6875 3.16079 10.271 2.12215 11.3097C1.0835 12.3484 0.5 13.7571 0.5 15.226V17.0721H12.4998V11.986C11.8773 11.5077 11.3826 10.8831 11.0598 10.1675Z" fill="currentColor"/>
</g>
<defs>
<clipPath id="clip0_41802_31923">
<rect width="18" height="18" fill="transparent" transform="translate(0.5)"/>
</clipPath>
</defs>
</svg>
