<svg width="40" height="40" viewBox="0 0 40 40" fill="none" xmlns="http://www.w3.org/2000/svg">
<rect width="40" height="40" rx="20" fill="white"/>
<path d="M20 34C27.7056 34 34 27.6944 34 20C34 12.2944 27.6944 6 20 6C12.2944 6 6 12.3056 6 20C6 27.7056 12.3056 34 20 34Z" fill="url(#paint0_linear_39318_31073)"/>
<path d="M20.6352 14.6141L16.3771 12.151C16.1481 12.0191 15.8733 12.0248 15.6439 12.1573L11.3898 14.6134C11.1604 14.7458 11.0241 14.9914 11.0178 15.2453L11.0218 20.1644C11.0214 20.4287 11.1599 20.6686 11.389 20.8004L15.6471 23.2635C15.8762 23.3954 16.1509 23.3896 16.3803 23.2572L23.9918 18.8627L26.9758 20.5877L26.9777 24.0344L23.9957 25.7561L21.0117 24.0311L21.0045 21.7552L19.0026 22.911L19.0004 24.7613C19.0024 24.8853 19.0374 25.018 19.0976 25.1223C19.1638 25.237 19.2553 25.3232 19.3616 25.3869L23.6197 27.8499C23.8488 27.9818 24.1235 27.9761 24.3529 27.8437L28.607 25.3876C28.8364 25.2551 28.9727 25.0096 28.9791 24.7557L28.9751 19.8366C28.9754 19.5722 28.8369 19.3324 28.6079 19.2005L24.3498 16.7375C24.1207 16.6056 23.8459 16.6113 23.6165 16.7438L16.005 21.1383L15.9496 21.1146L13.0106 19.4193L13.0087 15.9726L15.9907 14.2509L18.9747 15.9759L18.9758 18.2414L20.9778 17.0855L20.98 15.2353C20.9803 14.9709 20.8419 14.7311 20.6128 14.5992L20.6352 14.6141Z" fill="white"/>
<defs>
<linearGradient id="paint0_linear_39318_31073" x1="0.878983" y1="8.27373" x2="29.7526" y2="25.9809" gradientUnits="userSpaceOnUse">
<stop stop-color="#A229C5"/>
<stop offset="1" stop-color="#7B3FE4"/>
</linearGradient>
</defs>
</svg>
