<svg width="286" height="18" viewBox="0 0 286 18" fill="none" xmlns="http://www.w3.org/2000/svg">
<path d="M113.816 0C111.795 0 109.592 1.09191 107.263 3.24264C106.158 4.26177 105.204 5.35367 104.488 6.2272C104.488 6.2272 104.488 6.2272 104.495 6.23383V6.2272C104.495 6.2272 105.624 7.52427 106.873 8.91397C107.545 8.07353 108.512 6.92867 109.623 5.89633C111.695 3.98383 113.045 3.58014 113.816 3.58014C116.723 3.58014 119.084 6.00883 119.084 8.99339C119.084 11.9581 116.717 14.3867 113.816 14.4066C113.685 14.4066 113.515 14.3867 113.302 14.3405C114.149 14.7242 115.059 15.0022 115.926 15.0022C121.249 15.0022 122.292 11.3427 122.36 11.0779C122.517 10.4096 122.599 9.70809 122.599 8.98677C122.599 4.03677 118.657 0 113.816 0Z" fill="url(#paint0_linear_104_1942)"/>
<path d="M95.2235 17.9991C97.2448 17.9991 99.4482 16.9072 101.777 14.7564C102.882 13.7373 103.836 12.6453 104.552 11.7719C104.552 11.7719 104.552 11.7719 104.546 11.7652V11.7719C104.546 11.7719 103.416 10.4748 102.166 9.08509C101.495 9.92553 100.528 11.0704 99.4168 12.1027C97.3453 14.0152 95.9956 14.4189 95.2235 14.4189C92.3171 14.4123 89.9568 11.9836 89.9568 8.99906C89.9568 6.03435 92.3234 3.60568 95.2235 3.58582C95.3553 3.58582 95.5249 3.60568 95.7383 3.652C94.8908 3.26818 93.9806 2.99023 93.1143 2.99023C87.791 2.99023 86.7553 6.64979 86.6799 6.90788C86.523 7.58288 86.4414 8.27773 86.4414 8.99906C86.4414 13.9623 90.3836 17.9991 95.2235 17.9991Z" fill="url(#paint1_linear_104_1942)"/>
<path d="M115.914 14.9228C113.19 14.85 110.358 12.5867 109.781 12.0242C108.287 10.5684 104.84 6.63089 104.57 6.31986C102.047 3.3353 98.6256 0 95.2232 0H95.217H95.2107C91.0801 0.019853 87.6087 2.97133 86.6797 6.90883C86.7487 6.65073 88.1109 2.91839 93.1077 3.05073C95.8321 3.12353 98.6758 5.41986 99.2596 5.98236C100.754 7.43823 104.2 11.3758 104.47 11.6867C106.994 14.6647 110.415 18 113.817 18H113.823H113.83C117.96 17.9802 121.438 15.0287 122.361 11.0912C122.285 11.3492 120.917 15.0486 115.914 14.9228Z" fill="#29ABE2"/>
<path d="M131.147 13.3283C131.401 13.3283 131.606 13.1117 131.606 12.8446V6.26693C131.606 5.99978 131.401 5.7832 131.147 5.7832H130.652C130.399 5.7832 130.193 5.99978 130.193 6.26693V12.8446C130.193 13.1117 130.399 13.3283 130.652 13.3283H131.147Z" fill="black"/>
<path d="M141.955 13.3283C142.209 13.3283 142.414 13.1117 142.414 12.8446V6.26693C142.414 5.99978 142.209 5.7832 141.955 5.7832H141.48C141.226 5.7832 141.021 5.99978 141.021 6.26693V10.7743L138.178 6.00938C138.094 5.86862 137.948 5.7832 137.79 5.7832H136.766C136.513 5.7832 136.307 5.99978 136.307 6.26693V12.8446C136.307 13.1117 136.513 13.3283 136.766 13.3283H137.241C137.494 13.3283 137.7 13.1117 137.7 12.8446V7.97543L140.815 13.1054C140.9 13.2443 141.045 13.3283 141.202 13.3283H141.955Z" fill="black"/>
<path d="M152.375 7.17729V6.26693C152.375 5.99978 152.169 5.7832 151.916 5.7832H146.908C146.655 5.7832 146.449 5.99978 146.449 6.26693V7.17729H148.711V12.8446C148.711 13.1117 148.916 13.3283 149.169 13.3283H149.655C149.908 13.3283 150.114 13.1117 150.114 12.8446V7.17729H152.375Z" fill="black"/>
<path d="M160.427 13.3283C160.68 13.3283 160.884 13.1117 160.884 12.8446V12.4286C160.884 12.1614 160.68 11.9448 160.427 11.9448H157.796V10.1996H160.133C160.387 10.1996 160.592 9.98302 160.592 9.71587V9.37436C160.592 9.10721 160.387 8.89063 160.133 8.89063H157.796V7.16665H160.427C160.68 7.16665 160.884 6.95009 160.884 6.68293V6.26693C160.884 5.99978 160.68 5.7832 160.427 5.7832H156.861C156.608 5.7832 156.402 5.99978 156.402 6.26693V12.8446C156.402 13.1117 156.608 13.3283 156.861 13.3283H160.427Z" fill="black"/>
<path d="M168.684 13.0641C168.762 13.2262 168.92 13.3283 169.092 13.3283H169.607C169.952 13.3283 170.174 12.9422 170.013 12.6201L168.831 10.2422C169.77 9.95483 170.355 9.15668 170.355 8.10313C170.355 6.79418 169.467 5.7832 168.074 5.7832H165.736C165.483 5.7832 165.277 5.99978 165.277 6.26693V12.8446C165.277 13.1117 165.483 13.3283 165.736 13.3283H166.222C166.476 13.3283 166.681 13.1117 166.681 12.8446V10.4231H167.407L168.684 13.0641ZM166.681 9.15668V7.06024H167.812C168.518 7.06024 168.932 7.47527 168.932 8.11378C168.932 8.73101 168.518 9.15668 167.812 9.15668H166.681Z" fill="black"/>
<path d="M180.313 13.3283C180.565 13.3283 180.77 13.1117 180.77 12.8446V6.26693C180.77 5.99978 180.565 5.7832 180.313 5.7832H179.837C179.584 5.7832 179.378 5.99978 179.378 6.26693V10.7743L176.535 6.00938C176.451 5.86862 176.304 5.7832 176.146 5.7832H175.122C174.869 5.7832 174.664 5.99978 174.664 6.26693V12.8446C174.664 13.1117 174.869 13.3283 175.122 13.3283H175.598C175.851 13.3283 176.057 13.1117 176.057 12.8446V7.97543L179.172 13.1054C179.256 13.2443 179.402 13.3283 179.558 13.3283H180.313Z" fill="black"/>
<path d="M189.504 13.3283C189.758 13.3283 189.963 13.1117 189.963 12.8446V11.9448H186.874V10.1996H189.211C189.464 10.1996 189.67 9.98302 189.67 9.71587V9.37436C189.67 9.10721 189.464 8.89063 189.211 8.89063H186.874V7.16665H189.504C189.758 7.16665 189.963 6.95009 189.963 6.68293V6.26693C189.963 5.99978 189.758 5.7832 189.504 5.7832H185.939C185.686 5.7832 185.48 5.99978 185.48 6.26693V12.8446C185.48 13.1117 185.686 13.3283 185.939 13.3283H189.504Z" fill="black"/>
<path d="M199.147 7.17729C199.4 7.17729 199.606 6.96072 199.606 6.69358V6.26693C199.606 5.99978 199.4 5.7832 199.147 5.7832H194.139C193.886 5.7832 193.68 5.99978 193.68 6.26693V6.69358C193.68 6.96073 193.886 7.17729 194.139 7.17729H195.941V12.8446C195.941 13.1117 196.147 13.3283 196.4 13.3283H196.885C197.138 13.3283 197.344 13.1117 197.344 12.8446V7.17729H199.147Z" fill="black"/>
<path d="M212.022 13.4893C213.784 13.4893 214.792 12.4093 215.198 11.3613C215.29 11.1227 215.15 10.8662 214.916 10.7916L214.477 10.6515C214.231 10.5734 213.977 10.7253 213.854 10.9619C213.561 11.5284 212.987 12.0527 212.022 12.0527C210.872 12.0527 209.801 11.1694 209.801 9.5625C209.801 7.84916 210.931 7.04037 212.002 7.04037C212.97 7.04037 213.521 7.52578 213.798 8.08271C213.921 8.3295 214.183 8.4914 214.435 8.40759L214.874 8.26194C215.104 8.18535 215.242 7.93182 215.152 7.69515C214.748 6.62002 213.749 5.625 212.002 5.625C210.084 5.625 208.357 7.15743 208.357 9.5625C208.357 11.9675 210.023 13.4893 212.022 13.4893Z" fill="black"/>
<path d="M220.461 9.55186C220.461 7.84916 221.592 7.04037 222.692 7.04037C223.803 7.04037 224.933 7.84916 224.933 9.55186C224.933 11.2546 223.803 12.0634 222.692 12.0634C221.592 12.0634 220.461 11.2546 220.461 9.55186ZM219.018 9.5625C219.018 11.9889 220.754 13.4893 222.692 13.4893C224.64 13.4893 226.377 11.9889 226.377 9.5625C226.377 7.1255 224.64 5.625 222.692 5.625C220.754 5.625 219.018 7.1255 219.018 9.5625Z" fill="black"/>
<path d="M238.176 13.3283C238.429 13.3283 238.635 13.1117 238.635 12.8446V6.26693C238.635 5.99978 238.429 5.7832 238.176 5.7832H237.046C236.859 5.7832 236.692 5.90249 236.621 6.08486L234.637 11.2319L232.604 6.08113C232.534 5.90074 232.366 5.7832 232.181 5.7832H231.109C230.855 5.7832 230.65 5.99978 230.65 6.26693V12.8446C230.65 13.1117 230.855 13.3283 231.109 13.3283H231.523C231.777 13.3283 231.982 13.1117 231.982 12.8446V8.08186L233.924 13.0296C233.996 13.2104 234.162 13.3283 234.348 13.3283H234.895C235.081 13.3283 235.249 13.2098 235.319 13.0282L237.263 8.03929V12.8446C237.263 13.1117 237.467 13.3283 237.72 13.3283H238.176Z" fill="black"/>
<path d="M244.743 9.22054V7.06024H245.843C246.54 7.06024 246.964 7.47527 246.964 8.1457C246.964 8.79486 246.54 9.22054 245.843 9.22054H244.743ZM246.015 10.4869C247.428 10.4869 248.367 9.50786 248.367 8.13506C248.367 6.7729 247.428 5.7832 246.015 5.7832H243.799C243.546 5.7832 243.34 5.99978 243.34 6.26693V12.8446C243.34 13.1117 243.546 13.3283 243.799 13.3283H244.275C244.528 13.3283 244.734 13.1117 244.734 12.8446V10.4869H246.015Z" fill="black"/>
<path d="M255.166 13.4986C256.7 13.4986 257.921 12.5089 257.921 10.6572V6.26693C257.921 5.99978 257.716 5.7832 257.462 5.7832H256.987C256.733 5.7832 256.529 5.99978 256.529 6.26693V10.5508C256.529 11.5405 256.013 12.062 255.166 12.062C254.338 12.062 253.813 11.5405 253.813 10.5508V6.26693C253.813 5.99978 253.608 5.7832 253.354 5.7832H252.879C252.625 5.7832 252.42 5.99978 252.42 6.26693V10.6572C252.42 12.5089 253.641 13.4986 255.166 13.4986Z" fill="black"/>
<path d="M267.36 7.17729C267.613 7.17729 267.819 6.96072 267.819 6.69358V6.26693C267.819 5.99978 267.613 5.7832 267.36 5.7832H262.351C262.097 5.7832 261.893 5.99978 261.893 6.26693V6.69358C261.893 6.96073 262.097 7.17729 262.351 7.17729H264.154V12.8446C264.154 13.1117 264.359 13.3283 264.613 13.3283H265.098C265.351 13.3283 265.557 13.1117 265.557 12.8446V7.17729H267.36Z" fill="black"/>
<path d="M275.871 13.3283C276.125 13.3283 276.33 13.1117 276.33 12.8446V11.9448H273.241V10.1996H275.578C275.831 10.1996 276.037 9.98302 276.037 9.71587V9.37436C276.037 9.10721 275.831 8.89063 275.578 8.89063H273.241V7.16665H275.871C276.125 7.16665 276.33 6.95009 276.33 6.68293V6.26693C276.33 5.99978 276.125 5.7832 275.871 5.7832H272.307C272.054 5.7832 271.848 5.99978 271.848 6.26693V12.8446C271.848 13.1117 272.054 13.3283 272.307 13.3283H275.871Z" fill="black"/>
<path d="M284.126 13.0641C284.205 13.2262 284.363 13.3283 284.535 13.3283H285.05C285.395 13.3283 285.617 12.9422 285.457 12.6201L284.274 10.2422C285.213 9.95483 285.798 9.15668 285.798 8.10313C285.798 6.79418 284.91 5.7832 283.517 5.7832H281.18C280.927 5.7832 280.721 5.99978 280.721 6.26693V12.8446C280.721 13.1117 280.927 13.3283 281.18 13.3283H281.665C281.918 13.3283 282.124 13.1117 282.124 12.8446V10.4231H282.851L284.126 13.0641ZM282.124 9.15668V7.06024H283.254C283.962 7.06024 284.375 7.47527 284.375 8.11378C284.375 8.73101 283.962 9.15668 283.254 9.15668H282.124Z" fill="black"/>
<path d="M1.33048 9.22519V7.06196H2.3738C3.03426 7.06196 3.43627 7.47755 3.43627 8.14891C3.43627 8.79893 3.03426 9.22519 2.3738 9.22519H1.33048ZM2.53652 10.4933C3.87657 10.4933 4.76675 9.5129 4.76675 8.13824C4.76675 6.77424 3.87657 5.7832 2.53652 5.7832H0.435081C0.194793 5.7832 0 6.00007 0 6.26758V12.8542C0 13.1216 0.194793 13.3385 0.435081 13.3385H1.3209V10.4933H2.53652Z" fill="#292A2E"/>
<path d="M9.06017 9.55717C9.06017 7.85216 10.1322 7.04229 11.1756 7.04229C12.2285 7.04229 13.3005 7.85216 13.3005 9.55717C13.3005 11.2622 12.2285 12.072 11.1756 12.072C10.1322 12.072 9.06017 11.2622 9.06017 9.55717ZM7.69141 9.56783C7.69141 11.9974 9.33775 13.5 11.1756 13.5C13.0229 13.5 14.6693 11.9974 14.6693 9.56783C14.6693 7.12754 13.0229 5.625 11.1756 5.625C9.33775 5.625 7.69141 7.12754 7.69141 9.56783Z" fill="#292A2E"/>
<path d="M24.412 11.0048L22.9968 6.11894C22.9389 5.91883 22.7717 5.7832 22.5828 5.7832H21.8479C21.6589 5.7832 21.4916 5.91898 21.4338 6.11924L20.0281 10.9835L18.8698 6.1429C18.8191 5.9308 18.6465 5.7832 18.4494 5.7832H17.9588C17.6711 5.7832 17.4625 6.08861 17.5396 6.39726L19.1834 12.9838C19.2357 13.1935 19.4072 13.3385 19.6026 13.3385H20.3329C20.522 13.3385 20.6894 13.2026 20.7472 13.0021L22.2008 7.9571L23.6545 13.0021C23.7124 13.2026 23.8798 13.3385 24.0689 13.3385H24.7796C24.9753 13.3385 25.1469 13.1932 25.1989 12.9832L26.8345 6.39664C26.9111 6.08813 26.7026 5.7832 26.4151 5.7832H25.9732C25.7752 5.7832 25.6022 5.93195 25.5523 6.14516L24.412 11.0048Z" fill="#292A2E"/>
<path d="M34.0746 13.3385C34.3149 13.3385 34.5096 13.1216 34.5096 12.8542V12.4376C34.5096 12.1701 34.3149 11.9532 34.0746 11.9532H31.5807V10.2056H33.797C34.0373 10.2056 34.2321 9.9887 34.2321 9.72119V9.37922C34.2321 9.11171 34.0373 8.89484 33.797 8.89484H31.5807V7.16853H34.0746C34.3149 7.16853 34.5096 6.95166 34.5096 6.68415V6.26758C34.5096 6.00007 34.3149 5.7832 34.0746 5.7832H30.6948C30.4545 5.7832 30.2598 6.00007 30.2598 6.26758V12.8542C30.2598 13.1216 30.4545 13.3385 30.6948 13.3385H34.0746Z" fill="#292A2E"/>
<path d="M41.3287 13.0739C41.403 13.2362 41.5528 13.3385 41.7164 13.3385H42.2046C42.5316 13.3385 42.7418 12.9518 42.5899 12.6293L41.4689 10.2482C42.3591 9.96047 42.9142 9.16125 42.9142 8.10628C42.9142 6.79556 42.0719 5.7832 40.751 5.7832H38.5347C38.2945 5.7832 38.0996 6.00007 38.0996 6.26758V12.8542C38.0996 13.1216 38.2945 13.3385 38.5347 13.3385H38.9951C39.2353 13.3385 39.4302 13.1216 39.4302 12.8542V10.4294H40.1193L41.3287 13.0739ZM39.4302 9.16125V7.06196H40.5021C41.1722 7.06196 41.5646 7.47755 41.5646 8.11694C41.5646 8.735 41.1722 9.16125 40.5021 9.16125H39.4302Z" fill="#292A2E"/>
<path d="M50.2425 13.3385C50.4828 13.3385 50.6776 13.1216 50.6776 12.8542V12.4376C50.6776 12.1701 50.4828 11.9532 50.2425 11.9532H47.7487V10.2056H49.965C50.2053 10.2056 50.4 9.9887 50.4 9.72119V9.37922C50.4 9.11171 50.2053 8.89484 49.965 8.89484H47.7487V7.16853H50.2425C50.4828 7.16853 50.6776 6.95166 50.6776 6.68415V6.26758C50.6776 6.00007 50.4828 5.7832 50.2425 5.7832H46.8628C46.6226 5.7832 46.4277 6.00007 46.4277 6.26758V12.8542C46.4277 13.1216 46.6226 13.3385 46.8628 13.3385H50.2425Z" fill="#292A2E"/>
<path d="M55.5885 11.9746V7.14721H56.651C57.7614 7.14721 58.6802 7.92512 58.6802 9.5662C58.6802 11.2073 57.7518 11.9746 56.6414 11.9746H55.5885ZM56.6893 13.3385C58.6228 13.3385 60.0489 11.9532 60.0489 9.5662C60.0489 7.17918 58.6324 5.7832 56.6989 5.7832H54.7027C54.4624 5.7832 54.2676 6.00007 54.2676 6.26758V12.8542C54.2676 13.1216 54.4624 13.3385 54.7027 13.3385H56.6893Z" fill="#292A2E"/>
<path d="M66.4292 5.7832C66.189 5.7832 65.9941 6.00007 65.9941 6.26758V12.8542C65.9941 13.1216 66.189 13.3385 66.4292 13.3385H68.6168C69.8899 13.3385 70.713 12.454 70.713 11.2286C70.713 10.2908 70.177 9.61948 69.5166 9.43832C70.0813 9.22519 70.5025 8.59647 70.5025 7.81856C70.5025 6.64637 69.7559 5.7832 68.435 5.7832H66.4292ZM67.296 8.90551V7.01934H68.2244C68.8657 7.01934 69.2008 7.38165 69.2008 7.9571C69.2008 8.53253 68.837 8.90551 68.234 8.90551H67.296ZM67.296 12.113V10.1203H68.3872C69.0476 10.1203 69.3922 10.5359 69.3922 11.1327C69.3922 11.7401 69.0093 12.113 68.3679 12.113H67.296Z" fill="#292A2E"/>
<path d="M75.5934 10.1629V12.8542C75.5934 13.1216 75.7882 13.3385 76.0285 13.3385H76.4792C76.7196 13.3385 76.9143 13.1216 76.9143 12.8542V10.1629L78.9051 6.5193C79.0814 6.19652 78.8728 5.7832 78.5334 5.7832H78.0773C77.9205 5.7832 77.776 5.87713 77.6987 6.02905L76.3018 8.77763L74.9047 6.02905C74.8276 5.87713 74.6829 5.7832 74.5261 5.7832H73.9983C73.66 5.7832 73.4511 6.19424 73.6253 6.5171L75.5934 10.1629Z" fill="#292A2E"/>
<defs>
<linearGradient id="paint0_linear_104_1942" x1="109.244" y1="1.18685" x2="121.838" y2="13.557" gradientUnits="userSpaceOnUse">
<stop offset="0.21" stop-color="#F15A24"/>
<stop offset="0.6841" stop-color="#FBB03B"/>
</linearGradient>
<linearGradient id="paint1_linear_104_1942" x1="99.7952" y1="16.8122" x2="87.202" y2="4.44207" gradientUnits="userSpaceOnUse">
<stop offset="0.21" stop-color="#ED1E79"/>
<stop offset="0.8929" stop-color="#522785"/>
</linearGradient>
</defs>
</svg>
