<svg width="24" height="24" viewBox="0 0 24 24" fill="none" xmlns="http://www.w3.org/2000/svg">
<path fill-rule="evenodd" clip-rule="evenodd" d="M0 0H9V9H0V0ZM22 22H24V24H22V22ZM18 22H20V24H15V20H18V17H19V13H22V16H24V18H20V20H18V22ZM11 18H13V15H11V13H13V11H11V13H8V11H11V4H13V11H15V13H17V11H19V13H17V16H15V20H13V24H11V18ZM22 11H24V13H22V11ZM4 11H6V13H4V11ZM0 11H2V13.2H0V11ZM11 0H13V2H11V0ZM0 15H9V24H0.0345731L0 15ZM2 17H7V22H2V17ZM15 0H24V9H15V0ZM17 2H22V7H17V2ZM2 2H7V7H2V2Z" fill="#0E62FF"/>
</svg>
