<svg
  width="24"
  height="24"
  viewBox="0 0 24 24"
  fill="none"
  xmlns="http://www.w3.org/2000/svg"
>
  <path
    stroke="currentColor"
    strokeWidth="2"
    strokeLinecap="round"
    d="M9.02393 9.65484C9.038 9.11985 9.16753 8.67214 9.4125 8.31172C9.66029 7.9513 9.98692 7.68099 10.3924 7.50078C10.8007 7.32057 11.2512 7.23047 11.744 7.23047C12.2818 7.23047 12.7548 7.3248 13.1631 7.51345C13.5742 7.70211 13.8938 7.97102 14.1219 8.32017C14.3528 8.66651 14.4682 9.07761 14.4682 9.55348C14.4682 9.87447 14.4161 10.1617 14.3119 10.4151C14.2106 10.6685 14.0656 10.8938 13.8769 11.0909C13.6882 11.288 13.4644 11.464 13.2053 11.6188C12.9773 11.7596 12.79 11.906 12.6436 12.0581C12.5 12.2102 12.393 12.389 12.3226 12.5945C12.255 12.7972 12.2198 13.0478 12.217 13.3463V13.5002"
  />
  <path
    fill="currentColor"
    d="M12.2065 18.1776C11.9082 18.1776 11.6514 18.0715 11.4359 17.8594C11.2205 17.6473 11.1128 17.3887 11.1128 17.0838C11.1128 16.7855 11.2205 16.5303 11.4359 16.3182C11.6514 16.1061 11.9082 16 12.2065 16C12.5015 16 12.7567 16.1061 12.9722 16.3182C13.1909 16.5303 13.3003 16.7855 13.3003 17.0838C13.3003 17.286 13.2489 17.4699 13.1462 17.6357C13.0467 17.8014 12.9142 17.9339 12.7484 18.0334C12.586 18.1295 12.4054 18.1776 12.2065 18.1776Z"
  />
  <path
    stroke="currentColor"
    strokeWidth="2"
    d="M5.90214 3.17157C6.4802 2.59351 6.76923 2.30448 7.13677 2.15224C7.50432 2 7.91307 2 8.73057 2H15.326C16.1517 2 16.5646 2 16.9351 2.15505C17.3056 2.31011 17.5954 2.60419 18.175 3.19234L20.849 5.90579C21.4171 6.4822 21.7011 6.7704 21.8505 7.13498C22 7.49956 22 7.90419 22 8.71345V15.3431C22 16.1606 22 16.5694 21.8478 16.9369C21.6955 17.3045 21.4065 17.5935 20.8284 18.1716L18.1716 20.8284C17.5935 21.4065 17.3045 21.6955 16.9369 21.8478C16.5694 22 16.1606 22 15.3431 22H8.71345C7.90419 22 7.49956 22 7.13498 21.8505C6.7704 21.7011 6.4822 21.4171 5.90579 20.849L3.19234 18.175C2.60419 17.5954 2.31011 17.3056 2.15505 16.9351C2 16.5646 2 16.1517 2 15.326V8.73057C2 7.91307 2 7.50432 2.15224 7.13677C2.30448 6.76923 2.59351 6.4802 3.17157 5.90214L5.90214 3.17157Z"
  />
</svg>
