<svg width="48" height="48" viewBox="0 0 48 48" fill="none" xmlns="http://www.w3.org/2000/svg">
<path fill-rule="evenodd" clip-rule="evenodd" d="M33.817 5.5C33.817 5.5 14.463 5.508 14.439 5.508C8.91898 5.542 5.50098 9.174 5.50098 14.714V19.312V23.91V33.106C5.50098 38.674 8.94498 42.32 14.513 42.32C14.513 42.32 33.865 42.314 33.891 42.314C39.411 42.28 42.831 38.646 42.831 33.106V14.714C42.831 9.146 39.385 5.5 33.817 5.5Z" stroke="currentColor" stroke-width="2" stroke-linecap="round" stroke-linejoin="round"/>
<circle cx="24.166" cy="23.9102" r="6" stroke="currentColor" stroke-width="2" stroke-linecap="round" stroke-linejoin="round"/>
<path d="M19.2381 18.9822L14.166 13.9102" stroke="currentColor" stroke-width="2" stroke-linecap="round" stroke-linejoin="round"/>
<path d="M34.1659 33.9109L28.7755 28.5195" stroke="currentColor" stroke-width="2" stroke-linecap="round" stroke-linejoin="round"/>
<path d="M28.5788 19.4974L34.166 13.9102" stroke="currentColor" stroke-width="2" stroke-linecap="round" stroke-linejoin="round"/>
<path d="M14.1659 33.9118L19.7881 28.2885" stroke="currentColor" stroke-width="2" stroke-linecap="round" stroke-linejoin="round"/>
</svg>
