<svg width="24" height="24" viewBox="0 0 24 24" fill="none" xmlns="http://www.w3.org/2000/svg">
<path fill-rule="evenodd" clip-rule="evenodd" d="M16.9085 2.75C16.9085 2.75 7.23149 2.754 7.21949 2.754C4.45949 2.771 2.75049 4.587 2.75049 7.357V9.656V11.955V16.553C2.75049 19.337 4.47249 21.16 7.25649 21.16C7.25649 21.16 16.9325 21.157 16.9455 21.157C19.7055 21.14 21.4155 19.323 21.4155 16.553V7.357C21.4155 4.573 19.6925 2.75 16.9085 2.75Z" stroke="#0E62FF" stroke-width="2" stroke-linecap="round" stroke-linejoin="round"/>
<circle cx="12.083" cy="11.9551" r="3" stroke="#0E62FF" stroke-width="2" stroke-linecap="round" stroke-linejoin="round"/>
<path d="M9.61903 9.4911L7.08301 6.95508" stroke="#0E62FF" stroke-width="2" stroke-linecap="round" stroke-linejoin="round"/>
<path d="M17.0829 16.9555L14.3877 14.2598" stroke="#0E62FF" stroke-width="2" stroke-linecap="round" stroke-linejoin="round"/>
<path d="M14.2894 9.74868L17.083 6.95508" stroke="#0E62FF" stroke-width="2" stroke-linecap="round" stroke-linejoin="round"/>
<path d="M7.08267 16.9559L9.89374 14.1442" stroke="#0E62FF" stroke-width="2" stroke-linecap="round" stroke-linejoin="round"/>
</svg>
