<svg width="31" height="18" viewBox="0 0 31 18" fill="none" xmlns="http://www.w3.org/2000/svg">
<path d="M6.47871 3.51839C11.3664 -1.1728 19.3006 -1.1728 24.1883 3.51839L24.7767 4.0873C25.0235 4.32047 25.0235 4.70285 24.7767 4.93601L22.7647 6.86658C22.6413 6.98782 22.442 6.98782 22.3186 6.86658L21.5119 6.09249C18.0953 2.81891 12.5717 2.81891 9.15507 6.09249L8.29142 6.92254C8.16804 7.04378 7.96874 7.04378 7.84536 6.92254L5.83334 4.99197C5.58658 4.75881 5.58658 4.37642 5.83334 4.14326L6.47871 3.51839ZM28.3547 7.5101L30.1484 9.22616C30.3952 9.45933 30.3952 9.84171 30.1484 10.0749L22.0719 17.8251C21.8251 18.0583 21.4265 18.0583 21.1892 17.8251L15.4569 12.3225C15.3999 12.2666 15.2955 12.2666 15.2386 12.3225L9.50623 17.8251C9.25947 18.0583 8.86086 18.0583 8.62359 17.8251L0.518564 10.0749C0.271807 9.84171 0.271807 9.45933 0.518564 9.22616L2.3123 7.5101C2.55906 7.27694 2.95767 7.27694 3.19493 7.5101L8.9273 13.0127C8.98424 13.0687 9.08864 13.0687 9.14558 13.0127L14.8779 7.5101C15.1247 7.27694 15.5233 7.27694 15.7606 7.5101L21.4929 13.0127C21.5499 13.0687 21.6543 13.0687 21.7112 13.0127L27.4436 7.5101C27.7093 7.27694 28.1079 7.27694 28.3547 7.5101Z" fill="#187BFD"/>
</svg>
