<svg width="24" height="24" viewBox="0 0 24 24" fill="none" xmlns="http://www.w3.org/2000/svg">
<g clip-path="url(#clip0_20160_35653)">
<path d="M10.527 4.85092L3.23087 17.3485C3.08044 17.6158 3.00085 17.9188 3.00001 18.2275C2.99916 18.5361 3.0771 18.8396 3.22607 19.1078C3.37504 19.3759 3.58984 19.5994 3.84911 19.7559C4.10838 19.9125 4.40308 19.9966 4.70388 20H19.2961C19.5969 19.9966 19.8916 19.9125 20.1509 19.7559C20.4102 19.5994 20.625 19.3759 20.7739 19.1078C20.9229 18.8396 21.0008 18.5361 21 18.2275C20.9992 17.9188 20.9196 17.6158 20.7691 17.3485L13.473 4.85092C13.3194 4.59116 13.1032 4.3764 12.8452 4.22735C12.5872 4.0783 12.2961 4 12 4C11.7039 4 11.4128 4.0783 11.1548 4.22735C10.8968 4.3764 10.6806 4.59116 10.527 4.85092Z" stroke="#FB923C" stroke-width="2" stroke-linecap="round" stroke-linejoin="round"/>
<path d="M12 16.583H12.01" stroke="#FB923C" stroke-width="2.5" stroke-linecap="round" stroke-linejoin="round"/>
<path d="M12 9.25V12.9167" stroke="#FB923C" stroke-width="2" stroke-linecap="round" stroke-linejoin="round"/>
</g>
<defs>
<clipPath id="clip0_20160_35653">
<rect width="24" height="24" fill="white"/>
</clipPath>
</defs>
</svg>
